<?xml version="1.0" standalone="no"?>
<!DOCTYPE svg PUBLIC "-//W3C//DTD SVG 20010904//EN"
 "http://www.w3.org/TR/2001/REC-SVG-20010904/DTD/svg10.dtd">
<svg version="1.0" xmlns="http://www.w3.org/2000/svg"
 width="300.000000pt" height="169.000000pt" viewBox="0 0 300.000000 169.000000"
 preserveAspectRatio="xMidYMid meet">
<metadata>
Created by potrace 1.10, written by Peter Selinger 2001-2011
</metadata>
<g transform="translate(0.000000,169.000000) scale(0.100000,-0.100000)"
fill="#000000" stroke="none">
<path d="M1220 1675 c28 -16 70 -20 70 -6 0 13 -26 21 -63 21 l-32 -1 25 -14z"/>
<path d="M2173 1674 c0 -17 83 -19 107 -4 8 5 11 10 5 10 -5 1 -33 2 -61 4
-37 2 -51 0 -51 -10z"/>
<path d="M1014 1664 c-17 -13 -17 -13 9 -4 19 7 27 6 27 -1 0 -6 9 -9 19 -6
11 3 28 -1 39 -9 13 -9 28 -10 48 -5 l29 8 -30 13 c-47 18 -120 21 -141 4z"/>
<path d="M1427 1669 c-112 -13 -147 -20 -141 -30 3 -5 22 -7 42 -4 115 18 168
29 177 37 6 5 6 8 0 7 -6 -1 -41 -5 -78 -10z"/>
<path d="M1503 1649 c-5 -3 -39 -11 -77 -17 -38 -6 -74 -16 -80 -23 -8 -9 -5
-10 14 -5 14 4 66 14 115 22 50 9 94 20 99 24 10 10 -61 9 -71 -1z"/>
<path d="M1996 1643 c-6 -6 -70 -15 -111 -15 -22 -1 -84 -7 -138 -15 -80 -12
-101 -13 -113 -2 -11 9 -17 10 -22 2 -4 -7 -14 -11 -22 -11 -32 2 -50 -2 -50
-12 0 -11 19 -11 150 1 52 5 113 9 135 10 22 1 76 5 120 10 44 5 102 10 129
12 74 5 66 22 -9 22 -36 1 -67 -1 -69 -2z"/>
<path d="M2265 1630 c-14 -6 -16 -9 -5 -10 31 -3 56 -7 90 -13 l35 -7 -29 14
c-20 9 -25 15 -15 19 8 3 -2 5 -21 6 -19 0 -44 -4 -55 -9z"/>
<path d="M2675 1629 c4 -6 14 -8 23 -4 8 3 19 0 23 -6 4 -7 12 -8 20 -4 9 6 8
10 -7 16 -29 12 -66 11 -59 -2z"/>
<path d="M2196 1608 c3 -4 -6 -8 -20 -8 -16 0 -26 -6 -26 -15 0 -10 10 -15 33
-15 34 0 77 19 47 21 -10 0 -8 3 5 8 17 7 15 9 -12 13 -18 2 -30 1 -27 -4z"/>
<path d="M1110 1595 c0 -8 9 -15 20 -15 11 0 20 7 20 15 0 8 -9 15 -20 15 -11
0 -20 -7 -20 -15z"/>
<path d="M1970 1580 c-17 -5 4 -8 63 -9 57 -1 86 3 82 9 -7 12 -109 12 -145 0z"/>
<path d="M1286 1549 c-22 -5 -42 -12 -45 -16 -8 -8 71 7 89 18 18 10 7 10 -44
-2z"/>
<path d="M2970 1540 c0 -5 -7 -10 -15 -10 -8 0 -15 -5 -15 -11 0 -6 7 -8 16
-5 9 3 22 6 30 6 8 0 14 7 14 15 0 8 -7 15 -15 15 -8 0 -15 -4 -15 -10z"/>
<path d="M654 1525 c23 -17 16 -18 -36 -6 -21 5 -36 5 -33 1 3 -5 -1 -11 -7
-13 -7 -3 -2 -6 12 -6 18 -1 21 -4 11 -10 -16 -10 32 -18 179 -27 123 -8 128
5 8 18 -46 4 -89 9 -95 10 -9 1 -10 5 -2 15 11 13 10 14 -38 28 -15 4 -15 3 1
-10z"/>
<path d="M1307 1525 c-64 -6 -121 -15 -125 -20 -7 -7 169 1 240 11 42 6 63 25
26 23 -13 -1 -76 -7 -141 -14z"/>
<path d="M930 1520 c-37 -5 -41 -7 -20 -12 37 -9 71 -8 65 2 -3 5 3 11 12 13
25 7 -3 5 -57 -3z"/>
<path d="M480 1502 c-19 -1 -48 -9 -65 -17 -16 -7 -46 -18 -65 -23 l-35 -10
33 -1 c18 -1 49 6 69 14 19 8 63 16 97 16 33 1 52 4 41 6 -11 3 -24 8 -30 12
-5 3 -26 5 -45 3z"/>
<path d="M1860 1500 c-10 -7 6 -8 50 -4 36 4 67 8 69 10 10 9 -105 3 -119 -6z"/>
<path d="M2115 1490 l-40 -19 53 2 c29 1 52 6 51 11 0 5 5 13 13 17 26 17 -37
8 -77 -11z"/>
<path d="M1980 1484 c-81 -21 -82 -25 -5 -19 73 6 84 10 69 24 -5 5 -32 3 -64
-5z"/>
<path d="M2305 1451 c-84 -8 -30 -18 60 -10 39 3 63 6 55 7 -8 1 -24 4 -35 6
-11 2 -47 0 -80 -3z"/>
<path d="M2898 1440 c-9 -10 -14 -21 -10 -24 3 -3 -6 -6 -20 -6 -15 0 -29 -7
-32 -16 -9 -23 -6 -24 38 -17 24 4 34 9 27 16 -5 5 -7 16 -4 23 6 17 40 18 46
2 3 -10 8 -9 22 2 17 14 18 13 12 -2 -4 -12 -2 -18 8 -18 9 0 15 10 15 25 0
22 -3 25 -25 19 -15 -4 -25 -2 -25 5 0 17 -33 11 -52 -9z"/>
<path d="M2769 1437 c-8 -7 -19 -12 -26 -10 -7 3 -9 -3 -6 -16 4 -16 1 -19
-19 -14 -15 4 -20 2 -13 -4 13 -14 75 -25 75 -14 0 5 -8 12 -17 15 -24 10 -2
27 36 28 31 1 57 18 27 18 -8 0 -21 3 -29 6 -8 3 -21 -1 -28 -9z"/>
<path d="M320 1429 c-30 -4 -73 -12 -95 -18 -40 -10 -40 -10 10 -4 143 16 227
30 185 30 -25 0 -70 -3 -100 -8z"/>
<path d="M2451 1415 c-18 -8 -54 -15 -80 -16 -36 0 -42 -2 -26 -10 14 -6 -1
-8 -48 -6 -37 1 -67 -1 -67 -5 0 -3 -8 -5 -17 -3 -10 2 -24 4 -31 4 -31 2 -2
27 39 33 24 3 6 4 -41 1 -47 -2 -89 -9 -94 -14 -14 -13 -83 -11 -108 2 -15 8
-19 8 -13 -1 5 -9 -32 -11 -154 -8 -105 2 -162 -1 -165 -7 -2 -7 81 -10 260
-9 148 1 264 -2 264 -7 0 -14 134 -10 197 6 31 8 72 15 91 15 19 0 31 4 27 10
-3 6 1 10 10 10 9 0 13 5 10 10 -8 13 -13 12 -54 -5z"/>
<path d="M705 1400 c-22 -5 -57 -11 -79 -15 -64 -11 -35 -14 39 -5 39 5 96 10
127 11 31 1 55 6 52 11 -6 10 -85 9 -139 -2z"/>
<path d="M2612 1401 c-7 -4 -6 -11 2 -22 9 -13 20 -15 51 -9 22 4 33 8 25 9
-8 1 -27 7 -41 15 -15 7 -31 11 -37 7z"/>
<path d="M940 1390 c0 -16 88 -15 105 1 5 5 -13 9 -48 9 -31 0 -57 -4 -57 -10z"/>
<path d="M2525 1370 c4 -6 -32 -10 -92 -11 -58 0 -90 -4 -78 -8 11 -4 38 -7
60 -5 22 2 75 6 118 10 85 6 102 18 32 21 -27 1 -43 -2 -40 -7z"/>
<path d="M204 1359 c-3 -6 -14 -9 -24 -6 -10 2 -24 1 -31 -4 -7 -4 44 -9 118
-11 72 -2 129 0 127 4 -2 3 2 9 8 12 7 3 -25 3 -72 0 -61 -4 -81 -2 -70 5 12
8 8 11 -17 11 -17 0 -35 -5 -39 -11z"/>
<path d="M1580 1330 c0 -12 20 -12 75 -1 40 9 39 9 -17 10 -33 0 -58 -3 -58
-9z"/>
<path d="M2055 1320 l-70 -6 65 -1 c36 0 79 3 95 7 26 7 27 8 5 7 -14 0 -56
-3 -95 -7z"/>
<path d="M35 1310 l-40 -7 45 -1 c25 0 54 3 65 8 18 8 18 9 -5 8 -14 -1 -43
-4 -65 -8z"/>
<path d="M2920 1283 c-14 -3 -35 -14 -46 -24 -12 -11 -27 -19 -34 -17 -15 3
-33 -29 -44 -76 -7 -29 -6 -28 37 17 51 52 84 65 128 47 16 -7 32 -10 35 -7 9
9 -6 27 -22 27 -8 0 -14 9 -14 20 0 11 -3 19 -7 19 -5 -1 -19 -4 -33 -6z"/>
<path d="M181 1271 c-18 -12 84 -19 149 -10 l45 6 -46 1 c-25 1 -66 4 -90 7
-24 3 -50 2 -58 -4z"/>
<path d="M2572 1218 c-5 -7 -13 -23 -17 -36 -4 -13 -9 -21 -13 -18 -3 3 -12
-3 -19 -14 -8 -11 -40 -33 -71 -49 -31 -16 -80 -45 -109 -64 -40 -27 -88 -48
-110 -49 -2 0 -24 -5 -50 -12 -28 -7 -65 -9 -88 -5 -22 4 -44 3 -49 -2 -6 -5
-21 -9 -34 -9 -13 0 -21 -4 -18 -8 3 -5 -9 -17 -26 -27 -29 -17 -30 -19 -12
-26 29 -11 34 -10 34 6 0 8 5 15 10 15 6 0 10 -4 10 -10 0 -5 7 -10 15 -10 8
0 15 -4 15 -10 0 -5 5 -10 11 -10 6 0 9 6 6 13 -4 10 3 12 24 9 16 -2 29 -8
29 -11 0 -4 7 -8 15 -8 8 0 15 4 15 8 0 12 -23 24 -42 21 -19 -3 -23 6 -10 23
10 14 46 19 38 6 -4 -6 11 -4 34 4 23 8 44 14 48 13 4 -1 17 3 29 10 19 11 22
10 16 -4 -6 -18 17 -7 114 55 29 18 55 32 58 32 3 -1 14 8 25 19 11 11 26 17
33 14 8 -3 20 2 27 11 7 8 18 15 26 15 7 0 19 8 26 18 7 9 22 19 33 20 11 2
22 8 23 13 6 15 39 10 46 -7 3 -8 11 -12 17 -8 8 4 9 3 5 -4 -4 -7 2 -16 16
-21 13 -5 40 -24 61 -42 22 -18 46 -34 54 -35 9 -2 19 -7 22 -12 7 -10 43 -26
55 -23 11 2 55 -50 53 -63 -1 -6 -6 -15 -12 -19 -6 -5 -4 -7 5 -4 8 2 15 15
15 28 1 19 5 23 23 21 12 -2 22 2 22 8 0 6 -4 8 -10 5 -5 -3 -10 -1 -10 4 0 6
-5 11 -11 11 -28 0 -155 74 -205 120 -62 55 -109 84 -128 77 -7 -3 -18 4 -24
14 -14 22 -26 24 -40 7z"/>
<path d="M2389 1108 c-21 -5 -48 -22 -60 -36 -19 -21 -19 -23 -3 -9 11 9 42
24 67 33 26 9 47 18 47 20 0 5 -7 4 -51 -8z"/>
<path d="M445 1043 c-34 -8 -36 -18 -2 -16 18 1 47 2 65 2 19 1 31 5 27 11 -6
10 -54 12 -90 3z"/>
<path d="M1745 1009 c-38 -17 -81 -36 -95 -42 -35 -16 -77 -57 -59 -58 32 -2
167 2 204 7 67 8 85 14 85 25 0 7 -10 9 -27 5 -73 -16 -93 -19 -130 -17 -27 1
-31 29 -5 37 9 3 24 9 32 12 8 3 20 6 26 7 6 0 19 6 28 14 9 7 16 10 16 7 0
-4 9 -2 20 4 12 6 20 7 20 1 0 -5 14 -12 30 -16 30 -7 41 -29 18 -38 -9 -4
-10 -6 -1 -6 6 -1 20 7 29 17 16 15 17 15 12 0 -4 -9 -4 -19 -1 -22 9 -8 33
21 33 40 0 10 -3 14 -6 11 -4 -4 -20 3 -37 15 -48 34 -110 33 -192 -3z"/>
<path d="M110 1013 c-60 -20 -61 -23 -6 -20 30 1 46 6 46 15 0 10 4 9 16 -2
23 -23 37 -20 17 4 -20 23 -16 23 -73 3z"/>
<path d="M530 1020 c-10 -7 14 -9 77 -8 51 0 90 5 87 9 -7 12 -146 11 -164 -1z"/>
<path d="M2694 944 c-18 -23 -30 -31 -34 -23 -5 7 -10 8 -14 1 -11 -18 18 -20
38 -3 14 12 20 13 23 4 3 -7 10 -13 16 -13 8 0 7 4 -1 12 -19 19 -14 31 13 26
16 -4 22 -1 18 6 -4 6 1 5 10 -3 14 -11 17 -11 17 0 0 9 7 6 18 -7 19 -25 61
-48 69 -40 8 8 -17 36 -32 36 -6 0 -20 9 -30 20 -11 12 -31 20 -51 20 -26 0
-39 -7 -60 -36z"/>
<path d="M1536 949 c3 -5 1 -9 -4 -9 -9 0 -12 -17 -12 -62 0 -22 -4 -28 -20
-28 -11 0 -20 4 -20 9 0 5 -6 9 -12 8 -39 -1 -58 5 -58 18 0 8 -10 20 -22 26
-19 9 -21 9 -10 -2 16 -18 15 -29 -4 -29 -8 0 -12 5 -9 10 3 6 1 10 -4 10 -6
0 -11 -4 -11 -10 0 -5 -4 -10 -9 -10 -6 0 -8 16 -7 35 3 25 0 35 -10 35 -8 0
-14 -4 -14 -10 0 -5 4 -10 9 -10 4 0 6 -11 3 -25 -4 -24 -5 -24 -19 -8 -10 13
-16 15 -19 6 -8 -19 -37 -16 -30 2 7 19 1 19 -19 -1 -15 -15 -17 -15 -29 1
-12 16 -13 16 -29 0 -9 -9 -17 -12 -17 -6 0 6 -3 10 -7 10 -19 -3 -33 2 -33
11 0 5 7 7 15 4 8 -4 15 -1 15 5 0 22 -31 10 -40 -15 -9 -22 -13 -24 -25 -14
-19 16 -19 31 0 24 8 -4 15 -2 15 4 0 11 -49 26 -58 17 -4 -3 0 -10 7 -14 10
-7 10 -10 1 -16 -7 -4 -15 -3 -19 2 -9 14 -48 8 -66 -11 -9 -9 -21 -14 -25
-11 -5 3 -24 -1 -43 -8 -18 -8 -53 -15 -76 -15 -24 -1 -46 -3 -49 -6 -14 -14
12 -16 89 -6 46 5 92 10 102 11 9 0 17 3 17 7 0 13 380 -13 434 -30 17 -5 47
-12 66 -14 19 -3 45 -12 58 -20 12 -8 27 -12 31 -9 14 8 19 -16 11 -46 -7 -22
-3 -29 21 -43 27 -16 31 -36 8 -36 -6 0 -7 6 -3 13 5 8 2 8 -9 -2 -26 -21 -21
-27 23 -26 22 0 40 3 40 8 0 4 -7 7 -15 7 -8 0 -14 3 -14 8 3 20 -3 30 -23 35
-17 5 -19 9 -9 21 9 11 9 15 -1 19 -7 2 2 7 20 11 17 4 32 11 32 14 0 8 -62
37 -97 47 -13 4 -23 13 -23 21 0 8 3 13 8 10 4 -2 6 14 4 36 -3 23 0 38 5 35
5 -3 15 -2 22 2 9 6 5 10 -13 13 -14 3 -23 1 -20 -3z"/>
<path d="M1430 930 c-6 -12 -9 -24 -6 -28 3 -3 6 0 6 7 0 9 10 11 33 7 17 -3
25 -3 17 0 -8 4 -20 13 -27 21 -10 13 -13 12 -23 -7z"/>
<path d="M2556 913 c-13 -13 7 -21 30 -13 14 6 30 8 35 4 5 -3 9 -1 9 4 0 10
-65 14 -74 5z"/>
<path d="M2432 872 c-12 -14 -22 -30 -22 -34 0 -11 -52 -36 -68 -32 -7 1 -8 0
-2 -3 9 -4 -30 -43 -44 -43 -3 0 -6 11 -6 25 0 14 -3 25 -8 25 -4 0 -7 -15 -7
-32 0 -20 -5 -32 -12 -31 -6 1 -14 -4 -17 -12 -3 -9 0 -12 10 -8 9 3 14 -1 14
-15 0 -11 8 -26 17 -33 9 -8 14 -9 10 -2 -11 18 3 43 24 43 10 0 19 6 20 13 0
6 4 3 9 -8 5 -11 9 -14 9 -6 1 7 7 11 16 7 8 -3 15 -1 15 4 0 6 -7 10 -15 10
-9 0 -15 10 -15 26 0 23 3 25 33 22 22 -2 32 -8 31 -19 -1 -9 8 -22 20 -29 11
-7 18 -9 13 -5 -4 5 5 17 20 27 16 10 23 18 16 18 -6 0 -15 -4 -18 -10 -3 -5
-11 -10 -16 -10 -6 0 -7 5 -3 12 4 6 3 8 -3 5 -17 -11 -33 17 -27 49 2 16 14
37 25 46 10 9 16 19 11 22 -5 3 -19 -7 -30 -22z"/>
<path d="M1717 874 c-11 -12 3 -24 28 -24 13 0 27 4 30 10 3 5 0 7 -8 4 -8 -3
-18 -1 -22 5 -7 12 -19 14 -28 5z"/>
<path d="M2155 860 c-9 -29 -1 -34 24 -18 18 11 23 11 31 -2 6 -8 8 -25 5 -37
-3 -13 -1 -23 5 -23 10 0 14 19 11 53 -2 19 19 23 36 6 8 -8 17 -8 30 -1 12 7
34 8 57 2 44 -10 37 2 -10 18 -19 6 -37 6 -47 0 -10 -5 -23 -6 -30 -1 -6 4
-23 8 -37 8 -14 1 -35 4 -47 8 -17 6 -23 3 -28 -13z"/>
<path d="M516 863 c-3 -3 -6 -11 -6 -16 0 -12 136 -1 159 13 11 8 0 9 -39 4
-30 -3 -58 -8 -62 -10 -4 -3 -16 0 -26 5 -11 6 -22 7 -26 4z"/>
<path d="M1907 830 c-16 -19 -16 -20 3 -20 11 0 20 6 20 13 0 8 4 7 10 -3 5
-8 10 -10 10 -4 0 6 -6 16 -13 22 -10 9 -17 6 -30 -8z"/>
<path d="M2900 825 c-9 -10 -9 -15 -1 -15 6 0 11 5 11 10 0 6 5 10 11 10 5 0
7 -5 3 -12 -4 -7 -3 -8 5 -4 16 10 63 -22 55 -37 -5 -9 -4 -9 6 0 14 13 2 30
-37 51 -29 16 -38 15 -53 -3z"/>
<path d="M494 819 c-5 -9 -1 -10 15 -6 17 4 21 2 17 -9 -4 -10 -2 -13 7 -7 18
11 37 14 104 16 103 4 81 15 -31 16 -72 1 -107 -2 -112 -10z"/>
<path d="M1700 812 c0 -7 5 -12 11 -12 6 0 9 -9 6 -20 -3 -12 0 -20 7 -20 6 0
17 9 24 20 10 17 10 20 -6 20 -10 0 -23 5 -30 12 -9 9 -12 9 -12 0z"/>
<path d="M2010 801 c0 -6 9 -11 20 -11 11 0 20 -5 20 -11 0 -5 4 -8 9 -5 5 4
11 0 14 -6 2 -8 8 -9 13 -4 5 5 4 11 -4 13 -6 3 -10 8 -8 12 3 4 -3 7 -12 7
-9 1 -25 4 -34 9 -11 4 -18 3 -18 -4z"/>
<path d="M1844 786 c5 -13 2 -17 -9 -12 -8 3 -22 9 -30 12 -11 5 -14 2 -8 -12
4 -11 3 -15 -5 -10 -6 4 -16 -3 -22 -16 -9 -19 -9 -21 2 -8 22 26 45 14 40
-20 -3 -24 -1 -30 14 -30 14 0 16 2 6 9 -10 6 -8 15 12 38 23 28 24 32 10 49
-15 18 -15 18 -10 0z"/>
<path d="M1332 771 c2 -12 -5 -15 -32 -14 -28 2 -31 1 -15 -6 29 -14 78 -13
70 0 -4 6 2 13 14 16 31 8 25 22 -9 21 -22 -1 -29 -6 -28 -17z"/>
<path d="M2110 754 c0 -10 -6 -14 -15 -10 -8 3 -15 0 -15 -7 0 -16 -37 -39
-45 -28 -3 5 0 11 6 13 6 2 -8 3 -30 3 -30 0 -42 -5 -50 -20 -14 -27 -35 -59
-42 -65 -3 -3 -19 -30 -35 -60 -17 -30 -41 -72 -53 -92 -13 -21 -19 -38 -13
-38 5 0 12 7 16 15 4 11 14 14 36 10 16 -3 30 -1 30 4 0 5 -12 11 -27 13 l-28
3 23 23 c12 12 20 27 17 32 -4 6 6 15 22 21 22 8 25 12 13 20 -11 8 -9 9 10 5
14 -3 30 -6 37 -6 7 0 10 -7 7 -15 -5 -12 -10 -13 -20 -4 -11 9 -14 5 -14 -22
0 -19 -3 -44 -6 -56 -5 -19 -2 -23 19 -23 38 0 87 -12 87 -21 0 -18 -91 -32
-103 -15 -5 7 -7 3 -5 -9 3 -13 11 -20 26 -19 12 0 22 -5 22 -13 0 -7 6 -13
14 -13 7 0 16 -9 19 -20 4 -14 14 -20 35 -20 32 0 51 15 30 23 -10 4 -10 7 0
15 11 7 10 10 -3 16 -23 9 -24 8 -18 -13 3 -10 -2 -21 -10 -24 -11 -4 -14 3
-13 31 1 21 5 43 10 50 4 7 2 20 -6 29 -10 13 -10 17 0 20 17 6 15 20 -3 20
-8 0 -12 -4 -9 -9 3 -4 0 -8 -5 -8 -6 0 -11 4 -11 9 0 5 -8 8 -17 7 -12 -1
-18 7 -19 22 -1 22 19 31 31 12 3 -5 -1 -10 -9 -10 -9 0 -16 -4 -16 -10 0 -5
4 -10 9 -10 11 0 36 30 25 30 -5 0 -2 5 6 10 12 8 11 10 -7 10 -27 0 -30 15
-6 28 14 9 14 10 -4 16 -12 4 -25 6 -29 5 -41 -7 -47 39 -9 76 28 29 42 31 73
9 17 -12 22 -12 20 -2 -2 7 3 12 10 11 6 -2 12 2 12 7 0 6 11 10 24 10 14 0
28 5 32 12 5 7 2 8 -7 3 -11 -6 -12 -5 -1 6 16 18 15 29 -3 29 -8 0 -15 -7
-15 -16z"/>
<path d="M1410 725 c-19 -14 -30 -25 -26 -25 5 0 2 -8 -5 -17 -7 -10 0 -6 17
10 17 15 34 24 39 20 4 -5 5 -3 2 4 -4 6 -1 13 5 16 7 2 10 7 7 11 -3 3 -21
-5 -39 -19z"/>
<path d="M1703 710 c1 -17 9 -26 23 -28 18 -3 21 1 17 22 -3 15 -9 26 -14 26
-5 0 -6 -7 -3 -15 4 -8 1 -15 -4 -15 -6 0 -13 8 -16 18 -3 10 -4 6 -3 -8z"/>
<path d="M1882 713 c-10 -18 -8 -19 22 -19 18 1 33 6 33 13 0 6 -7 9 -15 6 -8
-3 -18 0 -22 7 -6 10 -10 8 -18 -7z"/>
<path d="M1284 709 c-3 -6 -15 -9 -25 -6 -10 3 -17 0 -16 -5 2 -11 -79 -39
-88 -30 -3 3 -5 0 -5 -6 0 -16 93 -5 105 12 6 8 26 21 45 29 28 12 31 16 13
16 -12 1 -25 -4 -29 -10z"/>
<path d="M2140 712 c0 -5 14 -7 30 -4 17 2 30 0 30 -4 0 -17 -15 -32 -35 -36
-17 -3 -15 -6 13 -20 18 -9 30 -12 27 -7 -4 5 -1 9 4 9 6 0 11 -7 11 -15 0 -8
-7 -15 -16 -15 -8 0 -13 -4 -10 -9 8 -12 46 -2 47 13 1 6 5 -2 8 -19 7 -29 7
-29 12 12 4 40 3 42 -18 37 -15 -4 -23 -2 -23 6 0 9 -4 9 -17 -1 -15 -12 -16
-12 -9 6 21 52 20 55 -18 55 -20 0 -36 -4 -36 -8z"/>
<path d="M2424 709 c-3 -6 0 -15 7 -20 18 -11 26 -11 34 1 3 6 -2 10 -12 11
-16 0 -16 1 2 9 19 8 19 9 -2 9 -12 1 -25 -4 -29 -10z"/>
<path d="M1512 674 c-7 -13 -19 -24 -27 -24 -9 0 -27 -7 -40 -16 -15 -10 -25
-12 -25 -5 0 15 -16 14 -32 -2 -7 -7 -22 -14 -33 -15 -41 -3 -85 -15 -85 -22
0 -4 11 -11 25 -14 14 -4 23 -11 20 -16 -3 -6 1 -7 9 -4 9 3 16 15 16 25 0 10
5 19 10 19 6 0 10 -9 10 -20 0 -11 -4 -20 -10 -20 -5 0 -19 -18 -30 -40 -18
-36 -23 -39 -50 -33 -18 3 -30 1 -30 -5 0 -11 83 -22 88 -11 7 17 42 -5 42
-27 0 -17 4 -22 16 -17 9 3 11 8 6 12 -6 3 -14 19 -17 34 -6 22 -12 27 -26 24
-14 -4 -19 0 -19 15 0 18 2 19 18 7 15 -13 16 -12 4 2 -11 15 -9 18 17 27 16
6 33 7 37 4 5 -4 2 1 -5 10 -7 10 -18 15 -23 12 -6 -4 -8 2 -6 12 2 13 13 20
36 22 30 3 33 1 27 -18 -6 -18 -3 -20 21 -17 30 4 42 21 23 33 -8 4 -9 3 -5
-4 4 -7 1 -12 -8 -12 -12 0 -13 5 -7 23 6 15 15 21 30 19 13 -2 20 2 19 9 -2
6 5 13 15 14 28 5 31 12 15 29 -14 13 -17 12 -26 -10z"/>
<path d="M2350 676 c0 -15 28 -73 32 -67 2 2 14 -1 28 -9 14 -7 22 -9 18 -5
-4 4 0 14 10 22 15 12 13 13 -17 7 -37 -7 -51 5 -51 44 0 12 -4 22 -10 22 -5
0 -10 -6 -10 -14z"/>
<path d="M1785 660 c-4 -11 -11 -18 -16 -14 -5 3 -6 10 -3 16 4 6 1 9 -7 6 -8
-3 -14 -15 -13 -27 0 -11 -4 -21 -9 -21 -6 0 -8 -2 -5 -5 12 -12 58 8 58 24 0
9 5 22 12 29 9 9 9 12 1 12 -7 0 -15 -9 -18 -20z"/>
<path d="M1842 670 c2 -18 -4 -23 -11 -11 -7 11 -11 10 -19 -5 -9 -17 -6 -19
21 -17 44 2 44 2 29 12 -11 7 -10 9 3 14 9 4 14 3 11 -1 -2 -4 0 -14 6 -22 8
-12 9 -12 4 3 -3 9 0 17 6 17 6 0 8 3 4 8 -9 8 -55 11 -54 2z"/>
<path d="M2461 671 c-11 -7 -12 -15 -5 -30 7 -15 13 -18 24 -11 13 8 12 10 -2
10 -10 0 -18 3 -18 6 0 4 8 13 18 20 19 15 5 19 -17 5z"/>
<path d="M1121 653 c-8 -9 -25 -13 -42 -11 -22 3 -26 1 -18 -8 7 -8 5 -11 -5
-10 -8 0 -15 -3 -15 -9 0 -5 -10 -13 -22 -17 -36 -14 -15 -20 38 -12 26 4 40
10 31 12 -10 2 -15 9 -11 18 4 11 9 12 18 4 10 -8 27 -7 62 4 37 11 42 15 21
15 -15 1 -31 7 -35 15 -7 12 -10 12 -22 -1z"/>
<path d="M1681 645 c-11 -47 -7 -144 5 -132 3 3 7 17 10 33 3 22 2 25 -6 14
-9 -13 -10 -13 -10 0 0 8 5 22 10 30 6 9 10 10 10 3 0 -6 12 -13 28 -15 22 -2
26 -7 24 -25 -2 -13 2 -23 7 -23 6 0 11 9 11 20 0 11 5 20 10 20 6 0 10 5 10
11 0 6 -7 8 -16 5 -9 -4 -23 -1 -30 5 -7 6 -18 8 -24 4 -5 -3 -10 1 -10 10 0
9 -4 14 -9 10 -5 -3 -12 5 -14 17 -2 13 -5 19 -6 13z"/>
<path d="M1613 616 c-18 -12 -32 -25 -33 -30 0 -6 5 -5 12 2 15 15 38 16 38 1
0 -5 -4 -8 -9 -4 -5 3 -12 1 -16 -5 -3 -5 1 -10 10 -10 13 0 16 -6 11 -25 -4
-14 -2 -25 3 -25 5 0 18 -3 28 -7 16 -6 16 -5 4 10 -7 9 -18 14 -25 11 -6 -3
-2 2 8 10 11 9 14 16 8 16 -16 0 -15 33 0 48 23 23 -7 29 -39 8z"/>
<path d="M2076 621 c-10 -11 -25 -17 -34 -14 -14 4 -15 3 -2 -6 10 -7 19 -6
31 5 18 16 33 19 24 4 -3 -5 -1 -10 4 -10 13 0 14 10 3 28 -7 9 -13 8 -26 -7z"/>
<path d="M2580 633 c0 -16 17 -26 25 -13 4 7 12 7 25 0 24 -13 33 -13 28 1 -5
16 -58 21 -58 6 0 -7 -4 -6 -10 3 -6 9 -10 10 -10 3z"/>
<path d="M2333 599 c-26 -9 -31 -26 -8 -26 8 0 15 3 15 7 0 4 11 5 25 2 29 -5
33 3 8 16 -10 6 -28 6 -40 1z"/>
<path d="M2560 599 c0 -7 -13 -9 -37 -6 -21 3 -30 3 -20 1 9 -3 17 -9 17 -14
0 -15 -33 -21 -42 -8 -8 10 -9 10 -6 -1 2 -8 13 -19 24 -25 10 -6 22 -15 26
-21 4 -6 8 -2 8 8 0 9 -8 17 -17 18 -14 0 -15 2 -3 6 8 3 18 11 22 17 4 6 25
10 48 9 22 -1 38 2 35 7 -3 5 -12 7 -20 3 -8 -3 -15 0 -15 6 0 6 -4 11 -10 11
-5 0 -10 -5 -10 -11z"/>
<path d="M2018 578 c-18 -5 -15 -6 15 -7 20 -1 37 -5 37 -11 0 -5 12 -9 28 -9
22 1 23 2 5 6 -12 2 -20 10 -17 16 5 13 -30 16 -68 5z"/>
<path d="M2201 578 c0 -10 -8 -18 -16 -18 -8 0 -15 -4 -15 -10 0 -5 17 -7 40
-4 32 5 40 3 40 -10 0 -9 4 -16 9 -16 12 0 32 26 26 32 -3 3 7 3 22 -1 26 -5
27 -6 5 -9 -22 -3 -23 -4 -5 -17 11 -9 13 -14 5 -15 -7 0 -10 -4 -7 -10 9 -15
25 -12 25 4 0 8 7 22 16 31 20 19 19 21 -28 29 -21 4 -39 2 -43 -4 -3 -5 -11
-10 -16 -10 -6 0 -8 4 -5 9 3 4 -5 6 -18 4 -17 -4 -25 0 -29 14 -4 16 -5 16
-6 1z"/>
<path d="M966 571 c-4 -5 -24 -12 -46 -16 -22 -4 -42 -10 -45 -15 -3 -4 -23
-4 -45 1 -31 7 -47 6 -68 -6 -26 -15 -26 -16 -2 -9 14 4 31 7 38 6 6 -1 23 -2
37 -3 30 -2 33 -19 5 -26 -18 -5 -20 -14 -20 -77 l0 -73 -30 5 c-23 3 -30 0
-30 -12 0 -19 -3 -18 38 -7 23 7 36 6 44 -3 19 -18 48 -27 42 -13 -3 9 8 12
36 12 25 0 45 6 50 15 5 8 10 11 10 5 0 -5 11 -10 25 -10 28 0 33 10 9 19 -26
10 -52 7 -58 -6 -3 -7 -5 6 -4 29 3 50 -3 58 -31 43 -15 -7 -21 -20 -21 -43 0
-21 -7 -36 -20 -45 -19 -12 -20 -10 -20 77 l0 89 32 7 c37 9 164 58 132 52
-12 -3 -28 0 -37 4 -9 6 -18 5 -21 0z"/>
<path d="M1144 570 c-28 -11 -38 -27 -23 -36 8 -4 9 -3 5 4 -5 8 0 12 13 12
11 0 23 5 26 11 10 15 3 18 -21 9z"/>
<path d="M1544 572 c3 -5 -17 -14 -44 -21 -38 -10 -50 -17 -50 -32 0 -10 7
-19 15 -19 22 0 18 -28 -5 -35 -11 -4 -18 -11 -15 -16 4 -5 1 -9 -4 -9 -6 0
-11 7 -11 15 0 8 -7 15 -15 15 -8 0 -15 -3 -15 -6 0 -12 34 -33 53 -34 15 0
21 -10 19 -31 -1 -4 10 -9 23 -12 17 -3 25 0 25 10 0 9 -6 13 -15 9 -12 -4
-14 0 -9 19 4 17 2 25 -6 25 -7 0 -1 11 14 25 25 23 29 24 43 10 9 -9 22 -14
30 -11 9 4 13 0 11 -11 -2 -10 3 -18 10 -18 7 0 17 -7 22 -15 5 -8 10 -10 10
-4 0 6 -6 17 -14 24 -8 6 -12 18 -9 25 3 8 -2 22 -11 30 -14 14 -16 14 -16 1
0 -8 -6 -18 -12 -22 -7 -4 -10 -4 -6 1 8 9 -9 28 -34 38 -13 4 -15 2 -11 -10
5 -12 3 -14 -7 -8 -10 6 -12 4 -7 -8 3 -10 3 -17 -2 -17 -10 0 -25 50 -18 57
3 2 15 5 28 5 13 1 32 7 42 14 16 10 16 12 2 18 -9 3 -14 2 -11 -2z"/>
<path d="M2666 561 c-11 -12 -14 -21 -7 -26 6 -3 11 -1 11 5 0 7 8 9 21 5 18
-6 20 -5 10 14 -14 26 -14 26 -35 2z"/>
<path d="M2596 530 c-6 -36 -8 -39 -26 -30 -10 5 -27 10 -37 9 -10 0 2 -8 27
-16 32 -12 45 -13 48 -5 6 20 32 13 32 -8 0 -21 15 -27 25 -10 4 6 15 6 30 0
14 -5 25 -6 25 -1 0 13 -47 20 -58 9 -6 -6 -12 -1 -15 12 -4 16 -2 20 9 16 9
-4 12 -2 8 5 -3 6 -17 9 -30 6 -13 -2 -24 0 -24 4 0 5 8 9 18 10 14 0 14 2 -3
9 -11 5 -14 9 -7 9 7 1 10 6 7 11 -12 20 -23 9 -29 -30z"/>
<path d="M1221 543 c-15 -11 -15 -12 0 -13 9 0 32 7 50 14 l34 15 -34 -2 c-19
-1 -41 -7 -50 -14z"/>
<path d="M2440 550 c0 -5 -8 -17 -18 -27 -11 -10 -22 -26 -25 -36 -6 -15 -4
-16 14 -6 14 7 19 7 15 0 -4 -5 2 -15 13 -20 25 -14 34 -14 26 0 -4 6 -1 9 7
7 24 -5 26 27 2 36 -14 5 -15 4 -4 -9 10 -13 9 -15 -8 -15 -31 0 -36 29 -7 36
14 3 22 10 20 15 -3 4 -13 5 -23 2 -15 -6 -15 -5 -3 10 9 11 10 17 2 17 -6 0
-11 -4 -11 -10z"/>
<path d="M1370 520 c0 -10 9 -24 20 -30 15 -8 20 -8 20 2 0 8 -9 21 -20 31
-19 16 -20 16 -20 -3z"/>
<path d="M1785 531 c3 -5 -1 -11 -7 -14 -9 -3 -6 -11 10 -26 12 -12 22 -17 22
-12 0 6 -8 15 -17 20 -17 10 -17 10 0 11 21 0 22 16 1 24 -8 3 -13 2 -9 -3z"/>
<path d="M2089 526 c10 -12 45 -15 71 -6 8 3 -43 18 -64 19 -15 1 -16 -2 -7
-13z"/>
<path d="M2212 523 c-9 -13 -14 -14 -18 -6 -4 10 -11 9 -29 -3 -12 -8 -28 -13
-35 -12 -7 2 -14 -2 -17 -9 -3 -8 6 -10 29 -8 18 3 34 9 36 13 2 8 25 8 87 0
13 -2 20 4 23 17 3 18 2 19 -11 3 -9 -12 -17 -14 -30 -6 -10 5 -15 13 -12 19
11 17 -10 9 -23 -8z"/>
<path d="M1243 517 c-3 -5 -12 -6 -20 -3 -8 3 -11 1 -8 -4 3 -6 0 -10 -8 -10
-10 0 -14 -9 -13 -25 0 -14 7 -25 14 -25 6 0 12 -5 12 -12 0 -9 3 -9 13 1 10
10 8 15 -10 29 l-23 17 30 17 c17 10 32 13 35 7 9 -13 25 -11 25 4 0 14 -38
18 -47 4z"/>
<path d="M977 501 c-26 -10 -53 -23 -60 -30 -7 -7 3 -6 25 4 21 8 49 16 63 17
14 1 25 8 25 15 0 7 -1 13 -2 12 -2 0 -25 -9 -51 -18z"/>
<path d="M1139 509 c-8 -5 -26 -9 -41 -9 -33 0 -37 -15 -7 -23 15 -4 20 -12
17 -24 -4 -16 0 -18 34 -15 28 3 38 9 37 21 0 10 -2 11 -6 4 -2 -7 -9 -13 -15
-13 -6 0 -8 7 -4 15 3 8 1 15 -4 15 -5 0 -11 -8 -13 -17 -3 -10 -4 -6 -4 9 1
19 6 25 19 23 10 -2 20 0 23 5 7 12 -20 19 -36 9z"/>
<path d="M747 474 c-4 -20 -1 -24 12 -18 9 3 24 9 34 11 27 8 20 29 -12 31
-24 2 -29 -2 -34 -24z"/>
<path d="M2284 479 c-5 -9 16 -16 43 -14 14 1 23 -5 27 -19 3 -11 4 -21 2 -23
-7 -7 -105 35 -98 43 4 4 -2 2 -12 -6 -17 -13 -17 -15 -2 -18 9 -2 14 -7 11
-12 -3 -4 15 -14 40 -22 25 -9 45 -11 45 -6 0 5 4 7 10 3 5 -3 7 -11 4 -18 -2
-7 4 -21 15 -31 19 -17 19 -17 14 6 -6 20 -4 21 9 10 10 -8 14 -21 10 -35 -5
-21 -4 -21 15 -4 19 17 21 16 48 -8 15 -15 29 -24 32 -21 8 8 -18 47 -28 41
-5 -4 -12 1 -15 10 -4 10 -13 13 -26 9 -14 -4 -21 0 -25 15 -3 12 -9 21 -13
21 -4 0 -13 18 -20 39 -11 34 -17 40 -47 43 -19 2 -36 1 -39 -3z"/>
<path d="M678 468 c-16 -5 -28 -14 -28 -20 0 -5 -10 -7 -22 -3 -16 4 -19 4 -9
-3 10 -7 -2 -15 -44 -31 -32 -12 -64 -20 -70 -17 -7 2 -34 -6 -61 -19 -27 -14
-56 -24 -64 -24 -8 0 -1 7 17 15 17 7 34 18 38 24 3 5 -14 1 -39 -10 -25 -10
-75 -26 -113 -36 -73 -18 -185 -69 -237 -109 -18 -14 -36 -22 -39 -18 -4 3 -7
-3 -7 -15 0 -25 25 -29 49 -9 9 7 44 24 79 38 34 13 62 27 62 31 0 4 17 10 38
13 20 4 46 9 57 12 20 6 20 6 0 14 -17 6 -16 8 8 8 38 1 117 22 142 37 11 6
55 19 98 29 42 9 75 21 72 26 -4 5 0 9 8 9 8 0 26 9 39 20 14 10 28 16 32 13
3 -3 6 -1 6 5 0 7 9 12 21 12 11 0 17 5 14 10 -7 12 -11 12 -47 -2z"/>
<path d="M1020 458 c-19 -10 -39 -20 -45 -22 -5 -2 -7 -7 -3 -11 4 -4 26 2 50
13 24 12 50 22 58 25 10 2 9 5 -5 8 -11 3 -36 -3 -55 -13z"/>
<path d="M1710 461 c0 -29 23 -43 45 -27 18 13 12 42 -7 30 -6 -4 -5 -10 3
-15 10 -6 8 -9 -8 -9 -16 0 -20 5 -16 20 3 11 0 20 -6 20 -6 0 -11 -8 -11 -19z"/>
<path d="M2140 460 c-18 -5 -21 -9 -10 -13 31 -11 90 -15 90 -6 0 5 -7 9 -15
9 -8 0 -15 5 -15 10 0 11 -14 11 -50 0z"/>
<path d="M565 441 c-16 -10 -33 -17 -36 -15 -4 2 -12 -3 -19 -11 -16 -20 -5
-19 47 3 24 9 43 23 43 30 0 14 2 15 -35 -7z"/>
<path d="M2402 443 c3 -15 75 -60 83 -52 2 2 -3 13 -11 24 -12 16 -17 17 -23
6 -6 -9 -11 -10 -15 -2 -4 6 -5 15 -2 20 3 5 -3 11 -15 14 -15 4 -19 1 -17
-10z"/>
<path d="M2573 441 c-3 -12 -11 -17 -19 -14 -9 3 -14 -2 -14 -13 0 -11 4 -15
8 -9 12 17 27 15 40 -6 11 -18 10 -19 -15 -14 -26 5 -27 5 -5 -5 27 -12 46 -3
48 23 2 13 -1 15 -11 7 -9 -8 -14 -6 -19 6 -11 28 -7 32 19 21 14 -7 25 -15
25 -19 0 -5 5 -8 12 -8 6 0 1 11 -12 25 -28 30 -50 32 -57 6z"/>
<path d="M1290 440 c0 -5 7 -10 15 -10 8 0 15 -4 15 -10 0 -5 -8 -7 -17 -3
-17 6 -17 5 0 -15 13 -14 17 -28 12 -44 -5 -20 -4 -20 5 -5 6 9 15 17 20 17 5
0 11 -8 13 -17 4 -16 6 -15 12 4 4 12 12 20 18 17 7 -2 12 6 12 21 0 23 -1 24
-13 8 -10 -15 -14 -15 -21 -4 -5 7 -14 10 -20 7 -6 -4 -11 -1 -11 8 0 8 -9 20
-20 26 -14 7 -20 7 -20 0z"/>
<path d="M1780 425 c0 -17 -5 -36 -12 -43 -9 -9 -9 -12 1 -12 7 0 9 -5 5 -11
-4 -7 1 -7 16 1 28 15 32 10 10 -13 -18 -18 -19 -18 -38 1 -11 11 -22 19 -24
17 -2 -2 -16 -6 -32 -9 -40 -7 -59 -25 -45 -42 8 -10 8 -14 1 -14 -6 0 -16 8
-22 18 -10 15 -10 15 -7 -3 2 -15 10 -19 32 -18 17 2 42 -1 58 -7 17 -5 27 -5
27 1 0 5 -9 9 -19 9 -10 0 -29 9 -42 20 l-24 19 23 1 c13 0 21 -4 18 -9 -3 -5
5 -11 19 -13 14 -3 25 -2 25 2 0 4 27 7 60 8 49 0 63 -3 73 -19 6 -10 17 -19
23 -19 18 0 27 -32 12 -42 -14 -8 -12 -9 44 -12 14 -1 32 -7 40 -14 8 -6 18
-9 21 -5 4 3 7 2 7 -4 0 -6 -6 -16 -14 -22 -11 -10 -16 -8 -21 8 -3 12 -11 21
-16 21 -12 0 11 -40 36 -61 12 -11 29 -16 42 -13 15 4 25 -1 33 -16 8 -15 15
-19 22 -12 12 12 -8 55 -23 47 -5 -4 -9 -1 -9 4 0 6 -5 11 -11 11 -5 0 -8 -4
-5 -9 10 -15 -19 -19 -38 -5 -18 13 -17 14 13 31 17 10 31 25 31 33 -1 12 -3
12 -14 -3 -11 -14 -15 -15 -24 -4 -7 8 -7 18 -2 27 6 8 10 11 10 6 0 -5 7 -3
15 4 11 9 15 9 15 1 0 -7 9 -9 25 -5 15 4 32 1 40 -6 10 -8 15 -9 15 -2 0 31
-81 42 -118 16 -21 -15 -27 -10 -23 18 0 4 -11 16 -26 28 -23 18 -28 19 -43 5
-15 -14 -18 -13 -32 2 -8 10 -13 24 -11 31 3 6 0 12 -6 12 -6 0 -11 -4 -11 -8
0 -16 -27 -9 -39 10 -9 14 -8 18 4 18 8 0 15 -6 15 -12 0 -9 3 -9 9 1 8 12 14
13 37 2 40 -18 50 0 20 35 -23 27 -25 27 -23 7 1 -13 10 -24 21 -27 11 -3 18
-8 15 -11 -3 -3 -21 1 -40 9 -20 9 -27 15 -16 16 10 0 16 4 12 9 -3 6 -28 -2
-55 -16 -28 -14 -54 -23 -58 -19 -11 11 30 38 51 32 9 -2 14 0 11 5 -3 6 -13
9 -22 7 -10 -2 -22 5 -29 17 -12 19 -12 18 -13 -10z m210 -140 c0 -20 -30 -27
-46 -11 -12 13 -12 16 3 24 20 12 43 5 43 -13z"/>
<path d="M763 433 c-7 -2 -13 -11 -13 -18 0 -7 -10 -20 -23 -28 -29 -19 -31
-47 -3 -47 19 0 19 1 2 13 -17 13 -17 14 7 29 13 9 31 23 38 31 8 7 21 16 29
20 11 4 9 5 -5 5 -11 0 -26 -2 -32 -5z"/>
<path d="M1570 430 c-1 -8 -2 -21 -1 -27 1 -8 -5 -10 -14 -7 -10 4 -14 2 -10
-8 7 -16 44 -18 61 -3 17 14 5 28 -11 15 -11 -9 -14 -5 -18 17 -2 15 -5 21 -7
13z"/>
<path d="M2090 420 c-14 -4 -18 -8 -10 -9 21 -1 43 -38 27 -45 -17 -7 12 -26
30 -19 11 4 11 9 -3 24 -16 18 -16 20 2 35 18 14 18 15 -5 8 -16 -4 -21 -3
-17 5 4 6 6 11 4 10 -2 -1 -14 -5 -28 -9z"/>
<path d="M2183 414 c0 -9 6 -13 14 -10 9 4 11 1 7 -6 -5 -7 0 -9 14 -6 12 4
22 2 22 -3 0 -5 -6 -9 -12 -9 -11 0 10 -15 50 -36 7 -4 18 -2 25 5 10 10 1 13
-29 10 -4 0 -12 10 -18 22 -14 29 -73 55 -73 33z"/>
<path d="M1075 411 c3 -6 -3 -14 -12 -20 -16 -9 -15 -10 6 -8 19 1 26 -4 32
-25 4 -17 3 -29 -4 -32 -7 -2 -4 -5 7 -5 16 -1 17 -3 5 -18 -10 -11 -10 -14
-1 -9 6 4 12 2 12 -3 0 -6 -8 -11 -17 -11 -9 0 -14 -3 -10 -6 3 -4 20 -2 36 4
17 6 31 7 31 2 0 -20 -13 -40 -26 -40 -8 0 -13 -5 -11 -11 1 -6 -4 -14 -10
-16 -7 -3 -13 2 -13 11 0 12 -5 14 -25 6 -13 -5 -27 -5 -29 -1 -9 15 -55 19
-49 5 5 -14 -31 -29 -47 -19 -5 3 -10 1 -10 -4 0 -6 7 -11 15 -11 17 0 15 -30
-3 -53 -18 -21 18 -29 49 -10 l24 14 -29 -6 c-25 -5 -28 -4 -17 8 9 12 9 16
-1 20 -15 5 36 28 69 30 11 1 19 5 16 10 -7 12 11 7 31 -8 14 -11 16 -15 5
-15 -12 0 -12 -2 0 -9 7 -5 11 -13 7 -19 -8 -13 94 -13 111 0 14 11 113 16
113 6 0 -5 -4 -8 -10 -8 -5 0 -10 -7 -10 -15 0 -8 8 -15 17 -15 15 0 14 -2 -3
-16 -18 -14 -18 -15 4 -4 12 6 32 10 44 8 12 -2 23 3 26 11 3 9 -1 11 -16 7
-11 -4 -23 -2 -27 3 -3 7 0 8 9 5 9 -3 17 -1 18 5 5 38 5 38 -97 46 -27 2 -52
4 -55 5 -3 1 -9 2 -14 1 -5 -1 -4 4 2 12 7 8 9 17 5 20 -3 4 3 7 14 7 11 0 26
-7 33 -15 9 -11 25 -14 54 -11 23 3 46 5 51 6 6 0 3 5 -5 11 -12 8 -9 9 13 5
15 -4 27 -2 27 4 0 5 5 10 11 10 5 0 7 -5 4 -11 -5 -7 14 -8 58 -5 37 3 67 1
69 -4 2 -5 13 -7 26 -3 l23 6 -23 12 c-13 6 -35 10 -50 8 -14 -2 -29 0 -32 6
-3 5 -15 7 -26 4 -11 -3 -17 -9 -14 -14 3 -5 1 -9 -4 -9 -6 0 -12 7 -16 15 -5
15 -57 21 -69 8 -7 -7 -77 -14 -77 -7 0 11 35 42 42 38 4 -3 8 0 8 5 0 6 8 11
18 11 10 0 23 5 30 12 9 9 13 8 17 -4 4 -10 14 -14 26 -11 12 3 19 0 19 -8 0
-11 2 -11 10 1 20 30 11 40 -35 40 -25 0 -45 -5 -45 -11 0 -6 -8 -8 -19 -4
-13 4 -27 -1 -40 -14 -12 -12 -28 -21 -37 -21 -10 0 -14 -5 -10 -15 4 -11 -3
-17 -24 -22 -16 -3 -41 -16 -56 -29 -20 -19 -29 -22 -42 -13 -16 10 -16 10 0
5 10 -3 20 -1 23 4 4 6 1 10 -4 10 -19 0 -12 22 9 27 11 3 20 9 20 13 0 9 -39
23 -57 21 -7 -1 -13 2 -13 6 -1 4 -5 27 -9 50 -5 24 -4 40 0 37 5 -3 9 4 9 15
0 17 -6 21 -31 21 -16 0 -28 -4 -24 -9z m75 -226 c0 -8 5 -15 12 -15 6 0 9 -2
7 -5 -3 -2 -15 -2 -27 2 -25 6 -30 33 -7 33 8 0 15 -7 15 -15z"/>
<path d="M660 401 c-23 -6 -25 -12 -26 -61 -1 -48 -1 -49 3 -10 2 25 8 49 13
54 5 5 7 0 3 -13 -8 -31 7 -211 18 -211 5 0 9 50 9 110 0 81 3 110 13 110 9 0
8 3 -2 9 -11 7 -11 9 0 14 20 8 -1 6 -31 -2z"/>
<path d="M1230 372 c-25 -11 -30 -17 -18 -19 10 -3 15 -10 11 -19 -3 -8 1 -14
11 -14 10 0 16 9 16 23 0 13 5 28 12 35 15 15 12 14 -32 -6z"/>
<path d="M1457 377 c3 -5 -1 -13 -8 -18 -11 -7 -10 -9 4 -9 9 0 17 5 17 10 0
6 5 10 10 10 6 0 10 -13 10 -30 0 -35 5 -36 50 -13 24 12 35 13 38 5 2 -7 13
-12 25 -11 15 0 17 2 7 6 -8 3 -21 13 -29 22 -10 12 -15 13 -18 4 -3 -7 -18
-13 -34 -13 -22 0 -29 5 -29 19 0 12 -9 20 -25 23 -14 3 -22 1 -18 -5z"/>
<path d="M1130 371 c0 -5 9 -11 20 -14 14 -3 20 -14 21 -34 1 -26 2 -26 9 7 5
19 8 36 7 37 -8 7 -57 10 -57 4z"/>
<path d="M2485 360 c10 -11 24 -20 32 -20 7 0 13 -4 13 -9 0 -5 9 -11 21 -14
12 -3 19 -10 16 -15 -3 -4 4 -19 16 -33 12 -13 30 -37 40 -52 10 -16 21 -26
24 -23 3 3 1 12 -5 19 -7 8 -9 16 -6 19 3 3 -12 20 -33 38 -21 18 -30 30 -21
27 12 -4 15 -2 12 8 -3 8 -9 13 -14 12 -4 -1 -20 12 -35 28 -15 17 -24 24 -21
18 4 -7 3 -13 -2 -13 -6 0 -12 7 -16 15 -3 8 -13 15 -22 15 -16 0 -16 -2 1
-20z"/>
<path d="M1270 356 c0 -8 6 -17 13 -19 7 -3 5 -6 -5 -6 -10 -1 -17 -6 -15 -13
1 -6 -7 -14 -18 -16 -26 -5 -44 -22 -23 -22 8 0 26 8 39 19 13 10 30 20 38 22
11 4 11 8 -2 21 -9 8 -13 18 -10 22 4 3 1 6 -5 6 -7 0 -12 -6 -12 -14z"/>
<path d="M2198 345 c2 -14 7 -23 11 -21 4 3 12 -4 19 -14 9 -14 8 -21 -3 -30
-8 -7 -15 -9 -15 -6 0 4 -11 -4 -25 -17 -23 -20 -25 -27 -15 -51 5 -15 19 -30
30 -33 11 -3 20 -10 20 -15 0 -5 -6 -6 -12 -2 -9 5 -8 2 1 -9 18 -23 25 -15
17 18 -5 18 -12 25 -21 21 -10 -3 -15 1 -15 14 0 10 -5 22 -11 26 -8 4 -7 9 2
15 8 4 20 3 29 -4 13 -11 13 -10 0 7 -14 18 -13 19 2 14 10 -4 22 2 34 17 9
13 23 21 31 18 20 -8 15 -23 -8 -23 -18 0 -20 -2 -9 -15 10 -12 15 -13 21 -4
4 6 17 13 30 14 35 4 36 4 36 20 0 18 -14 20 -19 4 -2 -7 -19 1 -40 20 -40 35
-50 39 -41 14 4 -11 3 -14 -5 -9 -7 4 -12 14 -12 21 0 8 -8 19 -19 24 -16 9
-17 7 -13 -14z"/>
<path d="M2626 359 c3 -5 14 -14 26 -20 15 -8 19 -8 14 0 -5 7 1 11 15 11 35
0 13 13 -26 15 -19 2 -32 -1 -29 -6z"/>
<path d="M2835 349 c-4 -5 -28 -9 -53 -9 -67 2 -82 -2 -82 -17 0 -16 -14 -17
-42 -2 -12 7 -18 7 -14 1 3 -6 0 -13 -6 -16 -7 -3 -2 -3 11 0 14 4 21 2 17 -4
-3 -5 1 -13 10 -16 22 -8 24 -8 24 8 0 23 14 26 44 11 26 -14 28 -13 33 6 5
19 11 21 62 15 31 -3 57 -5 59 -6 1 0 2 -7 2 -16 0 -8 5 -12 10 -9 6 3 10 1
10 -5 0 -6 5 -8 12 -4 8 5 9 2 5 -10 -4 -10 -7 -19 -7 -22 0 -2 -7 -1 -15 2
-8 4 -15 1 -15 -5 0 -14 27 -15 35 -1 3 6 11 10 16 10 6 0 8 -4 5 -8 -3 -5 1
-9 9 -9 10 0 11 5 4 19 -8 15 -6 18 13 19 15 0 7 5 -22 14 -25 8 -49 20 -55
27 -16 21 -63 39 -70 27z"/>
<path d="M2161 341 c-13 -8 -13 -12 0 -28 13 -17 13 -17 -13 0 l-28 17 12 -25
c13 -30 20 -31 42 -6 12 13 14 21 6 26 -5 3 -8 11 -5 16 8 11 4 11 -14 0z"/>
<path d="M490 326 c-19 -8 -51 -19 -70 -26 -19 -7 -39 -17 -44 -21 -16 -14 16
-10 44 6 14 8 33 14 42 15 10 0 32 9 50 20 38 23 29 25 -22 6z"/>
<path d="M1033 333 c-7 -2 -9 -12 -6 -20 5 -13 2 -15 -11 -10 -10 4 -20 7 -22
7 -3 0 -2 5 1 10 3 6 -1 10 -9 10 -12 0 -16 -10 -16 -35 0 -29 4 -35 23 -36
12 0 35 -3 50 -5 17 -3 26 -1 23 5 -3 5 0 12 6 14 10 4 10 6 1 6 -7 1 -13 12
-13 25 0 27 -8 36 -27 29z"/>
<path d="M2500 326 c0 -1 16 -19 35 -40 19 -21 35 -34 35 -28 0 5 -7 15 -15
22 -8 7 -13 15 -11 19 2 3 -7 11 -20 18 -13 6 -24 10 -24 9z"/>
<path d="M905 300 c-4 -6 -16 -8 -28 -4 -22 6 -22 6 -2 -10 23 -17 39 -21 30
-6 -3 6 -2 10 4 10 5 0 11 -8 13 -17 2 -10 6 -13 10 -8 3 6 0 18 -7 28 -9 12
-15 14 -20 7z"/>
<path d="M1534 296 c-10 -8 -30 -13 -44 -10 -22 4 -22 3 5 -10 19 -9 37 -11
52 -5 18 6 23 5 23 -6 0 -9 10 -15 25 -15 36 0 39 -1 53 -12 9 -8 11 -7 7 4
-9 22 82 24 106 2 11 -10 19 -12 24 -5 3 6 1 11 -4 11 -6 0 -11 8 -11 18 0 14
2 15 10 2 5 -8 11 -12 14 -9 3 2 1 10 -3 18 -7 10 -12 11 -29 0 -16 -10 -26
-10 -46 -1 -14 6 -26 8 -26 3 0 -13 -54 0 -63 15 -11 18 -68 18 -93 0z"/>
<path d="M1812 293 c10 -2 15 -10 11 -19 -3 -8 1 -14 8 -14 11 0 11 -2 -1 -10
-13 -8 -12 -11 5 -24 11 -9 27 -16 35 -16 10 -1 9 -4 -5 -10 -15 -7 -16 -9 -4
-9 21 -1 32 -40 17 -58 -8 -10 -6 -13 6 -13 10 0 14 5 11 10 -3 6 2 10 11 10
10 0 14 -3 11 -7 -8 -8 23 -32 43 -33 24 -1 43 -17 35 -29 -5 -9 -10 -9 -21 0
-8 6 -17 9 -21 5 -3 -3 -1 -6 5 -6 7 0 12 -5 12 -10 0 -7 -6 -7 -20 0 -19 10
-19 9 -8 -15 7 -16 14 -21 18 -14 5 6 9 3 13 -10 3 -12 10 -21 16 -21 9 0 9 6
0 22 -10 18 -8 24 11 38 20 15 21 19 9 36 -8 11 -23 20 -34 22 -38 6 -43 10
-38 36 4 17 1 26 -7 26 -7 0 -10 -7 -6 -16 5 -14 4 -15 -9 -4 -8 7 -12 16 -9
21 3 5 0 8 -8 7 -7 -2 -12 3 -10 10 1 7 -5 15 -13 18 -8 3 -12 10 -10 15 3 5
-2 20 -11 34 -16 24 -16 25 1 18 13 -4 16 -3 11 5 -4 7 -22 11 -39 11 -18 -1
-24 -3 -15 -6z"/>
<path d="M2800 285 c0 -12 -10 -14 -50 -11 -42 3 -48 1 -39 -11 8 -9 -4 -7
-37 7 -29 12 -41 14 -29 5 11 -8 26 -19 33 -26 8 -6 28 -8 50 -5 27 5 33 4 22
-4 -25 -18 17 -43 63 -37 21 3 35 1 31 -4 -7 -12 7 -11 26 1 9 5 17 5 21 -1 8
-13 39 0 39 17 0 10 -14 14 -52 14 -41 1 -49 3 -35 11 9 5 21 8 26 4 5 -3 12
-1 16 5 3 5 1 10 -5 10 -6 0 -9 4 -6 9 7 10 -20 9 -30 -2 -4 -4 -15 -7 -25 -7
-12 0 -16 6 -12 20 3 11 3 20 -1 20 -3 0 -6 -7 -6 -15z"/>
<path d="M2401 281 c-11 -7 -10 -13 5 -35 28 -37 44 -33 28 8 -3 9 -11 13 -17
9 -6 -4 -8 0 -4 10 7 19 7 20 -12 8z"/>
<path d="M560 270 c-11 -7 -5 -10 23 -10 20 0 37 -5 37 -11 0 -5 -5 -7 -12 -3
-7 4 -8 3 -4 -5 9 -14 26 -5 26 13 0 8 -10 16 -22 20 -30 7 -30 7 -48 -4z"/>
<path d="M312 262 c-9 -6 -6 -12 12 -20 21 -9 25 -8 29 9 5 20 -16 26 -41 11z"/>
<path d="M739 219 c-20 -41 -33 -58 -53 -63 -26 -6 -57 -46 -36 -46 20 0 51
21 45 31 -4 5 -1 9 4 9 6 0 11 -7 11 -15 0 -8 7 -15 15 -15 8 0 15 7 15 15 0
9 9 15 23 15 22 -1 22 -1 2 -16 -17 -13 -18 -16 -5 -24 8 -5 20 -10 25 -10 6
0 3 5 -5 10 -24 15 17 40 54 33 18 -4 27 -2 23 4 -4 6 11 18 33 28 60 27 48
49 -18 34 -18 -4 -41 -5 -52 -2 -14 4 -20 0 -20 -12 0 -13 6 -16 21 -12 16 4
18 3 9 -8 -14 -17 -50 -15 -43 2 3 7 1 19 -5 26 -6 6 -12 26 -14 42 -3 29 -4
27 -29 -26z"/>
<path d="M220 227 c-43 -21 -44 -22 -17 -25 15 -2 27 -8 27 -14 0 -6 3 -8 6
-5 4 4 1 13 -6 22 -10 12 -10 15 3 15 9 0 21 -8 26 -17 6 -10 11 -13 11 -6 0
7 6 10 14 7 8 -3 17 0 22 7 5 8 3 10 -5 5 -8 -6 -11 -2 -9 10 4 26 -20 27 -72
1z"/>
<path d="M532 232 c-9 -9 -28 -16 -42 -15 -17 1 -19 0 -6 -4 15 -4 16 -7 5
-14 -11 -7 -10 -9 4 -9 10 0 29 11 42 24 22 22 27 23 39 10 19 -19 25 -18 19
4 -6 23 -40 25 -61 4z"/>
<path d="M2550 232 c0 -5 8 -16 19 -26 15 -14 20 -14 29 -3 9 10 8 17 0 25
-14 14 -48 16 -48 4z"/>
<path d="M2086 206 c4 -24 26 -38 38 -26 6 6 4 15 -3 24 -10 12 -9 15 6 19 10
3 4 5 -14 4 -25 -1 -30 -5 -27 -21z"/>
<path d="M2950 216 c0 -22 19 -30 35 -16 22 18 18 30 -10 30 -15 0 -25 -6 -25
-14z"/>
<path d="M445 210 c-3 -5 -24 -14 -46 -20 -25 -7 -37 -15 -33 -22 5 -7 2 -9
-9 -5 -8 3 -18 0 -21 -8 -3 -9 0 -12 10 -8 7 3 14 1 14 -5 0 -6 -8 -9 -17 -7
-10 2 -25 4 -33 4 -13 1 -13 2 0 11 27 17 0 11 -40 -10 -33 -17 -49 -22 -90
-29 -17 -3 31 -21 56 -21 23 0 33 5 37 20 5 18 9 19 33 9 16 -5 32 -16 36 -22
5 -9 10 -8 20 2 10 10 10 12 1 7 -7 -4 -13 -2 -13 3 0 6 6 11 14 11 7 0 13 9
12 22 0 11 4 23 9 25 12 4 13 -37 1 -55 -4 -7 -4 -12 0 -12 4 0 0 -6 -10 -13
-16 -12 -14 -13 18 -9 33 4 47 16 27 24 -13 5 -24 48 -12 48 6 0 8 7 5 15 -4
9 3 19 20 26 14 7 26 16 26 21 0 11 -7 10 -15 -2z"/>
<path d="M1480 200 c11 -21 23 -24 55 -10 19 7 18 9 -8 19 -45 18 -60 15 -47
-9z"/>
<path d="M1679 206 c8 -9 20 -15 28 -12 12 5 17 -6 14 -26 0 -4 6 -5 14 -2 11
5 12 10 2 25 -6 10 -16 17 -22 15 -5 -2 -19 1 -30 7 -18 9 -19 9 -6 -7z"/>
<path d="M1753 208 c2 -7 9 -12 15 -11 6 1 21 -9 34 -22 20 -22 58 -34 58 -20
0 14 -38 43 -69 54 -42 14 -44 14 -38 -1z"/>
<path d="M581 195 l-44 -11 26 -17 c14 -9 41 -17 59 -17 18 0 28 4 22 8 -7 4
-14 16 -15 28 -4 19 -7 19 -48 9z"/>
<path d="M135 191 c-6 -5 -37 -17 -70 -27 -37 -11 -53 -19 -41 -22 10 -2 28 1
40 6 33 16 65 21 68 10 6 -17 37 3 35 23 -1 20 -17 25 -32 10z"/>
<path d="M1635 190 c-4 -7 -18 -10 -31 -7 -19 3 -22 2 -13 -9 6 -8 15 -11 20
-8 5 3 9 0 9 -5 0 -6 6 -11 14 -11 7 0 19 -6 26 -14 6 -8 19 -12 27 -9 11 4
14 2 9 -5 -4 -7 -1 -12 9 -12 11 0 15 5 11 15 -3 8 -1 15 4 15 6 0 10 -7 10
-16 0 -8 5 -12 10 -9 6 3 10 0 10 -8 0 -8 -7 -18 -16 -21 -23 -9 -36 -7 -30 3
3 5 -3 11 -14 14 -32 8 -23 -9 15 -32 19 -11 35 -26 34 -33 0 -10 -2 -10 -6 0
-2 6 -9 12 -15 12 -6 0 -6 -6 2 -15 7 -8 16 -12 21 -9 12 7 8 36 -6 46 -6 4
-2 8 8 8 9 0 17 -4 17 -10 0 -5 4 -10 9 -10 17 0 7 41 -15 63 -42 42 -52 48
-58 34 -5 -9 -7 -9 -12 1 -3 6 -18 12 -32 12 -21 0 -24 3 -12 10 8 5 12 12 8
15 -3 4 -9 1 -13 -5z"/>
<path d="M2375 184 c18 -14 18 -16 4 -27 -9 -7 -14 -18 -12 -24 3 -7 -3 -13
-12 -13 -11 0 -15 5 -12 14 3 8 0 17 -8 19 -22 9 -25 -4 -5 -25 13 -14 26 -19
41 -15 13 4 30 1 38 -6 9 -6 8 -2 -3 11 -11 12 -14 22 -8 22 7 0 12 10 12 23
1 22 1 22 16 -3 12 -21 14 -22 12 -5 -4 28 -21 46 -30 31 -5 -8 -10 -8 -20 2
-6 6 -17 12 -22 12 -6 0 -2 -8 9 -16z"/>
<path d="M2827 183 c-13 -13 -7 -22 11 -16 15 6 15 5 3 -10 -8 -10 -9 -17 -3
-17 6 0 14 5 17 11 4 6 17 15 29 20 20 9 19 9 -3 5 -14 -3 -30 -1 -36 4 -7 6
-15 7 -18 3z"/>
<path d="M517 168 c7 -8 11 -17 8 -20 -3 -3 1 -11 9 -17 11 -9 20 -10 33 -2
17 10 17 10 1 11 -10 0 -18 4 -18 10 0 5 -10 15 -22 21 -20 11 -21 10 -11 -3z"/>
<path d="M1553 150 c1 -16 5 -30 8 -30 16 0 16 -39 0 -44 -9 -3 -3 -4 12 -2
16 2 34 -2 40 -8 9 -9 16 -7 30 6 9 10 16 18 15 19 -2 0 -18 2 -35 3 -60 4
-48 21 14 19 6 0 9 6 6 14 -4 10 -9 11 -16 4 -6 -6 -20 -11 -31 -10 -12 0 -15
3 -8 6 18 7 15 19 -13 37 -24 16 -24 16 -22 -14z"/>
<path d="M2494 137 c-1 -23 1 -36 3 -29 3 6 10 9 15 6 7 -5 8 -2 2 7 -4 8 -7
24 -5 37 1 12 -1 22 -6 22 -4 0 -9 -19 -9 -43z"/>
<path d="M2782 152 c11 -14 10 -15 -5 -9 -11 4 -16 3 -12 -3 3 -6 16 -10 28
-10 19 -1 20 -2 5 -11 -23 -13 -71 -1 -64 17 3 7 0 16 -6 20 -6 4 -8 3 -4 -4
3 -5 0 -12 -6 -15 -9 -3 -5 -11 10 -25 19 -17 29 -19 49 -11 21 8 26 6 30 -11
3 -11 9 -20 14 -20 12 0 11 7 -1 31 -6 10 -7 19 -3 19 4 0 18 -18 30 -40 16
-31 18 -40 7 -40 -8 0 -14 -4 -14 -9 0 -5 9 -7 20 -4 23 6 25 14 8 31 -7 7 -8
12 -4 12 5 0 3 6 -3 14 -9 11 -6 13 13 11 13 -2 33 -8 43 -15 15 -10 14 -10
-11 -5 -24 5 -27 3 -22 -10 3 -9 6 -19 6 -21 0 -2 5 -4 11 -4 5 0 8 4 5 9 -10
16 38 21 54 6 19 -17 40 -20 40 -6 0 5 -10 13 -22 16 -13 4 -37 18 -54 31 -17
13 -34 20 -38 17 -3 -4 -6 -1 -6 5 0 6 8 15 17 21 25 13 9 25 -16 12 -12 -7
-18 -17 -15 -26 4 -8 1 -15 -5 -15 -6 0 -11 5 -11 11 0 5 -4 8 -8 5 -11 -7
-37 11 -37 25 0 7 -8 13 -18 15 -15 2 -16 0 -5 -14z"/>
<path d="M460 139 c-19 -3 -29 -7 -22 -8 7 0 10 -6 6 -13 -5 -8 2 -9 26 -4 39
7 47 13 34 24 -5 5 -25 5 -44 1z"/>
<path d="M608 132 c-26 -5 -22 -37 7 -56 28 -18 39 -21 30 -6 -4 6 -9 23 -11
37 -6 32 -4 30 -26 25z"/>
<path d="M1177 134 c-10 -10 -9 -26 2 -20 4 3 20 -8 35 -24 23 -26 29 -28 50
-18 37 16 44 47 9 36 -5 -2 -7 -6 -6 -9 1 -3 -8 -6 -20 -5 -12 1 -21 8 -19 15
1 7 -2 9 -8 6 -6 -4 -17 0 -23 10 -7 9 -16 13 -20 9z"/>
<path d="M1463 115 c16 -14 25 -30 22 -35 -10 -16 -25 -12 -25 8 0 14 -2 15
-10 2 -14 -21 -12 -30 5 -30 8 0 15 -9 15 -20 0 -11 5 -20 11 -20 5 0 7 -4 4
-10 -3 -5 -2 -10 4 -10 17 0 22 18 6 24 -34 12 -10 64 26 58 13 -2 15 3 12 23
-5 25 -23 36 -23 14 0 -8 -5 -8 -15 1 -8 7 -15 9 -15 4 0 -4 -5 -3 -12 4 -7 7
-17 12 -22 12 -6 0 2 -12 17 -25z"/>
<path d="M1839 118 c11 -31 29 -34 24 -3 -3 14 -11 25 -19 25 -10 0 -11 -6 -5
-22z"/>
<path d="M1040 119 c0 -7 -11 -8 -29 -4 -16 3 -32 2 -35 -3 -3 -6 12 -12 33
-14 32 -3 41 0 44 14 3 10 1 18 -4 18 -5 0 -9 -5 -9 -11z"/>
<path d="M1406 122 c-10 -16 6 -51 20 -45 11 4 12 9 3 19 -9 11 -9 14 0 14 7
0 9 5 6 10 -8 12 -22 13 -29 2z"/>
<path d="M2054 114 c4 -11 10 -31 13 -46 3 -16 11 -28 18 -28 14 0 29 29 20
38 -3 3 -5 -1 -5 -9 -1 -18 -24 20 -25 40 0 8 -6 16 -14 19 -10 3 -12 0 -7
-14z"/>
<path d="M2290 111 c0 -26 12 -32 28 -15 10 11 8 15 -8 24 -17 9 -20 8 -20 -9z"/>
<path d="M2986 122 c-3 -5 -20 -7 -38 -5 -26 3 -30 2 -16 -6 22 -14 68 -10 68
6 0 15 -6 17 -14 5z"/>
<path d="M2590 109 c0 -18 26 -33 52 -30 9 1 19 -7 23 -19 6 -18 25 -29 25
-13 0 16 -43 51 -57 46 -7 -3 -20 3 -28 13 -12 16 -14 17 -15 3z"/>
<path d="M470 104 c-11 -3 -15 -19 -15 -54 0 -28 3 -50 6 -50 3 0 15 11 27 25
12 14 17 25 11 25 -7 0 -7 6 2 17 12 14 12 15 0 9 -10 -7 -12 -3 -6 13 6 21 4
22 -25 15z"/>
<path d="M680 100 c8 -5 11 -10 5 -10 -11 0 16 -20 28 -20 4 0 7 8 7 18 0 12
-9 18 -27 20 -22 1 -24 0 -13 -8z"/>
<path d="M1794 88 c2 -15 9 -22 20 -20 9 2 16 -1 16 -7 0 -5 17 -9 38 -8 20 0
29 2 20 4 -10 3 -18 10 -18 16 0 8 -4 7 -9 -2 -7 -11 -14 -9 -35 13 -33 32
-37 32 -32 4z"/>
<path d="M2132 94 c-19 -20 -8 -31 28 -28 39 3 53 14 17 14 -14 0 -27 6 -29
14 -3 12 -5 12 -16 0z"/>
<path d="M157 93 c-12 -11 -8 -23 8 -23 9 0 18 -6 21 -14 3 -8 13 -12 25 -9
10 3 19 1 19 -5 0 -5 -16 -13 -36 -17 -24 -4 -33 -10 -27 -16 6 -6 19 -6 35 0
31 12 89 11 82 -1 -3 -4 0 -8 5 -8 6 0 11 7 11 15 0 8 6 15 13 16 6 0 22 2 35
5 20 3 21 2 12 -16 -9 -16 -8 -20 5 -20 10 0 15 10 15 31 0 24 -4 30 -15 25
-8 -3 -15 0 -15 6 0 7 -6 5 -12 -4 -15 -20 -36 -24 -62 -13 -12 5 -21 3 -27
-6 -7 -12 -9 -12 -10 1 -1 8 -1 19 0 23 1 5 -3 5 -9 2 -14 -9 -71 15 -64 26 6
11 0 12 -9 2z"/>
<path d="M546 71 c-27 -18 -27 -19 -8 -25 12 -4 33 -1 49 8 27 15 27 15 5 16
-13 0 -20 4 -17 10 9 14 4 13 -29 -9z"/>
<path d="M1360 79 c11 -8 12 -12 3 -16 -7 -2 -13 -12 -13 -20 0 -9 -6 -13 -14
-10 -10 4 -13 1 -9 -9 3 -7 9 -14 15 -14 15 0 35 24 30 38 -2 6 4 12 13 12 14
0 15 3 5 15 -7 8 -20 15 -29 15 -14 0 -14 -2 -1 -11z"/>
<path d="M106 72 c-3 -5 -23 -14 -45 -22 -23 -7 -41 -17 -41 -22 0 -5 5 -6 12
-2 8 5 9 2 5 -9 -3 -10 -5 -17 -4 -17 1 0 17 4 34 9 22 6 35 6 39 -1 4 -6 10
-5 15 3 8 12 10 12 18 1 6 -11 10 -10 15 3 10 27 7 32 -21 40 -21 5 -24 8 -12
16 9 5 9 9 2 9 -6 0 -14 -4 -17 -8z m22 -34 c-4 -11 -19 -13 -60 -9 -22 2 14
21 40 21 14 0 22 -5 20 -12z"/>
<path d="M1190 44 c0 -14 47 -43 70 -43 14 0 19 3 12 6 -6 2 -10 8 -7 13 3 4
-3 6 -13 3 -11 -2 -26 3 -35 11 -16 16 -27 20 -27 10z"/>
<path d="M1810 43 c0 -13 33 -43 47 -43 15 0 24 28 13 35 -6 4 -10 -2 -10 -12
0 -15 -2 -16 -10 -3 -5 8 -10 11 -10 5 0 -5 -7 -1 -15 9 -8 11 -15 15 -15 9z"/>
<path d="M2755 29 c4 -5 13 -9 21 -9 8 0 14 -6 14 -12 0 -10 3 -9 9 1 6 9 11
10 15 2 4 -6 15 -11 24 -10 12 0 9 4 -8 11 -14 6 -28 10 -32 10 -5 -1 -8 2 -8
6 0 4 -9 8 -20 9 -11 1 -18 -2 -15 -8z"/>
<path d="M1550 15 c0 -11 14 -14 65 -14 36 1 65 5 65 10 0 5 -3 9 -7 10 -5 0
-19 2 -32 5 -13 2 -31 -1 -39 -8 -12 -10 -16 -10 -19 0 -6 17 -33 15 -33 -3z"/>
</g>
</svg>
