<?xml version="1.0" standalone="no"?>
<!DOCTYPE svg PUBLIC "-//W3C//DTD SVG 20010904//EN"
 "http://www.w3.org/TR/2001/REC-SVG-20010904/DTD/svg10.dtd">
<svg version="1.0" xmlns="http://www.w3.org/2000/svg"
 width="300.000000pt" height="169.000000pt" viewBox="0 0 300.000000 169.000000"
 preserveAspectRatio="xMidYMid meet">
<metadata>
Created by potrace 1.10, written by Peter Selinger 2001-2011
</metadata>
<g transform="translate(0.000000,169.000000) scale(0.100000,-0.100000)"
fill="#000000" stroke="none">
<path d="M620 1541 c0 -11 60 -18 105 -13 58 7 39 17 -35 19 -38 1 -70 -2 -70
-6z"/>
<path d="M494 1489 c-7 -12 22 -23 40 -16 7 3 20 0 27 -6 11 -10 11 -9 1 4
-14 19 -60 31 -68 18z"/>
<path d="M360 1455 c0 -17 -55 -21 -65 -5 -3 6 -18 10 -33 10 -24 -1 -22 -3
13 -15 59 -22 95 -20 95 5 0 11 -2 20 -5 20 -3 0 -5 -7 -5 -15z"/>
<path d="M2020 1433 c0 -5 27 -8 60 -9 33 0 60 3 60 8 0 4 -27 8 -60 8 -33 0
-60 -3 -60 -7z"/>
<path d="M2650 1430 c0 -4 -28 -6 -62 -3 -35 3 -60 2 -56 -2 5 -5 49 -10 100
-12 51 -2 90 -2 88 0 -13 11 -70 25 -70 17z"/>
<path d="M0 1410 c0 -15 9 -22 30 -27 30 -5 45 -18 45 -38 0 -5 9 -11 20 -14
17 -3 18 -1 6 13 -8 9 -9 16 -3 16 6 0 21 -12 33 -27 12 -16 20 -21 17 -13 -5
13 9 15 86 15 50 -1 94 3 97 8 4 5 17 4 30 -4 21 -11 23 -11 11 3 -11 14 -7
16 35 14 26 -1 54 -5 61 -9 6 -5 12 -4 12 1 0 11 11 12 122 11 10 0 20 -4 23
-10 4 -5 21 -9 38 -9 24 0 28 -3 17 -10 -11 -7 -11 -10 -2 -10 7 0 23 7 35 15
17 10 45 13 114 10 51 -2 97 -6 103 -10 6 -4 39 -8 73 -10 37 -2 61 -8 60 -14
-3 -11 10 -15 35 -12 8 1 20 -3 28 -10 11 -9 14 -9 14 1 0 6 6 10 12 7 7 -2
12 -10 11 -16 -4 -16 14 -14 20 3 4 9 15 12 31 9 22 -5 25 -2 20 13 -3 11 -2
15 3 8 13 -16 42 -24 49 -13 6 10 44 7 76 -6 10 -4 15 -11 12 -16 -5 -8 1 -10
46 -13 8 -1 21 -5 28 -9 7 -5 12 -3 12 5 0 7 12 14 26 14 25 2 25 2 7 -19 -12
-15 -13 -18 -2 -10 12 10 18 10 29 0 10 -10 11 -9 5 2 -6 11 -4 13 8 8 9 -3
22 -1 29 6 20 19 77 37 84 26 3 -5 10 -6 16 -3 19 12 88 22 88 13 0 -5 13 -6
30 -2 16 3 30 2 30 -3 0 -11 77 -10 104 1 12 5 17 5 13 -2 -4 -6 9 -7 38 -3
24 4 42 3 40 -1 -8 -12 63 -1 95 14 29 15 30 15 31 -6 l0 -22 11 22 c7 15 19
21 39 21 16 -1 29 -5 29 -10 0 -4 12 -5 26 -2 22 6 25 4 19 -7 -7 -12 -6 -12
7 -1 13 11 19 10 34 -5 10 -10 19 -17 21 -15 2 1 6 2 11 2 4 0 0 -5 -8 -10 -9
-6 -10 -10 -3 -10 6 0 15 5 18 10 4 6 11 7 17 4 15 -9 91 -12 103 -4 6 3 23
12 39 18 25 11 28 11 22 -4 -5 -14 -4 -15 8 -5 8 7 28 14 45 16 29 4 31 2 25
-23 -6 -24 -5 -25 7 -9 11 13 26 16 64 15 28 -2 52 -6 55 -10 3 -4 22 -9 43
-12 20 -2 42 -8 48 -12 7 -4 9 -3 6 3 -4 6 3 8 18 5 16 -3 25 0 25 8 0 8 9 11
25 8 14 -3 25 -1 25 6 0 7 3 7 8 1 9 -12 52 -16 52 -4 0 5 7 9 15 9 8 0 15 9
15 20 0 24 4 24 -95 0 -78 -18 -81 -18 -185 1 -161 30 -202 33 -245 15 -47
-20 -124 -21 -161 -1 -16 8 -38 15 -49 15 -11 0 -37 6 -59 14 -33 12 -42 11
-70 -3 -31 -16 -118 -18 -396 -10 -55 2 -103 -2 -115 -8 -11 -6 -64 -14 -117
-18 -89 -7 -100 -6 -132 15 -33 20 -46 21 -153 18 -97 -4 -126 -1 -167 14 -28
11 -60 17 -75 13 -15 -3 -45 1 -66 8 -39 14 -96 14 -197 1 -38 -5 -55 -2 -84
15 -19 12 -40 19 -44 16 -5 -3 -51 -7 -103 -9 -51 -2 -111 -9 -133 -14 -21 -5
-76 -10 -121 -11 -73 -2 -90 2 -149 29 -77 36 -84 36 -84 10z"/>
<path d="M452 1278 c26 -34 54 -50 46 -27 -3 8 -11 13 -18 11 -6 -1 -14 6 -17
17 -3 11 -12 22 -20 26 -11 3 -7 -6 9 -27z"/>
<path d="M1076 1247 c4 -11 -3 -17 -23 -20 -22 -4 -21 -5 7 -3 35 1 50 24 22
34 -7 2 -10 -2 -6 -11z"/>
<path d="M510 1239 c0 -9 9 -24 20 -34 14 -12 17 -21 9 -25 -7 -5 -5 -9 6 -13
9 -4 13 -3 10 3 -7 12 7 13 21 3 5 -5 0 1 -11 12 -11 11 -28 31 -38 45 -12 17
-17 20 -17 9z"/>
<path d="M1552 1171 c-11 -7 -10 -10 3 -15 9 -3 24 -6 32 -6 13 0 13 3 3 15
-14 17 -20 18 -38 6z"/>
<path d="M1627 1166 c-7 -17 42 -29 59 -15 6 5 15 5 19 1 5 -4 5 -1 1 6 -5 8
-13 9 -25 3 -9 -5 -23 -6 -30 -2 -11 7 -11 10 0 14 10 4 10 6 -2 6 -9 1 -19
-5 -22 -13z"/>
<path d="M871 1153 c-10 -19 -15 -21 -37 -13 -37 15 -43 11 -11 -6 19 -10 32
-12 40 -6 7 6 15 11 20 11 9 1 10 7 4 24 -2 7 -8 3 -16 -10z"/>
<path d="M230 1142 c0 -4 24 -9 52 -11 29 -1 50 0 48 2 -10 9 -100 18 -100 9z"/>
<path d="M1255 1138 c-161 -5 -277 -15 -415 -33 -25 -3 -72 -7 -105 -10 -33
-2 -77 -8 -99 -14 -21 -5 -46 -7 -55 -3 -14 5 -14 3 -3 -11 14 -17 43 -16 112
6 19 6 60 12 90 13 30 1 66 5 80 7 14 3 70 9 125 13 55 4 111 8 125 10 28 3
225 5 237 3 5 -1 15 1 23 4 8 4 38 8 65 9 32 2 41 5 25 8 -14 3 -106 2 -205
-2z"/>
<path d="M1490 1128 c0 -4 6 -8 13 -8 8 0 7 -3 -3 -10 -10 -6 3 -8 40 -8 30 1
81 -2 113 -7 43 -6 57 -5 57 5 0 9 16 11 60 8 33 -2 60 -1 60 4 0 4 -19 8 -42
9 -24 0 -72 2 -108 5 -127 9 -190 10 -190 2z"/>
<path d="M409 1118 c12 -4 38 -4 59 1 34 8 33 9 -22 8 -41 0 -52 -3 -37 -9z"/>
<path d="M20 1103 c14 -3 29 -9 35 -14 5 -5 18 -9 30 -9 15 1 11 5 -14 15 -18
8 -43 14 -55 14 -18 -2 -17 -2 4 -6z"/>
<path d="M2962 1085 c-7 -14 -19 -25 -27 -25 -9 0 -14 -4 -11 -9 3 -4 -3 -16
-14 -26 -11 -10 -20 -23 -20 -29 1 -6 10 0 21 14 12 14 34 39 50 57 16 18 25
34 20 37 -4 3 -13 -6 -19 -19z"/>
<path d="M2049 1077 c9 -9 140 -12 148 -3 4 3 -2 6 -13 7 -98 4 -142 3 -135
-4z"/>
<path d="M2450 1056 c0 -20 13 -27 30 -15 13 8 13 10 0 19 -21 14 -30 12 -30
-4z"/>
<path d="M2198 1053 c12 -2 22 -8 22 -12 0 -4 21 -8 48 -10 26 -1 76 -11 111
-21 75 -24 82 -24 56 -6 -27 18 -185 56 -227 55 -23 -1 -26 -3 -10 -6z"/>
<path d="M130 1045 c0 -10 60 -35 82 -34 17 1 14 3 -12 11 -19 5 -39 14 -44
19 -11 10 -26 12 -26 4z"/>
<path d="M567 1044 c-4 -4 -19 -8 -34 -9 -61 -4 -144 -18 -148 -25 -3 -4 13
-8 35 -8 22 -1 38 3 35 8 -3 5 9 9 27 8 44 -1 98 11 98 23 0 11 -4 11 -13 3z"/>
<path d="M106 1011 c5 -5 32 -12 59 -15 l50 -6 -50 14 c-60 18 -72 19 -59 7z"/>
<path d="M315 1006 l-40 -12 33 -5 c20 -4 36 -1 44 8 16 20 8 22 -37 9z"/>
<path d="M571 999 c10 -19 17 -21 62 -16 71 9 77 22 11 22 -31 0 -58 3 -61 8
-11 18 -23 5 -12 -14z"/>
<path d="M795 1000 c-4 -6 11 -7 42 -3 63 8 67 13 10 13 -25 0 -49 -4 -52 -10z"/>
<path d="M1910 865 c0 -82 3 -146 6 -143 7 8 7 278 0 285 -3 4 -6 -60 -6 -142z"/>
<path d="M490 989 c0 -5 -5 -7 -12 -3 -6 4 -8 3 -5 -3 6 -10 -52 -24 -95 -24
-10 0 -18 -4 -18 -9 0 -4 -9 -6 -20 -3 -11 3 -20 1 -20 -5 0 -5 -16 -9 -35 -7
-24 2 -33 0 -28 -7 4 -8 0 -9 -11 -5 -10 4 -15 3 -11 -3 9 -14 60 -12 99 4 18
7 71 21 117 31 116 23 117 24 99 35 -20 13 -60 12 -60 -1z"/>
<path d="M2490 980 c0 -7 51 -32 67 -32 4 0 18 -4 30 -9 12 -4 25 -4 28 0 5 8
-21 21 -75 37 -39 12 -50 13 -50 4z"/>
<path d="M1074 923 c-4 -10 -8 -26 -9 -35 -1 -9 -7 -30 -13 -45 -16 -46 -35
-139 -30 -154 3 -8 15 32 28 89 13 56 26 102 29 101 3 0 19 -27 35 -60 15 -33
30 -58 33 -55 8 8 -33 92 -57 116 -17 17 -19 24 -9 36 6 8 10 17 7 20 -3 3 -9
-3 -14 -13z"/>
<path d="M2720 930 c-12 -8 -10 -10 10 -8 14 0 39 -2 55 -6 29 -7 29 -7 -4 9
-39 18 -41 18 -61 5z"/>
<path d="M2834 908 c4 -16 1 -30 -6 -34 -7 -5 -8 -3 -3 6 5 9 4 11 -3 6 -7 -4
-12 -14 -12 -22 0 -9 5 -12 12 -8 7 5 8 3 3 -6 -6 -10 -12 -8 -26 8 -12 15
-19 18 -22 10 -4 -10 -7 -10 -14 0 -7 10 -13 8 -26 -6 -16 -18 -16 -18 11 -14
19 2 33 -2 43 -14 8 -11 9 -15 2 -10 -7 4 -23 1 -35 -6 -13 -7 -27 -11 -31
-10 -5 1 -6 -2 -3 -7 4 -5 24 -4 51 4 25 8 45 11 45 7 0 -4 5 1 11 11 5 9 16
17 24 17 8 0 17 5 21 12 5 8 2 9 -9 5 -10 -3 -17 -3 -18 1 -3 39 -9 65 -15 71
-4 3 -4 -6 0 -21z"/>
<path d="M1601 905 c0 -11 7 -36 15 -55 l14 -35 -6 35 c-4 19 -10 44 -15 55
-8 20 -8 20 -8 0z"/>
<path d="M1761 920 c0 -3 6 -26 14 -53 8 -26 12 -54 9 -62 -4 -8 -1 -15 5 -15
7 0 7 -8 1 -26 -12 -31 -12 -57 0 -29 8 18 9 18 9 -5 1 -14 4 -36 8 -49 4 -16
3 -22 -5 -18 -16 11 -42 -3 -42 -22 1 -15 1 -15 10 1 11 19 50 13 50 -8 0 -7
6 -17 14 -21 7 -4 16 -15 19 -23 4 -8 5 -4 4 10 -1 14 -8 24 -15 22 -10 -2
-11 4 -7 19 5 16 4 19 -5 14 -9 -6 -12 0 -8 23 2 17 1 29 -4 26 -4 -3 -8 3 -9
13 -4 81 -13 133 -29 168 -10 22 -19 38 -19 35z"/>
<path d="M2575 900 c-9 -14 1 -27 26 -33 11 -3 18 -3 15 0 -3 3 -1 14 5 24 8
16 6 19 -15 19 -14 0 -28 -4 -31 -10z"/>
<path d="M2956 886 c-18 -15 -24 -26 -17 -30 6 -4 11 -2 11 3 0 6 11 11 24 11
19 0 24 5 23 20 -2 25 -5 25 -41 -4z"/>
<path d="M177 894 c7 -3 9 -12 6 -20 -3 -8 3 -17 13 -21 11 -3 22 -11 25 -16
3 -4 25 -11 48 -14 22 -3 41 -9 41 -14 0 -10 34 0 100 30 21 10 18 11 -25 5
-132 -16 -133 -15 -163 22 -15 19 -34 34 -42 33 -9 0 -11 -2 -3 -5z"/>
<path d="M2694 885 c-19 -15 -19 -15 1 -8 16 5 18 4 9 -8 -31 -40 -41 -169
-13 -169 8 0 8 4 1 13 -5 6 -8 23 -6 37 12 84 15 104 22 114 6 11 12 36 8 36
-1 0 -11 -7 -22 -15z"/>
<path d="M1247 848 c-8 -30 -11 -187 -5 -193 3 -3 6 34 7 82 1 48 5 98 8 111
3 12 3 22 0 22 -3 0 -7 -10 -10 -22z"/>
<path d="M1852 795 c0 -47 2 -72 7 -60 4 11 4 47 1 80 l-7 60 -1 -80z"/>
<path d="M2300 840 c0 -5 5 -9 11 -7 10 2 28 -21 87 -109 7 -11 5 -4 -3 14 -9
17 -14 32 -11 32 2 0 -13 18 -33 40 -37 40 -51 49 -51 30z"/>
<path d="M2891 841 c-18 -11 -5 -31 20 -31 21 0 22 1 13 24 -7 18 -13 19 -33
7z"/>
<path d="M33 824 c0 -13 46 -38 55 -29 3 3 -1 5 -9 5 -10 0 -11 2 -2 8 8 5 3
11 -16 18 -21 9 -28 8 -28 -2z"/>
<path d="M2244 823 c4 -8 1 -13 -8 -13 -9 0 -16 -4 -16 -10 0 -5 10 -8 23 -6
12 3 27 5 33 5 12 1 15 31 2 31 -4 0 -8 -5 -8 -11 0 -8 -6 -7 -17 2 -11 10
-14 10 -9 2z"/>
<path d="M400 813 c-8 -2 -22 -7 -30 -10 -8 -4 -18 -7 -22 -7 -23 -3 -11 -12
18 -13 24 0 38 5 45 18 5 11 8 19 7 18 -2 0 -10 -3 -18 -6z"/>
<path d="M1520 814 c0 -20 33 -145 40 -149 4 -3 10 4 13 16 3 12 0 22 -8 25
-8 3 -19 30 -25 60 -6 30 -13 54 -16 54 -2 0 -4 -2 -4 -6z"/>
<path d="M1413 793 c-3 -10 -8 -21 -10 -25 -2 -4 2 -10 9 -14 7 -4 10 -3 5 1
-4 5 3 19 15 32 18 20 19 23 4 23 -9 0 -19 -8 -23 -17z"/>
<path d="M2130 793 c14 -22 47 -36 62 -26 5 3 0 12 -12 20 -12 8 -24 12 -27 9
-3 -3 -13 0 -21 7 -13 11 -14 9 -2 -10z"/>
<path d="M2328 773 c4 -19 2 -24 -8 -18 -9 6 -9 3 1 -16 12 -22 12 -23 19 -4
7 21 2 52 -10 60 -4 2 -5 -7 -2 -22z"/>
<path d="M1730 785 c0 -11 43 -96 46 -92 3 2 -2 17 -11 33 -8 16 -15 34 -15
41 0 6 -4 15 -10 18 -5 3 -10 4 -10 0z"/>
<path d="M2935 773 c5 -10 8 -26 9 -36 0 -16 2 -17 12 -3 6 9 13 14 15 11 3
-2 6 5 6 17 2 20 1 20 -13 2 -15 -18 -15 -18 -11 4 4 15 0 22 -10 22 -11 0
-13 -5 -8 -17z"/>
<path d="M2093 753 c-7 -3 -13 -10 -13 -17 0 -7 -13 -27 -30 -44 -16 -17 -26
-33 -22 -36 8 -5 49 22 45 29 -8 14 -1 26 12 22 7 -3 24 2 36 12 22 18 22 19
3 28 -10 6 -25 8 -31 6z"/>
<path d="M84 739 c-4 -8 0 -9 15 -4 14 4 23 2 27 -8 3 -9 13 -13 25 -10 28 8
33 21 5 16 -13 -3 -27 0 -30 6 -9 14 -33 14 -42 0z"/>
<path d="M1427 744 c-4 -4 -7 -12 -7 -18 0 -6 4 -5 9 3 7 10 14 3 30 -30 11
-24 18 -33 15 -19 l-5 25 20 -25 c11 -14 21 -29 21 -33 0 -5 7 -16 16 -24 13
-13 13 -17 2 -24 -9 -6 -8 -9 7 -9 12 0 16 -3 9 -8 -8 -5 -5 -13 8 -27 13 -13
18 -15 14 -5 -2 8 -7 27 -10 41 -5 24 -98 150 -115 157 -4 1 -10 -1 -14 -4z"/>
<path d="M400 725 c15 -18 70 -20 70 -2 0 7 -17 13 -42 15 -36 2 -39 1 -28
-13z"/>
<path d="M490 724 c0 -7 11 -25 24 -40 23 -27 24 -27 30 -7 5 16 12 19 28 15
21 -5 21 -6 2 -13 -15 -6 -16 -8 -2 -8 9 -1 23 5 30 12 16 16 80 3 77 -16 -1
-7 -1 -19 0 -27 1 -12 4 -11 15 3 14 18 14 17 21 -2 7 -24 33 -27 61 -7 19 15
19 15 0 29 -11 8 -34 14 -51 12 -26 -1 -34 3 -45 28 -7 16 -15 25 -19 19 -4
-6 -34 -6 -88 2 -66 9 -83 9 -83 0z"/>
<path d="M954 721 c10 -11 15 -25 10 -32 -4 -7 -3 -10 3 -6 10 6 50 -79 45
-95 -1 -5 2 -8 7 -8 5 0 11 9 14 20 3 10 0 18 -5 17 -6 -1 -15 12 -22 28 -16
43 -49 95 -60 95 -5 0 -1 -9 8 -19z"/>
<path d="M2260 724 c0 -8 5 -12 10 -9 6 3 10 2 10 -4 0 -5 -8 -15 -17 -20 -16
-9 -15 -10 6 -8 18 1 31 -7 48 -33 24 -35 24 -35 19 -7 -3 16 -16 40 -30 54
-15 14 -26 30 -26 34 0 5 -4 9 -10 9 -5 0 -10 -7 -10 -16z"/>
<path d="M2591 727 c2 -24 17 -62 18 -45 1 9 4 23 7 31 3 8 -2 17 -10 20 -9 4
-16 1 -15 -6z"/>
<path d="M1140 723 c0 -6 5 -15 10 -18 6 -4 8 -10 5 -15 -8 -13 22 -80 36 -80
7 0 9 9 5 23 -3 12 -6 27 -6 32 0 6 -5 3 -11 -5 -9 -12 -10 -11 -4 5 11 33 11
39 -3 40 -7 0 -17 7 -22 15 -6 9 -10 10 -10 3z"/>
<path d="M1941 687 c-9 -27 -10 -42 -3 -49 8 -8 9 -4 5 11 -7 29 4 26 20 -5
12 -22 15 -24 20 -10 4 10 3 14 -2 11 -6 -3 -14 14 -18 37 l-9 43 -13 -38z"/>
<path d="M193 703 c-7 -2 -13 -9 -13 -14 0 -6 5 -7 10 -4 6 3 10 1 10 -5 0 -8
9 -10 25 -6 14 4 25 2 25 -4 0 -21 27 -9 39 18 11 27 11 27 -7 6 -18 -21 -19
-21 -41 -3 -24 20 -28 21 -48 12z"/>
<path d="M330 698 c0 -5 24 -8 53 -8 32 0 47 -4 39 -9 -11 -6 -10 -10 4 -15
21 -8 28 -2 21 18 -6 15 -117 28 -117 14z"/>
<path d="M1271 695 c-1 -32 25 -109 38 -111 6 -1 7 0 1 3 -5 2 -10 14 -11 26
-1 31 -27 106 -28 82z"/>
<path d="M1850 689 c0 -5 -5 -7 -12 -3 -7 4 -8 3 -4 -5 4 -6 11 -9 16 -6 5 3
11 1 15 -5 12 -20 26 -10 15 10 -11 21 -30 27 -30 9z"/>
<path d="M2489 684 c-5 -15 1 -30 17 -47 12 -14 21 -28 18 -31 -2 -3 -1 -4 3
-1 4 3 8 16 9 29 0 18 -4 22 -17 19 -13 -4 -18 2 -21 24 -3 25 -4 26 -9 7z"/>
<path d="M1110 675 c10 -12 10 -18 0 -30 -8 -9 -8 -15 -2 -15 6 0 12 6 15 13
2 6 8 -1 12 -18 15 -65 22 -81 29 -64 8 18 -39 129 -55 129 -8 0 -8 -4 1 -15z"/>
<path d="M2806 668 c-9 -10 -11 -18 -6 -18 6 0 6 -9 0 -26 -14 -35 -13 -44 5
-44 8 0 15 5 15 11 0 5 -5 7 -11 3 -8 -4 -9 1 -4 16 4 12 8 30 10 39 1 9 10
15 19 15 9 -1 16 4 16 10 0 19 -26 15 -44 -6z"/>
<path d="M2585 633 c2 -40 -1 -53 -11 -53 -8 0 -13 4 -11 9 2 8 -3 11 -20 11
-3 0 4 -11 17 -25 31 -33 37 -32 38 11 1 20 4 46 7 58 5 16 4 17 -3 7 -8 -11
-11 -9 -15 10 -2 13 -3 0 -2 -28z"/>
<path d="M179 662 c-1 -4 -1 -11 0 -15 1 -5 -2 -6 -6 -4 -5 3 -21 -1 -38 -9
-16 -8 -22 -12 -13 -10 13 4 15 1 11 -12 -6 -14 -4 -15 9 -5 8 7 17 11 20 8 2
-3 15 6 27 19 19 20 20 24 7 29 -9 4 -17 3 -17 -1z"/>
<path d="M2180 659 c0 -5 -4 -8 -9 -4 -23 13 -20 -18 5 -55 27 -40 45 -49 25
-12 -6 11 -8 22 -6 26 3 3 2 4 -2 1 -7 -6 -33 14 -33 25 0 5 9 6 20 3 16 -4
19 -2 14 11 -7 18 -14 21 -14 5z"/>
<path d="M2390 659 c0 -5 -4 -7 -10 -4 -7 4 -7 -3 0 -19 7 -19 6 -26 -3 -26
-8 0 -7 -4 3 -10 10 -6 11 -10 3 -10 -7 0 -13 -5 -13 -11 0 -5 4 -8 9 -5 5 4
12 0 15 -6 3 -7 5 -1 3 13 -1 14 5 34 13 45 12 14 12 16 1 9 -11 -6 -13 -3 -9
13 4 12 2 22 -3 22 -5 0 -9 -5 -9 -11z"/>
<path d="M232 620 c0 -22 4 -38 8 -35 5 3 10 -1 13 -7 2 -7 8 -10 12 -5 5 4 3
13 -3 19 -17 17 -15 31 4 24 12 -4 15 -2 10 9 -3 9 0 15 9 15 19 0 28 -17 13
-23 -7 -3 -3 -6 9 -6 13 -1 22 2 22 7 -3 19 2 25 11 12 8 -13 10 -13 10 2 0
13 -9 16 -45 15 -24 0 -48 2 -51 6 -16 15 -23 5 -22 -33z"/>
<path d="M1325 650 c-3 -6 0 -13 8 -16 8 -3 15 -17 15 -30 0 -14 5 -31 12 -37
10 -9 12 -8 7 4 -3 9 0 22 6 29 9 10 9 11 -2 5 -11 -6 -13 -4 -8 8 4 11 -1 18
-14 22 -10 4 -17 11 -14 16 4 5 4 9 1 9 -3 0 -8 -5 -11 -10z"/>
<path d="M1407 641 c-3 -11 1 -28 9 -38 7 -10 14 -26 14 -35 0 -9 9 -23 20
-31 11 -8 17 -17 13 -20 -6 -7 12 -11 31 -8 5 1 6 -5 3 -13 -3 -8 1 -20 9 -27
11 -9 12 -14 3 -20 -13 -8 -33 7 -41 31 -3 10 -6 8 -10 -8 -4 -15 -2 -22 8
-22 8 0 14 -5 14 -11 0 -6 -9 -9 -20 -6 -11 3 -20 1 -20 -3 0 -5 -3 -17 -6
-27 -5 -15 -4 -15 5 -3 6 8 14 15 18 16 47 5 93 42 64 52 -6 2 -9 8 -6 13 3 5
-5 25 -18 45 -16 23 -27 31 -30 22 -3 -7 -6 -3 -6 9 -1 12 -10 27 -21 33 -11
6 -20 15 -20 21 0 6 5 7 11 3 7 -4 7 2 -1 17 -17 33 -17 32 -23 10z"/>
<path d="M2094 642 c-12 -18 -8 -42 7 -42 4 0 6 7 3 15 -4 8 -2 15 4 15 6 0
12 -5 14 -12 3 -8 6 -9 11 -1 4 6 -1 17 -11 26 -16 15 -19 15 -28 -1z"/>
<path d="M2860 644 c0 -13 8 -24 20 -27 13 -3 20 -14 20 -28 0 -22 0 -22 -15
-3 -14 18 -14 18 -15 -8 0 -22 3 -26 18 -21 28 11 42 29 30 41 -6 6 -6 12 1
16 6 4 11 12 11 18 0 7 -5 6 -15 -2 -12 -10 -18 -8 -35 11 -19 24 -19 24 -20
3z"/>
<path d="M371 608 c-1 -26 4 -50 10 -54 7 -4 10 -1 7 7 -2 7 3 29 13 48 19 39
17 50 -5 32 -11 -9 -15 -9 -19 1 -3 7 -6 -8 -6 -34z"/>
<path d="M456 634 c-4 -9 -4 -19 -2 -21 9 -10 46 9 46 23 0 19 -36 18 -44 -2z"/>
<path d="M864 635 c-7 -18 14 -47 27 -39 5 3 9 16 9 30 0 27 -27 34 -36 9z"/>
<path d="M197 620 c-9 -11 -14 -20 -11 -20 3 0 -11 -17 -30 -37 -40 -43 -45
-57 -16 -48 12 4 20 2 20 -5 0 -6 -4 -9 -8 -6 -11 7 -64 -29 -56 -37 4 -4 2
-13 -5 -20 -9 -11 -7 -17 6 -28 15 -12 16 -12 9 1 -4 9 -1 8 7 -2 8 -10 18
-18 23 -18 4 0 21 -12 36 -27 l28 -27 0 32 c0 18 -5 32 -11 32 -5 0 -7 -6 -3
-12 5 -9 2 -9 -9 1 -9 7 -17 10 -17 6 0 -4 -7 -2 -15 5 -8 6 -13 17 -12 23 1
7 -4 11 -10 9 -17 -3 -16 1 5 25 9 11 23 18 31 15 11 -4 12 3 8 29 -8 42 6 70
25 51 6 -6 18 -12 26 -12 10 0 10 3 -2 16 -18 17 -21 28 -6 19 6 -4 10 5 8 24
-1 17 -3 31 -3 31 0 0 -8 -9 -18 -20z"/>
<path d="M796 631 c-4 -6 -4 -11 1 -11 4 0 0 -5 -10 -11 -14 -8 -15 -14 -7
-24 6 -8 19 -11 28 -9 15 5 14 4 -1 -6 -9 -6 -15 -16 -12 -21 4 -5 10 -7 15
-4 5 3 18 1 28 -4 17 -9 18 -7 14 17 -5 24 -6 25 -13 7 -6 -16 -8 -16 -8 -4
-2 29 -28 82 -35 70z"/>
<path d="M1207 620 c-3 -13 -2 -29 3 -34 6 -6 10 -15 10 -20 -1 -6 -10 0 -22
14 -15 18 -19 20 -15 7 4 -11 10 -30 13 -43 3 -13 10 -24 16 -24 5 0 6 -4 3
-10 -3 -5 -1 -10 6 -10 8 0 9 10 5 30 -4 22 -2 29 6 24 7 -5 8 -3 3 7 -5 7
-12 29 -15 49 -5 33 -6 33 -13 10z"/>
<path d="M1080 623 c0 -7 11 -28 24 -48 14 -20 23 -42 20 -49 -3 -8 1 -16 9
-19 9 -3 17 2 20 14 3 10 1 17 -4 13 -5 -3 -9 2 -9 10 0 9 -5 16 -10 16 -6 0
-8 14 -5 33 4 27 3 29 -6 13 -11 -18 -12 -18 -25 5 -7 13 -13 19 -14 12z"/>
<path d="M921 573 c1 -27 3 -41 6 -32 6 23 45 32 59 14 6 -8 14 -12 17 -8 10
10 8 25 -2 18 -5 -3 -16 4 -24 15 -7 11 -17 17 -20 14 -4 -4 -9 1 -13 10 -12
31 -24 15 -23 -31z"/>
<path d="M1470 612 c0 -19 56 -98 75 -105 21 -9 19 11 -4 37 -11 11 -31 35
-45 51 -14 17 -26 24 -26 17z"/>
<path d="M1690 599 c0 -11 4 -18 9 -15 5 3 11 -8 15 -26 8 -43 17 -31 9 14 -6
40 -33 62 -33 27z"/>
<path d="M1760 620 c-1 -3 -3 -14 -4 -25 -2 -11 -6 -31 -9 -45 -4 -14 -4 -19
-1 -12 3 6 9 10 14 7 4 -3 6 5 4 17 -3 16 0 14 10 -8 16 -34 43 -60 53 -50 3
3 1 6 -5 6 -6 0 -9 7 -6 15 4 9 0 15 -10 15 -9 0 -16 5 -16 11 0 5 6 7 13 4 6
-4 4 0 -5 8 -10 7 -22 25 -27 38 -5 13 -10 22 -11 19z"/>
<path d="M2050 609 c0 -17 42 -109 50 -109 4 0 6 12 4 28 -2 15 -1 21 2 15 9
-20 20 -15 21 9 2 18 0 20 -7 8 -5 -8 -10 -11 -10 -6 0 5 -8 2 -17 -5 -9 -8
-14 -9 -10 -3 4 6 0 26 -9 43 -16 32 -24 39 -24 20z"/>
<path d="M105 593 c-5 -10 -7 -24 -6 -31 1 -7 -2 -12 -6 -11 -20 3 -33 -2 -30
-13 1 -6 -7 -14 -18 -16 -48 -10 -59 -42 -20 -60 23 -11 27 -9 35 14 6 14 24
46 41 71 20 29 28 48 21 55 -6 6 -12 3 -17 -9z"/>
<path d="M485 600 c-3 -5 -2 -10 4 -10 6 0 9 -6 7 -12 -1 -7 -1 -10 1 -5 7 11
33 8 33 -4 0 -5 -6 -7 -12 -3 -7 4 -9 3 -5 -1 4 -5 19 -11 32 -12 l25 -4 -23
24 c-12 13 -24 22 -26 20 -2 -2 -10 2 -17 8 -8 7 -14 7 -19 -1z"/>
<path d="M2001 594 c10 -12 10 -17 1 -23 -8 -5 2 -20 29 -47 27 -25 37 -31 30
-17 -6 12 -19 27 -29 32 -16 10 -16 10 0 11 11 0 15 5 12 15 -5 11 -10 13 -19
5 -9 -8 -11 -4 -7 15 3 19 0 25 -13 25 -15 0 -15 -2 -4 -16z"/>
<path d="M728 593 c-11 -3 -15 -10 -11 -20 4 -11 2 -14 -5 -9 -19 11 -14 -9 6
-27 25 -23 39 -21 18 2 -17 19 -7 39 14 26 6 -3 10 1 10 9 0 18 -10 24 -32 19z"/>
<path d="M863 580 c4 -14 7 -28 7 -32 0 -5 5 -8 10 -8 16 0 11 36 -7 51 -15
13 -16 11 -10 -11z"/>
<path d="M1044 566 c4 -18 3 -25 -4 -21 -5 3 -10 1 -10 -4 0 -6 5 -11 11 -11
7 0 8 -11 3 -32 -4 -18 -7 -39 -7 -45 0 -7 -4 -13 -8 -13 -5 0 -8 -12 -7 -27
0 -16 -3 -38 -7 -49 -4 -15 -2 -23 9 -27 11 -5 16 0 15 16 0 12 3 33 7 46 5
18 4 22 -5 17 -9 -6 -10 -4 -2 10 21 39 41 119 31 122 -5 2 -10 10 -10 17 0 8
-5 17 -11 21 -9 5 -10 -1 -5 -20z"/>
<path d="M2340 570 c-6 -11 -8 -25 -4 -31 3 -6 -2 -16 -12 -23 -12 -9 -14 -15
-6 -20 16 -10 34 2 26 16 -5 8 -1 9 11 4 18 -6 18 -6 2 12 -17 19 -23 37 -9
28 4 -2 8 4 8 15 0 24 -3 24 -16 -1z"/>
<path d="M2470 586 c0 -4 5 -17 11 -28 8 -15 13 -17 19 -8 9 15 30 5 30 -16 0
-8 5 -14 11 -14 5 0 7 -5 3 -12 -5 -8 0 -9 14 -6 12 4 25 2 28 -3 3 -5 -2 -9
-11 -9 -15 0 -15 -2 -1 -15 18 -18 40 -20 29 -2 -4 6 -8 18 -10 26 -3 23 -80
93 -88 81 -5 -8 -11 -8 -21 1 -8 6 -14 8 -14 5z"/>
<path d="M1657 568 c-16 -12 -16 -15 4 -43 12 -16 19 -22 16 -13 -3 9 -1 18 4
20 6 2 7 12 2 26 -7 19 -11 21 -26 10z"/>
<path d="M1870 525 c0 -24 -2 -26 -17 -14 -14 12 -16 12 -11 -1 3 -8 12 -15
20 -14 10 1 13 -7 10 -27 -2 -16 -1 -41 3 -56 l7 -28 10 28 c7 20 6 32 -4 45
-12 15 -11 16 5 3 9 -7 17 -20 17 -27 0 -8 5 -14 10 -14 6 0 10 -7 10 -16 0
-8 -4 -13 -9 -9 -5 3 -12 1 -15 -4 -3 -5 1 -12 10 -15 8 -3 12 -10 9 -16 -3
-5 5 -21 19 -35 22 -22 25 -23 23 -6 -1 11 -5 17 -11 14 -5 -4 -6 5 -2 20 3
14 1 29 -4 32 -6 4 -8 10 -5 15 3 5 -9 25 -26 45 -18 20 -34 51 -36 68 -4 40
-13 48 -13 12z"/>
<path d="M537 533 c-4 -3 -7 -16 -7 -27 -1 -20 -1 -20 -20 3 -26 31 -26 17 0
-16 17 -23 18 -28 6 -42 -7 -9 -16 -28 -20 -43 -5 -21 -3 -26 8 -22 8 3 18 13
21 22 6 15 24 132 20 132 -1 0 -5 -3 -8 -7z"/>
<path d="M1700 535 c0 -3 6 -21 14 -40 8 -18 12 -36 8 -39 -3 -4 4 -15 16 -26
12 -12 22 -16 22 -10 0 6 -7 13 -16 17 -13 5 -13 7 -2 14 11 8 11 11 -1 18 -7
5 -10 14 -6 21 4 6 -2 20 -14 31 -12 11 -21 17 -21 14z"/>
<path d="M1908 528 c-4 -10 1 -23 13 -34 23 -20 30 -17 18 11 -5 14 -8 15 -9
5 -1 -8 -5 -4 -9 10 -6 20 -8 22 -13 8z"/>
<path d="M1950 526 c0 -18 28 -41 38 -31 4 4 1 10 -5 12 -7 3 -13 11 -13 19 0
8 -4 14 -10 14 -5 0 -10 -6 -10 -14z"/>
<path d="M1181 498 c5 -18 9 -34 9 -35 0 -2 10 -3 23 -3 16 0 18 -3 8 -9 -14
-9 -7 -31 10 -31 18 0 9 42 -10 47 -11 3 -21 17 -25 34 -3 16 -10 29 -15 29
-6 0 -6 -12 0 -32z"/>
<path d="M1755 520 c-4 -7 -2 -16 4 -20 7 -4 10 -18 8 -31 -2 -13 -2 -18 0
-11 3 6 9 12 14 12 6 0 8 4 5 9 -4 5 -1 11 5 13 6 2 2 11 -9 21 -15 13 -22 15
-27 7z"/>
<path d="M823 508 c4 -10 2 -18 -3 -18 -15 0 -12 -17 4 -23 10 -4 13 -1 10 7
-3 7 5 18 18 25 13 6 16 10 7 7 -9 -2 -22 1 -29 7 -10 9 -12 8 -7 -5z"/>
<path d="M1085 498 c3 -16 1 -28 -4 -28 -17 0 -18 -113 -1 -128 13 -10 13 -11
-2 -6 -22 8 -24 -12 -2 -20 9 -3 17 -6 19 -6 1 0 5 16 7 35 3 23 0 31 -7 25
-7 -5 -10 6 -10 35 0 24 3 38 7 32 11 -17 8 44 -3 68 -8 17 -8 15 -4 -7z"/>
<path d="M1570 506 c0 -13 -5 -16 -20 -11 -26 8 -26 -7 0 -23 11 -7 19 -9 18
-5 0 5 2 16 7 26 4 10 5 21 1 24 -3 4 -6 -1 -6 -11z"/>
<path d="M2777 503 c3 -7 9 -11 13 -8 16 10 22 -16 8 -33 -12 -15 -11 -16 5
-3 19 15 23 41 6 41 -5 0 -8 4 -5 8 2 4 -4 8 -14 8 -10 0 -16 -6 -13 -13z"/>
<path d="M446 486 c-8 -34 -8 -35 24 -25 14 4 19 7 12 8 -7 1 -16 11 -21 23
-8 21 -8 21 -15 -6z"/>
<path d="M552 463 c0 -24 6 -44 13 -47 10 -3 12 4 8 27 -8 54 -22 67 -21 20z"/>
<path d="M2240 493 c0 -4 8 -18 18 -31 17 -22 18 -22 19 -2 1 11 -7 25 -18 30
-10 6 -19 7 -19 3z"/>
<path d="M2875 493 c3 -7 1 -13 -4 -13 -6 0 -11 -15 -11 -32 0 -23 -3 -29 -9
-19 -5 7 -14 10 -20 7 -6 -4 -11 -2 -11 5 0 7 -2 10 -5 7 -3 -3 5 -24 18 -47
l24 -42 11 42 c6 23 8 48 5 55 -3 8 -1 14 5 14 16 0 19 -44 7 -94 -7 -25 -8
-46 -4 -46 4 0 9 -9 11 -20 2 -15 7 -17 18 -10 13 9 13 11 0 20 -11 7 -12 12
-3 21 6 6 9 18 6 25 -4 10 4 14 23 15 16 1 22 3 12 6 -9 2 -23 21 -31 41 -9
20 -23 46 -32 57 -9 11 -14 14 -10 8z"/>
<path d="M406 475 c-5 -15 9 -55 19 -55 5 0 -4 62 -9 68 -2 1 -6 -4 -10 -13z"/>
<path d="M1377 465 c10 -47 22 -75 33 -75 5 0 10 4 10 9 0 5 3 17 7 27 4 10 2
15 -3 11 -13 -8 -27 3 -42 33 -11 25 -11 24 -5 -5z"/>
<path d="M2454 478 c-7 -11 5 -28 19 -28 7 0 13 8 13 18 0 19 -22 26 -32 10z"/>
<path d="M2150 460 c0 -14 7 -20 21 -20 11 0 17 -4 14 -10 -3 -5 1 -10 10 -10
14 0 14 2 0 24 -22 33 -45 41 -45 16z"/>
<path d="M2212 453 c26 -28 29 -56 9 -76 -6 -6 -11 -15 -11 -21 0 -5 6 -4 12
2 10 10 16 8 30 -10 l18 -23 0 28 c0 19 -5 27 -17 27 -15 0 -14 2 3 15 17 13
17 14 2 15 -11 0 -15 5 -11 15 6 19 -23 55 -45 55 -12 0 -9 -7 10 -27z"/>
<path d="M2427 463 c-4 -3 1 -15 10 -25 14 -15 14 -19 3 -16 -8 2 -18 8 -22
13 -4 6 -8 2 -8 -9 0 -20 55 -116 74 -128 16 -11 28 -10 21 1 -3 5 3 12 12 14
10 2 6 3 -9 1 -25 -3 -28 0 -34 36 -4 25 -12 40 -21 40 -11 0 -11 4 -2 22 9
17 9 24 -5 33 -8 7 -13 15 -9 18 3 4 4 7 1 7 -2 0 -8 -3 -11 -7z"/>
<path d="M1980 440 c5 -10 10 -27 10 -38 0 -27 33 -55 48 -40 8 8 15 8 27 -2
10 -8 15 -9 15 -1 0 11 -6 13 -50 15 -21 1 -25 6 -28 38 -2 20 -9 39 -18 42
-11 4 -12 2 -4 -14z"/>
<path d="M4 420 c-2 -28 -1 -29 13 -13 8 10 12 12 8 6 -3 -7 -2 -13 3 -13 20
0 21 30 2 40 -25 14 -25 14 -26 -20z"/>
<path d="M381 408 c0 -26 4 -50 9 -53 11 -7 11 25 0 70 -7 27 -8 25 -9 -17z"/>
<path d="M1560 441 c0 -5 4 -12 10 -16 5 -3 7 -13 4 -23 -5 -14 -4 -15 5 -2 8
11 11 12 11 2 0 -7 5 -10 11 -6 7 4 10 1 7 -7 -3 -8 -12 -13 -21 -11 -11 2
-14 -3 -10 -18 7 -26 19 -26 26 1 3 12 10 18 16 14 8 -4 8 0 0 17 -11 25 -59
65 -59 49z"/>
<path d="M2305 431 c4 -12 0 -23 -10 -29 -24 -13 3 -32 30 -21 17 6 17 8 3 8
-19 1 -26 21 -8 21 6 0 10 9 10 20 0 11 -7 20 -16 20 -11 0 -13 -6 -9 -19z"/>
<path d="M2570 442 c0 -7 -4 -11 -9 -8 -14 9 -1 -32 15 -45 21 -18 29 15 10
43 -9 12 -16 17 -16 10z"/>
<path d="M625 419 c-4 -6 2 -13 14 -16 11 -3 18 -10 14 -16 -3 -6 -1 -7 5 -3
15 9 16 46 2 46 -5 0 -10 -4 -10 -10 0 -5 -5 -10 -11 -10 -5 0 -7 5 -4 10 3 6
4 10 1 10 -3 0 -8 -5 -11 -11z"/>
<path d="M1187 416 c-12 -30 -8 -41 8 -20 13 17 14 17 15 2 0 -10 5 -18 11
-18 7 0 9 -9 5 -23 -3 -14 1 -31 10 -43 15 -18 15 -18 10 -1 -3 10 -6 29 -6
42 0 13 -10 36 -23 51 -21 24 -24 25 -30 10z"/>
<path d="M1250 406 c0 -27 24 -41 39 -23 12 15 3 31 -21 40 -14 5 -18 1 -18
-17z"/>
<path d="M2103 413 c26 -30 22 -51 -6 -25 -25 24 -37 28 -37 12 0 -5 6 -10 14
-10 28 0 35 -59 10 -84 -20 -20 -9 -56 16 -56 10 0 22 -5 25 -10 3 -6 17 -7
30 -4 13 3 32 1 42 -5 11 -6 13 -11 5 -11 -7 0 -10 -4 -7 -10 3 -5 -1 -10 -10
-10 -9 0 -13 4 -10 10 3 6 2 10 -4 10 -5 0 -13 -4 -16 -10 -4 -6 -16 -4 -33 6
-17 10 -21 11 -10 2 10 -9 13 -19 8 -27 -5 -10 -9 -10 -13 -2 -4 8 -5 8 -3 -1
4 -20 26 -21 27 -1 0 16 1 16 9 -2 7 -17 9 -17 9 -2 1 9 5 17 10 17 9 0 25
-30 23 -42 -1 -5 3 -8 8 -8 13 0 13 13 -1 27 -9 9 -6 10 12 6 13 -3 30 -13 37
-21 11 -14 12 -14 12 1 0 9 -5 17 -11 17 -5 0 -7 5 -3 11 4 8 10 5 17 -7 14
-25 29 -35 46 -29 7 3 20 -3 27 -12 8 -10 14 -13 13 -8 -4 31 2 34 36 18 19
-9 32 -20 29 -25 -3 -4 2 -5 10 -2 8 3 12 12 9 20 -3 8 -10 11 -15 8 -6 -4
-13 -2 -17 5 -4 6 -19 12 -34 13 -15 1 -27 6 -27 11 0 5 -6 5 -12 -1 -19 -14
-55 3 -64 30 l-7 23 -9 -24 c-6 -18 -12 -21 -20 -13 -8 8 -8 15 1 26 10 12 5
16 -36 21 -64 8 -77 17 -81 51 -3 25 11 28 14 3 1 -5 2 -13 3 -18 0 -5 8 -12
17 -15 8 -3 12 -2 9 4 -8 14 8 13 22 -1 6 -6 27 -11 47 -12 20 -1 36 -4 36 -8
0 -4 9 -5 21 -2 16 5 18 8 7 15 -8 6 0 7 24 5 21 -3 35 -1 32 4 -3 5 -10 7
-15 4 -5 -4 -14 6 -19 20 -10 26 -34 30 -36 7 -1 -7 -2 -19 -3 -27 -1 -9 -7
-12 -17 -8 -12 5 -13 7 -2 14 8 5 4 8 -12 7 -14 -1 -28 -6 -31 -11 -4 -5 -16
-4 -29 3 -16 9 -19 14 -11 20 9 5 8 9 -4 13 -9 4 -14 3 -11 -1 2 -4 1 -14 -5
-22 -6 -11 -9 -7 -9 16 0 16 -6 36 -12 43 -10 11 -10 13 0 7 24 -14 14 48 -10
63 -22 13 -23 13 -5 -6z"/>
<path d="M2364 423 c15 -4 16 -7 5 -14 -11 -7 -12 -12 -2 -28 11 -17 10 -21
-6 -26 -10 -3 -25 -3 -34 1 -11 4 -15 0 -14 -14 1 -16 5 -19 18 -11 23 12 32
11 24 -1 -3 -6 1 -7 9 -4 9 3 16 2 16 -4 0 -6 -6 -13 -12 -15 -10 -4 -10 -6
-1 -6 17 -1 22 10 27 71 4 53 4 54 -22 55 -17 0 -20 -1 -8 -4z"/>
<path d="M443 393 c1 -12 5 -19 9 -17 4 3 8 -1 8 -10 0 -8 -5 -17 -10 -19 -6
-3 -5 -4 2 -3 7 1 14 18 15 36 1 20 -2 28 -7 21 -6 -11 -9 -11 -13 0 -3 8 -4
4 -4 -8z"/>
<path d="M79 391 c7 -5 11 -13 7 -19 -3 -6 0 -14 7 -19 8 -4 19 -17 25 -28 9
-17 11 -15 9 15 -1 23 -9 39 -22 47 -23 14 -48 17 -26 4z"/>
<path d="M295 373 c3 -45 5 -49 15 -33 13 20 13 33 -1 24 -8 -4 -9 0 -4 15 3
11 2 21 -3 21 -5 0 -8 -12 -7 -27z"/>
<path d="M2142 366 c-2 -27 2 -36 18 -41 11 -3 20 -10 20 -16 0 -5 11 -8 25
-7 14 1 25 6 25 11 0 5 -8 6 -18 3 -13 -4 -23 3 -37 27 -11 17 -18 38 -17 45
2 6 -1 12 -6 12 -4 0 -9 -15 -10 -34z"/>
<path d="M1330 380 l-25 -6 24 -13 c14 -8 21 -9 17 -2 -4 6 0 11 9 11 9 0 13
-5 10 -10 -10 -17 5 -54 18 -41 13 13 19 63 6 55 -5 -3 -15 -2 -22 4 -7 5 -23
6 -37 2z"/>
<path d="M241 362 c0 -13 -5 -21 -10 -18 -5 4 -7 -4 -3 -16 5 -21 6 -21 13 -2
8 19 11 14 13 -21 1 -11 -3 -23 -9 -27 -5 -4 0 -6 11 -6 18 2 32 28 14 28 -3
0 -6 9 -6 20 0 11 4 20 8 20 4 0 8 -5 8 -12 0 -6 2 -9 5 -6 10 10 -7 37 -20
32 -7 -3 -15 3 -18 13 -4 14 -5 13 -6 -5z"/>
<path d="M783 367 c-9 -15 6 -20 21 -8 11 10 15 9 18 -2 2 -11 6 -11 20 2 16
16 15 17 -18 17 -20 0 -38 -4 -41 -9z"/>
<path d="M1422 371 c-9 -5 -5 -13 11 -27 35 -31 48 -37 41 -20 -3 8 -13 17
-22 21 -13 5 -14 8 -3 14 10 7 10 9 -2 14 -7 3 -19 2 -25 -2z"/>
<path d="M1173 287 c-1 -85 -4 -109 -14 -117 -12 -9 -22 -53 -11 -46 19 11 40
65 35 86 -3 11 -1 20 3 20 5 0 10 19 12 43 2 31 0 38 -8 27 -8 -11 -9 -5 -4
21 3 20 2 39 -3 42 -6 4 -10 -29 -10 -76z"/>
<path d="M1250 359 c0 -8 7 -27 15 -43 20 -37 20 -36 -17 -25 -18 5 -34 9 -35
9 -2 0 -3 -9 -3 -20 0 -11 5 -20 10 -20 6 0 10 5 10 10 0 6 7 10 15 10 8 0 15
-5 15 -10 0 -6 11 -3 25 6 21 14 23 19 13 37 -18 34 -48 63 -48 46z"/>
<path d="M2409 348 c-1 -16 -2 -34 -3 -40 -3 -17 14 -38 30 -38 13 0 9 24 -14
80 l-11 25 -2 -27z"/>
<path d="M157 353 c-9 -8 -9 -46 -1 -67 5 -12 10 -14 19 -6 10 9 12 7 9 -7 -3
-11 3 -23 15 -30 18 -11 19 -10 11 18 -5 17 -6 37 -3 45 3 8 0 14 -7 14 -6 0
-8 -6 -5 -12 4 -7 -3 -2 -14 11 -12 12 -18 27 -15 32 6 11 0 12 -9 2z"/>
<path d="M944 335 c-8 -17 -8 -27 -1 -34 8 -8 8 -11 -1 -11 -7 0 -12 -7 -12
-15 0 -8 -9 -15 -20 -15 -12 0 -17 5 -14 13 2 7 -10 28 -27 47 -18 20 -29 27
-25 17 3 -10 6 -28 6 -38 0 -13 4 -17 11 -13 8 5 10 -3 7 -24 -3 -24 -2 -29 8
-21 9 8 11 5 7 -11 -4 -15 -11 -20 -24 -17 -14 4 -19 0 -18 -16 0 -12 3 -16 6
-9 2 6 8 10 13 7 5 -3 18 7 29 21 12 15 21 23 21 18 0 -18 42 38 44 59 1 13 5
27 8 33 4 5 4 15 0 21 -5 7 -11 3 -18 -12z"/>
<path d="M1487 329 c15 -29 50 -56 61 -45 3 3 0 6 -7 6 -9 0 -11 8 -8 21 4 13
0 22 -11 25 -9 3 -24 9 -33 14 -15 8 -16 6 -2 -21z"/>
<path d="M2570 343 c0 -15 -2 -16 -10 -3 -9 13 -10 13 -10 -1 0 -8 6 -23 13
-33 12 -17 14 -15 15 18 1 20 -1 36 -3 36 -3 0 -5 -8 -5 -17z"/>
<path d="M1300 344 c0 -3 5 -14 10 -24 6 -12 7 -28 1 -43 -8 -22 -7 -23 15
-19 13 2 27 9 31 15 3 6 1 7 -5 3 -21 -13 -37 6 -18 19 14 11 15 13 1 19 -8 3
-15 12 -15 21 0 8 -4 15 -10 15 -5 0 -10 -3 -10 -6z"/>
<path d="M1704 342 c3 -3 0 -12 -7 -20 -9 -13 -9 -14 1 -8 6 4 12 3 12 -3 0
-6 6 -8 14 -5 8 3 23 1 34 -5 17 -9 19 -8 15 9 -3 11 -9 17 -14 15 -4 -3 -11
0 -16 7 -4 7 -16 14 -26 15 -10 0 -16 -2 -13 -5z"/>
<path d="M367 308 c-5 -37 0 -58 15 -58 6 0 5 6 -2 15 -6 8 -9 19 -5 25 11 17
14 50 6 50 -5 0 -11 -15 -14 -32z"/>
<path d="M650 325 c0 -8 5 -15 10 -15 6 0 10 -7 10 -16 0 -8 -4 -13 -8 -10 -5
3 -8 -3 -7 -12 1 -17 14 -29 16 -14 0 4 7 10 14 15 12 6 11 12 -3 37 -18 32
-32 39 -32 15z"/>
<path d="M1614 325 c3 -8 1 -15 -4 -15 -6 0 -10 -4 -10 -9 0 -5 10 -7 23 -4
20 4 20 3 4 -7 -17 -11 -17 -14 -3 -35 14 -22 14 -25 0 -40 -9 -9 -22 -14 -30
-11 -8 3 -12 -3 -11 -21 2 -23 -2 -25 -39 -27 -23 -1 -49 -7 -57 -14 -13 -11
-15 -10 -12 5 1 10 8 17 14 16 6 -2 11 5 11 14 0 9 -3 14 -6 11 -3 -4 -19 -2
-35 2 -17 5 -31 5 -34 -1 -5 -7 13 -13 36 -11 10 1 3 -38 -10 -51 -9 -9 -14
-9 -21 3 -5 8 -12 11 -16 7 -4 -4 -2 -13 4 -19 16 -16 15 -25 -2 -31 -11 -4
-13 3 -10 31 10 95 1 117 -45 107 -22 -6 -22 -5 -7 10 26 26 19 28 -15 4 -26
-18 -33 -19 -40 -8 -6 9 -8 0 -6 -27 2 -34 5 -40 22 -38 11 1 24 3 29 3 11 1
-2 15 -15 17 -5 1 -12 2 -15 3 -4 0 -1 7 5 15 7 8 21 12 32 9 16 -5 19 -11 14
-30 -4 -19 -1 -26 13 -30 14 -3 18 -11 15 -24 -7 -24 -21 -24 -53 1 -30 24
-40 25 -40 4 0 -9 5 -12 12 -8 8 5 9 0 5 -16 -3 -13 1 -33 10 -46 9 -15 11
-24 4 -24 -6 0 -11 4 -11 8 0 5 -6 16 -13 26 -12 16 -13 16 -14 -4 -1 -12 -10
-28 -19 -34 -12 -10 -14 -15 -5 -20 6 -4 18 -2 26 4 8 7 24 10 36 7 12 -3 18
-3 15 0 -5 6 36 43 48 43 3 0 6 -10 7 -22 1 -21 2 -21 12 4 6 16 20 31 30 34
16 5 17 8 6 15 -10 6 -6 9 14 9 25 0 27 -3 21 -22 -3 -13 -10 -24 -15 -26 -5
-2 -19 -12 -31 -23 -20 -16 -21 -20 -8 -28 10 -7 19 -6 30 4 11 10 21 11 35 4
19 -10 19 -10 2 5 -14 11 -16 19 -9 33 5 10 8 30 6 46 -1 15 1 25 7 22 5 -4 9
2 9 12 0 15 2 16 10 3 6 -10 10 -11 10 -2 0 6 5 12 11 12 6 0 9 -7 5 -15 -7
-19 8 -19 24 0 13 16 40 16 52 0 4 -5 10 -6 14 -2 4 3 2 13 -5 20 -6 8 -8 22
-5 31 6 16 8 15 27 -1 19 -18 20 -18 6 5 -12 21 -12 25 4 37 14 10 17 20 12
36 -7 20 -8 20 -17 6 -14 -25 -29 -21 -19 6 4 12 6 28 4 35 -3 8 2 10 14 6 10
-3 7 2 -7 10 -32 20 -44 20 -36 1z m-268 -220 c-3 -8 1 -21 10 -29 9 -10 11
-17 3 -21 -14 -9 -19 -3 -24 34 -2 17 1 31 7 31 5 0 8 -7 4 -15z"/>
<path d="M976 314 c-11 -28 -7 -37 9 -24 23 19 44 -3 25 -25 -11 -13 -10 -15
3 -10 13 6 26 34 27 59 0 4 -9 6 -20 3 -11 -3 -20 -1 -20 4 0 15 -17 10 -24
-7z"/>
<path d="M784 298 c3 -13 5 -25 5 -27 1 -3 7 4 15 14 16 22 12 35 -10 35 -9 0
-12 -8 -10 -22z"/>
<path d="M1854 305 c4 -11 0 -15 -11 -13 -9 2 -18 -3 -20 -9 -4 -10 3 -10 27
-1 21 7 28 13 20 18 -9 6 -9 9 1 13 9 4 8 6 -5 6 -12 1 -16 -4 -12 -14z"/>
<path d="M2590 303 c0 -15 2 -16 10 -3 8 13 10 13 10 -2 0 -9 -3 -18 -7 -21
-5 -2 -2 -2 5 -1 6 2 12 -4 12 -12 0 -10 -6 -14 -15 -10 -8 3 -15 1 -15 -4 0
-16 30 -11 37 6 7 18 -12 64 -27 64 -5 0 -10 -8 -10 -17z"/>
<path d="M1050 291 c-15 -28 -12 -38 4 -16 12 17 16 17 30 6 16 -13 14 -25 -5
-27 -5 -1 -13 -2 -19 -3 -5 0 -10 -10 -10 -22 0 -16 4 -19 17 -15 9 4 20 1 26
-6 5 -9 7 -3 3 15 -4 15 -2 27 4 27 18 0 11 -43 -12 -67 -12 -12 -22 -31 -23
-42 -1 -11 -8 -27 -16 -37 -13 -16 -12 -16 8 -5 21 11 22 10 17 -19 -5 -25 -3
-30 12 -31 11 0 14 -3 7 -6 -7 -2 -13 -9 -13 -14 0 -6 5 -7 10 -4 6 3 10 -1
10 -9 0 -9 5 -16 11 -16 13 0 2 39 -17 61 -8 9 -11 19 -7 23 5 4 8 18 8 29 0
15 6 22 18 21 14 -2 15 1 6 12 -7 8 -8 21 -3 31 4 10 8 27 8 37 1 27 23 32 29
6 4 -18 5 -18 3 2 -1 16 -7 23 -19 22 -13 -2 -16 3 -12 20 4 14 3 17 -3 8 -8
-11 -10 -11 -15 2 -3 8 -15 20 -26 25 -16 9 -22 8 -31 -8z"/>
<path d="M2671 289 c8 -17 8 -27 -2 -46 -12 -22 -11 -26 4 -35 10 -5 15 -13
12 -18 -3 -4 1 -10 9 -13 8 -3 16 2 19 13 3 11 2 19 -2 18 -23 -3 -32 4 -29
25 2 12 9 21 16 20 6 -2 11 5 9 15 -4 26 -16 42 -33 42 -12 0 -13 -4 -3 -21z"/>
<path d="M2837 303 c-4 -3 -7 -25 -6 -47 1 -39 1 -40 9 -12 5 16 7 33 4 38 -3
4 0 8 5 8 6 0 11 5 11 10 0 11 -13 13 -23 3z"/>
<path d="M94 284 c-10 -8 -13 -13 -6 -9 6 3 12 1 12 -4 0 -6 -4 -11 -10 -11
-5 0 -10 -6 -10 -13 0 -8 7 -14 15 -14 8 0 11 5 8 10 -4 6 0 8 11 4 14 -5 15
-3 6 13 -13 23 -13 40 0 20 5 -8 12 -12 15 -9 3 4 -1 11 -8 17 -10 9 -18 8
-33 -4z"/>
<path d="M1395 290 c3 -6 -1 -7 -9 -4 -20 8 -20 -6 -1 -32 12 -16 14 -17 15
-2 0 9 5 18 12 20 13 5 2 28 -13 28 -6 0 -7 -4 -4 -10z"/>
<path d="M1431 288 c-1 -10 4 -18 9 -18 6 0 10 -5 10 -11 0 -5 -4 -7 -10 -4
-5 3 -10 2 -10 -3 0 -5 14 -9 30 -9 17 0 30 6 30 13 0 7 6 15 13 17 7 3 5 6
-5 6 -10 1 -18 7 -19 14 0 6 -4 3 -9 -8 -9 -20 -9 -20 -9 0 -1 15 -3 17 -10 6
-7 -11 -9 -11 -14 0 -4 10 -6 9 -6 -3z"/>
<path d="M1703 275 c-20 -23 -15 -30 7 -10 12 11 20 13 20 6 0 -7 4 -10 8 -7
4 2 14 1 21 -3 9 -6 10 -11 2 -15 -6 -4 -11 -3 -11 2 0 5 -7 9 -15 9 -19 0
-19 -5 -1 -23 20 -19 23 -18 41 16 15 29 15 30 -9 30 -13 0 -30 2 -38 5 -7 2
-19 -2 -25 -10z"/>
<path d="M2455 271 c-7 -24 -24 -27 -44 -8 -11 10 -12 9 -7 -1 4 -7 3 -19 -4
-27 -8 -9 -8 -15 0 -20 6 -4 10 -3 9 2 -3 20 2 27 11 13 6 -10 10 -11 10 -2 0
6 7 12 15 12 8 0 15 6 15 13 0 8 4 7 10 -3 9 -13 10 -13 10 0 0 8 -4 21 -9 29
-7 11 -10 9 -16 -8z"/>
<path d="M2533 283 c21 -5 23 -23 2 -23 -8 0 -15 -4 -15 -10 0 -12 20 -13 39
-1 20 13 5 41 -21 40 -17 -1 -18 -2 -5 -6z"/>
<path d="M2897 283 c-9 -19 0 -38 18 -41 14 -2 16 0 7 6 -7 5 -10 16 -6 25 6
16 -11 25 -19 10z"/>
<path d="M807 266 c-4 -9 -1 -16 5 -16 7 0 6 -5 -2 -15 -11 -14 -9 -80 4 -92
7 -8 7 -11 11 57 3 59 -7 96 -18 66z"/>
<path d="M2739 258 c-9 -17 -9 -23 0 -26 6 -2 9 -7 6 -12 -3 -4 5 -6 16 -3 21
6 21 6 2 17 -19 11 -21 36 -2 36 4 0 6 -7 3 -15 -4 -8 -1 -15 6 -15 6 0 8 5 4
11 -4 7 -1 10 7 7 8 -3 13 -12 11 -22 -2 -10 4 -16 15 -15 11 0 13 3 5 6 -6 2
-10 8 -7 13 7 11 -23 40 -40 40 -8 0 -20 -10 -26 -22z"/>
<path d="M671 222 c-15 -23 -18 -32 -8 -23 19 15 23 1 5 -17 -7 -7 -9 -12 -5
-12 4 0 1 -13 -7 -28 -11 -21 -12 -29 -3 -29 7 0 13 7 14 16 3 26 32 117 32
102 1 -8 4 -12 7 -8 3 3 2 12 -3 21 -6 12 -13 7 -32 -22z"/>
<path d="M2855 248 c-6 -17 -9 -47 -6 -83 1 -23 3 -27 11 -15 13 21 13 53 -1
44 -10 -6 -8 10 8 54 3 6 2 12 -1 12 -4 0 -9 -6 -11 -12z"/>
<path d="M547 237 c-3 -7 1 -35 8 -63 l12 -49 8 34 c6 27 4 37 -9 46 -10 7
-14 19 -10 29 3 9 4 16 1 16 -3 0 -7 -6 -10 -13z"/>
<path d="M2310 240 c0 -5 -9 -10 -20 -10 -22 0 -25 -7 -10 -30 8 -13 10 -12
10 3 0 9 4 17 9 17 5 0 7 -10 4 -22 -3 -18 -2 -19 5 -8 17 27 24 60 13 60 -6
0 -11 -4 -11 -10z"/>
<path d="M415 231 c-3 -6 -2 -11 3 -11 6 0 8 -17 5 -40 -3 -23 -1 -40 4 -40 6
0 9 20 8 45 -1 47 -9 63 -20 46z"/>
<path d="M977 227 c-9 -24 8 -39 37 -31 25 6 32 32 7 27 -6 -2 -11 2 -11 7 0
15 -27 12 -33 -3z"/>
<path d="M1689 240 c-6 -23 -4 -58 3 -54 4 3 5 11 2 17 -4 7 -3 9 1 4 5 -4 9
-16 10 -27 2 -20 -6 -24 -34 -21 -7 2 -10 -2 -7 -8 4 -5 -2 -14 -11 -20 -16
-9 -16 -11 6 -30 29 -25 40 -26 47 -6 4 8 10 12 15 9 5 -3 6 2 3 11 -6 14 -8
14 -24 0 -19 -18 -30 -19 -30 -4 0 5 5 7 10 4 6 -3 10 3 10 14 0 14 6 21 20
21 21 0 27 15 10 25 -5 3 -7 11 -4 18 2 7 -2 21 -10 32 -9 11 -16 18 -17 15z"/>
<path d="M2520 221 c0 -17 22 -24 31 -10 7 12 12 7 11 -11 0 -3 17 -5 37 -5
21 0 38 5 38 11 0 7 -14 11 -31 9 -17 -1 -35 1 -41 4 -18 10 -45 11 -45 2z"/>
<path d="M2890 220 c0 -5 5 -10 11 -10 8 0 8 -4 1 -13 -12 -14 7 -47 27 -47
19 0 12 18 -9 25 -11 4 -18 11 -14 16 4 6 11 6 20 -2 12 -9 13 -9 9 2 -7 18
-45 43 -45 29z"/>
<path d="M180 216 c0 -2 8 -10 17 -17 11 -10 14 -10 9 -1 -4 6 -3 12 3 12 6 0
15 -15 20 -32 l9 -33 1 31 c1 20 -5 34 -15 38 -17 7 -44 8 -44 2z"/>
<path d="M1213 208 c-15 -20 -24 -50 -13 -43 6 3 10 14 11 23 0 14 2 13 8 -3
7 -17 8 -17 13 8 6 29 -3 35 -19 15z"/>
<path d="M2027 186 c-15 -14 -27 -29 -27 -35 0 -5 -8 -11 -17 -13 -15 -3 -14
-6 6 -17 20 -11 23 -11 19 1 -7 17 12 53 30 54 6 1 19 2 27 3 8 0 15 9 15 19
0 13 -2 14 -9 3 -6 -9 -10 -10 -13 -1 -2 7 -14 2 -31 -14z"/>
<path d="M2753 197 c-18 -6 -33 -15 -33 -19 0 -15 27 -8 51 12 13 10 22 19 19
18 -3 0 -20 -6 -37 -11z"/>
<path d="M2795 190 c-10 -11 -16 -20 -12 -20 3 0 12 -3 20 -6 9 -3 16 3 20 15
7 29 -7 34 -28 11z"/>
<path d="M891 179 c-11 -12 -18 -26 -15 -31 3 -4 -2 -8 -10 -8 -9 0 -16 -5
-16 -11 0 -5 5 -7 10 -4 9 6 14 -14 11 -43 -1 -6 3 -20 9 -30 10 -15 11 -14 7
5 -3 12 0 24 7 27 8 3 7 7 -3 14 -9 7 -10 11 -2 17 7 3 9 16 6 28 -2 12 -2 17
1 10 8 -18 56 6 52 26 -5 24 -34 24 -57 0z"/>
<path d="M1775 180 c-3 -6 -10 -8 -15 -5 -5 3 -7 -8 -5 -25 2 -18 0 -28 -5
-25 -6 3 -7 -1 -4 -9 8 -21 17 -20 32 5 8 12 9 18 3 14 -6 -3 -11 1 -11 10 0
11 5 15 15 12 20 -8 28 8 11 22 -10 8 -16 9 -21 1z"/>
<path d="M980 156 c0 -14 4 -28 10 -31 5 -3 7 0 4 8 -3 9 4 22 18 31 l22 16
-27 0 c-22 0 -27 -5 -27 -24z"/>
<path d="M136 151 c-15 -16 -15 -19 -2 -24 9 -4 18 -2 21 4 4 5 11 6 17 3 6
-4 8 1 6 11 -4 26 -22 28 -42 6z"/>
<path d="M347 162 c-3 -4 2 -21 12 -36 14 -20 20 -24 28 -14 6 9 3 20 -13 36
-12 13 -25 19 -27 14z"/>
<path d="M2080 156 c0 -9 4 -16 9 -16 6 0 8 -9 6 -20 -2 -11 0 -20 4 -20 14 0
9 49 -5 61 -11 9 -14 8 -14 -5z"/>
<path d="M540 150 c-1 -8 -3 -46 -5 -85 -3 -56 -2 -62 5 -30 4 22 6 44 3 49
-3 4 -1 11 5 15 8 5 8 17 3 36 -5 17 -10 23 -11 15z"/>
<path d="M1207 153 c-4 -3 -7 -19 -7 -35 0 -28 1 -29 18 -12 20 20 25 54 7 54
-6 0 -15 -3 -18 -7z"/>
<path d="M2060 151 c0 -8 -3 -11 -7 -8 -8 9 -33 -12 -33 -27 0 -6 5 -3 11 7
10 17 12 17 23 1 11 -14 14 -15 18 -2 4 8 2 21 -3 29 -7 12 -9 12 -9 0z"/>
<path d="M2529 148 c0 -2 -2 -14 -4 -28 -4 -25 -4 -25 7 -2 6 12 15 22 20 22
5 0 3 -10 -3 -22 -6 -13 -8 -20 -4 -16 4 4 18 3 31 -2 15 -6 24 -6 24 0 0 6
-9 10 -21 10 -16 0 -19 4 -14 20 5 16 2 20 -14 20 -12 0 -21 -1 -22 -2z"/>
<path d="M737 128 c-7 -20 4 -78 14 -72 5 3 6 10 3 16 -4 6 -7 24 -6 39 1 31
-3 37 -11 17z"/>
<path d="M2153 133 c-31 -6 -29 -23 1 -21 14 1 22 6 20 10 -3 4 0 8 5 8 11 0
15 -14 11 -39 -1 -13 1 -13 15 -1 9 7 13 20 10 28 -4 12 -3 13 10 2 8 -7 15
-21 15 -31 0 -12 7 -19 20 -19 11 0 20 4 20 10 0 5 -7 7 -15 4 -9 -4 -15 0
-15 10 0 9 6 16 14 16 7 0 18 6 24 13 8 10 6 13 -8 13 -10 0 -16 -5 -13 -10 4
-5 -4 -6 -18 -2 -36 11 -71 14 -96 9z"/>
<path d="M2770 131 c0 -5 -10 -13 -22 -17 -23 -7 -38 -21 -38 -38 0 -5 10 0
23 12 18 17 26 19 36 9 10 -9 11 -9 6 5 -5 13 -2 15 14 11 15 -4 21 -1 21 11
0 9 -8 16 -20 16 -11 0 -20 -4 -20 -9z"/>
<path d="M2301 116 c-9 -10 -8 -16 3 -26 9 -6 20 -9 26 -5 5 3 13 -1 16 -9 9
-22 19 -20 21 4 2 17 -3 19 -29 15 -27 -5 -30 -3 -25 15 6 24 4 25 -12 6z"/>
<path d="M2820 110 c0 -31 -1 -34 -12 -48 -12 -14 -5 -27 9 -19 10 6 17 87 8
87 -3 0 -5 -9 -5 -20z"/>
<path d="M492 109 c2 -8 8 -17 13 -21 6 -5 6 -8 -2 -8 -6 0 -9 -9 -6 -20 3
-11 9 -17 14 -14 15 9 10 51 -7 64 -12 11 -15 11 -12 -1z"/>
<path d="M1116 108 c5 -7 9 -19 11 -27 6 -43 15 -62 36 -72 12 -6 19 -8 15 -4
-4 4 -3 18 2 31 6 14 6 26 0 29 -6 4 -10 -3 -10 -15 0 -29 -22 -20 -31 13 -4
16 -3 27 4 30 7 2 1 9 -12 16 -19 11 -22 11 -15 -1z"/>
<path d="M1243 104 c-9 -9 -9 -15 2 -24 8 -6 11 -19 8 -28 -6 -14 -5 -15 9 -2
10 9 13 19 7 25 -14 14 -11 23 9 27 15 3 14 5 -3 9 -11 3 -26 0 -32 -7z"/>
<path d="M195 101 c-3 -6 -18 -9 -33 -6 -27 5 -27 5 3 -9 26 -12 27 -14 10
-19 -19 -6 -19 -6 0 -4 11 1 18 6 17 11 -2 5 2 12 9 17 8 4 11 11 7 14 -3 4
-9 2 -13 -4z"/>
<path d="M385 84 c-9 -15 -12 -23 -6 -20 6 4 11 0 11 -8 0 -18 16 -21 25 -6 3
6 2 10 -3 10 -5 0 -7 11 -4 25 6 32 -1 32 -23 -1z"/>
<path d="M913 75 c-1 -44 -10 -68 -23 -60 -5 3 -10 1 -10 -4 0 -14 6 -14 31 0
11 5 17 14 13 20 -3 5 0 16 6 24 12 14 5 55 -9 55 -4 0 -7 -16 -8 -35z"/>
<path d="M1791 101 c-9 -6 -11 -16 -6 -27 7 -18 8 -18 15 1 5 11 9 14 9 6 1
-8 8 -11 21 -8 10 3 20 1 22 -5 5 -13 35 0 42 18 4 10 2 12 -6 8 -23 -15 -68
-14 -68 1 0 17 -9 19 -29 6z"/>
<path d="M2910 99 c0 -6 7 -9 15 -5 8 3 14 2 14 -2 -4 -25 2 -35 13 -24 8 8 8
15 -2 27 -14 17 -40 20 -40 4z"/>
<path d="M72 88 c-16 -16 -15 -39 3 -62 13 -18 14 -18 12 2 0 11 -5 18 -9 16
-4 -3 -8 4 -8 14 0 20 29 40 31 22 1 -6 2 -15 3 -22 0 -6 8 -13 16 -15 13 -4
13 -3 0 6 -8 6 -11 11 -7 11 10 0 -11 40 -21 40 -5 0 -13 -5 -20 -12z"/>
<path d="M1742 55 c-2 -19 2 -35 7 -35 5 0 7 10 4 23 -4 18 -3 19 6 7 12 -17
15 -2 5 24 -10 26 -20 18 -22 -19z"/>
<path d="M2564 73 c4 -7 2 -13 -3 -13 -6 0 -11 -4 -11 -10 0 -5 7 -7 15 -3 9
3 25 -3 35 -12 11 -10 20 -14 20 -10 0 5 7 0 16 -11 14 -18 15 -18 4 4 -7 13
-14 21 -18 18 -3 -4 -19 6 -35 21 -17 16 -27 22 -23 16z"/>
<path d="M2656 65 c3 -11 6 -31 6 -45 -1 -23 0 -23 9 -6 9 15 13 16 20 5 5 -8
9 -9 9 -4 0 6 -12 24 -26 40 -18 21 -23 24 -18 10z"/>
<path d="M2690 66 c0 -9 5 -16 10 -16 6 0 10 -8 10 -17 0 -14 3 -14 20 5 24
26 26 36 4 28 -9 -4 -23 -1 -30 5 -11 9 -14 8 -14 -5z"/>
<path d="M604 59 c-5 -8 -3 -9 6 -4 10 6 12 1 7 -26 -3 -19 -3 -28 0 -21 3 9
9 10 17 3 9 -8 13 -7 13 4 0 8 -4 12 -9 9 -4 -3 -8 4 -8 15 0 24 -16 36 -26
20z"/>
<path d="M2304 55 c3 -8 0 -14 -6 -12 -7 1 -14 -7 -16 -18 -4 -16 -2 -17 10
-7 8 6 18 9 21 5 4 -3 7 6 7 20 0 15 -5 27 -11 27 -6 0 -9 -7 -5 -15z"/>
<path d="M1864 44 c-10 -9 -13 -13 -6 -9 6 3 12 2 12 -2 0 -5 14 -14 30 -20
36 -13 38 -6 6 24 -21 20 -25 21 -42 7z"/>
<path d="M351 32 c-14 -26 -10 -36 11 -30 10 2 12 11 8 28 l-6 25 -13 -23z"/>
</g>
</svg>
