<svg width="574" height="183" viewBox="0 0 574 183" fill="none" xmlns="http://www.w3.org/2000/svg">
<path d="M73.0664 147.4C64.5664 147.4 56.7164 146.1 49.5164 143.5C42.4164 140.8 36.2164 137 30.9164 132.1C25.7164 127.2 21.6664 121.4 18.7664 114.7C15.8664 108 14.4164 100.6 14.4164 92.5C14.4164 84.4 15.8664 77 18.7664 70.3C21.6664 63.6 25.7664 57.8 31.0664 52.9C36.3664 48 42.6164 44.25 49.8164 41.65C57.1164 38.95 65.1164 37.6 73.8164 37.6C84.2164 37.6 93.4664 39.35 101.566 42.85C109.766 46.35 116.516 51.35 121.816 57.85L99.1664 77.8C95.8664 74 92.2664 71.15 88.3664 69.25C84.5664 67.25 80.3164 66.25 75.6164 66.25C71.7164 66.25 68.1664 66.85 64.9664 68.05C61.8664 69.25 59.2164 71 57.0164 73.3C54.8164 75.6 53.1164 78.35 51.9164 81.55C50.7164 84.75 50.1164 88.4 50.1164 92.5C50.1164 96.4 50.7164 100 51.9164 103.3C53.1164 106.5 54.8164 109.25 57.0164 111.55C59.2164 113.85 61.8164 115.65 64.8164 116.95C67.9164 118.15 71.3664 118.75 75.1664 118.75C79.1664 118.75 83.0664 118.1 86.8664 116.8C90.6664 115.4 94.7164 113.05 99.0164 109.75L118.816 134.05C112.416 138.35 105.116 141.65 96.9164 143.95C88.7164 146.25 80.7664 147.4 73.0664 147.4ZM88.0664 129.55V89.65H118.816V134.05L88.0664 129.55ZM256.123 147.4C247.623 147.4 239.773 146.1 232.573 143.5C225.473 140.8 219.273 137 213.973 132.1C208.773 127.2 204.723 121.4 201.823 114.7C198.923 108 197.473 100.6 197.473 92.5C197.473 84.4 198.923 77 201.823 70.3C204.723 63.6 208.823 57.8 214.123 52.9C219.423 48 225.673 44.25 232.873 41.65C240.173 38.95 248.173 37.6 256.873 37.6C267.273 37.6 276.523 39.35 284.623 42.85C292.823 46.35 299.573 51.35 304.873 57.85L282.223 77.8C278.923 74 275.323 71.15 271.423 69.25C267.623 67.25 263.373 66.25 258.673 66.25C254.773 66.25 251.223 66.85 248.023 68.05C244.923 69.25 242.273 71 240.073 73.3C237.873 75.6 236.173 78.35 234.973 81.55C233.773 84.75 233.173 88.4 233.173 92.5C233.173 96.4 233.773 100 234.973 103.3C236.173 106.5 237.873 109.25 240.073 111.55C242.273 113.85 244.873 115.65 247.873 116.95C250.973 118.15 254.423 118.75 258.223 118.75C262.223 118.75 266.123 118.1 269.923 116.8C273.723 115.4 277.773 113.05 282.073 109.75L301.873 134.05C295.473 138.35 288.173 141.65 279.973 143.95C271.773 146.25 263.823 147.4 256.123 147.4ZM271.123 129.55V89.65H301.873V134.05L271.123 129.55ZM313.406 145V70.8H336.006V145H313.406ZM374.923 146C368.723 146 363.223 144.8 358.423 142.4C353.69 139.933 349.957 136.567 347.223 132.3C344.49 128.033 343.123 123.133 343.123 117.6C343.123 112.067 344.49 107.167 347.223 102.9C349.957 98.6333 353.69 95.3 358.423 92.9C363.223 90.5 368.723 89.3 374.923 89.3C381.123 89.3 386.623 90.5 391.423 92.9C396.223 95.3 399.957 98.6333 402.623 102.9C405.357 107.167 406.723 112.067 406.723 117.6C406.723 123.133 405.357 128.033 402.623 132.3C399.957 136.567 396.223 139.933 391.423 142.4C386.623 144.8 381.123 146 374.923 146ZM374.923 128.4C376.59 128.4 378.09 128 379.423 127.2C380.757 126.4 381.823 125.2 382.623 123.6C383.423 121.933 383.823 119.933 383.823 117.6C383.823 115.2 383.423 113.233 382.623 111.7C381.823 110.1 380.757 108.9 379.423 108.1C378.09 107.3 376.59 106.9 374.923 106.9C373.257 106.9 371.757 107.3 370.423 108.1C369.09 108.9 368.023 110.1 367.223 111.7C366.423 113.233 366.023 115.2 366.023 117.6C366.023 119.933 366.423 121.933 367.223 123.6C368.023 125.2 369.09 126.4 370.423 127.2C371.757 128 373.257 128.4 374.923 128.4ZM450.297 146C445.297 146 441.264 145 438.197 143C435.13 141 432.897 137.9 431.497 133.7C430.164 129.5 429.497 124.133 429.497 117.6C429.497 111.133 430.23 105.833 431.697 101.7C433.164 97.5 435.43 94.4 438.497 92.4C441.63 90.3333 445.564 89.3 450.297 89.3C455.097 89.3 459.497 90.4333 463.497 92.7C467.497 94.9667 470.697 98.2333 473.097 102.5C475.497 106.7 476.697 111.733 476.697 117.6C476.697 123.467 475.497 128.533 473.097 132.8C470.697 137 467.497 140.267 463.497 142.6C459.497 144.867 455.097 146 450.297 146ZM413.797 145V70.8H436.397V97.6L435.397 117.6L435.297 137.6V145H413.797ZM444.897 128.4C446.564 128.4 448.064 128 449.397 127.2C450.73 126.4 451.797 125.2 452.597 123.6C453.397 121.933 453.797 119.933 453.797 117.6C453.797 115.2 453.397 113.233 452.597 111.7C451.797 110.1 450.73 108.9 449.397 108.1C448.064 107.3 446.564 106.9 444.897 106.9C443.23 106.9 441.73 107.3 440.397 108.1C439.064 108.9 437.997 110.1 437.197 111.7C436.397 113.233 435.997 115.2 435.997 117.6C435.997 119.933 436.397 121.933 437.197 123.6C437.997 125.2 439.064 126.4 440.397 127.2C441.73 128 443.23 128.4 444.897 128.4ZM515.549 145V135.3L513.949 132.7V114.3C513.949 111.633 513.116 109.6 511.449 108.2C509.849 106.8 507.216 106.1 503.549 106.1C501.083 106.1 498.583 106.5 496.049 107.3C493.516 108.033 491.349 109.067 489.549 110.4L482.349 95.5C485.549 93.5 489.383 91.9667 493.849 90.9C498.316 89.8333 502.683 89.3 506.949 89.3C516.349 89.3 523.616 91.4 528.749 95.6C533.949 99.8 536.549 106.467 536.549 115.6V145H515.549ZM500.049 146C495.583 146 491.849 145.233 488.849 143.7C485.849 142.167 483.583 140.133 482.049 137.6C480.516 135 479.749 132.133 479.749 129C479.749 125.467 480.649 122.467 482.449 120C484.249 117.533 486.983 115.667 490.649 114.4C494.383 113.133 499.083 112.5 504.749 112.5H516.149V123.4H508.349C505.949 123.4 504.183 123.8 503.049 124.6C501.983 125.333 501.449 126.467 501.449 128C501.449 129.267 501.916 130.333 502.849 131.2C503.849 132 505.183 132.4 506.849 132.4C508.383 132.4 509.783 132 511.049 131.2C512.383 130.333 513.349 129 513.949 127.2L516.849 133.9C515.983 137.967 514.149 141 511.349 143C508.549 145 504.783 146 500.049 146ZM546.316 145V70.8H568.916V145H546.316Z" fill="white"/>
<path d="M159.25 146C153.05 146 147.55 144.8 142.75 142.4C138.016 139.933 134.283 136.567 131.55 132.3C128.816 128.033 127.45 123.133 127.45 117.6C127.45 112.067 128.816 107.167 131.55 102.9C134.283 98.6333 138.016 95.3 142.75 92.9C147.55 90.5 153.05 89.3 159.25 89.3C165.45 89.3 170.95 90.5 175.75 92.9C180.55 95.3 184.283 98.6333 186.95 102.9C189.683 107.167 191.05 112.067 191.05 117.6C191.05 123.133 189.683 128.033 186.95 132.3C184.283 136.567 180.55 139.933 175.75 142.4C170.95 144.8 165.45 146 159.25 146ZM159.25 128.4C160.916 128.4 162.416 128 163.75 127.2C165.083 126.4 166.15 125.2 166.95 123.6C167.75 121.933 168.15 119.933 168.15 117.6C168.15 115.2 167.75 113.233 166.95 111.7C166.15 110.1 165.083 108.9 163.75 108.1C162.416 107.3 160.916 106.9 159.25 106.9C157.583 106.9 156.083 107.3 154.75 108.1C153.416 108.9 152.35 110.1 151.55 111.7C150.75 113.233 150.35 115.2 150.35 117.6C150.35 119.933 150.75 121.933 151.55 123.6C152.35 125.2 153.416 126.4 154.75 127.2C156.083 128 157.583 128.4 159.25 128.4Z" fill="#018ABE"/>
<path d="M34.2458 63.194C40.5168 52.7866 53.3615 50.7443 59 51.0241C40.5168 56.7314 31.7703 69.3489 29.7075 74.9443C28.6073 75.3639 27.9747 73.6014 34.2458 63.194Z" fill="black"/>
<path d="M34.2458 63.194C40.5168 52.7866 53.3615 50.7443 59 51.0241C40.5168 56.7314 31.7703 69.3489 29.7075 74.9443C28.6073 75.3639 27.9747 73.6014 34.2458 63.194Z" fill="black"/>
<path d="M34.2458 63.194C40.5168 52.7866 53.3615 50.7443 59 51.0241C40.5168 56.7314 31.7703 69.3489 29.7075 74.9443C28.6073 75.3639 27.9747 73.6014 34.2458 63.194Z" fill="black"/>
<path d="M216.246 63.194C222.517 52.7866 235.362 50.7443 241 51.0241C222.517 56.7314 213.77 69.3489 211.707 74.9443C210.607 75.3639 209.975 73.6014 216.246 63.194Z" fill="black"/>
<path d="M216.246 63.194C222.517 52.7866 235.362 50.7443 241 51.0241C222.517 56.7314 213.77 69.3489 211.707 74.9443C210.607 75.3639 209.975 73.6014 216.246 63.194Z" fill="black"/>
<path d="M216.246 63.194C222.517 52.7866 235.362 50.7443 241 51.0241C222.517 56.7314 213.77 69.3489 211.707 74.9443C210.607 75.3639 209.975 73.6014 216.246 63.194Z" fill="black"/>
<g filter="url(#filter0_d_99_145)">
<path d="M133 101.217C138.167 94.05 152.9 82.8167 176.5 93.2167C190.9 102.417 190.5 112.068 190.5 119.717C190.167 121.55 189.7 126.317 188.5 128.717C181 134.717 173.5 133.717 170 128.717C167.2 124.717 168.333 120.383 168 119.717C168.833 117.05 169 110.217 163.5 108.217C155.7 105.381 151.215 111.135 151.008 112.013C151.005 112.031 151.003 112.049 151 112.068C151 112.052 151.003 112.034 151.008 112.013C152.48 101.202 146.477 96.7243 133 101.217Z" fill="#070645"/>
<path d="M151 112.717C151.007 112.508 151.007 112.291 151 112.068M151 112.068C152.5 101.217 146.5 96.7167 133 101.217C138.167 94.05 152.9 82.8167 176.5 93.2167C190.9 102.417 190.5 112.068 190.5 119.717C190.167 121.55 189.7 126.317 188.5 128.717C181 134.717 173.5 133.717 170 128.717C167.2 124.717 168.333 120.383 168 119.717C168.833 117.05 169 110.217 163.5 108.217C155.512 105.312 151 111.418 151 112.068Z" stroke="#070645"/>
</g>
<g filter="url(#filter1_i_99_145)">
<path d="M149.989 130.1C145.493 117.371 133.79 118.934 128 121.5C127.5 125.126 132.228 138.881 145 143.5C157.038 147.854 171 145.5 175.5 142.5C169.37 143.698 154.485 142.829 149.989 130.1Z" fill="white"/>
</g>
<defs>
<filter id="filter0_d_99_145" x="129.688" y="88.5" width="63.3127" height="50.8502" filterUnits="userSpaceOnUse" color-interpolation-filters="sRGB">
<feFlood flood-opacity="0" result="BackgroundImageFix"/>
<feColorMatrix in="SourceAlpha" type="matrix" values="0 0 0 0 0 0 0 0 0 0 0 0 0 0 0 0 0 0 127 0" result="hardAlpha"/>
<feOffset dy="4"/>
<feGaussianBlur stdDeviation="1"/>
<feComposite in2="hardAlpha" operator="out"/>
<feColorMatrix type="matrix" values="0 0 0 0 0 0 0 0 0 0 0 0 0 0 0 0 0 0 0.25 0"/>
<feBlend mode="normal" in2="BackgroundImageFix" result="effect1_dropShadow_99_145"/>
<feBlend mode="normal" in="SourceGraphic" in2="effect1_dropShadow_99_145" result="shape"/>
</filter>
<filter id="filter1_i_99_145" x="127.964" y="119.737" width="47.5356" height="28.1566" filterUnits="userSpaceOnUse" color-interpolation-filters="sRGB">
<feFlood flood-opacity="0" result="BackgroundImageFix"/>
<feBlend mode="normal" in="SourceGraphic" in2="BackgroundImageFix" result="shape"/>
<feColorMatrix in="SourceAlpha" type="matrix" values="0 0 0 0 0 0 0 0 0 0 0 0 0 0 0 0 0 0 127 0" result="hardAlpha"/>
<feOffset dy="4"/>
<feGaussianBlur stdDeviation="1"/>
<feComposite in2="hardAlpha" operator="arithmetic" k2="-1" k3="1"/>
<feColorMatrix type="matrix" values="0 0 0 0 0 0 0 0 0 0 0 0 0 0 0 0 0 0 0.25 0"/>
<feBlend mode="normal" in2="shape" result="effect1_innerShadow_99_145"/>
</filter>
</defs>
</svg>
