<svg width="309" height="183" viewBox="0 0 309 183" fill="none" xmlns="http://www.w3.org/2000/svg">
<path d="M73.3301 147.4C64.8301 147.4 56.9801 146.1 49.7801 143.5C42.6801 140.8 36.4801 137 31.1801 132.1C25.9801 127.2 21.9301 121.4 19.0301 114.7C16.1301 108 14.6801 100.6 14.6801 92.5C14.6801 84.4 16.1301 77 19.0301 70.3C21.9301 63.6 26.0301 57.8 31.3301 52.9C36.6301 48 42.8801 44.25 50.0801 41.65C57.3801 38.95 65.3801 37.6 74.0801 37.6C84.4801 37.6 93.7301 39.35 101.83 42.85C110.03 46.35 116.78 51.35 122.08 57.85L99.4301 77.8C96.1301 74 92.5301 71.15 88.6301 69.25C84.8301 67.25 80.5801 66.25 75.8801 66.25C71.9801 66.25 68.4301 66.85 65.2301 68.05C62.1301 69.25 59.4801 71 57.2801 73.3C55.0801 75.6 53.3801 78.35 52.1801 81.55C50.9801 84.75 50.3801 88.4 50.3801 92.5C50.3801 96.4 50.9801 100 52.1801 103.3C53.3801 106.5 55.0801 109.25 57.2801 111.55C59.4801 113.85 62.0801 115.65 65.0801 116.95C68.1801 118.15 71.6301 118.75 75.4301 118.75C79.4301 118.75 83.3301 118.1 87.1301 116.8C90.9301 115.4 94.9801 113.05 99.2801 109.75L119.08 134.05C112.68 138.35 105.38 141.65 97.1801 143.95C88.9801 146.25 81.0301 147.4 73.3301 147.4ZM88.3301 129.55V89.65H119.08V134.05L88.3301 129.55ZM256.387 147.4C247.887 147.4 240.037 146.1 232.837 143.5C225.737 140.8 219.537 137 214.237 132.1C209.037 127.2 204.987 121.4 202.087 114.7C199.187 108 197.737 100.6 197.737 92.5C197.737 84.4 199.187 77 202.087 70.3C204.987 63.6 209.087 57.8 214.387 52.9C219.687 48 225.937 44.25 233.137 41.65C240.437 38.95 248.437 37.6 257.137 37.6C267.537 37.6 276.787 39.35 284.887 42.85C293.087 46.35 299.837 51.35 305.137 57.85L282.487 77.8C279.187 74 275.587 71.15 271.687 69.25C267.887 67.25 263.637 66.25 258.937 66.25C255.037 66.25 251.487 66.85 248.287 68.05C245.187 69.25 242.537 71 240.337 73.3C238.137 75.6 236.437 78.35 235.237 81.55C234.037 84.75 233.437 88.4 233.437 92.5C233.437 96.4 234.037 100 235.237 103.3C236.437 106.5 238.137 109.25 240.337 111.55C242.537 113.85 245.137 115.65 248.137 116.95C251.237 118.15 254.687 118.75 258.487 118.75C262.487 118.75 266.387 118.1 270.187 116.8C273.987 115.4 278.037 113.05 282.337 109.75L302.137 134.05C295.737 138.35 288.437 141.65 280.237 143.95C272.037 146.25 264.087 147.4 256.387 147.4ZM271.387 129.55V89.65H302.137V134.05L271.387 129.55Z" fill="black"/>
<path d="M159.513 146C153.313 146 147.813 144.8 143.013 142.4C138.28 139.933 134.547 136.567 131.813 132.3C129.08 128.033 127.713 123.133 127.713 117.6C127.713 112.067 129.08 107.167 131.813 102.9C134.547 98.6333 138.28 95.3 143.013 92.9C147.813 90.5 153.313 89.3 159.513 89.3C165.713 89.3 171.213 90.5 176.013 92.9C180.813 95.3 184.547 98.6333 187.213 102.9C189.947 107.167 191.313 112.067 191.313 117.6C191.313 123.133 189.947 128.033 187.213 132.3C184.547 136.567 180.813 139.933 176.013 142.4C171.213 144.8 165.713 146 159.513 146ZM159.513 128.4C161.18 128.4 162.68 128 164.013 127.2C165.347 126.4 166.413 125.2 167.213 123.6C168.013 121.933 168.413 119.933 168.413 117.6C168.413 115.2 168.013 113.233 167.213 111.7C166.413 110.1 165.347 108.9 164.013 108.1C162.68 107.3 161.18 106.9 159.513 106.9C157.847 106.9 156.347 107.3 155.013 108.1C153.68 108.9 152.613 110.1 151.813 111.7C151.013 113.233 150.613 115.2 150.613 117.6C150.613 119.933 151.013 121.933 151.813 123.6C152.613 125.2 153.68 126.4 155.013 127.2C156.347 128 157.847 128.4 159.513 128.4Z" fill="#018ABE"/>
<path d="M34.2458 61.194C40.5168 50.7866 53.3615 48.7443 59 49.0241C40.5168 54.7314 31.7703 67.3489 29.7075 72.9443C28.6073 73.3639 27.9747 71.6014 34.2458 61.194Z" fill="white"/>
<path d="M216.246 61.194C222.517 50.7866 235.362 48.7443 241 49.0241C222.517 54.7314 213.77 67.3489 211.707 72.9443C210.607 73.3639 209.975 71.6014 216.246 61.194Z" fill="white"/>
<g filter="url(#filter0_d_75_106)">
<path d="M133 101.217C138.167 94.05 152.9 82.8167 176.5 93.2167C190.9 102.417 191 112.068 191 119.717C190.667 121.55 189.7 126.317 188.5 128.717C181 134.717 173.5 133.717 170 128.717C167.2 124.717 168.333 120.383 168 119.717C168.833 117.05 169 110.217 163.5 108.217C155.7 105.381 151.215 111.135 151.008 112.013C151.005 112.031 151.003 112.049 151 112.068C151 112.052 151.003 112.034 151.008 112.013C152.48 101.202 146.477 96.7243 133 101.217Z" fill="#070645"/>
<path d="M151 112.717C151.007 112.508 151.007 112.291 151 112.068M151 112.068C152.5 101.217 146.5 96.7167 133 101.217C138.167 94.05 152.9 82.8167 176.5 93.2167C190.9 102.417 191 112.068 191 119.717C190.667 121.55 189.7 126.317 188.5 128.717C181 134.717 173.5 133.717 170 128.717C167.2 124.717 168.333 120.383 168 119.717C168.833 117.05 169 110.217 163.5 108.217C155.512 105.312 151 111.418 151 112.068Z" stroke="#070645"/>
</g>
<g filter="url(#filter1_i_75_106)">
<path d="M150.025 130.363C145.529 117.634 133.825 119.197 128.036 121.763C127.536 125.389 132.264 139.144 145.035 143.763C157.073 148.117 171.036 145.763 175.536 142.763C169.405 143.961 154.52 143.092 150.025 130.363Z" fill="white"/>
</g>
<defs>
<filter id="filter0_d_75_106" x="129.688" y="88.5" width="63.8115" height="50.8503" filterUnits="userSpaceOnUse" color-interpolation-filters="sRGB">
<feFlood flood-opacity="0" result="BackgroundImageFix"/>
<feColorMatrix in="SourceAlpha" type="matrix" values="0 0 0 0 0 0 0 0 0 0 0 0 0 0 0 0 0 0 127 0" result="hardAlpha"/>
<feOffset dy="4"/>
<feGaussianBlur stdDeviation="1"/>
<feComposite in2="hardAlpha" operator="out"/>
<feColorMatrix type="matrix" values="0 0 0 0 0 0 0 0 0 0 0 0 0 0 0 0 0 0 0.25 0"/>
<feBlend mode="normal" in2="BackgroundImageFix" result="effect1_dropShadow_75_106"/>
<feBlend mode="normal" in="SourceGraphic" in2="effect1_dropShadow_75_106" result="shape"/>
</filter>
<filter id="filter1_i_75_106" x="128" y="120" width="47.5356" height="28.1565" filterUnits="userSpaceOnUse" color-interpolation-filters="sRGB">
<feFlood flood-opacity="0" result="BackgroundImageFix"/>
<feBlend mode="normal" in="SourceGraphic" in2="BackgroundImageFix" result="shape"/>
<feColorMatrix in="SourceAlpha" type="matrix" values="0 0 0 0 0 0 0 0 0 0 0 0 0 0 0 0 0 0 127 0" result="hardAlpha"/>
<feOffset dy="4"/>
<feGaussianBlur stdDeviation="1"/>
<feComposite in2="hardAlpha" operator="arithmetic" k2="-1" k3="1"/>
<feColorMatrix type="matrix" values="0 0 0 0 0 0 0 0 0 0 0 0 0 0 0 0 0 0 0.25 0"/>
<feBlend mode="normal" in2="shape" result="effect1_innerShadow_75_106"/>
</filter>
</defs>
</svg>
