<?xml version="1.0" standalone="no"?>
<!DOCTYPE svg PUBLIC "-//W3C//DTD SVG 20010904//EN"
 "http://www.w3.org/TR/2001/REC-SVG-20010904/DTD/svg10.dtd">
<svg version="1.0" xmlns="http://www.w3.org/2000/svg"
 width="300.000000pt" height="169.000000pt" viewBox="0 0 300.000000 169.000000"
 preserveAspectRatio="xMidYMid meet">
<metadata>
Created by potrace 1.10, written by Peter Selinger 2001-2011
</metadata>
<g transform="translate(0.000000,169.000000) scale(0.100000,-0.100000)"
fill="#000000" stroke="none">
<path d="M1481 1118 c4 -30 -8 -48 -32 -48 -13 0 -18 -4 -13 -12 5 -7 3 -8 -5
-4 -13 9 -51 -20 -51 -38 0 -6 5 -4 10 4 9 13 10 13 10 0 0 -13 1 -13 11 0 7
11 9 7 7 -20 -3 -31 0 -34 22 -34 21 0 25 4 22 27 -2 15 0 32 5 39 5 8 10 -1
13 -26 5 -38 6 -39 43 -39 73 2 70 1 64 31 -4 20 -2 29 7 29 8 0 12 -8 9 -21
-4 -16 -2 -18 5 -7 8 11 10 11 15 0 4 -10 6 -9 6 3 1 19 -53 68 -75 68 -21 0
-39 21 -39 45 0 11 -8 21 -18 23 -14 3 -18 -2 -16 -20z m29 -95 c0 -25 -5 -43
-11 -43 -7 0 -10 14 -7 35 4 32 2 35 -22 36 -22 0 -23 1 -5 8 38 15 45 9 45
-36z m34 -15 c5 -21 3 -28 -9 -28 -11 0 -15 11 -15 43 1 44 11 37 24 -15z m31
5 c3 -13 2 -23 -3 -23 -5 0 -14 17 -20 37 -9 31 -9 34 2 22 8 -8 17 -24 21
-36z"/>
<path d="M628 973 c-2 -20 -9 -29 -25 -31 -13 -2 -23 -8 -23 -13 0 -14 -30
-11 -36 4 -3 9 -33 12 -113 11 -60 -1 -114 -5 -120 -8 -6 -4 -11 -3 -11 1 0 5
-34 8 -75 8 -42 -1 -78 2 -81 7 -3 4 -14 4 -24 -2 -10 -5 -41 -10 -69 -10 -31
0 -51 -4 -51 -11 0 -6 7 -9 15 -5 8 3 15 1 15 -4 0 -6 -7 -10 -15 -10 -8 0
-15 -7 -15 -15 0 -12 13 -15 58 -16 44 0 52 -3 37 -10 -19 -9 -18 -9 2 -5 13
2 25 0 28 -4 3 -5 -5 -11 -17 -13 l-23 -4 23 -2 c13 0 21 -5 18 -10 -4 -5 2
-7 12 -4 40 10 8 44 -61 67 -23 7 -17 30 9 34 14 2 16 1 6 -6 -11 -7 -11 -10
2 -15 11 -5 16 0 16 14 0 30 24 17 31 -17 4 -16 7 -23 8 -16 2 18 21 15 21 -4
0 -14 3 -14 15 -4 8 7 15 18 15 24 0 7 -4 6 -9 -2 -6 -10 -10 -9 -14 7 -3 13
-1 19 6 14 5 -3 36 -5 67 -4 31 1 68 -2 82 -8 23 -9 25 -7 21 10 -10 36 36 13
51 -26 6 -16 9 -17 16 -5 6 9 5 17 -3 22 -7 4 18 8 56 8 37 0 67 -4 67 -9 0
-4 -11 -6 -25 -3 -14 2 -25 0 -25 -5 0 -16 77 -14 93 2 22 21 67 30 67 14 0
-9 13 -15 35 -16 39 -2 48 13 13 20 -14 3 -9 5 15 6 20 0 37 -3 37 -8 0 -10
88 -6 125 5 11 4 17 3 13 -1 -4 -5 -3 -14 4 -22 8 -10 8 -12 -4 -8 -9 4 -15 0
-15 -10 0 -15 32 -20 61 -9 25 10 19 21 -15 28 -17 3 -28 10 -24 16 8 13 42
13 50 0 3 -5 13 -7 23 -4 13 5 14 4 3 -4 -11 -8 -11 -10 0 -14 12 -4 12 -9 0
-31 -13 -24 -17 -25 -77 -21 -56 4 -64 2 -63 -13 0 -11 3 -13 6 -5 7 19 21 14
29 -10 8 -27 28 -48 46 -48 10 0 9 3 -2 10 -13 8 -12 10 5 11 11 1 28 0 38 -1
15 -1 17 3 12 19 -4 14 -2 21 7 22 7 0 44 1 82 2 44 1 71 6 73 14 3 9 -15 11
-76 7 l-80 -5 12 24 c9 19 18 25 37 22 14 -1 34 1 45 6 16 6 12 8 -17 8 -21 1
-38 5 -38 9 0 15 -103 28 -150 19 -28 -5 -66 -3 -101 4 -30 6 -66 9 -80 7 -20
-2 -25 2 -27 25 -2 15 -7 27 -12 27 -5 0 -10 -12 -12 -27z"/>
<path d="M1323 964 c-49 -24 -63 -41 -46 -57 3 -4 12 -2 20 4 10 9 13 8 13 -4
0 -22 -18 -31 -35 -17 -15 13 -18 9 -16 -25 0 -11 -2 -14 -5 -7 -3 6 -12 12
-20 12 -8 0 -14 6 -14 13 0 9 -2 9 -9 -1 -4 -7 -6 -25 -3 -39 4 -21 2 -25 -11
-20 -8 3 -28 2 -44 -3 -21 -6 -23 -8 -7 -9 11 -1 25 -6 32 -13 9 -9 12 -9 12
1 0 7 4 10 9 6 5 -3 12 4 16 15 6 20 45 29 45 9 0 -5 4 -8 9 -5 4 3 18 -3 30
-13 16 -14 29 -17 60 -11 31 5 38 4 34 -7 -8 -21 -152 -21 -165 1 -6 8 -8 8
-8 -1 0 -8 -14 -13 -35 -13 -24 0 -35 -5 -35 -15 0 -8 5 -15 10 -15 6 0 10 5
10 10 0 11 71 13 107 4 13 -4 20 -10 17 -15 -3 -5 1 -9 8 -9 10 0 13 -21 13
-78 1 -42 4 -94 7 -115 6 -30 4 -38 -6 -34 -9 4 -16 -3 -20 -16 -9 -33 -7 -44
5 -24 8 14 14 16 25 6 12 -9 13 -9 9 2 -8 22 40 22 85 0 27 -13 37 -14 33 -5
-2 7 -14 14 -26 16 -18 2 -23 11 -25 48 -2 24 -9 48 -15 52 -19 12 -37 9 -37
-6 0 -9 7 -13 20 -11 23 4 26 -5 8 -23 -9 -9 -9 -12 0 -12 7 0 12 -4 12 -10 0
-21 -30 -9 -31 13 -1 18 -3 16 -9 -8 -7 -28 -8 -28 -9 -5 -1 14 -4 42 -7 63
l-7 37 44 0 c24 0 39 -4 32 -8 -6 -4 32 -6 85 -4 54 1 102 0 107 -2 6 -2 9
-24 7 -50 -2 -25 -8 -44 -12 -41 -5 3 -6 -5 -2 -17 3 -12 1 -19 -4 -15 -6 3
-16 1 -24 -4 -11 -8 -7 -9 15 -4 17 4 45 9 63 12 24 4 32 9 28 20 -3 8 -6 21
-6 29 0 9 -4 13 -10 9 -5 -3 -7 -12 -3 -20 3 -8 0 -15 -6 -15 -6 0 -12 10 -12
23 -1 18 -3 17 -10 -8 -6 -23 -7 -17 -5 27 2 51 0 59 -18 65 -12 4 -29 6 -38
4 -15 -2 -18 5 -18 38 0 23 -4 41 -10 41 -5 0 -10 -18 -10 -39 0 -22 -3 -42
-7 -44 -5 -3 -6 15 -4 39 2 26 -1 44 -8 44 -6 0 -8 -14 -6 -32 5 -40 -7 -61
-16 -28 l-7 25 -7 -22 c-9 -27 -35 -31 -36 -5 0 10 -3 12 -6 5 -11 -29 -23
-10 -23 37 0 47 -11 63 -25 40 -3 -5 -1 -10 4 -10 6 0 11 -16 11 -36 0 -23 -4
-33 -11 -28 -6 3 -15 0 -20 -7 -6 -10 -9 -3 -10 21 l-2 35 -7 -35 -6 -35 -8
38 c-7 32 -5 40 14 57 l23 20 -29 1 c-25 0 -26 2 -9 9 11 4 30 6 42 3 18 -4
26 4 47 45 l26 50 -50 -4 c-40 -4 -50 -2 -50 10 0 10 -6 13 -17 9 -13 -5 -15
-2 -10 11 4 10 7 23 8 29 0 7 4 3 9 -8 7 -16 9 -11 9 22 1 36 3 40 21 36 14
-4 20 0 20 11 0 19 6 20 -57 -10z m-18 -115 c-6 -9 29 -14 69 -9 11 1 17 -3
14 -12 -3 -7 -14 -13 -25 -13 -12 0 -24 -3 -28 -7 -11 -10 -54 33 -48 48 3 8
9 11 14 8 5 -3 7 -10 4 -15z"/>
<path d="M1658 912 l4 -65 -31 6 c-19 4 -31 2 -31 -4 0 -6 -4 -7 -10 -4 -14 9
-12 -3 7 -47 l17 -39 84 5 c121 6 118 7 116 -72 l-3 -67 8 57 c9 64 30 90 71
92 15 1 26 5 23 10 -3 4 6 0 21 -9 24 -16 26 -16 20 -1 -3 9 -1 16 5 16 23 0
10 19 -16 23 l-28 4 28 2 c15 0 27 7 27 14 0 25 -58 8 -64 -18 -3 -13 -14 -26
-24 -29 -47 -13 -81 -16 -86 -8 -3 6 -23 6 -48 2 -50 -10 -138 -1 -138 12 0 6
16 8 35 6 19 -2 35 -1 35 3 0 13 -24 24 -45 21 -17 -2 -17 -1 -5 7 19 13 93
14 86 2 -4 -5 0 -12 6 -15 7 -4 3 -4 -9 -2 -15 3 -23 -1 -23 -11 0 -8 3 -13 8
-11 4 2 19 10 34 17 23 12 32 12 60 -2 21 -10 38 -12 49 -7 9 5 19 6 23 3 3
-3 6 -1 6 5 0 7 -16 12 -41 12 -40 0 -41 1 -35 28 5 20 4 23 -4 12 -5 -8 -10
-10 -10 -5 0 6 -9 16 -19 22 -16 10 -18 9 -14 -8 5 -16 0 -19 -31 -19 -22 0
-35 4 -31 10 3 6 18 8 33 5 15 -3 21 -2 14 1 -6 3 -10 9 -7 14 3 4 -3 7 -12 6
-10 0 -19 10 -24 29 -8 28 -7 29 6 11 18 -23 46 -31 38 -10 -3 9 1 14 12 14 9
0 13 -4 10 -10 -3 -5 1 -10 10 -10 10 0 13 -5 9 -12 -4 -7 -3 -8 5 -4 9 6 9
11 0 23 -11 12 -10 14 2 13 7 -1 23 -2 34 -1 17 2 16 4 -9 18 -19 10 -44 14
-72 10 -24 -2 -42 -1 -39 3 3 4 -5 10 -18 12 -21 4 -22 2 -19 -60z"/>
<path d="M1075 960 c-11 -4 31 -7 93 -8 61 -1 112 3 112 7 0 10 -177 11 -205
1z"/>
<path d="M1007 936 c12 -9 44 -17 75 -18 29 -1 56 -6 60 -12 4 -6 12 -5 22 3
8 7 23 11 33 8 14 -4 13 -5 -4 -6 -18 -1 -23 -7 -23 -28 0 -25 -1 -26 -13 -8
-13 17 -14 17 -12 -1 2 -28 14 -44 29 -38 18 7 27 52 12 58 -6 2 3 5 20 5 19
1 34 7 38 16 6 16 7 16 -134 19 -36 1 -78 6 -95 10 -29 8 -30 8 -8 -8z"/>
<path d="M1850 930 c0 -13 -5 -17 -20 -13 -11 3 -20 0 -20 -6 0 -7 11 -9 30
-6 17 3 30 1 30 -4 0 -13 -35 -20 -53 -10 -9 6 -18 5 -21 0 -3 -5 1 -11 9 -15
8 -3 12 -12 9 -19 -4 -10 2 -14 20 -14 16 0 26 5 26 14 0 11 7 13 25 9 22 -6
25 -3 25 18 0 17 -4 24 -13 20 -8 -3 -20 3 -28 12 -8 10 -9 15 -2 11 6 -4 14
-3 17 2 3 5 -3 11 -14 14 -15 4 -20 0 -20 -13z"/>
<path d="M1903 938 c2 -7 11 -12 18 -10 8 2 41 4 74 4 75 1 37 15 -43 17 -39
1 -52 -2 -49 -11z"/>
<path d="M2140 931 c0 -5 -9 -7 -20 -4 -11 3 -26 1 -33 -5 -7 -6 -22 -9 -34
-6 -11 3 -24 1 -27 -5 -4 -6 -12 -11 -17 -11 -6 0 -8 4 -5 8 2 4 -12 6 -32 3
-20 -2 -31 -6 -24 -8 6 -3 12 -12 12 -20 0 -9 -6 -13 -14 -10 -8 3 -17 -1 -20
-10 -5 -11 -2 -14 10 -9 8 3 20 6 25 6 5 0 9 8 9 18 0 12 8 17 30 17 17 0 30
-3 30 -7 0 -4 36 -10 80 -14 44 -3 80 -11 80 -15 0 -5 5 -9 10 -9 6 0 10 9 10
21 0 11 -4 17 -10 14 -5 -3 -10 -2 -10 4 0 5 5 11 12 13 6 2 9 12 5 21 -7 18
-67 25 -67 8z m48 -18 c-3 -15 -15 -18 -68 -19 -36 -1 -55 0 -42 3 13 2 19 9
16 15 -5 7 -2 8 7 2 23 -14 40 -13 46 2 8 21 45 18 41 -3z"/>
<path d="M2230 927 c0 -8 9 -17 20 -20 11 -3 20 -1 20 3 0 5 6 10 13 13 6 2 3
3 -7 1 -11 -2 -26 2 -33 8 -10 8 -13 7 -13 -5z"/>
<path d="M2815 930 c-3 -5 5 -10 17 -12 31 -4 34 -26 4 -38 -14 -5 -26 -15
-25 -22 0 -10 2 -10 6 0 2 6 10 12 16 12 7 0 23 10 37 21 14 11 20 18 13 15
-6 -4 -14 2 -17 12 -6 18 -42 27 -51 12z"/>
<path d="M1364 908 c2 -46 66 -42 66 3 0 30 -28 22 -33 -8 l-4 -28 -2 28 c-1
32 -28 37 -27 5z"/>
<path d="M1490 905 c0 -16 6 -25 16 -25 11 0 14 5 10 16 -3 9 -6 20 -6 25 0 5
-4 9 -10 9 -5 0 -10 -11 -10 -25z"/>
<path d="M1530 905 c0 -14 6 -25 13 -25 6 0 12 11 12 25 0 14 -6 25 -12 25 -7
0 -13 -11 -13 -25z"/>
<path d="M1570 906 c0 -13 -3 -33 -6 -43 -6 -15 -3 -14 15 4 24 26 28 63 6 63
-9 0 -15 -9 -15 -24z"/>
<path d="M1610 905 c0 -16 6 -25 15 -25 9 0 15 9 15 25 0 16 -6 25 -15 25 -9
0 -15 -9 -15 -25z"/>
<path d="M2380 915 c8 -10 7 -14 -2 -18 -7 -3 34 -6 91 -6 86 -1 102 1 98 13
-4 10 -1 13 8 10 8 -3 22 -1 32 5 17 10 -6 9 -164 -1 -7 -1 -13 -6 -13 -12 0
-8 -2 -8 -8 0 -4 6 -17 13 -30 17 -18 4 -21 3 -12 -8z"/>
<path d="M2630 920 c0 -5 -6 -10 -14 -10 -7 0 -18 -6 -24 -12 -8 -10 14 -13
104 -14 87 -1 114 2 114 12 0 9 -10 11 -36 7 -28 -5 -39 -2 -46 10 -10 19 -98
25 -98 7z"/>
<path d="M212 898 c6 -18 58 -23 58 -6 0 8 4 6 11 -4 11 -19 29 -24 29 -8 0
18 -39 31 -60 20 -14 -7 -20 -7 -20 0 0 5 -5 10 -11 10 -6 0 -9 -6 -7 -12z"/>
<path d="M765 889 l-20 -21 25 7 c14 3 40 7 57 8 18 1 35 8 38 15 5 14 -21 17
-30 2 -3 -5 -16 -10 -28 -10 -18 0 -19 2 -7 10 13 9 13 10 0 9 -8 0 -24 -9
-35 -20z"/>
<path d="M330 888 c0 -12 36 -28 45 -20 5 4 5 1 1 -6 -10 -18 18 -26 51 -14
l28 10 -27 1 c-17 1 -28 7 -28 15 0 8 -14 15 -35 18 -19 2 -35 1 -35 -4z"/>
<path d="M2261 891 c-40 -7 -51 -26 -20 -34 11 -3 19 -10 16 -15 -3 -4 8 -6
25 -4 29 4 30 3 24 -22 -6 -26 -6 -26 35 -20 28 5 40 4 36 -3 -5 -7 6 -9 31
-6 45 6 43 5 31 23 -8 13 -10 13 -19 0 -8 -12 -12 -12 -18 -2 -5 7 -16 10 -25
6 -9 -3 -17 -1 -17 4 0 6 19 13 43 15 40 3 40 4 -10 5 -43 2 -51 -1 -47 -13 4
-8 1 -15 -5 -15 -6 0 -11 7 -11 15 0 9 -12 18 -29 21 -17 4 -32 13 -35 20 -4
11 1 13 22 8 15 -4 29 -10 32 -13 12 -14 52 -11 68 5 16 17 16 17 0 11 -10 -3
-20 -2 -24 4 -4 6 -11 6 -20 -2 -11 -9 -18 -9 -32 3 -11 9 -29 12 -51 9z"/>
<path d="M698 885 c-4 -4 -27 -10 -50 -12 -24 -3 -47 -9 -52 -14 -6 -5 -18 -9
-28 -9 -13 0 -18 -8 -18 -25 0 -34 21 -31 49 6 15 20 26 27 30 20 11 -17 54
-23 48 -7 -11 29 71 -15 83 -45 12 -29 35 -43 51 -33 6 3 16 0 24 -6 10 -8 15
-9 15 -2 0 6 -9 13 -19 17 -14 4 -19 14 -17 40 1 19 -2 35 -7 35 -5 0 -8 -12
-7 -27 4 -53 1 -57 -20 -33 -11 12 -17 26 -15 30 3 4 -2 10 -10 14 -8 3 -15
12 -15 20 0 9 -6 13 -14 10 -8 -3 -16 2 -18 11 -1 9 -6 14 -10 10z"/>
<path d="M496 868 c5 -7 2 -9 -9 -5 -11 4 -14 2 -11 -8 4 -10 12 -11 30 -5 24
9 35 -2 14 -15 -5 -3 -10 -11 -10 -17 0 -7 6 -6 15 2 21 17 19 37 -4 50 -26
13 -34 13 -25 -2z"/>
<path d="M1457 862 c-3 -4 17 -7 44 -7 27 0 49 3 49 8 0 9 -87 9 -93 -1z"/>
<path d="M1999 862 c7 -5 9 -12 5 -14 -5 -3 -3 -3 4 -2 27 7 131 -9 125 -19
-3 -6 -1 -7 5 -3 23 14 11 25 -35 31 -27 3 -64 8 -83 11 -23 3 -30 2 -21 -4z"/>
<path d="M2451 858 c-1 -14 7 -18 34 -18 27 0 35 4 34 18 0 10 -3 12 -6 5 -2
-7 -15 -13 -28 -13 -13 0 -26 6 -28 13 -3 7 -6 5 -6 -5z"/>
<path d="M2560 843 c0 -23 5 -33 16 -33 8 0 12 -4 9 -10 -3 -5 -2 -10 4 -10 5
0 12 6 14 13 3 7 6 5 6 -5 1 -14 -7 -18 -39 -18 -29 0 -40 4 -40 15 0 8 -5 15
-11 15 -5 0 -7 -4 -4 -10 3 -5 0 -10 -7 -11 -7 0 -4 -4 7 -9 16 -7 17 -9 3 -9
-9 -1 -19 -5 -23 -10 -3 -6 6 -6 24 -1 16 4 32 6 34 4 2 -3 2 -26 -1 -51 -4
-35 -2 -44 7 -38 7 4 10 13 7 21 -3 8 -1 14 3 14 5 0 8 10 7 23 -3 23 -1 23
67 21 47 -1 64 2 53 8 -16 9 -23 49 -8 47 22 -4 315 2 311 6 -3 2 -76 5 -162
6 -99 1 -154 5 -151 11 4 6 -3 5 -14 -1 -11 -6 -29 -11 -39 -10 -16 0 -16 1 2
9 16 7 13 9 -17 9 -24 1 -41 7 -47 19 -9 14 -10 11 -11 -15z m110 -53 c0 -15
-7 -20 -25 -20 -18 0 -25 5 -25 20 0 15 7 20 25 20 18 0 25 -5 25 -20z"/>
<path d="M2901 857 c-11 -15 -5 -27 14 -27 6 0 11 9 12 20 2 23 -10 26 -26 7z"/>
<path d="M206 844 c-11 -7 -16 -20 -13 -29 8 -19 27 -20 27 0 0 9 9 15 25 15
14 0 25 6 25 13 0 17 -42 18 -64 1z"/>
<path d="M8 828 c15 -15 16 -32 2 -23 -5 3 -10 0 -10 -8 0 -8 8 -18 17 -21 10
-4 14 -4 11 0 -4 4 -2 16 3 27 8 15 8 22 -2 28 -21 13 -35 11 -21 -3z"/>
<path d="M2465 820 c11 -5 14 -9 8 -9 -7 -1 -13 -7 -13 -15 0 -8 -6 -17 -12
-19 -7 -3 -1 -6 15 -6 22 -1 27 3 27 23 0 20 6 25 33 29 19 2 10 4 -23 5 -39
0 -49 -2 -35 -8z"/>
<path d="M1017 813 c-12 -11 -8 -25 6 -20 15 5 67 -20 67 -33 0 -5 -4 -12 -10
-15 -5 -3 -7 0 -4 9 4 11 -2 14 -28 11 -18 -1 -38 1 -43 6 -6 4 -26 3 -45 -1
l-35 -9 33 3 c18 1 35 -1 38 -6 3 -4 -2 -8 -10 -8 -9 0 -16 -7 -16 -15 0 -8 4
-15 9 -15 5 0 16 7 25 15 17 17 36 20 36 4 0 -5 -6 -7 -12 -3 -9 5 -9 2 1 -9
7 -9 23 -17 35 -16 19 1 18 2 -4 9 -14 4 -20 8 -13 9 7 1 10 8 6 19 -5 16 -5
16 8 1 8 -9 20 -18 27 -21 16 -4 -14 -41 -38 -46 -8 -2 -20 -10 -26 -18 -10
-12 -13 -12 -24 1 -7 9 -19 14 -27 11 -7 -3 -13 1 -13 10 0 10 5 12 13 8 7 -5
5 2 -4 16 -17 26 -69 44 -53 19 5 -9 2 -10 -10 -6 -10 4 -15 3 -11 -3 4 -6 -5
-10 -22 -11 -26 0 -103 -5 -112 -8 -2 -1 2 -8 9 -16 9 -10 9 -15 1 -15 -6 0
-11 -9 -11 -19 0 -19 2 -19 41 3 24 14 50 21 61 18 16 -4 19 -2 13 8 -6 10 -4
11 6 4 19 -12 40 -14 34 -4 -6 9 12 23 32 26 8 1 8 -7 2 -29 -5 -18 -9 -33 -9
-35 0 -2 -4 0 -10 3 -5 3 -10 1 -10 -4 0 -6 5 -11 11 -11 5 0 9 -8 8 -17 -3
-25 11 -53 26 -53 7 0 16 -6 18 -12 3 -8 6 -6 6 5 1 9 -6 17 -14 17 -8 0 -15
6 -15 14 0 20 17 30 23 14 2 -7 3 -5 1 5 -1 11 9 23 27 33 16 8 27 19 24 23
-3 5 4 7 16 4 12 -4 18 -11 15 -20 -3 -8 -6 -17 -6 -19 0 -2 -7 -4 -15 -4 -8
0 -15 -4 -15 -9 0 -13 28 -22 36 -10 4 6 10 7 17 0 9 -7 12 -1 12 22 0 25 4
31 18 29 10 -2 17 3 17 13 0 12 -4 14 -19 5 -26 -13 -31 -13 -31 5 0 8 6 15
14 15 11 0 15 12 14 40 0 46 8 62 22 40 6 -8 10 -10 10 -5 0 6 -5 17 -10 25
-7 12 -12 12 -22 2 -14 -14 -32 -16 -23 -3 3 5 1 12 -5 16 -5 3 -10 1 -10 -5
0 -6 -9 -4 -23 5 -13 8 -27 12 -30 8z"/>
<path d="M2216 813 c-18 -3 -25 -8 -17 -12 6 -4 9 -15 5 -25 -5 -13 -9 -14
-14 -6 -5 7 -9 -7 -11 -32 -3 -30 0 -44 7 -41 6 2 10 16 8 31 -3 19 1 15 10
-13 l14 -40 1 43 c1 23 6 42 12 42 6 0 8 9 4 22 -6 16 -4 20 8 15 11 -4 14 -2
10 9 -3 7 -6 13 -7 13 0 -1 -14 -4 -30 -6z"/>
<path d="M1500 794 c0 -8 5 -12 10 -9 6 3 10 1 10 -4 0 -6 -9 -11 -20 -11 -13
0 -18 5 -14 15 10 25 -20 8 -32 -18 -13 -28 3 -47 38 -47 18 0 20 2 8 9 -8 6
-18 7 -23 4 -5 -3 -8 0 -5 8 8 24 51 28 76 6 12 -11 22 -26 22 -33 0 -7 4 -15
9 -18 5 -3 9 6 9 20 0 13 -3 23 -5 20 -7 -7 -53 36 -53 50 0 6 -7 14 -15 18
-9 3 -15 0 -15 -10z"/>
<path d="M2162 790 c-1 -8 -5 -33 -8 -55 -5 -31 -4 -37 5 -29 7 7 11 29 8 55
-2 24 -4 37 -5 29z"/>
<path d="M2760 792 c0 -7 -4 -10 -10 -7 -5 3 -10 1 -10 -4 0 -7 24 -10 63 -10
34 1 51 4 37 6 -14 3 -28 10 -32 17 -5 7 -8 6 -8 -4 0 -13 -1 -13 -10 0 -9 13
-10 13 -10 0 0 -13 -1 -13 -10 0 -7 11 -10 11 -10 2z"/>
<path d="M2931 788 c-1 -13 7 -18 24 -18 17 0 25 5 25 18 0 14 -2 15 -10 2 -9
-13 -10 -13 -10 0 0 12 -2 13 -9 1 -7 -11 -9 -11 -14 0 -4 10 -6 9 -6 -3z"/>
<path d="M204 777 c-6 -7 -9 -18 -6 -25 2 -7 0 -12 -5 -11 -4 1 -17 1 -28 0
-18 -1 -18 -2 -3 -18 14 -13 20 -14 32 -3 9 7 16 21 16 31 0 11 5 19 10 19 6
0 10 5 10 10 0 14 -13 12 -26 -3z"/>
<path d="M2282 753 c-1 -17 -6 -33 -12 -35 -6 -2 -6 -15 -2 -33 l8 -30 8 25
c8 24 9 24 16 -10 5 -22 8 -27 9 -13 1 28 14 35 44 28 19 -5 24 -11 19 -28 -3
-12 -10 -25 -16 -29 -7 -5 -4 -8 7 -8 12 0 17 8 17 26 0 25 2 26 38 19 46 -8
46 -9 32 -34 -9 -17 -8 -25 4 -36 18 -19 46 -9 46 16 0 10 4 19 9 19 5 0 9 25
9 55 -2 62 -15 75 -20 18 -2 -20 -9 -38 -16 -41 -9 -3 -12 8 -9 42 4 54 -15
59 -21 5 -4 -40 -9 -46 -22 -33 -6 6 -6 22 -1 42 6 19 6 34 0 37 -5 3 -12 -12
-15 -35 -6 -39 -18 -52 -27 -27 -2 6 1 22 6 35 7 15 7 26 0 33 -7 7 -12 -3
-17 -31 -3 -22 -11 -38 -16 -35 -5 3 -7 19 -3 35 3 19 1 30 -6 30 -6 0 -11
-13 -11 -30 0 -44 -20 -37 -22 8 -1 36 -1 36 -5 5 -6 -45 -21 -42 -26 5 -3 34
-4 35 -5 5z m215 -128 c-14 -29 -37 -33 -37 -7 0 23 8 32 31 32 15 0 16 -3 6
-25z"/>
<path d="M2051 759 c-1 -9 7 -19 17 -22 9 -2 25 -8 35 -12 12 -5 17 -2 17 8 0
17 -34 32 -49 23 -5 -4 -12 0 -14 6 -4 8 -6 7 -6 -3z"/>
<path d="M483 740 c-5 -17 -7 -18 -20 -4 -18 18 -27 12 -19 -13 4 -11 15 -18
31 -18 17 0 24 4 20 14 -3 7 0 20 6 27 9 11 8 14 -1 14 -6 0 -14 -9 -17 -20z"/>
<path d="M1903 740 c3 -11 1 -18 -4 -14 -5 3 -9 -1 -9 -10 0 -8 -6 -17 -12
-19 -7 -3 -1 -6 15 -6 20 -1 27 -6 27 -21 0 -12 10 -25 25 -32 14 -6 25 -17
25 -24 0 -7 6 -11 13 -8 7 2 22 -4 34 -15 11 -11 23 -18 25 -15 3 2 35 -16 72
-41 37 -25 78 -45 91 -45 15 0 23 -5 20 -12 -3 -8 21 -26 60 -47 36 -18 65
-40 65 -48 0 -7 6 -13 13 -12 27 3 56 -13 51 -29 -5 -14 -4 -15 4 -2 12 20 23
89 14 93 -4 3 -20 7 -37 11 -29 7 -29 7 -10 -8 11 -8 16 -16 10 -17 -5 0 -20
-2 -32 -3 -12 -1 -20 1 -17 5 7 12 -34 31 -48 23 -6 -4 -8 -3 -5 2 3 6 -4 11
-15 11 -26 2 -34 11 -42 45 -5 22 -2 27 15 30 16 2 12 6 -15 14 -30 9 -34 9
-25 -2 9 -11 7 -14 -9 -14 -12 0 -24 5 -27 10 -3 6 -12 10 -18 10 -7 0 -3 -7
7 -15 23 -17 14 -20 -15 -4 -11 5 -16 15 -13 21 4 7 3 8 -4 4 -7 -4 -19 -3
-28 2 -14 8 -12 10 9 16 37 9 24 36 -17 35 -17 0 -24 -3 -16 -6 8 -2 21 -7 29
-9 8 -2 11 -7 8 -10 -8 -8 -87 15 -87 26 0 5 -6 7 -14 4 -8 -3 -16 -1 -19 3
-3 5 8 10 24 11 21 2 29 -2 29 -15 0 -24 13 -7 15 20 1 13 -6 27 -19 34 -33
19 -44 15 -16 -7 l25 -20 -41 0 c-53 0 -100 40 -83 72 13 24 5 48 -17 48 -11
0 -15 -6 -11 -20z"/>
<path d="M800 741 c0 -15 15 -21 39 -14 17 4 19 8 9 14 -18 12 -48 11 -48 0z"/>
<path d="M1181 742 c0 -7 -5 -11 -9 -8 -5 3 -9 -1 -9 -9 0 -8 4 -12 9 -9 4 3
8 -17 8 -45 0 -41 -3 -49 -15 -45 -10 4 -16 22 -17 53 l-1 46 -4 -40 c-3 -22
-9 -45 -14 -51 -10 -12 66 -42 78 -31 3 4 0 7 -8 7 -11 0 -13 12 -11 49 3 42
-3 118 -7 83z"/>
<path d="M1660 737 c21 -11 25 -21 28 -66 3 -46 1 -51 -11 -39 -8 7 -13 21
-11 31 1 9 -1 17 -7 17 -5 0 -10 -8 -10 -17 -1 -10 -5 -2 -9 17 l-7 35 -3 -30
-2 -30 -8 30 c-7 28 -8 27 -9 -12 -1 -40 1 -43 25 -43 38 0 54 -22 54 -78 0
-54 -24 -88 -54 -76 -9 3 -16 1 -16 -5 0 -6 -10 -11 -23 -11 -13 0 -28 -5 -34
-11 -7 -7 -19 -9 -29 -5 -13 5 -15 9 -6 18 7 7 12 16 12 20 0 13 -38 9 -46 -4
-10 -16 -22 17 -23 65 -1 20 -5 37 -10 37 -5 0 -7 -9 -4 -20 3 -11 1 -20 -5
-20 -6 0 -13 10 -15 23 -3 16 -5 14 -6 -10 0 -20 6 -37 17 -45 9 -7 19 -20 21
-28 6 -27 9 -45 10 -55 1 -5 5 -4 10 3 10 17 31 12 54 -13 17 -18 18 -18 13
-2 -3 11 -2 16 4 12 6 -3 10 1 10 9 0 9 9 16 20 16 11 0 20 -4 20 -10 0 -5 5
-10 11 -10 5 0 7 5 4 10 -3 6 5 14 18 19 14 6 29 16 33 23 6 9 10 6 15 -12 7
-25 7 -25 8 -2 1 13 5 21 9 18 4 -2 8 4 8 15 0 10 -4 19 -9 19 -4 0 -7 35 -6
78 3 148 3 147 -33 150 -33 2 -33 2 -8 -11z"/>
<path d="M623 726 c5 -15 55 -17 63 -4 5 7 1 9 -9 5 -10 -3 -17 -2 -17 3 0 5
-9 8 -20 7 -11 -1 -19 -6 -17 -11z"/>
<path d="M1250 731 c0 -6 6 -11 13 -11 9 0 9 -2 0 -8 -6 -4 -13 -23 -16 -42
l-4 -35 -1 38 c-3 49 -17 48 -19 -3 -1 -35 2 -40 21 -40 22 0 24 5 29 79 1 13
-4 26 -10 28 -7 3 -13 0 -13 -6z"/>
<path d="M1724 734 c-6 -3 -9 -16 -6 -29 2 -14 9 -22 14 -18 7 4 9 -6 6 -25
-5 -33 5 -42 35 -34 13 3 16 10 11 26 -4 11 -7 30 -6 40 2 30 -16 5 -21 -29
l-4 -30 -2 33 c0 17 -5 32 -11 32 -5 0 -10 5 -10 10 0 6 11 10 25 10 14 0 25
4 25 8 0 8 -39 13 -56 6z"/>
<path d="M1960 709 c6 -18 10 -34 10 -35 0 0 7 -1 15 -1 20 0 19 14 -2 26 -30
18 -4 12 37 -8 40 -19 60 -13 60 19 0 13 -1 13 -10 0 -8 -13 -10 -13 -10 2 0
10 -7 16 -19 15 -11 0 -17 -5 -15 -9 3 -5 10 -6 15 -3 5 4 9 1 9 -4 0 -6 -6
-11 -12 -11 -18 0 -40 15 -38 26 1 5 -4 10 -12 12 -9 2 -8 0 2 -7 13 -9 13
-11 0 -11 -9 0 -21 5 -28 12 -9 9 -9 4 -2 -23z"/>
<path d="M2675 731 c4 -3 11 -7 16 -7 5 -1 14 -2 19 -3 6 0 10 -18 10 -40 0
-33 3 -39 25 -43 14 -3 25 -1 25 3 0 5 -5 9 -10 9 -7 0 -7 6 -1 18 5 10 8 27
7 38 -2 10 2 22 8 26 6 4 -15 7 -47 7 -32 -1 -55 -4 -52 -8z"/>
<path d="M2968 714 c2 -14 0 -24 -7 -24 -6 0 -11 9 -11 20 0 13 -6 20 -17 19
-11 0 -13 -3 -5 -6 6 -2 12 -18 12 -34 0 -18 4 -28 10 -24 6 3 10 2 10 -3 0
-6 -7 -12 -15 -16 -8 -3 -15 -11 -15 -18 0 -9 3 -9 12 0 19 19 28 14 28 -13 0
-17 5 -25 18 -25 11 0 13 3 5 8 -12 7 -11 101 1 121 3 5 -2 11 -12 13 -15 4
-18 1 -14 -18z"/>
<path d="M2600 716 c0 -9 -4 -16 -10 -16 -5 0 -10 -11 -10 -25 0 -17 -4 -23
-14 -19 -8 3 -17 1 -21 -5 -4 -7 10 -11 42 -10 39 0 44 2 26 9 -13 5 -23 12
-23 15 0 4 4 4 9 1 5 -3 11 8 13 25 3 16 1 32 -4 35 -4 3 -8 -2 -8 -10z"/>
<path d="M2801 708 c-6 -17 -4 -25 8 -30 27 -11 31 -9 31 22 0 36 -26 41 -39
8z"/>
<path d="M2877 723 c-11 -10 -8 -43 3 -43 6 0 10 -7 10 -15 0 -8 -6 -15 -14
-15 -7 0 -16 -11 -18 -25 -3 -14 -1 -25 3 -25 5 0 9 7 9 15 0 15 11 19 39 15
9 -1 12 4 7 15 -3 9 -6 32 -6 51 0 32 -16 45 -33 27z"/>
<path d="M1850 670 l-3 -45 -7 35 -7 35 -2 -42 c-1 -30 -6 -43 -18 -46 -17 -4
-17 -5 0 -6 13 -1 17 -10 17 -44 0 -45 24 -72 54 -61 10 4 14 0 13 -15 -1 -12
-4 -21 -8 -21 -12 0 -3 -31 11 -40 12 -7 12 -11 0 -27 -12 -15 -12 -16 0 -5
17 14 34 16 25 2 -7 -11 8 -14 18 -4 3 4 -4 15 -17 25 -17 14 -22 25 -18 49 3
24 8 29 23 25 14 -5 20 0 25 19 3 14 10 24 14 21 5 -3 12 -1 15 5 4 6 1 9 -6
8 -7 -2 -15 5 -17 15 -2 12 3 17 20 17 18 0 20 2 9 9 -8 5 -22 6 -30 2 -35
-16 -90 1 -73 22 13 17 21 56 13 61 -4 3 -13 1 -21 -5 -10 -6 -11 -9 -2 -9 6
0 12 -7 12 -15 0 -8 -4 -15 -10 -15 -6 0 -10 -27 -10 -62 0 -59 -1 -61 -16
-40 -15 22 -16 82 -1 93 5 3 7 28 4 55 l-3 49 -4 -45z m100 -140 c0 -23 -25
-27 -33 -6 -7 16 1 26 20 26 7 0 13 -9 13 -20z"/>
<path d="M2096 688 c2 -13 2 -17 -2 -10 -6 14 -24 7 -24 -10 0 -7 13 -8 35 -5
24 4 33 2 29 -5 -4 -6 -1 -9 6 -6 8 2 15 9 17 15 5 14 -35 24 -41 9 -2 -6 -5
-3 -5 6 -1 9 -5 19 -10 22 -5 4 -7 -4 -5 -16z"/>
<path d="M2650 694 c0 -8 5 -14 12 -14 6 0 4 -7 -5 -18 -19 -21 -22 -50 -7
-72 8 -11 9 -7 4 14 -6 26 -5 29 15 23 20 -5 22 -3 16 20 -3 14 -1 31 5 38 8
10 4 14 -15 17 -17 4 -25 1 -25 -8z"/>
<path d="M444 682 c10 -12 23 -19 27 -16 5 3 9 -1 9 -9 0 -16 27 -30 41 -22 5
3 18 1 30 -6 12 -6 19 -7 15 -1 -3 6 -2 21 3 35 9 24 9 24 -55 25 -36 1 -70 4
-77 8 -7 4 -4 -2 7 -14z"/>
<path d="M590 691 c0 -5 6 -12 13 -14 10 -4 10 -6 0 -6 -7 -1 -13 -5 -13 -11
0 -5 21 -10 48 -10 34 0 43 -3 32 -10 -11 -7 -6 -10 20 -10 50 0 64 12 55 46
-7 26 -8 27 -15 9 -4 -11 -5 -26 -3 -32 3 -8 -3 -13 -16 -13 -12 0 -21 4 -21
10 0 5 6 7 13 5 7 -3 12 4 12 20 0 28 -5 31 -24 13 -11 -10 -13 -10 -7 0 4 6
3 12 -2 12 -5 0 -12 -9 -15 -20 -3 -11 -12 -20 -21 -20 -22 0 -20 27 2 33 9 3
0 5 -20 6 -21 0 -38 -3 -38 -8z"/>
<path d="M246 675 c-4 -12 -1 -16 14 -13 24 3 28 22 7 26 -8 2 -17 -4 -21 -13z"/>
<path d="M352 678 c-7 -7 -12 -9 -12 -5 0 4 -9 3 -20 -3 -11 -6 -20 -15 -20
-21 0 -6 7 -6 20 1 16 8 20 8 20 -3 0 -20 -33 -27 -47 -11 -12 12 -41 12 -95
0 -24 -6 -28 -3 -28 16 l-1 23 -21 -25 c-11 -14 -25 -24 -29 -23 -5 2 -9 -2
-9 -7 0 -6 11 -8 24 -6 28 5 66 -3 66 -14 0 -4 -25 -7 -55 -6 -48 2 -65 -6
-65 -28 0 -5 204 6 242 13 l43 9 -45 1 c-51 1 -76 13 -65 30 5 9 10 9 21 0 8
-6 27 -9 44 -7 16 2 31 0 33 -6 3 -7 9 -7 19 2 13 10 17 10 22 -4 9 -23 7 -44
-3 -44 -5 0 -12 7 -14 15 -4 11 -4 10 -3 -2 1 -13 11 -19 35 -21 31 -3 33 -2
17 13 -21 21 -20 26 8 53 17 16 27 19 32 11 4 -8 3 -9 -4 -5 -7 4 -12 2 -12
-3 0 -13 17 -14 25 -2 6 10 -21 41 -35 41 -5 0 -13 -7 -18 -16 -7 -13 -13 -14
-31 -5 -12 7 -20 8 -19 2 2 -5 -1 -10 -7 -10 -5 -1 -11 7 -13 19 -2 13 4 23
20 29 14 6 17 10 8 10 -9 1 -21 -4 -28 -11z"/>
<path d="M2186 663 c-4 -13 -15 -23 -24 -23 -14 0 -14 -2 -3 -9 12 -8 12 -10
0 -14 -8 -2 -4 -3 7 -1 12 2 39 -4 60 -13 22 -9 43 -16 48 -14 5 1 12 -2 15
-7 3 -5 20 -13 36 -19 29 -9 48 -43 25 -43 -6 0 -9 4 -6 8 2 4 -5 9 -16 9 -20
2 -20 1 -2 -12 27 -20 58 -19 50 1 -4 12 -2 15 9 10 16 -6 31 33 22 56 -3 7
-6 3 -6 -9 -1 -29 -31 -19 -32 11 -1 16 -2 17 -6 4 -2 -10 -10 -18 -18 -18 -7
0 -12 8 -10 18 1 9 0 11 -2 5 -3 -7 -11 -13 -20 -13 -9 0 -13 6 -10 15 4 8 2
17 -3 20 -5 3 -11 -3 -14 -12 -3 -10 -4 -5 -2 11 l4 30 -18 -24 c-12 -16 -19
-19 -22 -10 -5 17 -38 22 -39 7 -1 -7 -5 4 -8 23 -6 32 -8 33 -15 13z"/>
<path d="M2786 640 c-3 -18 -2 -39 4 -48 7 -14 9 -10 10 16 0 22 5 32 15 32 8
0 15 -5 15 -11 0 -5 5 -7 10 -4 8 5 7 11 -1 21 -6 7 -16 11 -21 8 -6 -4 -14
-1 -18 6 -4 7 -10 0 -14 -20z"/>
<path d="M788 620 c-8 -24 -15 -29 -34 -26 -13 3 -24 0 -24 -5 0 -5 16 -9 36
-9 19 0 33 4 30 9 -4 5 -2 21 4 35 5 14 7 26 4 26 -3 0 -10 -14 -16 -30z"/>
<path d="M851 641 c-8 -5 -11 -16 -8 -25 7 -18 23 -21 32 -6 3 6 -1 10 -10 10
-9 0 -13 5 -10 10 4 6 11 8 16 5 5 -4 9 -1 9 4 0 13 -10 14 -29 2z"/>
<path d="M1100 627 c0 -5 5 -17 10 -28 9 -16 7 -19 -15 -19 -37 0 -30 -20 8
-21 23 -1 26 -3 10 -6 -13 -2 -23 -8 -23 -13 0 -6 9 -6 23 -1 15 6 21 16 19
31 -2 21 -32 73 -32 57z"/>
<path d="M2541 603 c2 -25 2 -25 6 -5 3 17 10 22 26 20 12 -2 22 -8 22 -15 0
-6 4 -15 9 -20 5 -5 7 2 3 15 -4 18 -2 22 9 18 8 -3 14 -1 14 4 0 6 -20 10
-45 10 -43 0 -45 -1 -44 -27z"/>
<path d="M530 611 c0 -8 -7 -11 -20 -8 -13 3 -20 0 -20 -9 0 -13 15 -18 48
-17 6 1 12 -4 13 -11 0 -6 4 -2 8 9 7 18 9 17 24 -10 14 -25 16 -27 17 -9 0
15 10 24 39 32 49 15 56 15 43 0 -8 -10 -4 -13 14 -14 29 -2 31 7 5 23 -25 16
-81 26 -81 15 0 -12 -74 -10 -82 2 -5 7 -8 6 -8 -3z"/>
<path d="M907 603 c-4 -3 -7 -19 -7 -35 0 -16 -4 -27 -9 -24 -5 3 -8 14 -6 24
1 9 0 12 -2 6 -2 -6 -14 -16 -27 -22 -18 -8 -25 -6 -34 7 -10 14 -11 12 -9 -9
1 -14 7 -28 12 -32 6 -5 5 -8 -3 -8 -7 0 -10 -4 -7 -10 3 -5 1 -19 -5 -30 -10
-18 -12 -18 -30 -3 -14 12 -16 19 -8 24 7 4 16 5 20 3 4 -3 7 11 6 30 -2 21
-8 36 -16 36 -10 0 -10 -5 -2 -21 13 -23 4 -41 -9 -20 -7 10 -10 9 -16 -8 -3
-11 -13 -21 -21 -21 -8 0 -14 -4 -14 -9 0 -4 -11 -6 -25 -3 -16 3 -25 0 -25
-8 0 -13 38 -10 73 5 13 5 17 2 17 -12 0 -15 7 -19 30 -19 31 0 39 11 43 64 2
29 36 50 48 31 12 -20 32 3 35 41 2 32 1 34 -9 23z"/>
<path d="M1620 586 c0 -9 9 -14 20 -13 11 1 20 7 20 14 0 7 -9 13 -20 13 -11
0 -20 -6 -20 -14z"/>
<path d="M1003 558 c-2 -16 0 -19 6 -9 5 7 14 10 20 6 8 -4 9 -11 3 -18 -5 -7
-12 -28 -16 -47 -6 -32 -5 -33 5 -10 6 14 16 35 22 47 7 16 7 26 -3 38 -18 22
-35 19 -37 -7z"/>
<path d="M1230 545 c0 -43 -22 -55 -50 -30 -11 10 -23 15 -27 12 -3 -4 -2 -7
4 -7 6 0 14 -7 17 -16 5 -13 4 -14 -7 -6 -8 7 -17 9 -20 5 -15 -15 -5 -20 31
-17 52 6 65 8 81 18 10 6 12 5 7 -2 -4 -7 -1 -12 9 -12 13 0 15 5 10 18 -4 9
-10 29 -13 45 -3 18 -10 27 -23 27 -15 0 -19 -7 -19 -35z"/>
<path d="M1480 554 c0 -14 6 -31 13 -39 11 -11 15 -10 25 6 21 33 15 59 -13
59 -20 0 -25 -5 -25 -26z"/>
<path d="M1730 546 c0 -29 4 -36 20 -36 15 0 20 7 20 25 0 14 1 28 3 33 1 4
-8 8 -20 10 -20 3 -23 -1 -23 -32z"/>
<path d="M2440 561 c0 -12 -4 -19 -10 -16 -5 3 -10 0 -10 -9 0 -8 -6 -17 -12
-19 -7 -3 -3 -6 9 -6 16 -1 23 7 28 30 4 17 4 33 1 36 -3 4 -6 -4 -6 -16z"/>
<path d="M453 558 c-2 -5 8 -8 23 -8 15 0 24 -3 21 -7 -4 -3 -20 -6 -36 -5
-22 0 -28 -3 -24 -14 9 -25 91 -22 111 4 12 16 14 16 23 0 6 -10 17 -18 24
-18 8 0 15 -6 16 -12 0 -7 5 0 10 16 10 34 2 49 -12 23 -12 -21 -29 -22 -29
-2 0 8 -9 15 -20 15 -11 0 -20 -4 -20 -9 0 -5 -6 -11 -13 -14 -10 -4 -13 1
-10 16 4 19 0 22 -27 22 -18 0 -34 -3 -37 -7z"/>
<path d="M2532 533 c3 -37 4 -38 46 -41 26 -2 45 -9 49 -18 3 -8 13 -14 22
-14 14 0 14 2 1 10 -8 5 -10 10 -5 11 32 4 41 3 47 -6 5 -6 8 -6 8 2 0 7 18
10 51 9 48 -3 52 -1 63 26 7 15 16 25 21 21 4 -5 5 -2 1 5 -11 19 -26 14 -26
-9 0 -11 -4 -18 -9 -14 -5 3 -12 1 -16 -5 -10 -16 -45 -12 -40 5 16 50 14 48
32 34 13 -11 17 -11 20 -1 5 14 39 16 47 3 3 -5 14 -7 25 -4 15 4 18 0 14 -21
-4 -20 -9 -24 -18 -16 -9 8 -18 6 -31 -7 -16 -17 -16 -18 21 -27 24 -5 39 -5
44 2 4 7 19 7 41 2 l35 -8 -30 -2 -30 -2 30 -7 c41 -10 44 -7 43 40 0 23 -4
36 -8 29 -5 -8 -9 -5 -13 9 -3 15 1 21 17 24 11 2 -86 5 -217 6 l-238 1 3 -37z
m59 13 c-10 -11 -7 -14 14 -12 14 0 25 7 25 14 0 17 31 11 48 -8 12 -13 13
-13 8 3 -3 9 -1 17 4 17 6 0 10 -7 10 -15 0 -8 5 -15 11 -15 6 0 9 6 6 13 -3
7 3 13 13 14 13 1 16 -4 12 -22 -5 -28 -37 -42 -56 -26 -17 14 -44 5 -48 -16
-3 -14 -5 -13 -18 2 -9 11 -10 16 -2 11 7 -4 12 -2 12 5 0 8 -11 10 -33 6 -19
-3 -40 -1 -48 3 -15 10 -14 12 16 28 28 16 40 15 26 -2z m333 -2 c9 -8 16 -11
16 -5 0 6 5 11 11 11 16 0 6 -35 -11 -35 -8 0 -21 -4 -28 -9 -18 -11 -21 -6
-15 27 6 32 7 32 27 11z"/>
<path d="M308 554 c-4 -3 -35 -7 -70 -8 -35 -2 -73 -8 -83 -14 -11 -6 -15 -12
-10 -12 6 0 3 -4 -5 -10 -34 -22 36 -33 95 -14 l40 12 -32 1 c-38 1 -44 16
-10 25 34 9 56 6 32 -4 -16 -7 -17 -9 -3 -9 9 -1 23 -4 32 -7 9 -3 16 -1 16 6
0 6 -5 8 -12 4 -6 -4 -8 -3 -5 3 8 13 98 5 112 -10 7 -7 6 -8 -3 -3 -6 4 -19
0 -27 -8 -9 -8 -23 -12 -32 -9 -12 5 -15 2 -10 -9 3 -10 0 -19 -9 -22 -9 -3
-13 -9 -10 -14 2 -4 -11 -7 -31 -7 -19 1 -37 -4 -40 -11 -2 -6 -14 -10 -26 -8
-12 2 -16 2 -9 -2 17 -8 -58 -46 -80 -40 -12 3 -18 -2 -18 -12 0 -8 -3 -13 -6
-9 -4 3 -13 0 -21 -8 -16 -17 -63 -20 -63 -5 0 6 -4 10 -10 10 -5 0 -10 -8
-10 -19 0 -16 5 -17 38 -10 60 12 82 21 82 31 0 6 6 8 14 5 7 -3 22 0 32 7 11
7 39 18 64 26 25 7 50 18 57 23 7 5 16 6 22 3 5 -3 11 1 15 9 3 8 13 15 21 15
9 0 13 5 10 10 -4 6 -3 10 2 9 4 -1 11 0 16 1 4 1 10 3 15 5 64 18 48 65 -22
65 -14 0 -26 5 -26 10 0 11 -23 14 -32 4z"/>
<path d="M2480 545 c0 -8 -7 -15 -15 -15 -21 0 -19 -30 3 -31 52 -2 82 -18 36
-20 -26 -1 -27 -2 -6 -7 13 -4 23 -11 23 -17 0 -5 7 -10 17 -11 29 -2 30 -3
22 -38 -4 -19 -4 -40 1 -47 7 -12 9 -11 10 1 1 8 1 18 0 23 0 4 6 7 14 7 8 0
15 -4 15 -8 0 -9 54 -42 69 -42 6 0 11 5 11 11 0 6 -7 9 -15 6 -8 -4 -17 -1
-21 5 -4 7 -3 8 4 4 7 -4 12 -3 12 3 0 5 -4 13 -10 16 -5 3 -10 1 -10 -5 0 -7
-6 -10 -12 -7 -7 2 -12 9 -11 15 1 5 -9 13 -22 16 -14 4 -25 11 -25 17 0 6 9
8 22 3 13 -4 35 -7 50 -6 16 0 28 -4 28 -9 0 -6 5 -7 11 -3 8 5 8 9 -1 14 -7
4 -10 12 -7 17 4 6 -6 10 -22 9 -16 -1 -27 -5 -24 -10 7 -10 -37 3 -55 17 -20
16 -6 20 20 6 21 -11 22 -11 9 4 -7 10 -23 17 -36 17 -20 0 -59 30 -53 41 2 2
-2 -1 -8 -8 -16 -18 -24 -5 -14 23 6 15 6 24 0 24 -6 0 -10 -7 -10 -15z"/>
<path d="M0 528 c0 -4 10 -12 21 -19 16 -8 23 -8 29 1 6 9 9 9 12 -1 3 -8 7
-5 10 9 6 21 3 23 -33 20 -21 -1 -39 -5 -39 -10z"/>
<path d="M1106 515 c-3 -8 -15 -14 -27 -12 -12 1 -24 -4 -26 -10 -3 -9 7 -12
36 -10 35 2 40 5 38 25 -2 25 -12 29 -21 7z"/>
<path d="M2071 521 c-7 -5 -28 -7 -45 -4 -25 3 -33 0 -33 -11 0 -19 43 -22 50
-3 4 10 6 10 6 0 1 -15 57 -18 66 -4 8 14 -28 31 -44 22z"/>
<path d="M883 503 c-9 -22 5 -28 37 -16 25 10 28 9 25 -8 -2 -11 1 -19 7 -19
5 0 8 7 5 15 -4 8 -2 17 3 20 6 4 10 1 10 -4 0 -6 7 -11 16 -11 8 0 12 5 9 10
-3 6 -1 10 6 10 7 0 10 3 7 6 -4 3 -32 7 -63 8 -41 2 -58 -1 -62 -11z"/>
<path d="M631 487 c-1 -11 -6 -15 -13 -11 -7 4 -8 3 -4 -4 4 -8 -3 -10 -24 -7
-27 3 -30 1 -30 -25 0 -17 -7 -33 -17 -39 -15 -9 -12 -10 15 -11 22 0 32 5 32
15 0 8 -4 15 -9 15 -5 0 -7 9 -4 20 3 11 10 20 15 20 5 0 6 -5 2 -12 -4 -6 -3
-8 3 -5 6 4 13 -10 17 -33 6 -41 22 -55 22 -21 0 11 -4 17 -8 15 -4 -3 -8 2
-8 10 0 10 9 16 25 16 23 0 25 3 19 28 -9 35 -14 41 -14 14 0 -14 -6 -22 -16
-22 -13 0 -14 3 -4 15 6 8 10 20 7 27 -3 8 -6 6 -6 -5z"/>
<path d="M2366 493 c-3 -4 -27 -6 -51 -4 -25 1 -45 -2 -45 -8 0 -14 99 -8 105
7 5 13 2 16 -9 5z"/>
<path d="M416 471 c-10 -15 97 -19 114 -4 12 11 5 13 -47 13 -34 0 -64 -4 -67
-9z"/>
<path d="M1262 450 c-3 -35 29 -47 47 -18 11 17 10 18 -9 8 -17 -9 -20 -8 -20
9 0 31 -16 33 -18 1z"/>
<path d="M1961 451 c-1 -27 2 -32 16 -27 9 4 19 3 22 -2 9 -14 61 -24 61 -12
0 6 -4 8 -10 5 -5 -3 -10 -2 -10 4 0 6 -7 8 -16 4 -13 -5 -15 -2 -10 15 4 11
2 23 -4 27 -6 4 -9 1 -8 -6 6 -22 -22 -21 -31 3 -9 21 -10 20 -10 -11z"/>
<path d="M1196 462 c-4 -7 -12 -10 -17 -7 -5 4 -9 -1 -9 -9 0 -21 -30 -20 -45
1 -13 18 -49 11 -43 -9 7 -20 26 -20 31 -1 4 17 5 17 6 1 1 -20 45 -26 56 -8
10 16 21 12 33 -12 10 -21 11 -21 11 -3 0 32 -14 61 -23 47z"/>
<path d="M2443 453 c25 -4 40 -23 17 -23 -20 0 -10 -36 10 -37 11 -1 18 2 15
7 -3 4 -1 19 4 33 9 23 8 24 -32 24 -26 0 -32 -2 -14 -4z"/>
<path d="M2840 451 c0 -6 5 -13 10 -16 6 -4 10 -12 9 -18 -4 -35 7 -39 61 -26
10 3 15 -3 14 -18 -1 -17 4 -23 18 -23 15 0 18 -5 13 -19 -5 -16 -2 -18 15
-14 24 6 26 19 5 27 -12 4 -15 16 -11 46 5 40 5 40 -30 40 -20 0 -34 -5 -34
-12 0 -9 -4 -8 -10 2 -5 8 -10 11 -10 7 0 -4 -9 -3 -20 3 -11 6 -18 15 -15 21
4 5 1 9 -4 9 -6 0 -11 -4 -11 -9z"/>
<path d="M101 434 c-7 -8 -10 -18 -6 -22 3 -3 10 -1 14 6 4 7 21 17 37 22 l29
8 -30 1 c-16 0 -36 -7 -44 -15z"/>
<path d="M975 424 c-59 -31 -122 -31 -117 0 3 17 2 18 -12 7 -17 -15 -22 -36
-6 -26 6 3 10 1 10 -4 0 -6 14 -11 30 -11 17 0 30 -5 30 -12 0 -9 3 -9 8 -2 4
5 33 18 65 28 34 11 57 24 57 32 0 20 -10 18 -65 -12z"/>
<path d="M375 433 c-11 -3 -22 -8 -25 -12 -3 -4 -16 -12 -30 -18 l-25 -12 28
0 c16 -1 30 5 33 14 4 8 16 15 28 15 11 0 28 5 36 10 12 8 11 10 -5 9 -11 -1
-29 -4 -40 -6z"/>
<path d="M448 429 c-2 -6 -2 -27 0 -46 3 -25 7 -31 14 -22 5 9 7 -4 3 -36 -4
-32 -3 -45 3 -37 6 9 11 -9 16 -58 6 -58 10 -71 23 -66 8 3 19 6 25 6 9 0 4
128 -7 188 -2 9 -4 33 -4 52 -1 19 -5 30 -9 23 -4 -6 -20 -15 -35 -18 -22 -6
-26 -4 -21 9 3 9 4 16 1 16 -3 0 -7 -5 -9 -11z"/>
<path d="M1347 433 c-4 -3 -7 -16 -8 -27 -1 -18 -2 -18 -9 4 -7 23 -8 23 -9 4
-1 -12 -8 -24 -16 -28 -16 -6 -21 -36 -5 -36 5 0 6 8 3 18 -6 15 -5 16 12 2
11 -9 16 -10 11 -2 -4 7 -1 12 8 12 9 0 16 5 16 11 0 6 6 9 13 6 8 -3 13 4 13
19 0 23 -15 32 -29 17z"/>
<path d="M2140 427 c0 -9 -15 -19 -37 -26 l-38 -11 44 4 c52 5 68 18 46 36
-12 10 -15 10 -15 -3z"/>
<path d="M1678 412 c-3 -10 1 -27 8 -37 13 -17 14 -16 14 18 0 39 -14 50 -22
19z"/>
<path d="M2715 422 c-24 -17 -15 -41 17 -50 18 -5 32 -14 31 -21 -5 -21 15
-11 20 11 8 29 1 38 -25 33 -11 -3 -17 -1 -14 3 7 7 11 8 37 11 5 0 7 6 3 12
-4 8 -9 7 -15 -2 -5 -8 -9 -10 -9 -5 0 4 -12 1 -26 -9 -25 -16 -25 -16 -14 4
12 23 11 25 -5 13z"/>
<path d="M708 402 c-10 -2 -18 -8 -18 -13 0 -5 -6 -9 -14 -9 -8 0 -16 -4 -18
-8 -1 -5 -24 -23 -50 -41 -27 -17 -48 -34 -48 -37 0 -6 20 5 41 22 11 10 24
11 48 4 28 -8 31 -7 27 8 -3 9 -2 22 2 28 11 17 44 25 57 14 8 -7 12 -6 12 3
0 19 -19 33 -39 29z"/>
<path d="M1469 408 c-5 -15 -6 -57 -2 -70 8 -33 18 -18 18 27 0 25 -3 45 -7
45 -5 0 -8 -1 -9 -2z"/>
<path d="M1571 389 c0 -14 7 -33 17 -42 16 -15 19 -15 32 6 17 27 21 47 9 47
-5 0 -9 -9 -9 -20 0 -33 -38 -26 -43 8 l-4 27 -2 -26z"/>
<path d="M1153 387 c-13 -5 -23 -14 -23 -19 0 -5 9 -4 20 2 12 6 20 7 20 1 0
-5 -5 -11 -11 -13 -7 -2 -10 -11 -7 -18 3 -11 8 -9 17 8 18 34 11 52 -16 39z"/>
<path d="M2803 393 c4 -3 2 -12 -4 -19 -18 -22 -3 -42 36 -50 20 -3 33 -9 30
-12 -4 -4 119 -62 132 -62 2 0 3 7 3 16 0 8 -4 13 -9 10 -5 -4 -11 -2 -13 4
-1 5 -43 27 -91 49 -49 21 -84 42 -78 46 15 8 14 25 -1 25 -6 0 -8 -3 -5 -7z"/>
<path d="M230 379 c0 -7 -8 -18 -17 -25 -15 -11 -15 -13 -3 -13 19 1 59 17 43
18 -7 1 -10 8 -7 16 4 8 1 15 -5 15 -6 0 -11 -5 -11 -11z"/>
<path d="M775 369 c2 -11 -10 -20 -36 -28 -27 -8 -44 -21 -55 -43 -12 -24 -18
-28 -25 -17 -8 13 -13 5 -10 -15 1 -5 -5 -6 -13 -3 -8 3 -22 -3 -31 -13 -10
-11 -12 -19 -6 -21 6 -2 2 -10 -10 -17 -12 -8 -19 -10 -16 -5 3 5 2 15 -2 22
-5 8 -10 -2 -15 -27 -5 -33 -11 -42 -37 -51 -17 -6 -35 -8 -40 -5 -5 3 -9 -2
-9 -11 0 -10 -6 -15 -13 -12 -19 7 -41 -8 -32 -22 5 -9 11 -9 23 1 13 11 14
11 8 0 -11 -18 -50 -32 -57 -20 -3 5 -15 -8 -26 -29 -15 -29 -25 -37 -42 -35
-11 2 -21 -1 -21 -7 0 -21 51 -5 74 23 18 23 30 29 59 28 20 -1 39 3 42 7 3 5
-5 7 -17 4 -21 -5 -21 -3 7 25 17 16 33 28 38 25 4 -2 7 -25 7 -51 0 -26 5
-54 11 -62 8 -11 9 -8 5 16 -5 29 -3 31 16 26 16 -4 19 -2 13 8 -6 10 -4 12 9
7 11 -4 15 -3 10 4 -3 6 -17 8 -30 5 -14 -4 -24 -2 -24 4 0 6 5 8 10 5 7 -4 9
2 4 19 -4 16 -2 26 5 26 6 0 11 -6 11 -14 0 -8 4 -17 9 -20 5 -3 9 5 9 18 0
24 -23 31 -45 13 -9 -6 -13 -6 -13 1 0 6 6 15 14 19 8 4 39 31 70 58 30 28 65
58 78 67 13 10 36 28 52 40 26 20 41 22 151 22 l122 1 -34 -42 c-19 -23 -40
-40 -47 -37 -8 3 -21 -2 -30 -11 -9 -9 -20 -13 -26 -10 -5 3 -17 2 -26 -3 -13
-7 -9 -10 20 -14 29 -3 40 0 47 15 6 10 13 16 16 13 3 -3 -2 -17 -12 -32 -9
-15 -12 -23 -5 -19 8 5 11 3 8 -6 -3 -8 -9 -14 -14 -14 -5 0 -15 -4 -23 -9
-11 -7 -13 -5 -8 8 4 11 3 15 -4 11 -6 -4 -8 -13 -5 -21 8 -20 -10 -27 -36
-14 -22 11 -22 10 -4 -4 11 -9 24 -16 30 -16 5 0 6 -3 2 -7 -11 -11 -67 -12
-60 -2 3 5 -6 4 -21 -3 -18 -8 -22 -14 -13 -19 8 -5 -5 -11 -32 -15 -44 -7
-45 -8 -15 -16 34 -9 68 -1 59 13 -3 6 5 7 20 3 46 -11 137 71 140 126 0 11 4
19 7 18 9 -4 49 33 49 44 0 5 -6 6 -12 2 -8 -4 -10 -3 -5 2 5 5 14 9 20 9 7 0
16 15 22 33 6 20 15 32 24 30 20 -4 22 -35 3 -56 -10 -10 -12 -11 -7 -2 9 13
8 13 -7 1 -10 -7 -18 -20 -18 -27 0 -8 -4 -14 -10 -14 -5 0 -10 -7 -10 -15 0
-8 -5 -15 -11 -15 -5 0 -7 -5 -4 -10 3 -6 -1 -13 -9 -16 -18 -7 -22 -34 -5
-34 5 0 7 5 4 10 -3 5 -2 10 4 10 16 0 20 -14 8 -31 -7 -9 -20 -15 -29 -13
-10 1 -18 -1 -18 -4 0 -4 -17 -18 -38 -32 -20 -13 -49 -37 -64 -52 -15 -16
-37 -32 -50 -38 -23 -9 -23 -9 3 -9 17 -1 36 9 50 25 40 44 84 84 91 84 2 0 3
-11 3 -25 0 -16 -5 -23 -12 -20 -21 8 -15 -5 17 -35 29 -27 40 -28 40 -4 0 6
-8 11 -17 10 -11 0 -17 5 -15 14 2 8 4 27 4 42 1 15 5 25 9 22 4 -2 14 5 22
16 7 11 17 17 21 12 4 -4 7 7 5 23 -4 56 0 75 16 69 8 -4 12 -11 8 -18 -4 -6
1 -4 11 4 18 14 18 15 -5 20 l-24 6 25 14 c14 8 30 13 35 12 10 -2 41 57 37
71 -1 4 3 7 8 7 6 0 10 8 10 18 0 14 -4 12 -20 -8 -12 -15 -20 -19 -20 -11 0
11 -10 12 -45 8 -28 -4 -45 -3 -45 4 0 6 -4 8 -9 5 -8 -5 -144 -11 -183 -7 -9
0 -18 7 -21 14 -2 6 -3 5 -2 -4z"/>
<path d="M1441 371 c-1 -8 -8 -11 -19 -8 -15 3 -19 -1 -18 -23 l1 -27 23 24
c13 14 21 30 18 37 -3 7 -5 6 -5 -3z"/>
<path d="M1721 370 c-5 -3 -10 -14 -12 -24 -5 -22 -52 -39 -86 -31 -16 4 -23
1 -23 -10 0 -8 -5 -15 -11 -15 -5 0 -7 6 -3 13 5 7 1 7 -10 -2 -15 -13 -19
-13 -27 0 -7 11 -9 9 -9 -8 0 -13 -4 -23 -10 -23 -5 0 -9 3 -9 8 1 4 1 13 0
20 -2 20 -31 -12 -31 -33 0 -14 6 -15 33 -9 17 4 39 7 47 8 8 1 19 6 23 11 5
6 6 -6 2 -27 -3 -20 -1 -38 4 -40 6 -1 12 -19 14 -39 4 -33 2 -36 -17 -32 -17
4 -17 2 4 -9 15 -8 30 -30 38 -56 8 -23 18 -42 23 -42 4 0 6 -7 3 -15 -4 -9 0
-15 10 -15 10 0 13 5 9 17 -4 11 -3 14 5 9 8 -5 12 2 11 21 0 20 -2 23 -7 11
-10 -24 -36 -7 -37 24 -1 13 -3 37 -4 53 -3 30 -3 30 -11 5 -8 -25 -8 -25 -11
5 -5 61 -4 70 7 82 7 7 21 10 31 7 17 -7 17 -6 1 12 -14 14 -20 15 -30 6 -17
-17 -27 -15 -25 7 1 13 8 18 25 16 16 -2 22 2 18 11 -4 10 4 14 29 14 28 0 33
3 28 18 -5 14 -3 15 8 5 7 -7 22 -14 34 -14 20 -1 20 -1 0 -6 -11 -3 -33 -15
-49 -26 -25 -18 -29 -18 -23 -4 3 9 2 17 -3 17 -13 0 -13 -27 1 -35 5 -4 19 1
29 10 11 10 26 15 35 11 9 -3 18 1 21 9 9 23 26 18 19 -5 -5 -14 -2 -20 9 -20
9 0 24 -9 33 -19 9 -11 20 -18 25 -15 10 6 11 27 1 21 -5 -2 -16 4 -25 14 -16
17 -16 18 0 22 11 3 9 5 -7 6 -13 0 -21 4 -17 8 4 5 -12 13 -36 18 -30 8 -44
17 -46 30 -3 17 -1 17 7 5 7 -10 11 -11 11 -2 0 6 5 12 11 12 5 0 7 -4 4 -10
-3 -5 -1 -10 4 -10 6 0 11 8 11 18 0 17 -30 25 -49 12z"/>
<path d="M2445 353 c8 -33 29 -49 33 -27 2 9 -5 22 -15 30 -16 13 -16 13 0 8
9 -3 17 -1 17 5 0 6 -9 11 -21 11 -18 0 -20 -4 -14 -27z"/>
<path d="M1919 348 c-12 -22 -11 -37 1 -18 7 11 10 11 10 2 0 -10 5 -10 22 2
23 16 68 22 68 9 0 -5 44 -7 98 -5 88 3 100 1 116 -17 11 -12 14 -21 9 -21 -6
0 -16 7 -23 15 -7 8 -20 15 -29 14 -12 0 -11 -2 4 -9 23 -9 65 -47 65 -59 0
-12 -48 -31 -63 -25 -8 3 -20 -2 -27 -11 -10 -12 -10 -15 4 -15 9 0 30 7 46
15 17 9 30 14 31 13 8 -30 4 -36 -25 -42 -23 -5 -27 -9 -17 -16 10 -5 22 -4
34 5 11 7 27 11 36 7 14 -5 14 -4 1 13 -8 10 -10 16 -3 12 6 -4 13 -2 15 5 4
10 10 10 32 0 15 -6 35 -12 44 -11 11 0 7 5 -11 13 -15 7 -25 15 -21 18 3 4
-4 12 -16 18 -17 9 -25 9 -34 -1 -8 -9 -8 -10 1 -5 7 4 21 2 30 -3 16 -9 16
-10 1 -11 -9 0 -23 -3 -32 -6 -12 -5 -16 0 -16 18 0 13 -5 29 -12 36 -7 7 -8
12 -2 12 6 0 14 -3 18 -7 3 -4 20 -8 35 -9 22 -2 49 -22 105 -81 70 -72 86
-99 69 -116 -11 -11 -13 -66 -3 -72 5 -3 7 1 4 9 -3 8 0 24 6 36 6 12 13 39
14 60 3 34 0 39 -21 45 -17 4 -23 11 -19 21 4 10 -1 18 -14 21 -11 3 -20 10
-20 15 0 5 -5 6 -11 2 -7 -4 -9 0 -5 13 5 17 2 20 -19 17 -22 -2 -24 0 -14 12
9 11 8 14 -5 14 -17 0 -78 38 -84 53 -2 4 -10 7 -18 7 -8 0 -14 4 -14 10 0 5
-3 9 -7 9 -5 -1 -12 0 -18 1 -5 1 -77 3 -158 4 -130 1 -150 -1 -158 -16z"/>
<path d="M294 341 c-10 -11 -2 -21 16 -21 11 0 20 -5 20 -11 0 -6 7 -3 16 5 8
9 20 16 25 16 5 0 9 3 9 8 0 7 -78 10 -86 3z"/>
<path d="M160 331 c-8 -5 -31 -16 -50 -25 l-35 -16 35 5 c19 3 41 6 48 7 6 1
12 5 12 10 0 4 7 8 16 8 8 0 12 5 9 10 -7 12 -15 12 -35 1z"/>
<path d="M245 330 c-14 -6 -15 -9 -5 -10 12 0 11 -4 -4 -15 -11 -8 -15 -15 -9
-15 7 0 19 7 27 16 15 14 16 14 16 -5 0 -12 5 -21 11 -21 6 0 8 7 5 16 -3 9
-6 22 -6 30 0 16 -6 16 -35 4z"/>
<path d="M1430 310 c-7 -16 -16 -30 -20 -30 -5 0 -6 -10 -2 -22 3 -14 2 -19
-7 -14 -6 4 -9 12 -6 17 4 5 -2 6 -14 1 -22 -8 -27 -29 -6 -24 18 4 26 -11 14
-28 -6 -11 -9 -11 -9 -2 0 10 -5 10 -20 2 -25 -13 -27 -33 -2 -26 22 7 49 -8
33 -19 -7 -3 -9 -16 -6 -28 l6 -22 -17 22 c-14 20 -18 21 -32 7 -8 -9 -15 -30
-16 -47 -1 -25 -6 -32 -26 -37 -18 -4 -21 -8 -11 -14 7 -5 23 -3 37 5 19 10
24 20 22 43 -4 39 23 43 33 6 4 -14 8 -23 9 -20 4 7 10 80 10 108 0 12 5 22
11 22 8 0 10 -14 6 -40 -3 -24 -1 -40 5 -40 6 0 9 25 6 65 -2 36 -1 65 4 65 8
0 23 69 16 76 -3 2 -11 -9 -18 -26z"/>
<path d="M1961 327 c-16 -16 -14 -34 5 -41 24 -9 29 -7 16 6 -17 17 -15 28 6
25 24 -4 42 -16 42 -29 0 -7 -4 -7 -13 1 -11 8 -17 5 -27 -14 -12 -22 -11 -27
9 -44 14 -12 20 -25 15 -32 -4 -7 -3 -10 2 -6 12 7 38 -13 47 -36 4 -10 12
-15 17 -12 6 4 10 3 9 -2 -3 -19 2 -34 10 -29 5 3 11 -1 15 -9 3 -9 -1 -15
-11 -15 -13 0 -13 -3 -3 -15 10 -12 15 -13 20 -4 7 11 30 -4 81 -53 16 -15 17
-15 22 3 3 10 2 17 -1 15 -10 -6 -32 21 -24 28 3 4 -1 4 -9 1 -10 -4 -20 3
-29 20 -7 14 -16 22 -19 18 -8 -11 -46 30 -47 50 -2 23 8 21 23 -3 7 -10 22
-24 34 -31 15 -8 19 -8 15 0 -10 15 -3 14 39 -6 25 -12 32 -19 23 -26 -9 -6
-7 -7 5 -3 10 3 24 6 30 6 7 0 -7 9 -31 20 -24 11 -41 24 -38 29 3 5 -2 7 -12
5 -10 -3 -29 7 -47 26 -25 26 -27 33 -15 40 11 7 11 10 2 10 -7 0 -15 -7 -18
-15 -4 -8 -10 -12 -15 -9 -5 3 -7 9 -5 13 3 4 -1 8 -9 8 -8 0 -13 -3 -12 -6 1
-3 -2 -7 -8 -8 -5 -1 -9 5 -7 13 2 10 -3 14 -15 12 -10 -2 -18 2 -18 7 0 6 -4
15 -8 22 -4 6 -3 14 2 18 6 3 15 -4 21 -15 6 -11 15 -18 21 -15 5 4 9 1 9 -4
0 -6 6 -11 13 -11 7 1 3 8 -8 18 -11 9 -20 24 -20 32 0 16 -40 53 -61 56 -7 1
-17 -3 -23 -9z"/>
<path d="M2590 325 c0 -18 -17 -20 -23 -2 -2 6 -8 9 -12 4 -5 -4 0 -14 11 -22
26 -20 34 -19 34 4 0 11 6 22 13 24 7 3 5 6 -5 6 -10 1 -18 -6 -18 -14z"/>
<path d="M756 304 c-15 -14 -26 -27 -24 -30 3 -2 13 5 23 16 19 21 41 28 30 9
-4 -6 2 -5 14 2 14 10 17 15 8 21 -17 11 -19 10 -51 -18z"/>
<path d="M1251 323 c-1 -7 -8 -10 -16 -7 -8 4 -15 1 -15 -5 0 -6 -7 -8 -15 -5
-16 7 -21 -11 -5 -21 11 -7 -21 -44 -33 -37 -5 2 -4 -5 2 -17 7 -11 8 -21 2
-21 -5 0 -12 -7 -15 -16 -3 -8 -2 -12 4 -9 6 3 10 2 10 -4 0 -12 -24 -26 -64
-35 l-29 -7 16 25 c10 14 17 29 17 33 0 4 -9 -5 -20 -22 -15 -23 -17 -32 -7
-44 10 -12 9 -14 -3 -9 -11 4 -16 0 -17 -13 -1 -13 3 -16 15 -12 9 4 19 9 22
13 14 17 83 49 92 43 8 -4 9 0 4 13 -12 32 -12 39 4 40 8 1 19 2 24 3 5 0 3 8
-4 16 -15 19 -6 47 14 39 11 -4 13 0 9 18 -5 23 -5 23 11 3 13 -16 15 -17 10
-2 -5 15 1 17 46 17 28 0 49 -4 46 -8 -6 -9 39 -10 49 0 9 8 -62 31 -75 23 -5
-3 -10 0 -10 7 0 10 -2 10 -9 -1 -7 -11 -9 -11 -14 0 -4 10 -6 10 -6 2 -1 -7
-7 -13 -15 -13 -8 0 -17 6 -19 13 -4 9 -6 9 -6 0z"/>
<path d="M2665 319 c-4 -6 -1 -10 6 -8 26 3 40 -1 35 -10 -3 -5 3 -11 14 -14
11 -3 20 -1 20 5 0 5 4 7 9 3 5 -3 12 -1 15 4 4 5 -2 8 -11 7 -10 -2 -24 3
-31 11 -16 16 -48 17 -57 2z"/>
<path d="M2788 312 c10 -7 5 -13 -21 -26 -41 -19 -59 -20 -75 -4 -8 8 -15 8
-27 -2 -11 -9 -18 -10 -29 -1 -11 9 -16 9 -22 0 -4 -8 -3 -9 4 -5 7 4 12 3 12
-1 0 -5 9 -14 21 -21 12 -8 18 -9 15 -4 -3 6 1 13 10 16 8 3 12 2 9 -4 -4 -6
1 -7 11 -3 11 4 15 3 10 -5 -3 -6 -2 -14 4 -17 6 -4 9 -1 8 6 -2 6 3 14 11 17
8 2 11 0 7 -6 -3 -5 1 -12 9 -15 9 -4 12 -1 9 7 -8 22 27 28 50 9 12 -10 24
-22 27 -26 3 -5 22 -9 41 -10 31 -2 35 -4 27 -19 -8 -14 -6 -18 10 -18 11 0
23 -5 27 -11 5 -8 -5 -10 -32 -5 -78 13 -124 17 -124 13 0 -3 19 -16 43 -29
40 -23 74 -27 62 -8 -3 5 10 6 30 3 24 -4 35 -2 35 7 0 8 9 10 28 6 15 -3 21
-3 14 0 -6 3 -10 9 -7 13 2 5 -13 13 -35 20 -22 6 -39 17 -37 24 1 7 -10 13
-26 15 -15 2 -25 8 -22 13 4 5 -1 9 -10 9 -11 0 -15 6 -10 19 6 20 -20 38 -30
21 -4 -6 -1 -10 4 -10 6 0 11 -5 11 -12 0 -9 -3 -9 -12 0 -7 7 -13 20 -13 29
0 9 -7 18 -15 20 -12 4 -12 3 -2 -5z"/>
<path d="M2475 290 c-3 -6 -18 -7 -33 -4 -27 7 -27 7 -8 -15 24 -27 28 -26 43
4 11 25 10 34 -2 15z"/>
<path d="M2085 270 c-3 -5 1 -10 9 -10 9 0 16 -7 16 -15 0 -9 9 -15 24 -15 37
0 41 17 6 25 -16 4 -30 11 -30 16 0 12 -17 12 -25 -1z"/>
<path d="M2580 273 c0 -7 0 -16 0 -20 0 -4 10 -8 23 -8 13 -1 30 -5 38 -10 10
-5 11 -5 4 3 -5 6 -17 12 -25 14 -8 2 -20 10 -27 18 -9 10 -12 11 -13 3z"/>
<path d="M333 258 c-4 -7 -8 -17 -8 -23 -1 -5 -6 -9 -13 -7 -7 1 -21 -7 -32
-18 -11 -11 -31 -20 -45 -20 -19 0 -25 -5 -25 -21 0 -18 -2 -20 -15 -9 -13 11
-13 15 -3 22 9 7 5 8 -11 4 -29 -6 -53 16 -45 41 5 16 4 16 -7 -1 -9 -15 -9
-24 0 -37 18 -31 14 -36 -59 -70 -39 -17 -70 -38 -70 -45 0 -16 9 -17 30 -4 9
6 17 5 22 -3 5 -8 8 -7 8 4 0 9 6 22 13 28 10 8 14 7 14 -4 0 -8 -5 -11 -10
-8 -6 3 -7 1 -3 -5 4 -6 13 -9 21 -6 8 4 12 11 8 17 -4 6 0 8 11 4 10 -4 19
-1 22 8 4 8 11 12 17 8 6 -3 7 -1 3 5 -4 6 -14 9 -24 6 -9 -3 -6 1 8 9 26 16
45 13 34 -5 -4 -7 -2 -8 5 -4 6 4 8 12 5 18 -5 8 -1 9 10 5 10 -4 19 -1 22 8
4 8 9 13 14 10 4 -2 28 9 53 25 26 16 54 27 62 24 10 -4 15 0 15 11 0 10 -5
14 -12 9 -10 -6 -10 -4 0 7 6 7 12 17 12 21 0 12 -18 9 -27 -4z"/>
<path d="M390 246 c-10 -16 -9 -18 4 -13 9 4 16 2 16 -3 0 -6 -7 -10 -15 -10
-8 0 -15 -4 -15 -10 0 -6 9 -6 26 0 14 6 30 7 36 4 7 -4 8 -2 4 4 -4 7 -2 12
3 12 6 0 11 9 11 20 0 15 -6 19 -29 17 -16 -1 -35 -11 -41 -21z"/>
<path d="M2540 251 c-19 -36 -10 -49 66 -103 42 -29 94 -68 116 -86 23 -18 49
-37 59 -43 17 -9 17 -8 2 20 -11 18 -23 27 -33 24 -12 -4 -12 -3 -2 5 11 7 11
10 -3 15 -9 4 -13 3 -10 -3 13 -21 -7 -9 -42 25 -20 19 -41 35 -46 35 -5 0
-23 14 -39 30 -15 17 -25 30 -20 30 10 0 96 -62 100 -72 2 -5 8 -8 14 -8 6 0
25 -10 42 -23 48 -36 157 -100 162 -95 2 3 -13 16 -34 29 -20 14 -75 52 -122
85 -47 33 -100 69 -119 79 -41 23 -77 57 -73 68 5 15 -8 6 -18 -12z"/>
<path d="M695 242 c-20 -15 -13 -29 16 -29 21 0 29 5 29 19 0 18 -26 24 -45
10z"/>
<path d="M2945 233 c-8 -22 8 -35 35 -31 l22 3 -25 22 c-22 19 -26 19 -32 6z"/>
<path d="M175 230 c-3 -5 -3 -10 2 -11 4 0 29 -3 56 -5 26 -3 47 -1 47 3 0 5
-19 10 -42 12 -23 1 -45 4 -49 7 -4 2 -10 0 -14 -6z"/>
<path d="M1804 229 c-3 -6 8 -25 26 -43 21 -20 31 -25 26 -13 -3 11 -2 16 4
12 24 -15 7 13 -19 33 -20 15 -32 18 -37 11z"/>
<path d="M1949 213 c10 -36 41 -44 40 -11 -1 17 -3 18 -6 6 -4 -17 -24 -26
-22 -10 3 20 -2 42 -10 42 -5 0 -6 -12 -2 -27z"/>
<path d="M1265 216 c-15 -11 -11 -12 26 -10 24 1 45 6 46 11 5 15 -52 14 -72
-1z"/>
<path d="M2656 222 c-3 -5 0 -9 7 -9 17 0 67 -33 67 -44 0 -13 38 -30 44 -20
3 5 -9 18 -27 29 -19 11 -45 27 -59 36 -15 10 -29 13 -32 8z"/>
<path d="M767 188 c-29 -25 -35 -36 -27 -48 8 -13 10 -12 10 4 0 11 5 16 14
13 7 -3 23 7 35 23 38 52 21 55 -32 8z"/>
<path d="M2770 210 l-25 -8 28 -1 c16 -1 38 -6 50 -12 l22 -11 -22 21 c-12 11
-23 21 -25 20 -2 -1 -14 -5 -28 -9z"/>
<path d="M47 190 c-19 -10 -38 -16 -41 -13 -3 4 -6 -1 -6 -10 0 -14 4 -14 42
2 24 10 50 21 57 23 13 4 12 5 -1 10 -9 4 -32 -2 -51 -12z"/>
<path d="M1636 194 c-3 -9 -6 -16 -6 -17 0 -1 14 -2 30 -3 34 -1 36 2 16 22
-19 18 -32 18 -40 -2z"/>
<path d="M2315 202 c-11 -11 -4 -22 13 -22 11 0 27 -9 37 -20 14 -16 20 -17
27 -8 10 16 10 28 1 27 -5 -1 -15 -1 -23 0 -12 1 -13 3 -1 10 9 6 4 10 -18 13
-17 3 -33 2 -36 0z"/>
<path d="M368 169 c-51 -33 -51 -33 -38 -64 8 -18 9 -17 9 7 1 16 10 33 24 43
21 15 22 14 25 -5 4 -23 15 -26 31 -6 8 10 9 16 1 21 -5 3 -10 0 -10 -7 0 -10
-3 -9 -9 1 -7 10 -4 19 7 28 32 24 7 13 -40 -18z"/>
<path d="M616 191 c-4 -6 -2 -11 4 -11 7 0 10 -6 7 -14 -7 -17 16 -29 30 -15
4 4 26 15 48 23 22 8 33 15 24 15 -9 1 -32 -5 -50 -13 -32 -13 -35 -13 -45 6
-7 14 -14 17 -18 9z"/>
<path d="M1867 167 c-10 -26 -9 -35 6 -34 33 1 47 -4 47 -19 0 -8 4 -12 10 -9
6 4 7 -2 1 -17 -4 -13 -26 -33 -47 -45 l-40 -22 -32 25 c-18 14 -29 30 -26 36
4 6 -1 6 -14 -1 -25 -13 -52 -4 -52 18 0 9 -14 24 -30 33 -25 14 -30 15 -30 2
0 -8 11 -20 25 -26 23 -10 27 -16 24 -34 -1 -12 25 -24 53 -24 15 0 30 -5 33
-11 11 -18 57 -30 87 -24 15 4 26 11 23 16 -4 5 1 6 10 3 11 -5 18 0 22 14 4
18 8 19 29 10 24 -11 28 -20 24 -47 -1 -12 1 -12 13 -3 7 6 17 9 20 5 4 -3 7
-1 7 5 0 6 7 9 15 6 10 -4 13 0 10 17 -2 12 3 35 12 50 9 16 14 32 9 36 -8 9
-27 -17 -20 -28 2 -4 0 -10 -6 -14 -5 -3 -10 -15 -10 -25 0 -24 -23 -20 -56
11 -15 13 -24 18 -19 10 6 -10 4 -12 -4 -7 -7 5 -10 14 -7 21 6 17 -30 55 -54
55 -10 0 -20 8 -22 18 -3 16 -4 16 -11 -1z"/>
<path d="M287 128 c-4 -12 -1 -25 4 -29 8 -5 8 -9 0 -13 -8 -5 -7 -12 4 -22 8
-9 13 -20 10 -25 -4 -5 0 -9 8 -9 10 0 13 7 10 20 -3 11 -9 20 -13 20 -4 0 -5
18 -3 40 4 42 -11 55 -20 18z"/>
<path d="M1226 141 c-12 -4 -20 -18 -20 -33 -1 -15 2 -24 6 -22 4 3 8 10 8 16
0 6 7 20 17 30 18 20 17 20 -11 9z"/>
<path d="M2516 142 c-4 -6 5 -19 19 -28 20 -13 23 -19 13 -26 -9 -6 -7 -8 8
-6 11 2 34 -8 51 -22 66 -53 78 -60 105 -60 15 0 28 5 28 11 0 5 -5 7 -10 4
-18 -11 -60 23 -53 43 5 14 3 15 -7 5 -11 -10 -17 -10 -31 3 -10 9 -15 22 -12
30 5 13 -14 20 -41 15 -5 -1 -17 6 -27 15 -11 9 -19 13 -19 8 0 -5 -4 -3 -9 5
-6 9 -11 10 -15 3z"/>
<path d="M2797 129 c3 -10 9 -16 14 -14 9 6 70 -28 72 -41 1 -5 5 -8 10 -6 4
1 7 -2 7 -7 0 -13 53 -45 73 -44 10 1 15 -3 11 -9 -5 -7 -2 -8 6 -3 15 10 15
10 -115 92 -64 40 -82 47 -78 32z"/>
<path d="M988 91 c-10 -13 -15 -28 -12 -33 8 -13 36 20 32 40 -3 15 -6 14 -20
-7z"/>
<path d="M206 66 c-4 -21 -5 -41 -2 -44 3 -3 6 3 7 14 1 15 3 14 8 -5 7 -25
31 -42 31 -21 0 6 -4 8 -10 5 -6 -4 -10 6 -11 22 0 15 -4 37 -8 48 -7 16 -9
13 -15 -19z"/>
<path d="M671 88 c-1 -12 -10 -18 -28 -19 l-28 -1 30 -8 30 -8 -32 -1 c-17 0
-33 3 -35 8 -1 5 -9 3 -16 -5 -11 -12 -4 -14 43 -14 57 0 62 5 45 45 -7 17 -9
17 -9 3z"/>
<path d="M1130 92 c0 -7 12 -25 26 -40 15 -15 24 -22 20 -15 -3 6 0 14 6 16
10 4 10 6 0 6 -8 1 -22 11 -33 24 -10 12 -18 16 -19 9z"/>
<path d="M1085 80 c-3 -6 -12 -10 -18 -9 -26 3 -37 -2 -37 -16 0 -8 -4 -15
-10 -15 -5 0 -14 -9 -20 -20 -10 -18 -8 -19 30 -17 29 1 39 6 35 15 -3 8 -5
16 -5 19 0 2 -7 -3 -16 -11 -8 -9 -21 -16 -27 -16 -16 1 32 40 48 40 15 0 40
28 32 36 -3 3 -8 0 -12 -6z"/>
<path d="M1542 53 c2 -22 -1 -27 -14 -25 -11 2 -18 -3 -18 -12 0 -13 4 -14 25
-4 18 8 25 19 25 40 0 15 -5 28 -11 28 -6 0 -9 -12 -7 -27z"/>
<path d="M2306 58 c39 -10 107 -11 131 -2 15 6 -6 9 -68 9 -49 0 -78 -3 -63
-7z"/>
<path d="M1365 43 c-4 -12 -16 -25 -27 -29 -11 -3 -18 -8 -15 -10 2 -2 20 2
39 10 20 9 38 12 42 9 3 -4 6 2 6 11 0 12 -5 16 -14 13 -8 -3 -17 -1 -20 6 -2
7 -8 2 -11 -10z"/>
</g>
</svg>
