<?xml version="1.0" standalone="no"?>
<!DOCTYPE svg PUBLIC "-//W3C//DTD SVG 20010904//EN"
 "http://www.w3.org/TR/2001/REC-SVG-20010904/DTD/svg10.dtd">
<svg version="1.0" xmlns="http://www.w3.org/2000/svg"
 width="300.000000pt" height="179.000000pt" viewBox="0 0 300.000000 179.000000"
 preserveAspectRatio="xMidYMid meet">
<metadata>
Created by potrace 1.10, written by Peter Selinger 2001-2011
</metadata>
<g transform="translate(0.000000,179.000000) scale(0.100000,-0.100000)"
fill="#000000" stroke="none">
<path d="M865 1780 c49 -5 108 -13 130 -19 78 -20 135 -28 135 -20 0 4 -17 11
-37 15 -21 4 -43 11 -49 15 -6 5 -69 11 -140 14 -122 4 -124 3 -39 -5z"/>
<path d="M1207 1783 c-7 -6 45 -33 64 -33 16 0 9 18 -8 23 -10 2 -25 8 -34 11
-8 4 -18 3 -22 -1z"/>
<path d="M1676 1771 c-3 -5 1 -11 9 -15 28 -10 16 -28 -15 -24 -16 3 -30 1
-30 -4 0 -9 2 -9 40 -13 29 -3 56 -4 165 -5 44 0 105 -5 135 -10 124 -21 455
-36 465 -21 4 7 -7 11 -30 11 -20 0 -55 4 -78 9 -146 32 -157 33 -182 17 -19
-12 -40 -15 -97 -10 -40 3 -89 10 -108 14 -49 12 -153 16 -167 7 -13 -8 -61
13 -86 38 -9 8 -18 11 -21 6z"/>
<path d="M1335 1720 c-3 -5 -1 -10 5 -10 5 0 29 -9 53 -19 23 -11 49 -19 57
-20 8 0 29 -2 45 -5 17 -3 22 -3 12 0 -9 3 -15 10 -12 15 4 5 3 9 -2 10 -40 3
-72 10 -105 23 -45 19 -45 19 -53 6z"/>
<path d="M1532 1698 c3 -7 19 -16 37 -20 53 -14 27 -24 -59 -23 -44 1 -75 -2
-68 -7 7 -4 27 -8 45 -8 17 0 34 -4 37 -8 3 -5 -9 -7 -27 -5 -24 2 -19 -1 18
-13 122 -39 135 -42 135 -29 0 7 -15 16 -34 19 -19 4 -45 16 -58 26 l-23 20
28 -6 c16 -4 33 -1 42 6 12 10 18 10 30 0 11 -9 34 -11 74 -7 67 7 163 -2 155
-14 -3 -5 0 -9 5 -9 15 0 14 13 -1 29 -11 11 -9 11 10 2 12 -6 22 -17 22 -24
0 -9 2 -9 8 0 5 8 13 9 22 3 20 -13 80 -13 80 0 0 5 -10 9 -22 8 -41 -2 -48 2
-41 19 5 13 2 15 -15 11 -12 -4 -25 -2 -28 4 -4 6 -24 7 -53 2 -73 -11 -220
-7 -236 6 -8 7 -15 10 -15 6 0 -3 -16 0 -36 9 -25 10 -34 11 -32 3z"/>
<path d="M2260 1640 c-22 -7 -20 -8 15 -10 22 -1 34 -4 28 -7 -7 -2 -13 -8
-13 -13 0 -4 27 -1 61 8 40 10 56 18 47 23 -16 11 -104 10 -138 -1z"/>
<path d="M1194 1613 c8 -9 100 -22 201 -30 91 -6 81 2 -20 17 -110 16 -190 22
-181 13z"/>
<path d="M2170 1604 c19 -8 53 -13 75 -11 40 3 40 4 -7 5 -27 1 -48 7 -48 12
0 6 -12 10 -27 10 -27 -1 -27 -1 7 -16z"/>
<path d="M2340 1594 c-35 -13 -35 -13 23 -10 32 2 64 9 70 15 16 16 -48 12
-93 -5z"/>
<path d="M1664 1589 c-4 -7 1 -18 11 -26 22 -15 55 -17 55 -3 0 6 -6 10 -14
10 -8 0 -21 7 -30 15 -11 11 -17 12 -22 4z"/>
<path d="M2475 1586 c11 -8 25 -16 32 -16 6 0 13 -6 16 -12 2 -7 7 -11 10 -8
11 10 -19 37 -48 44 -29 7 -29 7 -10 -8z"/>
<path d="M1886 1569 c3 -5 -5 -10 -18 -10 -19 -1 -18 -3 7 -8 32 -8 55 -4 55
9 0 4 -11 10 -25 12 -13 3 -22 1 -19 -3z"/>
<path d="M1945 1560 c-3 -5 8 -9 28 -8 19 1 38 -2 44 -5 6 -4 30 0 54 7 l44
14 -82 1 c-45 1 -85 -3 -88 -9z"/>
<path d="M2398 1565 c-4 -5 -40 -9 -107 -14 -34 -2 2 -12 58 -16 34 -2 66 -7
71 -10 4 -3 37 -7 72 -9 62 -4 62 -4 28 9 -19 7 -62 14 -95 15 l-60 2 44 9
c63 12 71 17 30 18 -20 1 -38 -1 -41 -4z"/>
<path d="M1435 1551 c3 -5 34 -13 70 -16 36 -4 63 -11 60 -15 -3 -5 9 -6 26
-3 24 3 29 1 23 -9 -4 -7 -4 -10 0 -6 5 4 19 3 31 -2 13 -5 77 -12 142 -15 65
-4 139 -8 165 -9 26 -2 50 -1 53 3 3 3 22 6 41 8 20 1 41 7 48 12 7 6 16 8 19
4 4 -3 7 -2 7 4 0 6 28 14 63 17 79 9 111 26 36 20 -30 -2 -76 -6 -103 -8 -28
-1 -52 -8 -54 -14 -5 -15 -38 -16 -47 -2 -9 15 -48 12 -42 -2 2 -7 10 -12 16
-10 6 1 11 -2 11 -8 0 -14 -28 -12 -32 2 -3 8 -28 13 -69 14 -35 0 -75 4 -88
9 -15 4 -21 3 -17 -3 11 -19 -36 -20 -88 -2 -30 10 -70 17 -91 16 -20 -1 -39
2 -41 6 -3 5 -17 5 -31 2 -18 -5 -24 -3 -19 5 5 8 -8 11 -44 11 -29 0 -49 -4
-45 -9z"/>
<path d="M1220 1540 c-11 -7 -7 -10 17 -10 17 0 35 5 38 10 8 13 -35 13 -55 0z"/>
<path d="M2572 1512 c-9 -6 6 -13 45 -20 92 -18 113 -20 107 -11 -3 5 -13 9
-23 9 -9 0 -21 4 -26 9 -15 13 -88 22 -103 13z"/>
<path d="M2164 1489 c-2 -4 -1 -10 3 -12 34 -20 263 -31 260 -12 -1 5 7 9 18
7 11 -1 42 -5 69 -9 34 -4 47 -3 42 5 -4 6 3 12 16 14 13 2 -29 3 -92 4 -63 0
-133 3 -155 6 -22 3 -45 1 -52 -4 -7 -5 -22 -6 -35 -2 -30 11 -68 12 -74 3z"/>
<path d="M1605 1460 c3 -5 19 -10 36 -10 16 0 29 5 29 10 0 6 -16 10 -36 10
-21 0 -33 -4 -29 -10z"/>
<path d="M1920 1417 c3 -4 30 -9 60 -11 30 -3 64 -8 75 -10 11 -2 30 -5 43 -5
13 -1 20 -5 17 -11 -8 -13 15 -13 35 0 13 8 12 10 -3 10 -10 0 -15 5 -12 10 4
6 -8 10 -28 10 -19 0 -70 3 -113 6 -43 4 -77 4 -74 1z"/>
<path d="M2354 1389 c-4 -7 3 -10 17 -8 13 1 31 -1 40 -5 9 -4 32 -5 52 -3 20
2 34 1 31 -4 -2 -4 22 -7 55 -6 35 1 65 -4 74 -12 18 -15 69 -11 74 5 2 6 -18
18 -44 27 -39 13 -44 13 -29 1 19 -13 19 -14 -5 -14 -14 0 -48 7 -75 15 -57
17 -180 20 -190 4z"/>
<path d="M2285 1363 c-52 -8 -46 -18 8 -15 29 2 56 8 62 13 9 9 -13 10 -70 2z"/>
<path d="M2743 1355 c-12 -8 -23 -25 -25 -38 -3 -19 -8 -22 -48 -20 -42 2 -44
1 -25 -13 11 -8 28 -13 37 -10 10 2 21 0 24 -5 8 -14 24 -11 24 5 0 8 9 18 20
21 11 4 18 10 15 15 -3 4 4 10 14 13 14 3 18 11 14 26 -6 25 -21 27 -50 6z"/>
<path d="M2120 1341 c0 -5 6 -14 14 -20 10 -8 16 -8 25 3 9 11 8 15 -5 20 -22
8 -34 8 -34 -3z"/>
<path d="M2450 1320 c0 -13 -7 -20 -20 -20 -11 0 -20 -1 -21 -2 -15 -63 -5
-218 15 -218 16 0 17 32 2 42 -8 5 -7 11 2 20 18 18 15 56 -5 61 -17 4 -17 5
0 6 11 1 17 9 17 26 0 22 15 32 36 23 3 -2 7 -45 9 -96 2 -69 0 -96 -11 -106
-11 -12 -9 -15 11 -19 24 -4 25 -2 26 52 0 43 3 51 10 36 7 -16 8 -12 4 14 -3
18 -5 62 -5 97 0 54 -3 64 -20 69 -11 3 -20 13 -20 21 0 8 -7 14 -15 14 -8 0
-15 -9 -15 -20z"/>
<path d="M2245 1320 c-22 -4 -35 -8 -30 -10 21 -5 117 2 138 10 17 7 12 9 -23
8 -25 0 -63 -4 -85 -8z"/>
<path d="M1602 1303 c-6 -2 -10 -8 -7 -13 3 -5 -4 -11 -15 -15 -19 -6 -21 -14
-19 -85 1 -43 -1 -83 -5 -89 -12 -19 -15 -50 -5 -56 5 -4 9 9 9 27 0 23 3 29
9 19 11 -17 25 56 22 116 -1 23 3 44 9 48 7 4 11 -34 12 -117 1 -115 3 -178 7
-221 0 -10 6 -15 11 -12 6 4 10 54 10 116 0 106 1 110 20 104 14 -5 20 -2 20
9 0 9 -6 16 -14 16 -10 0 -12 14 -9 60 4 50 2 60 -11 60 -9 0 -16 8 -16 20 0
20 -5 23 -28 13z"/>
<path d="M2787 1303 c-14 -14 29 -37 72 -39 54 -3 143 16 139 28 -4 11 -3 11
-97 2 -48 -4 -81 -3 -92 4 -9 6 -19 8 -22 5z"/>
<path d="M2543 1264 c0 -11 7 -14 21 -10 12 3 32 6 46 6 20 0 22 2 10 10 -25
16 -77 12 -77 -6z"/>
<path d="M669 1252 c-25 -3 -27 -6 -22 -45 8 -70 13 -75 32 -31 22 49 51 66
51 30 0 -13 10 -31 23 -39 l22 -16 -22 0 c-13 -1 -23 -5 -23 -11 0 -5 10 -10
23 -10 18 0 19 -2 7 -10 -12 -8 -10 -10 8 -10 13 0 21 -4 17 -9 -3 -5 -1 -12
5 -16 6 -4 10 4 10 19 0 13 3 32 7 42 4 12 3 15 -5 10 -7 -4 -12 -1 -12 8 0
20 -55 83 -78 88 -9 2 -29 2 -43 0z"/>
<path d="M2138 1253 c17 -2 47 -2 65 0 17 2 3 4 -33 4 -36 0 -50 -2 -32 -4z"/>
<path d="M2642 1253 c-6 -3 -10 -9 -6 -14 3 -5 -7 -9 -21 -9 -15 0 -24 -4 -20
-10 4 -6 -6 -10 -22 -11 -25 0 -26 -1 -8 -9 11 -5 40 -8 65 -8 41 0 42 1 15 8
-28 7 -28 8 -5 9 14 1 32 6 40 11 12 8 12 10 -5 11 -20 0 -20 1 -1 8 20 8 20
8 0 13 -10 2 -25 3 -32 1z"/>
<path d="M1288 1227 c-16 -13 -28 -27 -28 -32 0 -6 5 -3 10 5 9 13 11 13 20 0
8 -12 10 -11 10 8 0 21 1 22 16 8 16 -17 39 -22 30 -7 -3 5 1 12 10 15 8 3 12
10 9 16 -10 17 -49 10 -77 -13z"/>
<path d="M1190 1230 c0 -5 -11 -10 -25 -10 -23 0 -25 -4 -24 -42 l1 -43 16 35
15 35 8 -40 c4 -22 5 -52 3 -67 -2 -18 2 -28 10 -28 8 0 13 18 15 55 1 40 -2
55 -11 55 -9 0 -9 3 -2 8 6 4 14 14 17 22 3 10 6 6 7 -10 1 -23 2 -23 10 -5 8
19 9 19 9 1 1 -11 3 -17 6 -14 4 3 3 17 -1 32 -4 19 -13 26 -30 26 -13 0 -24
-4 -24 -10z"/>
<path d="M1380 1199 c0 -47 11 -46 16 0 2 17 -1 33 -6 36 -6 4 -10 -11 -10
-36z"/>
<path d="M1414 1214 c3 -9 7 -82 8 -162 l2 -147 6 110 c3 61 7 99 9 85 2 -14
3 -28 3 -32 -1 -3 5 -9 13 -12 11 -4 15 2 15 19 0 13 -4 27 -10 30 -5 3 -10
26 -10 51 0 26 -6 52 -14 60 -19 19 -30 18 -22 -2z"/>
<path d="M2085 1223 c-22 -6 -79 -63 -62 -63 30 0 57 14 62 31 4 10 21 23 38
28 27 8 28 9 7 9 -14 0 -34 -3 -45 -5z"/>
<path d="M2719 1221 c-1 -3 -1 -9 0 -13 0 -5 -5 -8 -11 -8 -9 0 -13 -19 -12
-65 1 -36 -2 -68 -7 -71 -5 -3 -9 -20 -8 -37 0 -18 3 -25 6 -17 3 8 12 18 19
23 7 4 10 15 7 24 -5 12 -2 15 10 10 9 -3 17 -2 17 2 0 5 3 16 6 25 4 11 1 16
-10 16 -14 0 -14 3 4 23 l21 22 -20 3 c-26 4 -18 22 10 22 17 0 19 -7 19 -79
0 -115 18 -111 22 4 2 58 -1 95 -7 96 -5 1 -17 1 -25 0 -10 0 -11 1 -2 5 6 3
12 9 12 14 0 9 -49 10 -51 1z"/>
<path d="M2875 1210 c3 -5 33 -10 66 -10 33 0 59 4 59 10 0 6 -29 10 -66 10
-41 0 -63 -4 -59 -10z"/>
<path d="M1075 1197 c-14 -16 -18 -164 -5 -172 6 -4 10 5 10 21 0 22 2 25 15
14 12 -10 13 -16 4 -26 -7 -9 -8 -14 -1 -14 14 0 23 28 11 36 -6 4 -6 11 2 20
10 12 14 12 21 2 5 -8 7 -1 6 19 -1 17 -6 29 -10 27 -4 -3 -8 4 -8 15 0 23
-20 71 -29 71 -3 -1 -11 -6 -16 -13z"/>
<path d="M1016 1178 c5 -8 2 -9 -10 -5 -11 4 -27 -3 -46 -22 -42 -40 -40 -69
3 -37 9 7 17 19 17 27 0 24 18 -5 23 -36 3 -24 4 -21 6 13 1 45 21 51 21 6 0
-43 15 -25 18 21 2 40 0 45 -18 45 -14 0 -19 -4 -14 -12z"/>
<path d="M2149 1168 c-1 -13 -1 -31 0 -40 2 -12 -5 -18 -18 -18 -19 0 -21 -6
-21 -70 0 -43 -4 -70 -11 -70 -5 0 -8 4 -5 9 7 10 -9 8 -38 -4 -12 -5 -21 -5
-23 1 -2 5 -32 8 -67 6 -50 -2 -65 1 -70 13 -7 20 23 33 35 14 7 -11 9 -11 9
4 0 10 -8 17 -19 17 -25 0 -33 -13 -37 -58 -3 -31 -2 -33 10 -17 10 14 15 15
21 5 5 -8 10 -9 14 -1 5 7 17 8 40 1 17 -5 55 -6 83 -3 37 4 52 2 59 -8 6 -9
9 11 10 56 1 54 3 63 9 40 l8 -30 2 35 c3 34 3 34 10 -10 8 -45 8 -45 8 15 0
33 4 71 9 85 11 27 7 50 -8 50 -5 0 -10 -10 -10 -22z"/>
<path d="M2232 1165 c3 -13 1 -22 -3 -19 -5 3 -9 -12 -10 -33 0 -21 -1 -55 -3
-75 -2 -21 0 -38 4 -38 10 0 20 38 20 80 l1 35 19 -24 c20 -23 20 -23 17 -1
-2 12 -10 26 -18 31 -10 6 -7 9 14 9 15 0 27 5 27 10 0 6 -12 8 -27 5 -16 -3
-22 -2 -13 2 8 5 16 16 18 26 2 13 -4 17 -24 17 -23 0 -26 -3 -22 -25z"/>
<path d="M843 1173 c-24 -8 -14 -39 12 -41 14 -1 25 4 25 11 0 8 4 7 11 -3 8
-12 9 -10 7 10 -3 24 -24 33 -55 23z"/>
<path d="M1290 970 c0 -184 2 -210 16 -210 8 0 13 4 10 9 -3 5 -7 100 -8 210
-1 111 -5 201 -10 201 -4 0 -8 -94 -8 -210z"/>
<path d="M1363 1110 c0 -41 2 -58 4 -37 2 20 2 54 0 75 -2 20 -4 3 -4 -38z"/>
<path d="M2560 1169 c0 -12 21 -22 57 -26 18 -2 33 1 33 7 0 5 -8 10 -18 10
-10 0 -22 3 -26 7 -9 10 -46 11 -46 2z"/>
<path d="M2885 1170 c-4 -6 9 -17 29 -25 41 -17 66 -19 66 -5 0 6 -8 10 -18
10 -10 0 -27 7 -38 15 -23 17 -31 18 -39 5z"/>
<path d="M577 1163 c-2 -5 -4 -36 -5 -69 0 -34 -3 -81 -7 -105 l-6 -44 15 29
c9 15 15 40 15 55 -1 14 -1 44 0 66 1 35 3 38 13 20 11 -19 11 -19 19 0 7 19
8 18 8 -2 1 -13 -5 -23 -11 -23 -8 0 -9 -3 -3 -8 9 -6 11 -45 6 -89 0 -7 -8
-13 -17 -13 -11 0 -14 -5 -10 -16 3 -9 6 -18 6 -20 0 -3 8 0 19 5 10 6 21 7
25 4 3 -3 6 -1 6 5 0 7 -4 12 -8 12 -5 0 -7 12 -6 28 11 99 10 142 -3 142 -7
0 -13 7 -13 15 0 15 -35 21 -43 8z"/>
<path d="M1750 1149 c0 -10 -11 -19 -28 -22 -19 -4 -28 -12 -29 -26 -2 -25 12
-26 51 -6 41 21 56 19 56 -9 0 -14 5 -28 10 -31 6 -3 10 1 10 9 0 9 7 16 16
16 10 0 14 -6 10 -15 -5 -13 5 -20 27 -16 4 0 7 -3 7 -7 0 -12 61 -1 87 15 14
9 23 11 28 4 3 -6 1 -11 -4 -11 -6 0 -11 -15 -10 -32 l1 -33 11 33 c7 18 19
37 26 42 12 7 11 14 -3 44 -9 20 -20 35 -24 34 -4 -1 -31 4 -60 11 -29 7 -56
11 -58 8 -12 -11 56 -37 81 -31 21 5 25 3 25 -14 0 -12 -9 -23 -20 -27 -11 -3
-20 -11 -20 -16 0 -5 -18 -9 -40 -9 -40 0 -40 0 -40 39 0 34 -3 39 -27 44 -16
3 -29 1 -31 -4 -6 -14 -24 -10 -38 9 -12 15 -13 15 -14 1z"/>
<path d="M2317 1133 c-11 -11 -8 -65 3 -58 6 3 10 1 10 -4 0 -6 -6 -11 -12
-12 -7 0 -3 -5 10 -11 24 -12 45 -2 23 11 -11 7 -11 10 0 16 9 6 8 10 -6 15
-17 6 -16 7 6 12 22 4 26 2 22 -16 -3 -20 -3 -21 6 -1 15 32 13 38 -18 33 -21
-3 -28 -1 -24 9 5 14 -9 18 -20 6z"/>
<path d="M2820 1130 c-9 -5 -10 -19 -6 -44 7 -36 26 -51 26 -20 0 12 4 11 19
-7 l18 -23 -5 34 c-5 38 -34 71 -52 60z"/>
<path d="M886 1104 c-3 -8 -2 -13 3 -10 5 3 12 -1 15 -10 3 -8 11 -12 16 -9 6
4 17 1 25 -5 11 -9 15 -9 15 -1 0 6 -11 17 -25 23 -14 6 -25 15 -25 20 0 14
-18 9 -24 -8z"/>
<path d="M1514 1113 c-8 -3 -10 -18 -7 -43 4 -27 2 -40 -6 -40 -8 0 -10 8 -6
20 3 11 2 20 -3 20 -5 0 -12 -14 -16 -31 -3 -17 -10 -28 -16 -24 -6 4 -10 -7
-10 -27 0 -22 3 -29 9 -19 7 11 9 11 13 0 6 -19 -2 -49 -13 -49 -5 0 -9 -4 -9
-10 0 -5 14 -8 30 -6 32 4 36 -4 20 -35 -12 -22 0 -25 32 -8 21 11 21 12 2 26
-10 8 -19 17 -19 21 0 4 -6 6 -12 6 -20 -3 -15 44 5 55 9 6 12 11 5 11 -8 0
-7 15 4 56 15 61 14 83 -3 77z"/>
<path d="M1658 1068 c5 -71 10 -77 11 -15 0 31 -2 57 -7 57 -4 0 -6 -19 -4
-42z"/>
<path d="M2906 1098 c-9 -26 -22 -133 -18 -152 7 -33 21 4 15 40 -4 24 0 37
16 53 23 23 25 61 4 69 -7 2 -15 -2 -17 -10z"/>
<path d="M2590 1071 c0 -11 -4 -23 -10 -26 -14 -9 -12 -21 6 -39 10 -10 13
-24 9 -37 -5 -15 -4 -19 4 -15 6 4 11 22 12 39 0 18 3 26 6 19 7 -19 23 -4 23
24 0 15 -6 24 -15 24 -8 0 -15 7 -15 15 0 8 -4 15 -10 15 -5 0 -10 -9 -10 -19z"/>
<path d="M2960 1062 c0 -10 22 -32 32 -32 4 0 8 9 8 20 0 13 -7 20 -20 20 -11
0 -20 -4 -20 -8z"/>
<path d="M1189 1038 c0 -7 -3 -39 -5 -70 -4 -49 -3 -57 10 -52 19 7 20 16 4
32 -7 7 -8 12 -2 12 5 0 10 20 12 45 2 26 -2 45 -8 45 -5 0 -10 -6 -11 -12z"/>
<path d="M913 1034 c-7 -3 -10 -11 -7 -18 3 -8 -3 -21 -12 -31 -16 -16 -16
-17 6 -13 19 2 23 9 24 36 1 17 1 32 1 31 0 0 -5 -3 -12 -5z"/>
<path d="M1811 1010 c-2 -19 -3 -57 -3 -85 -1 -27 -5 -56 -11 -62 -5 -7 -6
-13 -1 -13 24 1 29 20 23 105 -3 50 -6 74 -8 55z"/>
<path d="M2259 1031 c7 -5 10 -14 7 -20 -4 -6 0 -11 8 -11 10 0 16 -9 16 -21
0 -16 -4 -19 -20 -14 -11 4 -20 2 -20 -4 0 -13 116 -15 124 -2 3 4 -5 8 -17 7
-12 -1 -25 3 -29 9 -5 6 -11 5 -17 -4 -6 -10 -11 -2 -15 26 -6 30 -12 39 -29
40 -16 2 -18 0 -8 -6z"/>
<path d="M2818 1015 c10 -34 26 -36 30 -2 3 21 -1 27 -16 27 -17 0 -19 -5 -14
-25z"/>
<path d="M2930 1011 c0 -17 5 -31 11 -31 6 0 8 9 4 21 -5 16 -4 19 5 14 8 -5
11 -3 8 5 -9 28 -28 22 -28 -9z"/>
<path d="M25 1015 c-27 -12 -22 -13 58 -10 87 2 131 14 66 16 -19 1 -47 3 -64
4 -16 2 -43 -3 -60 -10z"/>
<path d="M2322 1018 c-9 -9 -7 -14 6 -24 23 -18 29 -17 35 5 3 12 -1 22 -10
25 -19 8 -17 8 -31 -6z"/>
<path d="M313 1008 c-2 -5 46 -8 108 -8 62 0 109 3 105 7 -10 10 -206 10 -213
1z"/>
<path d="M752 1008 c-7 -7 -12 -17 -12 -22 0 -6 5 -5 11 1 9 9 15 8 26 -3 20
-20 33 -18 33 6 0 14 -5 18 -16 13 -9 -3 -19 -1 -23 5 -5 9 -10 9 -19 0z"/>
<path d="M1126 1008 c5 -8 -2 -9 -24 -5 -27 6 -32 4 -32 -13 0 -11 0 -23 0
-27 0 -6 24 -8 60 -4 13 1 13 61 -1 61 -5 0 -7 -5 -3 -12z"/>
<path d="M2480 995 c0 -14 6 -25 13 -26 6 -1 1 -5 -13 -9 l-25 -8 28 -1 c29
-1 34 8 15 27 -10 10 -10 15 0 21 11 7 10 9 -2 14 -12 5 -16 0 -16 -18z"/>
<path d="M684 996 c-4 -10 -1 -24 8 -32 12 -12 14 -11 13 10 0 31 -13 44 -21
22z"/>
<path d="M1012 991 c-14 -8 -20 -80 -7 -80 6 0 9 7 7 15 -2 9 5 14 18 14 17 0
20 -4 15 -20 -5 -17 -2 -20 23 -20 35 0 40 -26 5 -33 -12 -2 -23 0 -23 4 0 13
-28 11 -36 -2 -3 -6 0 -15 7 -20 11 -6 9 -9 -8 -9 -12 0 -28 -6 -35 -14 -9 -8
-40 -14 -83 -15 -91 -1 -265 -20 -283 -30 -8 -5 34 -10 93 -13 59 -3 112 -11
118 -17 8 -8 7 -11 -3 -11 -7 0 -11 -2 -9 -5 10 -9 143 35 183 61 75 50 91 59
119 73 15 8 27 23 27 33 0 17 -21 23 -65 20 -5 -1 -19 11 -29 25 -11 14 -14
23 -8 19 7 -4 12 -1 12 7 0 17 -22 28 -38 18z"/>
<path d="M2217 983 c-13 -12 -7 -33 8 -33 8 0 15 9 15 20 0 20 -11 26 -23 13z"/>
<path d="M2676 981 c-3 -5 -14 -7 -24 -5 -13 4 -18 -2 -19 -31 -2 -19 2 -35 8
-35 5 0 9 9 7 20 -2 10 2 19 7 20 6 0 10 -12 10 -27 0 -22 -4 -28 -19 -26 -22
2 -45 -23 -46 -49 0 -11 5 -15 15 -12 8 3 13 11 12 16 -1 6 4 13 12 16 8 3 12
-1 9 -9 -7 -22 37 -63 61 -56 12 3 21 1 21 -5 0 -6 17 -8 45 -4 38 6 45 5 45
-9 0 -9 -9 -19 -20 -22 -12 -3 -20 -14 -21 -27 0 -18 -1 -19 -7 -3 -11 25 -55
46 -76 35 -27 -15 -19 -38 14 -38 17 0 30 -4 30 -10 0 -5 9 -10 20 -10 11 0
20 -4 20 -10 0 -5 9 -10 20 -10 11 0 20 7 20 16 0 8 -4 13 -9 9 -5 -3 -13 -1
-16 5 -8 13 14 42 26 34 5 -3 9 9 9 25 0 21 -5 31 -15 31 -27 0 -16 18 15 25
31 7 42 25 15 25 -8 0 -15 -5 -15 -11 0 -5 -4 -8 -9 -4 -5 3 -16 -4 -25 -16
-14 -21 -16 -21 -40 -5 -19 12 -26 13 -26 4 0 -10 -2 -10 -9 1 -6 9 -11 10
-15 2 -4 -6 -14 -11 -22 -11 -13 0 -14 8 -9 39 8 48 14 131 9 131 -1 0 -5 -4
-8 -9z"/>
<path d="M2928 930 c3 -28 0 -40 -9 -41 -8 -1 -21 -2 -29 -3 -25 -2 -25 -136
0 -136 5 0 5 13 0 29 -5 19 -4 33 3 40 8 8 8 11 -1 11 -7 0 -12 9 -12 20 0 11
5 20 11 20 5 0 7 -4 4 -10 -3 -5 -1 -10 4 -10 6 0 11 6 11 14 0 8 7 16 15 20
12 4 15 -4 15 -44 0 -40 3 -48 15 -44 9 4 15 0 15 -7 0 -11 3 -11 10 1 7 11 5
19 -8 30 -10 9 -19 29 -20 45 -2 29 -7 83 -10 98 -1 4 -5 7 -10 7 -4 0 -6 -18
-4 -40z"/>
<path d="M525 931 c-7 -7 77 -29 88 -23 5 2 4 9 -2 15 -12 12 -77 18 -86 8z"/>
<path d="M924 930 c-5 -5 -47 -11 -94 -13 -70 -2 -65 -3 30 -4 63 0 105 2 92
4 -12 2 -20 9 -17 14 8 12 2 12 -11 -1z"/>
<path d="M1917 923 c4 -10 -4 -12 -37 -8 -32 4 -40 3 -33 -7 4 -7 6 -21 5 -30
-2 -13 4 -18 22 -18 14 0 26 5 26 11 0 5 -4 7 -10 4 -5 -3 -10 -1 -10 4 0 13
3 13 24 5 9 -3 13 -10 10 -15 -3 -5 1 -9 9 -9 8 0 17 7 21 15 3 9 12 12 21 8
13 -5 14 -7 3 -14 -10 -7 -9 -9 5 -9 11 0 15 -5 11 -11 -4 -7 1 -9 12 -7 11 2
18 11 16 21 -2 10 3 17 12 17 8 0 17 6 19 13 4 8 6 8 6 0 1 -6 9 -10 19 -8 9
1 11 0 5 -2 -18 -6 -16 -21 2 -25 10 -2 12 -7 5 -18 -8 -12 -11 -12 -27 1 -16
14 -19 14 -33 -1 -21 -23 -23 -40 -4 -40 8 0 13 4 10 9 -3 5 7 8 22 8 15 0 21
-2 15 -4 -7 -3 -13 -10 -13 -17 0 -7 -10 -18 -22 -24 -21 -10 -22 -11 -3 -11
11 0 31 2 44 6 23 6 24 7 5 14 -18 7 -18 8 4 15 16 4 22 15 23 35 2 41 3 46
12 55 4 4 7 16 7 26 0 20 -18 20 -84 1 -14 -4 -18 -1 -13 11 7 18 -3 21 -18 7
-6 -5 -28 -6 -52 -2 -33 6 -40 5 -36 -6z"/>
<path d="M2796 918 c-7 -29 2 -36 39 -27 26 6 27 7 6 8 -18 1 -22 5 -18 21 3
12 0 20 -8 20 -7 0 -15 -10 -19 -22z"/>
<path d="M2217 912 c-1 -4 0 -25 4 -47 l6 -40 3 40 c3 31 5 25 10 -30 l6 -70
2 69 2 68 30 -4 c22 -3 27 -1 20 7 -11 13 -77 19 -83 7z"/>
<path d="M2338 816 c3 -72 0 -106 -7 -106 -6 0 -11 -4 -11 -10 0 -5 20 -10 45
-10 25 0 45 -4 45 -9 0 -13 79 -19 84 -6 3 6 7 6 13 -2 4 -6 29 -13 55 -15 80
-7 68 -20 -14 -16 -48 2 -79 -1 -82 -7 -2 -6 11 -9 35 -7 24 3 39 0 39 -7 0
-6 16 -11 35 -11 19 0 44 -6 55 -12 17 -11 22 -10 29 0 4 7 21 17 37 22 28 8
28 8 4 9 -14 1 -32 6 -40 11 -11 8 -2 9 30 5 25 -4 47 -11 48 -16 2 -5 12 -9
23 -9 10 0 19 -6 19 -14 0 -8 7 -16 15 -20 8 -3 15 -12 15 -20 0 -7 7 -16 15
-20 8 -3 15 -12 15 -21 0 -8 4 -15 10 -15 5 0 7 -7 4 -15 -4 -8 -12 -15 -19
-15 -25 0 -24 -16 1 -18 18 -1 24 3 24 17 0 11 6 22 13 24 10 4 10 6 0 6 -7 1
-13 8 -13 17 0 8 5 12 11 9 6 -4 13 2 16 14 7 26 33 28 33 2 0 -11 5 -23 10
-26 6 -4 8 -10 5 -15 -3 -5 -1 -11 5 -15 5 -3 10 -2 10 4 0 6 7 8 15 5 10 -4
15 0 15 11 0 9 -5 13 -11 10 -12 -8 -39 23 -38 45 0 10 2 11 6 3 6 -15 63 -18
63 -3 0 6 -11 10 -25 10 -30 0 -32 11 -6 27 15 10 21 10 24 0 3 -7 6 -4 6 6 1
16 -4 17 -29 12 -17 -4 -42 -18 -55 -31 -27 -27 -89 -34 -98 -10 -6 16 35 31
56 21 7 -4 3 1 -7 9 -11 9 -37 16 -58 16 -31 0 -38 4 -38 20 0 24 -44 38 -65
20 -10 -8 -15 -9 -15 -2 0 7 -28 10 -80 8 -62 -2 -80 0 -80 11 0 7 10 18 23
23 17 7 18 9 5 9 -16 1 -18 12 -18 92 0 66 3 88 12 83 7 -4 8 -3 4 4 -18 29
-26 5 -29 -90 l-3 -103 -2 103 -2 102 -64 0 c-35 0 -76 3 -92 6 l-29 6 3 -106z
m32 39 c5 37 7 24 7 -55 0 -58 -2 -96 -4 -86 -4 15 -7 16 -14 5 -5 -9 -8 25
-7 86 1 69 3 85 7 50 l5 -50 6 50z m38 -14 l2 57 40 0 c31 1 40 -3 41 -16 0
-14 2 -13 9 3 6 13 9 -13 9 -77 1 -53 3 -103 6 -110 5 -11 -3 -14 -31 -12 -20
2 -42 8 -48 14 -7 5 -16 7 -19 3 -4 -3 -8 14 -9 38 l-1 44 -7 -45 c-5 -32 -7
-16 -7 60 0 89 1 96 7 45 l7 -60 1 56z"/>
<path d="M2423 800 c0 -47 2 -66 4 -42 2 23 2 61 0 85 -2 23 -4 4 -4 -43z"/>
<path d="M1683 895 c-16 -18 -16 -23 1 -41 23 -23 32 -16 28 21 -5 38 -10 42
-29 20z"/>
<path d="M1185 853 c6 -85 4 -80 14 -63 14 23 10 110 -5 110 -9 0 -11 -15 -9
-47z"/>
<path d="M653 873 c32 -2 81 -2 110 0 29 2 3 3 -58 3 -60 0 -84 -1 -52 -3z"/>
<path d="M834 870 c-5 -5 -38 -11 -74 -13 l-65 -3 65 -2 c60 -2 102 9 89 22
-3 3 -10 1 -15 -4z"/>
<path d="M425 843 c-49 -6 -99 -12 -109 -12 -12 -1 -16 -4 -10 -10 8 -8 350
21 360 31 8 9 -153 3 -241 -9z"/>
<path d="M1123 844 c-10 -28 -45 -55 -65 -50 -10 2 -18 1 -18 -4 0 -4 -11 -11
-25 -14 -13 -3 -32 -14 -42 -24 -15 -15 -117 -44 -160 -45 -14 0 -18 -17 -5
-17 5 0 31 7 58 15 27 8 50 15 52 15 1 0 2 -6 2 -14 0 -9 18 -18 48 -25 85
-18 136 -61 73 -61 -16 0 -44 -3 -62 -6 -25 -4 -30 -3 -19 4 8 6 18 8 22 6 4
-3 8 -1 8 4 0 15 -46 34 -76 30 -18 -2 -30 -10 -32 -21 -3 -16 1 -18 27 -12
24 5 31 3 31 -9 0 -9 -4 -16 -10 -16 -5 0 -10 5 -10 11 0 6 -7 3 -16 -5 -20
-20 -24 -20 -41 2 -8 9 -11 11 -7 3 5 -11 3 -13 -9 -8 -9 3 -19 2 -22 -3 -4
-6 2 -10 12 -10 13 0 10 -5 -12 -20 -32 -21 -23 -26 20 -10 14 5 43 12 63 15
86 12 179 40 174 53 -2 8 6 12 25 12 15 0 35 5 43 10 11 7 7 10 -17 10 -17 0
-43 4 -57 10 -21 8 -26 16 -26 46 0 32 3 36 21 31 15 -4 23 1 30 20 6 15 15
23 23 20 10 -4 15 4 19 26 6 37 -9 60 -20 31z m-103 -94 c-37 -31 -50 -36 -50
-20 0 6 8 10 17 10 9 0 13 3 9 7 -3 4 6 12 21 19 41 18 42 16 3 -16z"/>
<path d="M1361 833 c-1 -26 2 -30 19 -26 11 3 20 0 20 -6 0 -9 6 -9 22 0 13 7
18 14 11 16 -7 3 -9 12 -6 21 4 13 3 14 -5 3 -5 -7 -14 -11 -20 -7 -6 3 -14 1
-18 -6 -6 -9 -10 -5 -15 12 -7 23 -7 23 -8 -7z"/>
<path d="M1457 832 c6 -26 61 -40 103 -26 l35 12 -50 7 c-27 4 -60 11 -71 16
-18 6 -21 4 -17 -9z"/>
<path d="M2580 792 l0 -61 43 2 c49 2 57 21 10 25 -17 2 -34 9 -37 17 -3 10 0
12 12 9 14 -5 14 -4 3 4 -8 6 -16 21 -18 33 -7 45 -13 31 -13 -29z"/>
<path d="M1791 828 c-1 -21 -56 -26 -64 -5 -4 7 -6 6 -6 -4 -1 -9 6 -23 15
-30 15 -12 14 -14 -2 -19 -9 -4 -18 -14 -20 -22 -1 -12 4 -15 23 -12 23 4 24
3 10 -11 -9 -8 -20 -15 -26 -15 -6 0 -11 -4 -11 -10 0 -19 65 18 68 39 2 12 8
21 13 21 8 0 13 -15 10 -32 -3 -20 41 -5 51 17 12 27 44 36 34 9 -3 -9 -6 -19
-6 -24 0 -4 -9 -10 -20 -13 -11 -3 -20 -12 -20 -21 0 -21 9 -20 33 2 11 9 17
11 13 5 -9 -16 30 -18 39 -2 4 6 13 8 20 5 7 -2 16 2 19 11 4 8 13 13 21 9 10
-4 15 1 15 15 0 16 -3 18 -19 9 -25 -13 -28 -13 -35 5 -3 8 -2 14 2 14 24 -4
52 3 52 12 0 6 -9 8 -21 4 -15 -5 -19 -4 -15 4 9 14 -17 14 -31 0 -6 -6 -26
-9 -44 -7 -30 3 -34 6 -33 31 0 22 -4 27 -23 27 -16 0 -21 -4 -17 -15 4 -8 1
-15 -4 -15 -6 0 -13 8 -15 18 -4 16 -5 16 -6 0z"/>
<path d="M2170 826 c0 -10 -4 -15 -9 -12 -15 10 -60 -34 -63 -62 -2 -19 -8
-27 -20 -26 -10 1 -18 -1 -18 -5 0 -4 56 -12 125 -17 69 -5 125 -6 125 -3 0
10 -21 15 -67 14 -39 0 -42 2 -48 33 -3 18 -3 41 0 51 3 10 -1 24 -10 31 -12
10 -15 10 -15 -4z"/>
<path d="M1676 800 c-16 -5 -33 -7 -38 -4 -4 3 -8 -1 -8 -8 0 -8 -3 -9 -8 -3
-9 13 -35 18 -27 5 3 -5 -2 -10 -12 -11 -16 0 -16 -1 2 -9 16 -7 17 -9 3 -9
-9 -1 -22 7 -27 17 -6 9 -11 11 -11 5 0 -8 -13 -13 -29 -13 -16 0 -32 6 -34
13 -3 7 -6 5 -6 -5 -1 -10 4 -18 9 -18 6 0 19 -9 30 -20 22 -22 56 -28 44 -7
-4 6 2 3 14 -7 23 -20 31 -9 10 12 -9 9 -6 11 10 7 14 -2 22 1 22 11 0 10 13
14 50 14 28 0 50 5 50 10 0 6 -5 10 -11 10 -5 0 -7 5 -4 10 3 6 5 10 3 9 -2 0
-16 -5 -32 -9z"/>
<path d="M2630 795 c7 -8 27 -14 44 -14 21 1 24 3 11 6 -11 3 -24 9 -29 14 -6
5 -16 9 -24 9 -12 0 -12 -3 -2 -15z"/>
<path d="M1403 777 c-30 -9 -33 -14 -32 -46 1 -20 3 -28 6 -18 2 9 9 17 14 17
6 0 7 -4 4 -10 -7 -11 24 -13 49 -4 23 9 20 24 -5 24 -11 0 -17 -5 -14 -10 4
-6 -5 -5 -19 2 -33 14 -33 28 -2 28 14 0 28 5 31 11 10 15 4 17 -32 6z"/>
<path d="M2947 773 c-14 -14 -6 -32 13 -30 11 1 20 4 20 8 0 11 -27 29 -33 22z"/>
<path d="M1195 761 c3 -6 -12 -12 -32 -14 -31 -3 -28 -4 15 -5 48 -2 52 0 38
13 -16 17 -30 20 -21 6z"/>
<path d="M749 735 c-3 -2 -28 -7 -56 -10 -29 -3 -65 -12 -80 -20 -15 -8 -40
-15 -54 -15 -15 0 -39 -6 -53 -14 -26 -13 -26 -14 -4 -19 12 -4 27 -2 32 2 20
15 74 21 80 8 2 -7 5 -4 5 5 1 17 20 26 71 32 49 6 100 18 104 25 5 7 -38 13
-45 6z"/>
<path d="M1251 688 c-1 -14 -7 -29 -13 -32 -7 -3 24 -4 70 -2 47 2 80 0 76 -5
-3 -5 -15 -9 -27 -10 -12 -1 9 -8 48 -16 66 -14 73 -14 155 8 47 12 92 23 100
24 8 1 26 8 40 14 23 11 22 11 -13 7 -20 -3 -35 -1 -32 4 7 12 -20 20 -67 20
-35 0 -39 -2 -28 -15 7 -9 11 -17 9 -19 -11 -9 -79 -14 -79 -5 0 5 12 9 28 10
l27 1 -30 13 c-22 10 -25 14 -11 15 11 0 17 2 14 5 -3 4 -18 3 -33 -1 -15 -4
-23 -9 -18 -13 12 -9 15 -41 3 -41 -5 0 -10 6 -10 14 0 11 -19 13 -97 10 -94
-3 -98 -2 -105 19 -5 20 -6 20 -7 -5z"/>
<path d="M1970 684 c-1 -28 -1 -28 -15 -10 -15 19 -15 19 -15 -2 0 -24 19 -29
37 -11 15 15 30 5 35 -26 4 -17 1 -25 -8 -25 -8 0 -14 6 -14 13 0 7 -3 8 -8 2
-9 -12 -36 -19 -28 -7 3 5 -3 16 -14 24 -23 20 -100 13 -100 -8 0 -16 -6 -16
-35 -5 -19 8 -19 8 3 15 25 8 29 28 7 46 -18 15 -35 5 -35 -21 0 -12 -7 -19
-19 -19 -10 0 -29 -8 -42 -19 -13 -10 -46 -30 -74 -44 -61 -32 -56 -33 21 -6
43 15 74 19 112 15 31 -3 50 -1 47 5 -4 5 5 9 18 9 14 0 28 7 31 16 5 13 9 14
21 4 8 -6 13 -17 12 -23 -1 -8 10 -11 29 -10 24 2 33 -2 37 -17 4 -15 13 -20
34 -19 l28 2 -28 4 c-23 4 -25 6 -13 19 8 8 25 14 38 14 13 0 29 4 37 9 12 8
12 12 -2 26 -26 26 -21 28 43 22 54 -6 60 -5 60 12 0 16 -11 19 -82 23 -46 3
-91 9 -100 13 -15 6 -18 2 -18 -21z"/>
<path d="M696 665 c-21 -7 -45 -11 -52 -8 -8 3 -14 0 -14 -6 0 -8 17 -11 49
-9 27 2 47 6 44 11 -2 4 6 11 19 16 37 15 -3 12 -46 -4z"/>
<path d="M810 665 c0 -18 -17 -20 -23 -2 -2 6 -8 9 -12 5 -12 -11 5 -28 30
-28 26 0 41 26 19 34 -8 3 -14 -1 -14 -9z"/>
<path d="M2260 675 c0 -7 -15 -9 -35 -7 -30 4 -35 1 -41 -23 -5 -21 -12 -26
-32 -23 -14 2 -27 -2 -29 -8 -5 -16 60 -4 70 13 6 10 19 12 40 9 27 -5 29 -5
10 4 -32 13 -29 22 5 13 15 -3 34 -6 44 -6 9 1 18 -7 21 -18 3 -10 11 -19 19
-19 11 0 10 2 -1 9 -23 15 -4 27 33 23 40 -5 49 -22 14 -23 -22 0 -22 -1 -3
-9 11 -5 27 -9 35 -9 9 1 10 2 3 5 -20 9 -2 34 23 34 27 0 33 18 7 19 -10 1
-31 3 -48 5 -45 7 -78 8 -100 3 -11 -2 -23 1 -27 7 -5 7 -8 7 -8 1z"/>
<path d="M349 655 c-3 -3 -52 -6 -107 -7 -72 0 -107 -5 -120 -15 -15 -13 -12
-14 28 -8 25 4 79 6 122 5 43 0 79 3 83 9 4 7 14 3 27 -9 24 -22 34 -25 43
-10 4 6 11 8 16 4 5 -3 7 -10 4 -15 -3 -5 1 -6 10 -2 12 4 13 8 5 13 -8 5 -4
9 9 13 14 3 21 0 21 -9 0 -8 4 -14 9 -14 6 0 9 9 8 20 -1 22 -6 23 -59 11 -20
-5 -38 -5 -40 -1 -4 11 -52 23 -59 15z"/>
<path d="M725 634 c-12 -9 -32 -13 -51 -9 -21 3 -36 0 -44 -10 -9 -11 -9 -15
-1 -15 6 0 11 5 11 11 0 8 5 7 15 -1 13 -11 13 -15 3 -21 -9 -6 -10 -9 -1 -9
7 0 16 8 22 17 7 13 14 15 32 7 18 -8 26 -7 41 8 10 10 16 23 13 28 -8 13 -16
12 -40 -6z"/>
<path d="M517 610 c-5 -25 -10 -31 -16 -21 -9 14 -31 7 -31 -10 0 -6 5 -7 10
-4 6 4 18 1 27 -7 9 -7 14 -8 10 -2 -4 7 0 15 9 18 9 4 12 2 8 -5 -4 -7 1 -10
11 -7 26 4 31 28 7 28 -14 0 -22 8 -24 23 -3 17 -5 15 -11 -13z"/>
<path d="M1233 603 c-4 -10 -10 -10 -25 -2 -14 8 -27 8 -42 1 -11 -6 -34 -13
-51 -16 -16 -4 -41 -8 -55 -11 -14 -3 -50 -13 -80 -24 -37 -12 -59 -15 -67 -9
-8 7 -53 -4 -138 -32 -69 -23 -125 -44 -125 -47 0 -8 73 7 86 18 6 5 13 6 17
3 3 -3 61 6 129 20 158 32 319 62 383 71 28 3 61 9 74 12 17 4 22 2 17 -6 -12
-19 -51 -30 -107 -32 -27 -1 -52 -6 -55 -11 -3 -4 -17 -8 -32 -8 -15 0 -31 -4
-37 -8 -16 -12 -16 -32 1 -32 8 0 13 3 11 8 -3 4 14 7 38 7 36 0 40 -1 26 -12
-28 -21 38 -15 84 7 33 17 35 19 12 15 -21 -4 -28 -2 -24 7 2 7 12 12 23 11
10 -1 26 3 35 8 10 5 43 10 73 10 38 1 56 6 56 14 0 8 6 16 13 19 6 3 -7 4
-30 1 -23 -3 -49 -2 -59 2 -16 6 -16 7 2 15 12 5 -2 7 -39 5 -31 -1 -57 0 -57
3 0 11 -53 4 -57 -7z"/>
<path d="M1595 612 c-6 -5 -30 -15 -55 -22 -25 -7 -40 -15 -34 -17 11 -4 124
35 124 43 0 7 -26 4 -35 -4z"/>
<path d="M172 595 c-11 -13 -8 -15 23 -15 36 0 47 13 19 24 -22 8 -27 7 -42
-9z"/>
<path d="M256 601 c-13 -5 -16 -10 -9 -14 7 -4 14 -3 18 3 4 6 12 4 23 -6 12
-12 17 -13 20 -4 3 7 -2 16 -9 21 -16 10 -18 10 -43 0z"/>
<path d="M756 599 c5 -9 -9 -13 -34 -10 -7 1 -15 -5 -18 -13 -3 -8 -12 -12
-19 -10 -8 3 -22 1 -32 -6 -15 -9 -14 -10 11 -5 25 5 28 3 23 -14 -3 -15 -1
-18 12 -14 9 3 21 11 26 18 17 20 45 26 45 10 0 -8 5 -15 11 -15 6 0 9 7 5 15
-3 8 -1 15 4 15 19 0 10 15 -15 27 -14 6 -23 7 -19 2z"/>
<path d="M72 580 c-63 -17 -80 -26 -70 -35 2 -3 31 4 63 16 32 11 64 18 71 15
8 -3 11 0 7 10 -3 7 -6 14 -7 13 0 -1 -29 -9 -64 -19z"/>
<path d="M340 590 c0 -6 -15 -19 -32 -30 -18 -11 -28 -20 -23 -20 6 1 27 11
48 24 29 18 34 25 23 29 -9 4 -16 2 -16 -3z"/>
<path d="M422 578 c-6 -6 -27 -13 -47 -15 -34 -3 -139 -58 -169 -89 -16 -16
-62 -33 -105 -39 -27 -4 -101 -72 -101 -93 0 -8 18 2 45 23 56 47 112 75 146
75 15 0 32 7 39 15 11 13 10 14 -5 9 -12 -5 -16 -4 -12 3 4 6 16 13 27 16 12
3 18 1 14 -5 -4 -6 -1 -9 5 -7 7 3 11 8 9 13 -5 13 66 45 87 39 16 -5 18 -3 8
8 -10 12 -8 15 7 15 10 0 16 -4 14 -8 -3 -4 1 -8 8 -8 9 0 9 -3 -2 -10 -12 -8
-9 -10 12 -10 19 0 26 4 22 14 -3 9 5 16 23 21 l28 7 -24 12 c-18 10 -20 15
-10 19 8 3 9 6 4 6 -6 1 -16 -4 -23 -11z"/>
<path d="M1825 571 c-19 -8 -19 -8 3 -15 62 -18 61 -18 55 4 -6 21 -24 24 -58
11z"/>
<path d="M2050 569 c-12 -9 -11 -10 7 -6 13 3 26 1 29 -4 3 -5 15 -9 27 -10
12 0 16 -3 9 -6 -6 -2 -9 -9 -6 -15 4 -6 -1 -8 -15 -3 -11 3 -21 2 -21 -3 0
-16 35 -9 62 13 l27 23 -37 4 c-20 3 -44 8 -52 11 -8 4 -22 2 -30 -4z"/>
<path d="M170 563 c0 -5 -15 -9 -32 -9 -57 -3 -86 -9 -82 -16 3 -4 -10 -14
-28 -21 l-33 -14 37 1 c21 1 38 3 38 6 0 13 63 42 80 37 11 -3 24 1 31 9 8 10
8 14 0 14 -6 0 -11 -3 -11 -7z"/>
<path d="M213 555 c-34 -15 -137 -88 -148 -105 -3 -5 1 -10 9 -10 9 0 16 4 16
8 0 8 51 36 59 32 2 -1 7 3 10 8 6 10 85 52 98 52 4 0 -2 -7 -13 -16 -18 -14
-18 -15 4 -4 12 6 20 15 17 20 -3 5 3 13 12 19 16 9 15 10 -7 10 -14 0 -39 -6
-57 -14z"/>
<path d="M612 538 c3 -31 1 -33 -32 -36 -19 -2 -39 -7 -44 -12 -5 -5 1 -7 15
-4 13 3 -11 -10 -53 -29 -43 -18 -80 -36 -83 -39 -13 -12 141 25 156 38 8 8
30 19 47 25 18 6 29 15 26 20 -3 5 2 12 10 15 24 9 19 21 -9 28 -14 4 -23 11
-20 16 3 6 1 10 -5 10 -7 0 -10 -13 -8 -32z"/>
<path d="M1681 549 c-29 -10 -58 -16 -64 -12 -5 3 -7 1 -4 -4 8 -12 -24 -23
-67 -23 -16 0 -26 -3 -23 -6 3 -4 -16 -32 -44 -63 -73 -81 -198 -280 -199
-315 0 -6 -16 -22 -34 -36 -19 -14 -31 -31 -28 -38 3 -9 -1 -13 -12 -11 -9 2
-17 7 -17 12 1 4 1 19 1 33 0 19 4 25 15 20 8 -3 20 3 27 13 7 9 21 20 31 24
19 7 25 77 7 77 -5 0 -10 -7 -10 -15 0 -17 -36 -21 -42 -4 -3 9 -14 9 -41 0
-30 -10 -41 -10 -52 -1 -11 9 -15 9 -15 1 0 -6 5 -11 11 -11 6 0 9 -9 6 -20
-3 -10 0 -21 7 -23 6 -3 0 -9 -14 -15 -26 -11 -22 -14 19 -16 35 -2 48 -28 31
-62 -8 -15 -23 -29 -32 -32 -29 -7 -21 -22 12 -22 17 0 30 5 30 11 0 7 9 9 21
6 16 -4 30 3 51 25 16 17 27 37 24 44 -3 7 19 28 53 50 44 29 56 41 47 50 -8
9 -12 8 -17 -4 -4 -12 -7 -10 -11 9 -4 22 -2 26 16 22 14 -3 17 -2 9 4 -7 5
-9 14 -4 21 6 10 12 4 21 -17 14 -34 17 -36 40 -21 10 6 11 10 3 10 -7 0 -13
9 -13 21 0 12 -8 23 -19 26 -15 4 -17 8 -8 27 14 29 106 80 128 71 13 -5 18 3
26 42 6 32 14 47 23 45 7 -2 101 -29 209 -62 305 -91 371 -108 437 -115 l62
-7 4 33 c3 19 8 42 13 52 4 9 3 17 -3 17 -5 0 -15 -13 -22 -30 -13 -31 -22
-35 -75 -31 -47 3 -69 8 -142 29 -118 35 -177 51 -212 57 -19 3 -38 8 -43 11
-5 3 -21 7 -36 10 -15 2 -36 9 -47 14 -11 5 -46 14 -78 20 -54 11 -57 13 -40
27 10 8 13 12 6 9 -15 -8 -43 3 -43 16 0 6 8 8 19 5 10 -2 27 0 37 6 19 11 38
17 61 19 7 1 10 4 8 8 -2 4 8 7 23 7 15 0 43 7 62 16 l35 15 -35 0 c-19 1 -59
-8 -89 -19z m-147 -114 c-4 -8 -10 -15 -15 -15 -4 0 -6 -6 -3 -13 6 -16 -12
-32 -42 -39 -28 -7 -26 22 2 33 10 4 15 8 10 8 -14 1 25 41 40 41 8 0 11 -6 8
-15z m-304 -291 c0 -7 -4 -16 -10 -19 -5 -3 -10 0 -10 7 0 10 -2 11 -8 0 -6
-9 -16 -10 -32 -4 l-23 9 22 15 c25 18 61 13 61 -8z"/>
<path d="M2470 551 c25 -11 55 -20 68 -20 12 -1 22 -5 22 -9 0 -4 17 -8 38 -8
20 -1 29 1 20 3 -9 2 -15 10 -12 17 4 10 -13 15 -63 19 -37 3 -79 8 -93 12
-14 3 -5 -3 20 -14z"/>
<path d="M513 544 c3 -5 -18 -26 -46 -45 -65 -43 -77 -48 -53 -20 20 22 20 22
0 15 -10 -4 -22 -11 -25 -16 -3 -5 -17 -5 -31 1 -15 5 -30 6 -39 0 -10 -6 -4
-9 21 -9 l35 0 -25 -20 c-15 -11 -34 -17 -46 -14 -12 3 -25 1 -28 -5 -9 -14
-26 -14 -26 -1 0 6 6 10 14 10 7 0 20 7 27 16 11 13 4 12 -29 -5 l-42 -22 21
-22 c15 -15 23 -18 26 -9 3 7 14 17 26 24 22 11 22 11 3 -11 -11 -11 -17 -21
-14 -21 21 0 136 55 172 83 25 19 62 38 81 41 38 7 52 21 34 32 -8 4 -9 3 -5
-4 10 -16 -26 -15 -43 1 -8 6 -11 7 -8 1z"/>
<path d="M1925 541 c-8 -13 2 -17 78 -35 36 -9 95 -25 129 -37 35 -12 70 -23
78 -24 99 -14 111 -17 105 -36 -9 -27 10 -23 29 6 16 24 16 25 -8 25 -13 0
-86 16 -163 36 -76 20 -155 39 -176 41 -27 4 -37 9 -33 19 6 16 -29 20 -39 5z"/>
<path d="M1063 512 c-39 -18 -43 -32 -10 -32 30 0 59 22 49 36 -5 8 -16 7 -39
-4z"/>
<path d="M2792 492 c-2 -31 -4 -33 -34 -30 -25 2 -33 8 -33 23 0 11 -7 21 -16
23 -10 2 -16 -3 -16 -10 2 -14 -11 -235 -19 -335 -4 -53 -2 -63 11 -63 14 0
15 11 10 73 -3 50 -2 67 5 57 7 -11 10 17 9 94 -1 117 5 132 48 115 30 -11 36
-11 29 0 -4 5 -1 11 5 13 6 2 9 19 6 38 l-4 35 -1 -33z"/>
<path d="M933 492 c-18 -2 -33 -8 -33 -14 0 -6 -8 -7 -17 -3 -10 3 -46 1 -81
-6 -46 -9 -59 -15 -45 -20 17 -7 17 -8 -1 -8 -12 -1 -16 -6 -12 -17 3 -9 6
-18 6 -21 0 -2 7 3 16 12 9 9 31 15 53 15 41 -2 122 17 136 31 5 5 22 9 37 9
18 0 28 5 28 15 0 14 -7 15 -87 7z"/>
<path d="M1301 480 c-27 -10 -39 -20 -32 -24 6 -4 9 -12 5 -17 -3 -5 -9 -7
-14 -4 -4 3 -13 -2 -20 -10 -14 -17 -50 -20 -50 -4 0 5 4 8 9 5 5 -3 11 1 15
9 10 26 -11 25 -29 -1 -19 -29 -19 -29 16 -37 19 -5 34 1 62 24 21 17 35 35
31 40 -3 6 5 7 20 3 17 -4 31 -1 41 9 31 32 14 34 -54 7z"/>
<path d="M2543 488 c1 -10 -17 -12 -72 -10 -61 2 -75 0 -87 -15 -20 -26 -17
-39 4 -20 26 24 177 25 168 2 -3 -9 -13 -40 -22 -70 l-15 -55 -65 1 c-35 1
-64 4 -64 8 0 3 -19 6 -43 6 -81 -1 -39 -20 69 -32 60 -6 110 -12 112 -12 1
-1 2 -45 2 -98 1 -54 4 -117 9 -139 l8 -42 -66 1 c-36 1 -69 6 -73 12 -5 7 -8
6 -8 -1 0 -7 -11 -9 -26 -6 -19 3 -22 7 -12 14 8 5 2 6 -17 2 -46 -9 -55 -13
-55 -23 0 -5 61 -10 139 -10 l140 -2 -4 33 c-27 229 -28 262 -8 348 l20 85 33
-2 c20 -1 28 2 21 7 -11 6 -11 9 0 13 8 3 -2 4 -23 1 -20 -3 -39 0 -43 6 -9
14 -26 13 -22 -2z"/>
<path d="M1114 462 c-16 -10 -37 -16 -46 -14 -10 2 -18 -1 -18 -7 0 -6 6 -11
13 -11 22 0 86 21 92 30 11 18 -12 19 -41 2z"/>
<path d="M1380 472 c0 -4 -18 -18 -40 -32 -23 -14 -40 -32 -40 -43 0 -10 5
-15 10 -12 6 4 8 10 5 15 -3 4 3 14 13 21 15 13 16 12 3 -3 -8 -11 -9 -18 -3
-18 6 0 21 14 34 30 12 17 28 30 35 30 7 0 13 5 13 10 0 6 -7 10 -15 10 -8 0
-15 -3 -15 -8z"/>
<path d="M2970 451 c-8 -6 -18 -7 -24 -4 -5 3 -6 1 -2 -5 7 -12 -4 -16 -36
-13 -29 3 -20 -17 17 -41 19 -13 37 -31 41 -40 6 -19 34 -25 34 -7 0 5 -4 7
-10 4 -5 -3 -10 -2 -10 4 0 5 5 13 10 16 15 9 12 42 -6 59 -14 15 -11 20 9 17
5 -1 6 3 2 9 -7 12 -6 12 -25 1z m3 -44 c16 -17 20 -37 7 -37 -5 0 -10 7 -10
15 0 9 -6 12 -15 9 -9 -4 -15 0 -15 10 0 19 17 21 33 3z"/>
<path d="M677 443 c-15 -2 -25 -7 -23 -11 2 -4 -12 -8 -32 -8 -53 -2 -142 -25
-142 -36 0 -6 -7 -8 -15 -4 -21 8 -117 -15 -133 -31 -9 -9 -26 -11 -47 -7 -24
4 -34 2 -38 -10 -4 -9 -16 -16 -27 -16 -16 0 -20 -4 -15 -19 4 -12 0 -21 -11
-25 -13 -5 -15 -2 -11 14 6 24 7 24 -68 5 -97 -25 -115 -34 -115 -62 0 -14 4
-21 10 -18 5 3 10 14 10 24 0 19 45 36 82 33 10 -1 18 3 18 8 0 6 11 10 25 10
16 0 25 -6 25 -15 0 -8 -4 -15 -10 -15 -5 0 -10 -10 -10 -21 0 -17 -3 -19 -14
-10 -11 9 -27 7 -70 -9 -30 -12 -58 -26 -62 -32 -4 -6 1 -6 14 1 11 6 29 11
39 11 12 0 6 -8 -20 -25 -20 -14 -37 -33 -37 -41 0 -18 -14 -26 173 98 81 54
150 98 152 98 2 0 11 -8 21 -17 17 -17 17 -17 12 5 -4 16 -2 22 9 22 11 0 14
-6 9 -22 -3 -13 -6 -26 -6 -29 0 -4 -11 -6 -24 -6 -14 0 -49 -21 -83 -49 -32
-27 -105 -82 -161 -123 -56 -41 -102 -78 -102 -83 0 -4 9 -8 20 -8 11 0 20 4
20 9 0 9 48 26 63 23 4 -1 6 4 5 10 -2 7 6 13 17 13 11 0 20 6 20 13 0 16 26
33 39 25 5 -3 6 -1 2 5 -6 10 21 32 36 29 3 -1 10 2 15 7 5 5 2 6 -7 2 -8 -4
-6 -1 4 8 10 8 22 13 27 11 4 -3 11 0 15 6 5 8 3 9 -7 4 -20 -12 -9 -1 35 34
21 17 42 28 47 26 4 -3 11 0 15 6 5 8 2 10 -7 5 -8 -5 2 5 21 20 19 16 41 37
49 46 9 10 26 18 38 18 13 0 22 5 20 12 -1 7 5 13 13 13 8 1 29 7 45 14 17 7
46 17 65 21 l35 8 -29 -21 c-16 -12 -45 -36 -65 -54 -30 -27 -32 -31 -13 -26
13 3 29 14 35 24 7 11 16 19 21 19 5 0 18 8 28 17 15 14 21 14 27 4 7 -10 9
-9 14 3 3 8 1 17 -6 20 -9 3 -8 7 3 15 19 13 31 5 23 -17 -6 -16 -6 -16 11 1
10 9 22 15 27 12 5 -4 9 1 9 9 0 9 -8 16 -17 17 -15 0 -15 2 2 9 21 9 9 10
-38 3z m-214 -70 c7 -6 -21 -32 -35 -33 -13 0 -9 28 5 33 18 8 23 8 30 0z"/>
<path d="M2864 425 c-4 -9 -20 -15 -38 -16 -30 -1 -30 -1 -6 -9 46 -15 58 -12
58 15 0 28 -6 32 -14 10z"/>
<path d="M108 382 c-26 -20 -45 -38 -43 -41 9 -8 81 30 93 49 20 33 -1 29 -50
-8z"/>
<path d="M1098 401 c-40 -14 -46 -19 -42 -38 4 -14 0 -24 -11 -31 -12 -6 -14
-11 -6 -16 6 -4 11 -2 11 3 0 6 7 11 16 11 8 0 12 5 9 10 -3 6 2 10 12 11 16
0 16 1 -1 8 -19 7 -19 8 0 16 10 4 25 9 32 11 27 5 42 14 42 24 0 12 -1 12
-62 -9z"/>
<path d="M1255 382 c-16 -14 -29 -31 -27 -39 2 -7 -4 -16 -13 -19 -12 -5 -13
-9 -4 -21 10 -12 16 -10 35 8 17 16 21 26 13 35 -7 9 -4 18 12 33 33 31 19 34
-16 3z"/>
<path d="M1362 360 c-46 -54 -87 -118 -80 -126 3 -2 13 8 23 23 10 15 38 54
62 86 24 33 43 61 41 63 -2 1 -23 -19 -46 -46z"/>
<path d="M2605 348 c9 -52 9 -53 32 -43 17 8 17 8 1 12 -20 5 -24 23 -5 23 8
1 7 5 -4 13 -9 7 -14 18 -12 25 3 6 -1 12 -7 12 -8 0 -10 -13 -5 -42z"/>
<path d="M2747 367 c-3 -9 3 -13 22 -11 14 1 18 -1 9 -3 -10 -2 -18 -9 -18
-14 0 -5 -8 -9 -17 -10 -11 0 -13 -3 -5 -6 6 -2 10 -9 6 -14 -10 -16 5 -9 31
15 15 14 34 23 43 19 15 -4 15 -3 2 6 -13 9 -13 11 0 12 10 0 8 3 -5 9 -30 13
-62 12 -68 -3z"/>
<path d="M798 334 c-27 -8 -48 -19 -48 -25 0 -6 9 -8 23 -3 29 9 77 33 77 39
0 3 -1 5 -2 4 -2 0 -24 -7 -50 -15z"/>
<path d="M48 317 c-27 -5 -48 -13 -48 -18 0 -12 26 -10 75 5 53 15 33 25 -27
13z"/>
<path d="M1518 325 c-4 -4 -4 -13 -1 -21 4 -11 -7 -14 -49 -14 -30 0 -57 -3
-61 -6 -7 -8 17 -34 32 -34 6 0 11 -7 11 -16 0 -9 6 -14 12 -12 7 3 13 15 13
28 0 13 6 25 12 27 18 6 13 -47 -5 -69 -10 -12 -11 -18 -4 -18 7 0 12 -9 12
-20 0 -11 5 -20 10 -20 6 0 9 3 8 8 -1 4 4 39 11 78 13 69 13 102 -1 89z"/>
<path d="M2863 305 c-17 -19 -17 -20 12 -23 19 -1 25 3 25 18 0 23 -19 26 -37
5z"/>
<path d="M716 303 c-4 -5 -11 -8 -14 -9 -19 -1 -81 -38 -76 -45 2 -4 17 -1 32
7 15 8 39 19 55 24 15 5 27 14 27 20 0 12 -13 13 -24 3z"/>
<path d="M808 270 c-14 -11 -27 -17 -30 -15 -5 6 -118 -42 -118 -49 0 -6 53 9
79 23 12 7 27 11 34 9 15 -3 77 24 77 34 0 17 -20 16 -42 -2z"/>
<path d="M1155 281 c-6 -10 11 -24 32 -27 7 -1 18 5 25 14 11 15 11 15 -3 4
-14 -10 -18 -10 -23 3 -6 17 -22 20 -31 6z"/>
<path d="M2620 251 c0 -34 3 -38 19 -34 24 6 36 33 16 33 -8 0 -15 9 -15 20 0
11 -4 20 -10 20 -5 0 -10 -18 -10 -39z"/>
<path d="M2795 260 c-18 -7 -17 -8 10 -14 17 -4 44 -11 61 -16 41 -13 42 -13
55 11 9 17 8 20 -2 13 -21 -13 -59 -11 -59 3 0 14 -34 16 -65 3z"/>
<path d="M1129 248 c-8 -8 -22 -17 -31 -21 -10 -3 -18 -12 -18 -19 0 -9 3 -10
8 -2 4 6 20 14 35 18 22 5 27 4 21 -6 -5 -10 -4 -10 6 -1 8 7 9 17 3 28 -8 14
-12 15 -24 3z"/>
<path d="M384 191 c-33 -22 -81 -60 -109 -85 -54 -50 -60 -53 -72 -32 -7 13
-11 13 -27 0 -19 -14 -19 -14 -1 -14 24 0 12 -12 -40 -39 -66 -35 -23 -24 59
15 45 21 73 40 69 47 -4 6 0 8 11 4 11 -5 15 -3 10 5 -5 8 -2 9 10 5 11 -5 15
-3 10 5 -5 8 -2 9 10 5 9 -4 15 -3 12 1 -3 5 16 19 42 32 26 12 41 25 35 27
-7 3 -13 9 -13 14 0 5 11 4 24 -2 18 -9 30 -7 55 5 17 9 31 12 31 6 0 -5 16
-2 36 7 l36 17 -27 9 c-16 6 -30 6 -34 1 -7 -11 -57 -34 -72 -34 -6 0 -6 7 1
20 14 27 11 26 -56 -19z"/>
<path d="M787 205 c-19 -18 -22 -35 -7 -35 14 0 13 -43 -2 -58 -7 -7 -23 -12
-36 -12 -13 0 -21 -4 -17 -10 4 -6 15 -8 26 -5 11 4 19 2 19 -4 0 -6 -6 -11
-14 -11 -8 0 -17 -9 -21 -19 -3 -11 -12 -22 -20 -25 -20 -7 -19 -26 1 -26 8 0
13 4 10 9 -6 10 20 35 47 44 10 4 15 11 12 17 -3 6 -3 19 0 30 5 17 10 18 27
9 15 -8 23 -8 32 1 8 8 6 9 -8 4 -17 -7 -18 -4 -13 24 6 27 4 32 -13 32 -11 0
-20 7 -20 15 0 15 26 20 54 9 11 -4 14 -14 10 -33 -6 -26 -6 -26 10 3 19 33
13 43 -30 52 -22 4 -36 1 -47 -11z"/>
<path d="M2605 143 c-12 -102 -11 -117 5 -118 25 -1 39 18 29 37 -7 13 -4 26
8 45 12 17 13 24 4 19 -23 -15 -32 16 -10 35 13 11 16 20 9 24 -5 3 -10 0 -10
-7 -1 -8 -6 -6 -14 5 -13 17 -15 13 -21 -40z"/>
<path d="M2720 180 c0 -14 12 -19 61 -24 33 -4 67 -10 75 -13 8 -3 14 0 14 6
0 6 -13 11 -29 11 -43 0 -91 11 -86 20 3 4 -4 10 -15 13 -14 4 -20 0 -20 -13z"/>
<path d="M1036 153 c-12 -12 -5 -21 19 -25 14 -3 28 -1 32 5 3 6 1 7 -5 3 -7
-4 -12 -3 -12 2 0 12 -26 23 -34 15z"/>
<path d="M1400 151 c0 -6 5 -11 12 -11 6 0 3 -7 -8 -15 -18 -14 -16 -15 26
-14 25 0 65 -5 89 -12 38 -11 45 -10 53 4 13 24 47 21 58 -5 7 -19 9 -20 9 -5
1 16 7 18 39 13 20 -3 74 -8 120 -12 79 -6 82 -7 57 -20 -15 -8 -32 -11 -39
-7 -6 4 -20 9 -31 10 -11 2 -30 5 -41 8 -13 3 -27 -2 -35 -12 -12 -14 -11 -15
8 -9 26 8 103 -10 103 -24 0 -6 10 -10 23 -9 12 0 16 3 10 6 -10 3 -9 8 2 20
16 16 75 10 75 -8 0 -5 5 -9 12 -9 9 0 9 3 0 12 -22 22 -12 29 18 13 35 -18
38 -31 10 -40 -27 -9 -15 -25 18 -25 21 0 24 2 12 10 -10 6 -11 10 -2 10 6 0
13 -1 15 -2 1 -2 16 7 33 19 26 19 36 20 70 12 21 -6 44 -11 51 -11 7 -1 10
-5 8 -9 -6 -8 19 -20 53 -26 31 -5 28 0 -15 30 -45 30 -177 48 -186 25 -4 -10
-6 -10 -6 1 -1 11 -4 11 -16 1 -8 -7 -15 -8 -15 -4 0 22 -51 34 -262 61 -26 3
-45 9 -43 14 3 4 -10 5 -30 2 -23 -4 -35 -2 -35 6 0 6 -5 11 -11 11 -5 0 -8
-4 -4 -9 3 -6 -9 -7 -30 -4 -20 3 -41 1 -49 -6 -16 -13 -46 -5 -46 13 0 6 -9
12 -20 13 -11 1 -18 -2 -15 -7 3 -5 1 -12 -5 -15 -6 -4 -9 -1 -8 6 2 7 -5 15
-14 17 -10 2 -18 -1 -18 -7z"/>
<path d="M505 138 c-11 -6 -24 -16 -30 -23 -5 -6 -55 -35 -110 -63 -55 -29
-92 -52 -82 -52 23 0 188 91 194 107 3 6 10 10 17 7 7 -3 19 2 26 11 17 20 10
26 -15 13z"/>
<path d="M1002 107 c-8 -9 -4 -15 14 -24 14 -6 26 -7 30 -2 3 5 9 7 14 4 5 -3
11 -1 15 4 6 11 -25 31 -48 31 -8 0 -19 -6 -25 -13z"/>
<path d="M1588 91 c-24 -24 -23 -26 15 -28 23 -1 27 1 13 6 -14 5 -16 10 -8
15 13 8 16 26 5 25 -5 0 -16 -8 -25 -18z"/>
<path d="M2672 50 c2 -29 0 -40 -12 -44 -9 -2 -6 -4 7 -5 26 -1 41 18 23 29
-8 5 -9 9 -1 11 13 5 3 49 -11 49 -6 0 -8 -18 -6 -40z"/>
<path d="M2720 50 c0 -28 4 -40 14 -40 23 0 29 33 9 48 -17 14 -16 14 5 9 19
-4 21 -3 11 9 -22 27 -39 16 -39 -26z"/>
<path d="M953 61 c-11 -17 -8 -19 20 -24 18 -2 38 0 46 7 12 9 12 8 1 -11 -8
-11 -19 -19 -26 -16 -6 2 -15 0 -19 -6 -12 -20 34 -5 60 19 26 24 35 50 13 34
-20 -14 -73 -11 -70 4 3 18 -12 14 -25 -7z"/>
<path d="M1324 64 c3 -9 6 -19 6 -22 0 -4 5 0 10 8 8 13 10 13 10 -2 0 -12 12
-19 37 -24 29 -5 39 -3 50 12 12 17 11 19 -14 25 -15 4 -45 9 -66 12 -32 5
-38 3 -33 -9z"/>
<path d="M646 39 c-26 -30 -29 -56 -4 -31 7 7 20 12 30 12 19 0 23 16 9 38 -6
10 -15 6 -35 -19z"/>
<path d="M1460 53 c0 -16 42 -42 76 -48 34 -5 43 -3 48 11 4 9 5 18 4 19 -6 4
-128 21 -128 18z"/>
<path d="M2070 22 c0 -14 10 -17 58 -18 31 -1 48 0 37 3 -11 2 -37 11 -57 19
-35 13 -38 12 -38 -4z"/>
<path d="M1610 15 c7 -8 19 -15 26 -15 8 0 14 7 14 15 0 10 -10 15 -26 15 -22
0 -25 -2 -14 -15z"/>
</g>
</svg>
