<?xml version="1.0" standalone="no"?>
<!DOCTYPE svg PUBLIC "-//W3C//DTD SVG 20010904//EN"
 "http://www.w3.org/TR/2001/REC-SVG-20010904/DTD/svg10.dtd">
<svg version="1.0" xmlns="http://www.w3.org/2000/svg"
 width="300.000000pt" height="169.000000pt" viewBox="0 0 300.000000 169.000000"
 preserveAspectRatio="xMidYMid meet">
<metadata>
Created by potrace 1.10, written by Peter Selinger 2001-2011
</metadata>
<g transform="translate(0.000000,169.000000) scale(0.100000,-0.100000)"
fill="#000000" stroke="none">
<path d="M175 1680 c66 -8 95 -18 95 -31 0 -4 7 -6 15 -2 9 3 23 -1 33 -10 9
-8 37 -18 61 -22 24 -4 77 -24 119 -46 61 -31 79 -36 95 -27 18 9 16 12 -27
30 -25 11 -46 24 -46 28 0 5 -9 6 -20 3 -12 -3 -20 0 -20 6 0 7 4 9 10 6 5 -3
7 0 4 8 -4 11 -16 13 -45 10 -27 -4 -39 -2 -39 7 0 7 -7 10 -16 6 -17 -6 -99
19 -118 36 -6 4 -44 7 -85 7 l-76 -2 60 -7z"/>
<path d="M478 1679 c13 -5 28 -7 32 -4 5 3 11 1 15 -5 8 -12 45 -13 45 -1 0
14 -27 21 -73 20 -37 0 -39 -1 -19 -10z"/>
<path d="M606 1656 c19 -25 44 -35 44 -16 0 5 13 7 29 4 16 -4 32 -1 35 5 5 7
-8 11 -39 11 -26 0 -56 5 -67 11 -20 11 -20 11 -2 -15z"/>
<path d="M745 1650 c-6 -10 -4 -11 25 -14 8 0 19 -11 25 -23 5 -13 19 -23 30
-23 18 0 18 2 -6 24 -36 33 -66 48 -74 36z"/>
<path d="M737 1597 c3 -15 12 -22 29 -23 31 -2 30 0 -5 25 l-28 20 4 -22z"/>
<path d="M840 1526 c0 -15 12 -21 34 -17 5 1 6 -6 2 -15 -4 -11 -2 -15 8 -11
7 3 19 0 26 -6 9 -9 11 -9 7 -1 -10 18 16 23 63 13 24 -6 49 -8 56 -5 8 3 16
1 19 -4 4 -6 16 -9 28 -9 18 1 19 2 4 6 -10 3 -16 10 -14 16 3 8 -16 13 -60
14 -97 3 -142 10 -159 23 -11 10 -14 9 -14 -4z"/>
<path d="M1118 1464 c6 -3 12 -14 12 -25 0 -10 5 -19 10 -19 6 0 10 5 10 10 0
6 5 10 10 10 6 0 10 -7 10 -15 0 -8 7 -15 16 -15 8 0 12 -4 9 -10 -3 -5 -2
-10 4 -10 5 0 16 -3 25 -6 11 -4 16 -1 16 10 0 9 -4 16 -9 16 -5 0 -22 11 -38
24 -16 14 -43 27 -59 30 -16 4 -23 3 -16 0z"/>
<path d="M236 1432 c-7 -11 16 -22 45 -22 23 0 25 15 3 24 -23 9 -26 8 -18 -6
6 -10 4 -10 -8 0 -10 8 -19 9 -22 4z"/>
<path d="M1257 1381 c3 -12 12 -17 28 -16 16 2 25 -3 30 -18 4 -14 8 -17 12
-10 3 9 19 1 49 -23 24 -20 44 -33 44 -29 0 4 7 2 15 -5 8 -7 15 -10 15 -7 0
10 -124 98 -158 113 -43 17 -41 18 -35 -5z"/>
<path d="M2947 1338 c-48 -46 -99 -68 -157 -68 -40 0 -37 -7 5 -13 17 -2 38
-7 48 -12 9 -4 27 -5 39 -2 12 4 27 2 34 -4 8 -7 23 -4 48 8 49 23 46 36 -4
18 -39 -14 -40 -14 -30 5 6 11 18 20 28 21 14 0 14 2 -3 9 -18 7 -18 8 8 15
19 5 25 10 17 15 -9 6 -8 10 5 17 10 6 16 16 13 23 -2 7 -22 -5 -51 -32z"/>
<path d="M160 1353 c40 -7 48 -23 12 -23 -18 0 -32 -5 -32 -11 0 -7 -11 -9
-30 -5 -17 3 -29 2 -26 -3 7 -11 86 -19 86 -9 0 19 48 5 78 -22 49 -44 48 -37
0 24 -38 48 -47 55 -78 54 -27 -1 -29 -2 -10 -5z"/>
<path d="M32 1342 c-17 -2 -32 -7 -32 -13 0 -11 47 -11 74 0 26 10 2 18 -42
13z"/>
<path d="M2390 1310 c-6 -11 -27 -27 -46 -35 -20 -8 -33 -19 -30 -24 6 -9 130
-27 156 -22 8 1 27 2 41 2 14 -1 34 6 45 14 17 13 17 14 2 15 -10 0 -33 9 -53
20 -20 11 -42 20 -49 20 -7 0 -19 7 -26 15 -17 20 -27 19 -40 -5z"/>
<path d="M2742 1298 c-7 -7 -12 -9 -12 -5 0 4 -9 3 -20 -3 -11 -6 -37 -11 -57
-11 -49 -1 -73 -8 -73 -21 0 -7 4 -7 13 0 6 5 31 10 55 9 l43 0 -61 -59 c-34
-32 -59 -62 -56 -67 3 -5 -6 -9 -22 -8 -68 1 -81 -9 -36 -30 21 -10 33 -9 67
6 91 39 137 64 137 72 0 15 -38 10 -44 -6 -3 -8 -14 -15 -25 -15 -11 0 -21 -3
-24 -7 -2 -5 -2 -3 -1 4 2 6 -5 14 -14 16 -16 4 -15 5 1 6 9 0 17 6 17 11 0 6
10 15 23 21 54 25 69 37 55 45 -9 6 7 12 45 19 32 5 58 14 58 20 -1 14 -55 17
-69 3z"/>
<path d="M2265 1259 c-4 -5 -21 -8 -38 -5 -31 6 -32 6 -5 -5 21 -8 33 -7 55 5
19 10 22 15 11 16 -9 0 -20 -5 -23 -11z"/>
<path d="M141 1216 c2 -2 27 -6 54 -10 34 -4 45 -3 35 4 -14 9 -99 15 -89 6z"/>
<path d="M2056 1205 c-3 -8 -9 -14 -13 -13 -4 1 -23 -2 -42 -6 -23 -6 -36 -4
-41 4 -13 21 -197 20 -245 -1 -42 -18 -25 -26 19 -9 14 5 28 5 31 1 6 -10 71
-8 82 2 10 11 25 8 18 -3 -4 -6 10 -8 37 -5 25 3 38 2 30 -3 -8 -5 29 -10 91
-11 82 -1 108 2 120 13 9 9 27 14 46 11 17 -2 31 0 31 5 0 5 8 6 17 3 11 -4
12 -8 5 -11 -28 -9 -9 -20 20 -11 17 5 50 6 72 3 29 -5 38 -3 31 4 -17 18
-282 41 -271 24 9 -15 -14 -26 -27 -13 -8 8 -8 11 1 11 7 0 12 5 12 10 0 15
-17 12 -24 -5z"/>
<path d="M655 1201 c-26 -4 -35 -9 -27 -14 6 -5 17 -5 22 -2 6 3 10 1 10 -6 0
-9 4 -9 15 1 8 7 27 9 47 6 l33 -7 -25 15 c-14 9 -27 15 -30 14 -3 0 -23 -4
-45 -7z"/>
<path d="M1434 1192 c-19 -10 -45 -13 -88 -9 -61 6 -61 6 -108 -37 -27 -23
-48 -46 -48 -50 0 -5 -14 -28 -30 -53 -51 -75 -59 -96 -48 -118 9 -16 8 -18
-2 -8 -15 14 -57 -4 -91 -38 -19 -19 -20 -19 -40 16 -20 33 -49 48 -49 25 0
-6 5 -9 12 -8 6 2 17 -8 24 -22 11 -21 11 -27 -7 -46 -15 -16 -16 -21 -5 -21
8 0 13 4 10 8 -7 11 27 27 53 24 14 -1 23 5 27 18 7 28 29 16 40 -21 8 -29 25
-44 27 -24 0 4 2 18 5 32 3 17 1 20 -5 12 -6 -11 -9 -10 -15 3 -9 25 -7 33 7
32 35 -1 54 4 55 16 1 6 5 31 8 55 3 23 10 42 14 42 5 0 11 14 15 30 4 17 10
28 15 25 4 -3 13 2 20 10 18 22 32 18 20 -5 -6 -11 -8 -24 -5 -29 3 -5 -1 -12
-7 -14 -8 -3 -5 -6 6 -6 12 -1 16 4 13 13 -6 16 13 66 26 66 7 0 11 -26 7 -45
-1 -5 -4 -21 -7 -35 -2 -13 -8 -29 -12 -35 -17 -21 -29 -72 -20 -86 7 -11 9
-10 9 4 0 9 4 17 9 17 11 0 41 131 41 182 0 21 4 37 9 34 5 -4 11 -1 13 6 7
19 244 20 280 2 15 -8 51 -14 80 -13 l53 0 -54 15 c-29 8 -59 13 -65 12 -6 -1
-23 6 -38 15 -33 23 -118 28 -154 9z m-281 -214 c6 -20 -4 -48 -17 -48 -8 0
-11 11 -8 30 4 31 17 40 25 18z"/>
<path d="M528 1193 c6 -3 10 -9 6 -14 -3 -5 6 -9 20 -9 15 0 26 6 26 13 0 9
-12 14 -32 14 -18 1 -27 -1 -20 -4z"/>
<path d="M2967 1194 c-3 -3 -19 -7 -34 -9 -159 -14 -233 -32 -233 -57 0 -6 6
-5 15 2 20 17 84 30 91 18 4 -5 11 -5 18 1 7 6 15 8 18 6 3 -3 18 -1 33 5 25
9 27 9 15 -5 -19 -23 -10 -24 43 -7 46 15 85 52 54 52 -8 0 -16 -3 -20 -6z"/>
<path d="M2380 1180 c0 -5 13 -10 29 -10 17 0 33 5 36 10 4 6 -8 10 -29 10
-20 0 -36 -4 -36 -10z"/>
<path d="M3 1155 c0 -30 5 -31 23 -7 12 16 13 15 14 -5 0 -13 -4 -23 -10 -23
-5 0 -7 -7 -3 -15 3 -9 11 -14 17 -12 11 4 12 9 15 51 1 18 2 18 20 2 11 -10
27 -19 37 -20 9 -2 19 -11 20 -21 1 -10 7 -22 12 -27 6 -6 8 1 5 19 -4 27 -3
27 35 -14 45 -48 63 -56 37 -16 l-18 26 32 -22 c17 -12 29 -26 26 -30 -2 -5 7
-13 20 -19 14 -7 25 -16 25 -22 0 -6 -6 -8 -12 -5 -7 4 -4 -1 7 -10 11 -9 30
-14 42 -12 15 3 23 -2 26 -15 7 -25 36 -13 48 21 8 20 12 22 19 11 6 -8 10
-10 10 -5 0 6 12 11 28 11 60 2 70 5 76 19 4 13 2 14 -14 5 -11 -6 -24 -9 -28
-6 -4 2 -33 7 -65 10 -32 3 -62 8 -67 11 -6 3 -10 0 -10 -8 0 -8 -8 -21 -17
-28 -15 -11 -16 -11 -5 1 17 19 15 29 -5 26 -21 -4 -63 14 -63 26 0 10 7 10
29 -1 10 -6 23 -6 32 0 11 7 10 9 -5 9 -11 0 -17 3 -14 6 9 8 78 12 78 5 0
-10 39 -11 45 -1 2 4 -2 13 -10 20 -12 10 -31 10 -93 0 l-78 -13 -95 45 c-52
25 -110 49 -130 52 -34 6 -36 5 -36 -19z"/>
<path d="M1048 1169 l-23 -5 24 -8 c24 -8 159 -11 166 -4 8 8 -144 23 -167 17z"/>
<path d="M963 1141 c-10 -10 -28 -22 -40 -25 -18 -6 -22 -4 -17 8 3 9 1 16 -6
16 -6 0 -8 -5 -4 -11 5 -8 -7 -10 -42 -5 -52 6 -144 -2 -144 -13 0 -4 49 -7
109 -6 83 0 107 -3 104 -12 -3 -7 1 -13 8 -13 21 0 45 18 36 26 -4 4 3 18 15
31 12 13 16 23 10 23 -6 0 -19 -8 -29 -19z"/>
<path d="M2320 1134 c-18 -8 -57 -16 -87 -19 -84 -6 -143 -17 -143 -24 0 -4
-6 -8 -12 -9 -26 -1 -232 -71 -213 -71 11 -1 36 4 55 10 91 28 185 46 221 44
21 -2 39 1 39 6 0 6 4 8 9 5 9 -6 93 18 124 35 11 6 52 11 93 11 50 0 74 4 71
11 -5 16 -119 17 -157 1z"/>
<path d="M254 1132 c3 -6 31 -11 62 -11 70 0 64 9 -12 16 -39 4 -55 2 -50 -5z"/>
<path d="M89 1107 c20 -12 22 -16 9 -28 -8 -7 -13 -21 -10 -31 2 -10 -1 -18
-8 -18 -9 0 -7 -7 5 -20 13 -14 22 -17 29 -10 7 7 7 13 -1 21 -7 7 -8 24 -2
47 4 20 7 37 6 38 -1 1 -13 5 -27 8 l-25 7 24 -14z"/>
<path d="M1899 1115 c-6 -5 -120 -16 -167 -16 -15 1 -21 -3 -16 -11 5 -7 0 -9
-14 -6 -12 3 -26 0 -31 -6 -8 -10 3 -11 52 -5 130 16 174 20 241 24 75 4 103
15 39 15 -22 0 -53 3 -69 6 -16 3 -32 3 -35 -1z"/>
<path d="M1120 1104 c-8 -3 -37 -15 -64 -27 -36 -16 -50 -19 -53 -10 -3 9 -10
10 -23 3 -10 -5 -40 -8 -67 -6 -26 2 -95 1 -152 -3 -75 -4 -112 -3 -135 7 -17
7 -56 15 -86 18 -30 3 -65 7 -78 10 -30 6 -28 -1 10 -27 17 -13 28 -17 23 -10
-5 9 -3 12 6 9 8 -3 15 -11 15 -19 3 -31 5 -33 13 -20 6 9 6 23 0 35 -10 20
-10 20 5 2 12 -15 19 -16 29 -8 8 7 17 8 21 4 4 -4 16 -7 27 -7 10 0 19 -4 19
-10 2 -17 -27 -17 -43 0 -9 9 -18 11 -22 5 -7 -11 24 -75 32 -66 3 3 1 12 -6
19 -9 12 -7 14 11 13 16 -1 24 -10 30 -33 8 -30 28 -47 28 -23 0 6 8 10 18 11
14 0 14 2 -3 8 -11 5 -24 6 -29 3 -5 -3 -7 2 -3 10 3 9 0 21 -6 27 -9 9 -8 10
7 5 15 -6 17 -4 11 7 -6 9 0 8 19 -5 16 -10 25 -12 21 -5 -6 9 -3 11 9 6 13
-5 17 -3 13 5 -3 9 8 13 39 13 35 0 46 -4 56 -23 6 -12 19 -21 27 -20 18 4 13
22 -7 25 -24 3 -23 9 3 21 21 10 26 9 35 -8 6 -11 20 -25 33 -31 20 -11 21
-11 8 5 -20 23 -11 28 66 33 58 4 203 46 203 59 0 5 -41 4 -60 -2z"/>
<path d="M1441 1059 c25 -32 67 -176 61 -207 -2 -6 2 -20 8 -30 8 -14 9 -12 4
11 -3 15 -2 27 3 27 14 0 2 81 -13 87 -12 4 -12 8 -2 20 9 11 9 19 0 34 -15
23 -9 24 23 3 31 -20 32 -12 3 16 -12 11 -31 20 -42 20 -15 0 -17 3 -8 8 12 8
9 10 -53 41 -5 3 2 -11 16 -30z"/>
<path d="M1577 1080 c-39 -7 -54 -16 -45 -26 4 -3 16 0 28 6 16 9 25 8 38 -2
11 -9 14 -10 8 0 -6 11 5 17 27 13 4 0 7 4 7 9 0 11 -7 11 -63 0z"/>
<path d="M184 1047 c-1 -18 -2 -45 -3 -62 -4 -51 10 -85 35 -85 11 0 9 7 -8
30 -19 26 -20 34 -10 51 8 12 10 33 6 55 -8 45 -20 52 -20 11z"/>
<path d="M1390 1044 c5 -19 6 -44 3 -57 -4 -18 -3 -19 6 -7 16 22 14 87 -3 93
-11 4 -12 -2 -6 -29z"/>
<path d="M752 1031 c-7 -4 -8 -12 -2 -21 6 -8 10 -12 10 -7 0 4 13 -7 29 -25
25 -27 32 -31 43 -20 11 11 10 13 -2 10 -8 -2 -14 2 -13 8 1 7 -5 11 -15 10
-10 0 -17 6 -16 14 1 20 -20 40 -34 31z"/>
<path d="M1427 958 c3 -80 2 -82 -11 -48 l-14 35 3 -40 c2 -22 7 -39 13 -38 5
1 9 -18 9 -43 0 -33 -4 -44 -14 -40 -7 3 -13 0 -13 -7 0 -8 -4 -6 -10 3 -5 8
-10 11 -10 5 0 -5 -5 -4 -12 3 -8 8 -8 15 0 24 8 11 6 14 -9 15 -13 1 -19 -3
-16 -11 3 -7 1 -19 -3 -27 -13 -21 -50 17 -50 53 0 27 8 33 38 29 9 -2 7 5 -5
17 -15 16 -20 17 -29 6 -6 -8 -15 -10 -19 -6 -5 4 -5 -1 -2 -11 4 -10 7 -33 7
-50 0 -18 4 -37 8 -43 4 -7 41 -15 83 -19 l76 -7 5 26 c3 14 1 23 -3 20 -5 -3
-9 2 -9 11 0 9 5 13 10 10 6 -3 10 1 10 9 0 9 -5 16 -11 16 -8 0 -7 5 1 15 11
13 15 13 21 3 13 -20 11 15 -3 49 -6 15 -10 32 -9 36 1 5 -3 6 -8 3 -5 -4 -9
6 -9 22 1 16 -3 36 -9 46 -7 13 -9 -7 -6 -66z"/>
<path d="M52 984 c-21 -23 -22 -51 -2 -69 10 -9 24 -30 30 -46 7 -16 17 -29
22 -29 7 0 7 4 1 13 -5 6 -22 35 -38 62 -22 39 -24 46 -8 33 28 -25 38 -22 20
6 -12 17 -13 26 -4 35 6 6 7 11 2 11 -6 -1 -16 -7 -23 -16z"/>
<path d="M2905 978 c-16 -6 -37 -19 -45 -28 -8 -9 -24 -20 -35 -25 -19 -8 -19
-9 4 -13 15 -2 29 2 37 12 6 9 17 16 25 16 23 0 109 33 109 42 0 11 -59 9 -95
-4z"/>
<path d="M108 968 c-15 -12 -15 -15 2 -31 17 -17 17 -17 13 8 -3 15 -1 25 6
25 6 0 11 -11 11 -24 0 -13 6 -29 14 -35 12 -10 12 -6 1 26 -15 42 -24 49 -47
31z"/>
<path d="M200 968 c0 -7 4 -19 9 -27 7 -10 10 -10 16 -1 4 7 1 16 -6 22 -10 6
-6 7 11 3 19 -5 22 -4 10 4 -20 14 -40 14 -40 -1z"/>
<path d="M1540 938 c1 -40 2 -42 15 -24 8 11 15 26 15 33 0 19 18 16 23 -4 4
-15 5 -15 6 2 1 13 4 16 9 8 4 -6 20 -14 35 -17 47 -8 67 -17 62 -27 -4 -5 -1
-9 4 -9 6 0 11 9 11 20 0 16 -7 20 -30 20 -16 0 -30 5 -30 11 0 6 -9 9 -20 6
-10 -3 -24 1 -31 9 -6 8 -24 14 -40 14 -27 0 -29 -2 -29 -42z"/>
<path d="M1214 933 c6 -38 -11 -54 -31 -28 -7 11 -13 15 -13 11 0 -4 8 -19 19
-32 l19 -24 11 28 c9 20 9 35 1 53 -10 22 -10 22 -6 -8z"/>
<path d="M242 920 c2 -22 7 -30 23 -31 19 0 19 -1 1 -8 -17 -7 -18 -8 -3 -14
24 -9 33 14 12 30 -11 7 -14 13 -8 13 6 0 9 9 6 20 -9 33 -34 25 -31 -10z"/>
<path d="M692 934 c-7 -12 -19 -15 -41 -12 -17 2 -31 1 -31 -4 0 -4 4 -8 9 -8
5 0 17 -7 25 -16 15 -14 16 -14 16 2 0 16 1 16 19 0 16 -15 19 -15 24 -1 4 8
12 15 19 15 10 0 10 -2 -1 -9 -7 -5 -9 -11 -4 -14 5 -3 15 -2 23 3 8 5 26 7
40 4 21 -4 19 -1 -10 15 -19 11 -45 20 -58 21 -13 0 -20 4 -17 10 3 6 4 10 1
10 -3 0 -9 -7 -14 -16z"/>
<path d="M867 929 c-30 -23 -60 -73 -50 -83 4 -3 -1 -6 -10 -6 -16 0 -29 -17
-47 -65 -14 -36 4 -23 20 15 7 16 18 30 24 30 6 0 20 14 31 30 11 16 26 30 33
30 7 0 15 7 18 15 5 12 10 13 20 4 11 -9 14 -8 14 4 0 8 3 22 6 31 9 23 -25
20 -59 -5z"/>
<path d="M401 932 c-1 -7 6 -15 14 -18 8 -4 15 -13 15 -21 0 -8 5 -11 10 -8 6
3 10 0 10 -7 0 -9 3 -9 10 2 6 10 10 11 10 3 0 -7 7 -13 16 -13 8 0 13 -4 10
-9 -3 -4 3 -16 14 -26 12 -10 20 -13 20 -7 0 7 -4 12 -10 12 -5 0 -7 7 -4 15
4 8 1 15 -5 15 -18 0 -12 20 7 21 10 0 12 3 4 6 -6 2 -9 10 -6 15 4 7 2 8 -4
4 -6 -3 -15 1 -20 10 -8 15 -10 15 -15 0 -3 -8 -2 -18 3 -21 6 -4 10 -11 10
-17 0 -7 -6 -6 -15 2 -8 7 -15 9 -15 4 -1 -5 -8 4 -16 20 -11 20 -18 25 -24
16 -6 -10 -9 -9 -13 1 -4 11 -6 11 -6 1z"/>
<path d="M587 933 c-13 -12 -7 -59 9 -79 12 -15 15 -16 10 -2 -3 9 0 19 7 22
7 2 4 5 -5 5 -10 1 -18 5 -18 11 0 5 8 7 18 4 16 -5 16 -5 0 6 -9 6 -15 17
-12 25 6 16 2 20 -9 8z"/>
<path d="M2988 935 c-3 -3 -18 -8 -34 -11 -72 -11 -73 -12 -61 -38 11 -23 12
-24 19 -5 6 17 43 26 81 20 4 0 7 8 7 19 0 21 -3 24 -12 15z"/>
<path d="M170 887 c-20 -15 -42 -66 -35 -78 12 -18 22 -8 17 16 -5 27 12 34
25 10 7 -12 11 -8 20 15 13 35 -2 56 -27 37z"/>
<path d="M1138 872 c-4 -15 0 -22 15 -26 29 -7 31 -3 9 24 -19 23 -19 23 -24
2z"/>
<path d="M2791 876 l-24 -13 27 -5 c15 -3 29 -1 32 4 3 4 9 6 14 3 4 -3 10 2
14 10 6 17 -9 21 -19 5 -3 -5 -11 -10 -16 -10 -6 0 -7 5 -4 10 8 13 5 12 -24
-4z"/>
<path d="M2747 874 c-4 -5 -13 -9 -20 -10 -29 -5 -68 -25 -71 -36 -3 -7 -7
-26 -11 -41 -5 -26 -9 -28 -33 -22 -35 9 -102 9 -124 0 -12 -5 -18 -3 -18 5 0
10 -3 10 -14 1 -8 -7 -30 -11 -49 -9 -20 1 -46 -6 -62 -16 -33 -22 -27 -30 11
-16 17 7 51 9 83 5 37 -5 51 -3 47 4 -4 6 1 12 11 13 59 5 80 4 109 -2 40 -9
54 3 54 46 0 31 2 32 54 40 45 8 52 12 47 27 -4 10 -10 15 -14 11z"/>
<path d="M307 857 c-4 -12 1 -24 18 -39 18 -15 23 -28 19 -42 -6 -21 -6 -21 9
-2 12 17 12 22 1 34 -8 7 -14 16 -14 20 0 12 20 38 20 26 0 -5 6 -19 14 -30
12 -15 14 -16 12 -3 -1 10 -8 24 -15 33 -13 15 -15 15 -32 0 -16 -14 -18 -14
-21 3 -3 17 -4 17 -11 0z"/>
<path d="M240 850 c0 -5 -7 -10 -16 -10 -8 0 -12 -5 -9 -10 3 -6 0 -17 -8 -24
-11 -12 -17 -12 -28 -3 -11 10 -11 9 0 -5 17 -22 16 -22 40 4 17 18 23 19 36
8 13 -11 14 -10 9 5 -5 13 -4 16 4 11 7 -4 12 -3 12 3 0 6 -9 15 -20 21 -14 7
-20 7 -20 0z"/>
<path d="M2916 841 c-4 -6 -18 -8 -32 -5 -25 7 -30 -1 -14 -26 15 -24 -20 -30
-58 -9 -33 17 -34 17 -54 -3 -14 -14 -17 -23 -9 -31 8 -8 11 -7 11 5 0 9 6 18
13 21 19 6 47 -4 40 -16 -4 -7 6 -8 30 -4 30 5 37 3 37 -10 0 -9 3 -13 7 -9
11 11 12 35 2 42 -16 10 -10 24 11 24 12 0 31 -9 43 -21 19 -17 23 -18 25 -5
2 9 10 16 18 16 29 0 13 17 -18 18 -17 0 -34 6 -38 12 -6 9 -9 9 -14 1z"/>
<path d="M17 831 c-18 -7 -18 -7 0 -27 10 -11 14 -13 8 -5 -8 12 -5 13 20 9
17 -3 39 -2 50 2 17 7 17 9 3 9 -27 1 -32 2 -48 11 -8 4 -23 4 -33 1z"/>
<path d="M2713 813 c-16 -6 -17 -30 -1 -39 7 -5 9 -2 5 9 -4 11 2 19 21 26 21
7 22 9 7 9 -11 0 -26 -2 -32 -5z"/>
<path d="M1017 789 c-8 -10 -17 -16 -21 -12 -4 4 -4 -1 0 -11 6 -15 3 -17 -13
-12 -14 4 -23 1 -27 -9 -8 -22 23 -19 54 5 14 11 35 20 47 20 34 0 36 17 3 28
-25 9 -32 8 -43 -9z"/>
<path d="M1111 794 c6 -7 18 -10 27 -8 14 5 13 2 -2 -10 -11 -9 -15 -16 -9
-16 7 0 15 5 18 10 3 6 14 10 23 10 16 -1 16 -2 0 -14 -10 -7 -15 -16 -11 -20
3 -3 15 2 26 11 10 10 21 17 23 16 2 -2 18 -3 36 -3 47 0 24 14 -25 15 -23 0
-41 5 -40 10 1 6 -16 10 -38 11 -30 0 -36 -3 -28 -12z"/>
<path d="M1566 765 c-8 -21 3 -43 25 -50 10 -4 19 -11 19 -16 0 -5 13 -8 29
-7 17 1 38 -5 49 -15 10 -9 23 -17 29 -17 6 0 13 -5 15 -12 2 -6 20 -17 39
-23 23 -8 33 -18 32 -30 -1 -16 6 -17 74 -11 42 3 93 6 114 6 31 0 38 4 41 23
2 16 9 21 25 19 12 -2 24 2 28 8 3 5 25 10 48 10 47 0 60 7 70 33 5 14 18 17
68 17 51 0 60 2 50 14 -15 18 -97 9 -131 -15 -26 -17 -94 -35 -117 -31 -7 2
-22 -6 -33 -16 -11 -10 -38 -25 -60 -32 -33 -11 -42 -11 -57 1 -14 12 -16 12
-8 0 6 -11 3 -13 -13 -9 -12 3 -23 1 -26 -6 -3 -8 -7 -7 -14 2 -5 8 -15 12
-23 11 -16 -3 -89 33 -120 59 -11 9 -23 17 -27 17 -4 1 -23 9 -42 19 -30 16
-33 17 -21 3 21 -26 -1 -20 -31 8 -16 15 -25 31 -22 40 4 8 4 15 1 15 -3 0 -7
-7 -11 -15z"/>
<path d="M160 755 c0 -8 8 -15 18 -16 10 0 12 -3 5 -6 -7 -2 -13 -12 -13 -21
1 -14 3 -14 12 3 21 34 20 55 -2 55 -11 0 -20 -7 -20 -15z"/>
<path d="M1103 722 c-3 -14 -11 -18 -30 -14 -16 3 -24 1 -20 -5 6 -9 18 -10
62 -4 14 1 17 41 3 41 -5 0 -12 -8 -15 -18z"/>
<path d="M1348 721 c-7 -12 -22 -21 -33 -21 -11 0 -27 -5 -35 -10 -13 -8 -13
-10 1 -10 26 0 79 21 74 30 -3 5 1 10 7 13 7 2 10 8 6 12 -4 4 -13 -2 -20 -14z"/>
<path d="M2698 717 c-9 -10 -22 -12 -47 -6 -25 6 -38 4 -49 -8 -15 -14 -14
-15 5 -9 12 4 24 3 27 -2 3 -5 37 -9 76 -10 54 0 70 3 70 14 0 11 -4 12 -18 5
-10 -6 -29 -7 -41 -4 -17 4 -19 8 -10 19 15 18 4 18 -13 1z"/>
<path d="M690 709 c-23 -10 -24 -11 -8 -23 10 -7 14 -17 10 -21 -4 -5 -2 -5 5
-1 7 4 9 14 6 23 -4 10 -2 14 4 10 6 -4 13 0 17 8 6 17 1 18 -34 4z"/>
<path d="M107 685 c10 -13 21 -25 26 -25 14 0 7 38 -9 44 -30 11 -35 6 -17
-19z"/>
<path d="M2343 697 c5 -16 103 -19 116 -3 7 9 -6 12 -55 14 -48 1 -64 -2 -61
-11z"/>
<path d="M2909 686 c-11 -23 -12 -23 -57 -10 -58 18 -67 18 -48 -1 8 -8 21
-15 28 -15 17 0 86 -24 94 -33 4 -4 18 -7 31 -7 13 0 23 -5 23 -11 0 -5 5 -7
12 -3 8 5 6 11 -5 19 -10 7 -17 18 -17 26 0 12 -2 12 -9 0 -11 -17 -51 -5 -51
15 0 8 4 13 8 10 4 -2 8 4 8 15 0 25 -4 24 -17 -5z"/>
<path d="M1397 686 c-4 -9 -17 -13 -36 -12 -17 1 -31 -2 -31 -7 0 -5 11 -7 25
-5 14 3 25 1 25 -3 0 -5 -7 -9 -15 -9 -8 0 -15 -5 -15 -10 0 -7 6 -7 19 0 11
5 26 7 34 5 7 -3 19 0 25 8 9 11 8 18 -7 31 -16 14 -19 15 -24 2z"/>
<path d="M2479 698 c-1 -2 -3 -15 -5 -30 -2 -24 1 -28 21 -28 13 0 26 -4 29
-8 2 -4 18 -9 35 -10 23 -2 29 1 25 12 -3 8 -12 12 -20 9 -8 -3 -21 0 -29 7
-8 7 -15 9 -15 6 0 -4 -9 -2 -21 4 -12 7 -18 18 -15 26 4 11 0 22 -5 12z"/>
<path d="M2532 691 l-33 -6 35 -11 c32 -10 36 -9 36 7 0 11 -1 18 -2 18 -2 -1
-18 -4 -36 -8z"/>
<path d="M14 665 c-7 -16 15 -69 24 -60 3 2 -1 11 -8 20 -10 11 -10 18 -1 29
8 10 9 16 1 21 -5 3 -13 -1 -16 -10z"/>
<path d="M63 674 c3 -3 2 -16 -3 -28 -6 -17 -4 -25 12 -35 19 -12 20 -11 13 6
-5 10 -8 28 -8 41 1 12 -4 22 -10 22 -6 0 -8 -3 -4 -6z"/>
<path d="M1503 669 c-10 -4 -12 -8 -5 -8 6 -1 12 -10 12 -21 0 -22 15 -27 26
-9 3 6 1 15 -7 19 -9 6 -2 12 22 19 l34 10 -32 -2 c-17 -1 -40 -4 -50 -8z"/>
<path d="M981 663 c-1 -6 -4 -19 -7 -27 -5 -12 -2 -15 10 -10 9 3 16 1 16 -4
0 -13 -42 -44 -49 -36 -3 3 1 9 9 14 11 7 8 10 -12 10 -16 0 -28 -4 -28 -10 0
-5 5 -10 11 -10 5 0 7 -5 3 -12 -5 -8 -11 -6 -20 6 -9 14 -14 14 -20 4 -5 -7
-9 -19 -11 -27 -2 -16 -23 -32 -34 -26 -8 6 -34 -43 -27 -51 4 -3 9 3 12 14 4
11 21 25 38 31 24 8 29 15 25 31 -3 11 -1 20 4 20 5 0 9 -5 9 -10 0 -20 53 -4
81 25 24 23 26 30 15 39 -8 6 -16 18 -19 26 -3 8 -6 10 -6 3z"/>
<path d="M1134 645 c-19 -15 -19 -16 1 -14 33 2 45 0 45 -10 0 -5 -8 -12 -17
-14 -14 -4 -12 -5 5 -6 20 -1 27 9 23 32 0 4 4 6 10 5 6 -2 14 3 16 10 4 9 -1
10 -21 2 -17 -6 -26 -6 -26 0 0 14 -13 12 -36 -5z"/>
<path d="M1072 641 c-10 -6 -7 -14 12 -32 29 -27 36 -65 10 -55 -22 9 -64 -4
-64 -19 0 -7 -7 -25 -15 -41 -16 -32 -15 -37 7 -29 9 4 14 14 11 24 -3 11 2
21 11 24 9 4 16 13 16 22 0 8 7 15 15 15 8 0 15 -7 15 -15 0 -8 -6 -15 -12
-15 -8 0 -9 -3 -3 -8 14 -10 17 -32 4 -32 -6 0 -3 -7 5 -16 9 -8 16 -24 16
-35 0 -10 6 -19 14 -19 7 0 29 -2 47 -5 24 -4 28 -3 14 3 -11 5 -23 20 -26 33
-7 24 -7 24 -8 2 -1 -27 -31 -32 -31 -5 0 10 -5 23 -12 30 -7 7 -8 12 -2 12 6
0 11 7 11 15 0 8 -4 15 -9 15 -4 0 1 14 12 32 10 17 17 34 15 38 -2 4 8 6 23
5 15 -2 19 0 10 2 -10 2 -18 8 -18 13 0 5 -7 7 -15 3 -17 -6 -47 26 -39 39 6
10 2 10 -14 -1z"/>
<path d="M1270 635 c-9 -10 -16 -12 -25 -5 -13 11 -28 2 -19 -12 3 -5 21 -6
40 -2 27 5 38 2 50 -12 13 -18 14 -18 8 0 -4 11 -1 22 7 27 11 7 11 9 -3 9 -9
0 -23 2 -31 5 -7 3 -20 -1 -27 -10z"/>
<path d="M1614 615 c-4 -8 -10 -12 -15 -9 -5 3 -9 1 -9 -4 0 -6 11 -9 25 -8
17 1 25 7 25 19 0 21 -18 23 -26 2z"/>
<path d="M1690 621 c0 -5 -15 -19 -32 -31 -18 -12 -24 -19 -13 -15 11 4 27 8
35 9 14 3 29 46 16 46 -3 0 -6 -4 -6 -9z"/>
<path d="M2273 622 c-24 -4 -29 -21 -14 -50 5 -9 12 -25 15 -34 3 -10 15 -18
28 -18 13 0 38 -9 56 -20 18 -11 36 -20 41 -20 5 0 26 -8 47 -17 22 -9 48 -16
59 -15 16 0 17 0 3 -4 -25 -7 -23 -28 2 -21 11 3 20 1 20 -5 0 -5 4 -7 9 -3 6
3 8 -3 6 -14 -2 -14 1 -18 15 -14 23 6 31 48 14 70 -9 12 -13 13 -14 5 0 -22
-39 6 -46 34 -3 13 -16 31 -27 39 l-21 15 23 0 c30 0 19 13 -15 17 -29 4 -57
16 -100 42 -29 18 -54 21 -101 13z m82 -25 c7 -7 5 -7 -5 -2 -13 8 -13 6 -1
-8 8 -11 21 -15 36 -11 13 3 26 1 29 -5 5 -7 1 -8 -10 -4 -11 4 -15 2 -11 -4
8 -13 57 -23 57 -12 0 17 40 -31 46 -55 7 -29 -9 -42 -26 -21 -7 8 -20 15 -29
15 -17 0 -132 57 -141 69 -3 5 -11 10 -19 12 -11 4 -11 8 2 21 9 8 13 19 9 23
-4 3 7 3 23 0 17 -4 35 -12 40 -18z"/>
<path d="M2606 615 c-4 -11 3 -17 24 -22 17 -3 30 -10 30 -15 0 -6 6 -6 14 1
10 8 15 8 18 1 2 -6 21 -13 43 -16 38 -5 39 -5 20 11 -17 13 -68 32 -100 36
-5 0 -17 5 -27 10 -11 6 -18 4 -22 -6z"/>
<path d="M1349 604 c12 -25 42 -36 62 -23 10 6 8 9 -8 9 -13 0 -25 -1 -28 -2
-2 -2 -11 6 -20 17 -16 20 -16 20 -6 -1z"/>
<path d="M2080 600 c0 -14 -5 -18 -16 -13 -12 4 -15 2 -12 -8 3 -9 17 -13 42
-11 42 4 66 -11 66 -40 0 -16 -3 -18 -13 -9 -8 6 -17 8 -20 5 -7 -8 70 -74 86
-74 6 0 -1 12 -16 28 -17 18 -26 37 -24 54 1 15 -2 28 -8 29 -5 1 -25 14 -43
30 -39 34 -42 35 -42 9z"/>
<path d="M1250 600 c-10 -6 -11 -10 -2 -10 19 0 14 -20 -5 -20 -16 -1 -16 -2
1 -11 15 -9 16 -13 5 -20 -11 -7 -10 -9 4 -9 14 0 17 -5 12 -20 -4 -14 -2 -20
9 -20 19 0 30 17 14 23 -7 2 -10 8 -6 12 4 4 14 2 23 -5 20 -17 24 -12 18 28
-6 39 -28 42 -39 5 -7 -27 -8 -26 -13 14 -5 35 -9 41 -21 33z"/>
<path d="M2556 596 c4 -11 2 -16 -6 -14 -7 2 -14 -5 -15 -14 -2 -11 6 -19 25
-23 18 -4 27 -11 24 -19 -5 -14 -5 -14 76 -20 l55 -5 -45 20 c-25 11 -57 23
-71 26 -19 3 -25 10 -22 22 2 10 -3 23 -12 31 -13 11 -15 10 -9 -4z"/>
<path d="M1710 580 c-12 -11 -26 -17 -30 -15 -5 3 -6 -5 -3 -17 4 -21 3 -22
-10 -6 -8 11 -21 15 -35 11 -29 -7 -28 -21 1 -20 12 0 29 -3 37 -7 10 -4 19 1
25 16 6 13 16 22 22 21 6 -1 13 7 16 17 6 25 5 25 -23 0z"/>
<path d="M2926 587 c7 -18 54 -41 54 -26 0 6 6 7 13 3 9 -5 9 -4 1 5 -6 6 -20
13 -32 16 -12 2 -27 7 -32 10 -5 3 -7 0 -4 -8z"/>
<path d="M2788 582 c7 -5 10 -16 7 -24 -4 -11 3 -19 24 -26 17 -6 31 -16 31
-21 0 -6 7 -11 15 -11 8 0 23 -4 33 -9 20 -11 52 -23 71 -27 8 -1 18 -9 22
-16 6 -9 9 -10 9 -1 0 7 -9 17 -20 23 -11 6 -18 15 -15 20 3 4 -5 6 -17 2 -11
-3 -19 -1 -16 4 3 5 1 18 -3 29 -9 18 -9 18 -5 -2 5 -30 -9 -29 -50 2 -18 14
-37 25 -43 25 -6 0 -15 9 -21 20 -6 11 -16 20 -23 20 -9 0 -9 -2 1 -8z"/>
<path d="M1352 553 c4 -22 68 -31 68 -9 0 9 -7 13 -20 11 -11 -2 -20 0 -20 6
0 5 -7 9 -16 9 -9 0 -14 -7 -12 -17z"/>
<path d="M1735 553 c-19 -11 -25 -18 -16 -21 7 -2 17 2 22 9 7 12 9 11 9 -1 0
-12 2 -12 9 -2 6 11 9 9 13 -5 7 -25 38 -26 38 -1 0 11 -7 18 -19 18 -11 0
-21 4 -23 9 -1 5 -16 2 -33 -6z"/>
<path d="M2197 556 c-4 -9 -1 -15 5 -13 6 1 13 -4 16 -12 3 -10 -1 -12 -17 -8
l-23 6 24 -22 c13 -12 25 -19 26 -14 2 4 15 7 28 7 31 0 33 -35 3 -43 -12 -3
-18 -10 -15 -16 7 -11 -48 -41 -75 -41 -15 0 -17 -6 -13 -36 2 -20 7 -41 11
-47 3 -6 1 -7 -6 -3 -22 14 -46 -3 -46 -33 0 -16 3 -27 7 -25 3 2 8 -1 10 -8
3 -7 21 -13 42 -14 30 -1 36 1 31 14 -28 74 -37 114 -27 124 8 8 15 8 27 -2
10 -8 15 -9 15 -1 0 6 -5 11 -11 11 -5 0 -7 5 -4 10 10 16 25 12 25 -7 0 -14
2 -15 9 -5 7 11 11 11 22 0 8 -8 22 -17 32 -21 9 -3 17 -13 17 -21 0 -8 5 -18
12 -22 6 -4 8 -3 5 4 -5 6 1 8 15 4 12 -3 17 -7 10 -10 -9 -3 -9 -9 -2 -23 9
-16 14 -17 33 -8 18 9 20 9 10 -2 -7 -7 -13 -18 -13 -24 0 -5 4 -3 10 5 5 8
12 11 16 7 4 -4 -2 -17 -14 -30 -25 -26 -28 -37 -9 -37 6 0 22 17 33 38 24 43
21 50 -51 92 -95 57 -128 99 -89 114 23 9 36 7 30 -3 -7 -11 17 -21 49 -21 13
0 35 -5 49 -11 23 -11 24 -14 11 -33 -23 -32 -18 -42 6 -12 23 29 39 34 39 11
0 -20 26 -19 34 1 3 8 2 12 -3 9 -5 -3 -12 -1 -16 4 -3 6 -26 20 -50 32 -25
12 -45 27 -45 33 0 8 -3 8 -8 0 -8 -13 -55 -26 -47 -14 10 16 -61 83 -82 78
-15 -4 -18 0 -18 20 0 28 -20 41 -28 18z m-24 -270 c22 -17 13 -46 -14 -39
-10 3 -16 9 -13 14 3 5 0 9 -5 9 -6 0 -11 7 -11 15 0 18 19 19 43 1z"/>
<path d="M6 502 c-7 -12 22 -25 36 -16 6 4 14 1 18 -6 5 -8 9 -7 13 4 4 9 1
16 -6 16 -7 0 -22 3 -33 6 -12 3 -24 1 -28 -4z"/>
<path d="M122 493 c10 -13 75 -29 84 -21 2 3 -3 11 -13 19 -11 9 -14 10 -9 2
10 -18 -9 -16 -23 1 -7 8 -21 14 -31 13 -14 -1 -16 -4 -8 -14z"/>
<path d="M1348 502 c-21 -3 -28 -9 -28 -25 0 -16 3 -19 9 -8 5 7 13 11 18 8
12 -7 37 8 32 19 -2 5 -16 8 -31 6z"/>
<path d="M770 484 c0 -8 -4 -12 -10 -9 -5 3 -10 1 -10 -4 0 -6 0 -14 0 -18 0
-5 5 -8 12 -8 6 0 13 12 15 28 2 15 1 27 -2 27 -3 0 -5 -7 -5 -16z"/>
<path d="M1820 492 c0 -14 23 -32 42 -32 23 0 23 9 1 26 -20 15 -43 18 -43 6z"/>
<path d="M2051 485 c-16 -21 -22 -39 -6 -20 16 20 51 22 70 4 6 -6 -4 -7 -25
-3 l-35 7 23 -20 c12 -11 22 -32 22 -47 0 -14 4 -26 9 -26 4 0 6 11 3 25 -2
14 -1 25 4 24 5 -1 18 -1 29 1 19 1 19 2 2 9 -10 4 -17 9 -15 11 1 3 -4 14
-12 26 -16 21 -56 27 -69 9z"/>
<path d="M1457 476 c-3 -8 -3 -24 0 -35 3 -14 1 -21 -8 -21 -11 0 -11 -2 -1
-9 10 -6 6 -16 -18 -40 -16 -18 -24 -31 -16 -28 10 4 13 1 9 -9 -3 -7 0 -14 6
-14 6 0 13 11 17 25 3 14 10 25 16 25 5 0 7 4 4 8 -3 5 2 21 10 37 16 32 15
66 -2 72 -6 2 -14 -3 -17 -11z"/>
<path d="M1564 475 c3 -8 1 -15 -3 -15 -5 0 -12 6 -14 13 -4 7 -6 8 -6 1 -1
-15 39 -39 64 -39 11 1 23 -3 26 -8 3 -5 9 0 11 11 4 15 1 18 -13 15 -10 -3
-25 4 -35 16 -21 24 -39 28 -30 6z"/>
<path d="M1660 471 c0 -6 5 -13 10 -16 7 -4 6 -13 -1 -27 -7 -12 -7 -18 -1
-14 6 3 13 0 16 -6 3 -7 5 -4 5 7 -2 34 1 45 11 45 5 0 7 -6 4 -13 -3 -8 2
-20 11 -27 12 -10 15 -10 15 1 0 11 2 11 10 -1 5 -9 5 -19 -2 -28 -8 -9 -8
-16 1 -25 10 -9 11 -8 5 7 -6 14 -4 17 6 11 10 -6 11 -2 6 18 -3 14 -2 29 4
32 5 3 10 12 10 18 0 9 -2 9 -8 1 -4 -6 -17 -15 -30 -18 -20 -7 -22 -5 -18 18
4 23 1 26 -25 26 -16 0 -29 -4 -29 -9z"/>
<path d="M1030 448 c-12 -8 -12 -9 3 -4 24 8 21 -3 -9 -35 -27 -29 -27 -63 0
-53 8 3 12 12 9 20 -6 16 17 13 88 -12 20 -6 42 -9 48 -4 11 6 -19 21 -52 24
-4 1 -22 18 -40 38 -25 28 -36 34 -47 26z"/>
<path d="M1174 440 c1 -8 11 -16 23 -18 15 -2 19 -8 16 -22 -3 -11 -9 -17 -14
-14 -5 3 -9 -2 -9 -10 0 -13 3 -13 28 1 40 23 37 53 -4 53 -18 0 -34 6 -37 13
-2 7 -3 6 -3 -3z"/>
<path d="M1369 440 c26 -22 46 -25 56 -10 7 11 -35 30 -63 30 -14 -1 -12 -4 7
-20z"/>
<path d="M1809 455 c0 0 -2 -8 -4 -17 -2 -14 4 -18 26 -18 16 0 29 5 29 10 0
6 7 10 15 10 9 0 12 -6 9 -15 -4 -11 1 -15 17 -16 13 -1 35 -4 49 -6 14 -3 37
-5 53 -6 16 -1 27 -8 28 -17 0 -12 2 -12 6 -1 4 10 12 6 29 -14 14 -17 24 -22
24 -14 1 10 4 9 14 -4 12 -15 15 -15 26 -2 11 13 8 16 -17 21 -16 3 -37 18
-47 33 -15 22 -24 26 -52 23 -23 -3 -34 0 -34 9 0 7 -3 10 -6 7 -3 -4 -20 -2
-37 4 -24 7 -121 18 -128 13z"/>
<path d="M2660 450 c0 -5 6 -10 13 -10 14 0 37 -17 85 -62 20 -19 22 -24 9
-33 -11 -8 -12 -13 -2 -21 9 -9 15 -7 23 7 18 28 16 32 -35 82 -44 44 -93 63
-93 37z"/>
<path d="M790 430 c-12 -11 -26 -17 -31 -15 -4 3 -11 0 -15 -6 -4 -8 -3 -9 4
-5 7 4 12 2 12 -3 0 -6 7 -11 15 -11 8 0 15 7 15 16 0 10 6 14 15 11 8 -4 17
-2 20 3 4 6 1 10 -5 10 -6 0 -8 5 -5 10 10 16 0 12 -25 -10z"/>
<path d="M967 434 c-14 -14 -7 -24 16 -20 12 1 21 7 20 12 -3 12 -27 17 -36 8z"/>
<path d="M860 405 c-8 -9 -4 -11 16 -7 25 4 25 3 14 -18 -9 -16 -14 -19 -20
-10 -5 9 -9 9 -14 1 -4 -6 -2 -11 3 -11 6 0 11 -7 11 -15 0 -10 10 -15 30 -15
17 0 34 -7 40 -17 10 -17 11 -16 8 2 -2 11 -14 22 -27 25 -44 10 -36 28 9 20
47 -9 52 -3 10 11 -16 6 -30 17 -30 24 0 18 -37 26 -50 10z"/>
<path d="M1312 404 c-12 -13 -8 -18 11 -15 5 1 21 -8 37 -19 16 -11 31 -16 34
-11 4 5 -6 18 -21 29 -44 30 -47 31 -61 16z"/>
<path d="M2340 390 c0 -5 7 -10 15 -10 7 0 18 -7 23 -15 7 -13 10 -12 19 8 10
22 9 23 -23 25 -19 2 -34 -2 -34 -8z"/>
<path d="M1930 362 c-13 -14 -12 -15 2 -9 9 3 22 -1 28 -9 15 -17 36 -18 46
-3 4 7 0 9 -14 5 -14 -5 -25 -1 -34 12 -12 18 -15 18 -28 4z"/>
<path d="M1490 357 c-16 -13 -23 -97 -8 -97 4 0 8 20 8 45 0 31 5 47 18 54 9
6 13 10 7 10 -5 0 -17 -5 -25 -12z"/>
<path d="M682 340 c-7 -12 -10 -25 -7 -30 9 -14 -15 -23 -30 -10 -8 7 -16 7
-19 1 -9 -13 45 -30 69 -20 11 4 14 8 8 8 -21 1 -15 21 6 21 14 0 17 6 13 25
-5 30 -23 32 -40 5z"/>
<path d="M980 344 c0 -8 7 -22 15 -30 8 -9 15 -13 15 -9 0 4 7 -1 16 -9 8 -9
25 -16 38 -16 12 0 27 -5 34 -12 6 -6 14 -9 18 -5 11 11 -6 25 -38 33 -39 8
-77 34 -78 52 0 18 -20 15 -20 -4z"/>
<path d="M1063 353 c-7 -3 -13 -8 -13 -13 0 -9 54 -30 76 -30 25 0 15 19 -13
26 -16 4 -30 10 -33 14 -3 4 -11 5 -17 3z"/>
<path d="M2494 349 c-3 -6 -15 -9 -25 -6 -19 5 -22 -12 -4 -25 19 -14 45 -9
38 7 -5 13 -2 14 20 4 15 -7 23 -17 20 -25 -8 -21 25 -17 36 4 12 22 -4 43
-24 35 -8 -2 -23 0 -34 6 -14 8 -22 8 -27 0z"/>
<path d="M1196 335 c-3 -8 -1 -15 5 -15 5 0 2 -11 -7 -25 -9 -14 -14 -29 -10
-32 4 -4 9 3 13 16 3 13 11 20 19 17 7 -3 15 0 18 7 2 7 5 5 5 -5 1 -9 -15
-26 -35 -38 -19 -12 -33 -24 -30 -27 8 -8 86 47 86 62 0 8 -12 18 -26 21 -16
4 -23 12 -20 20 3 8 1 14 -3 14 -5 0 -11 -7 -15 -15z"/>
<path d="M1918 318 c12 -6 22 -15 22 -20 0 -4 9 -8 20 -8 11 0 20 -4 20 -10 0
-5 10 -10 23 -9 12 0 16 3 9 6 -6 2 -9 10 -6 15 4 7 2 8 -4 4 -6 -3 -26 3 -44
14 -18 11 -40 20 -48 19 -9 0 -6 -4 8 -11z"/>
<path d="M2039 314 c-11 -14 -1 -24 25 -25 18 -1 18 -2 -4 -9 l-25 -8 26 -1
c22 -1 27 4 31 27 3 23 0 27 -20 27 -13 0 -28 -5 -33 -11z"/>
<path d="M842 307 c-17 -8 -22 -17 -19 -34 2 -13 -2 -28 -9 -34 -8 -6 -14 -16
-14 -22 0 -15 31 16 34 34 13 66 49 67 63 2 l10 -48 0 46 c0 38 -3 49 -21 57
-14 6 -29 6 -44 -1z"/>
<path d="M736 292 c-7 -12 -1 -17 38 -31 15 -6 26 -7 26 -1 0 5 -10 12 -22 16
-13 4 -26 11 -29 16 -4 7 -9 6 -13 0z"/>
<path d="M2308 279 c0 -13 0 -35 1 -48 1 -14 -9 -35 -25 -52 -15 -16 -25 -31
-22 -34 7 -8 68 16 68 27 0 5 -4 6 -10 3 -5 -3 -10 -1 -10 4 0 6 10 11 23 11
17 0 19 2 8 9 -8 5 -15 28 -17 51 -3 47 -13 66 -16 29z"/>
<path d="M974 269 c-10 -12 -18 -23 -16 -25 1 -2 2 -5 1 -6 -5 -18 -6 -39 -2
-34 4 3 12 1 20 -5 9 -8 13 -8 13 -1 0 6 -4 14 -10 17 -13 8 -13 21 3 37 11
13 21 38 14 38 -2 0 -12 -9 -23 -21z"/>
<path d="M1310 280 c0 -26 21 -60 37 -59 16 1 16 2 0 6 -14 3 -18 12 -14 28 2
15 -1 26 -9 29 -8 3 -14 1 -14 -4z"/>
<path d="M1267 273 c-12 -11 -8 -22 12 -32 16 -9 17 -7 13 14 -4 25 -13 31
-25 18z"/>
<path d="M2930 248 c-15 -15 -25 -18 -28 -10 -3 9 -7 8 -17 -2 -9 -9 -30 -12
-57 -10 -24 2 -37 1 -30 -2 6 -3 10 -10 7 -15 -4 -5 8 -6 27 -3 72 13 109 26
115 39 3 8 9 12 14 9 5 -3 9 0 9 5 0 17 -14 13 -40 -11z"/>
<path d="M578 253 c6 -2 12 -10 12 -17 0 -18 36 -17 54 3 14 15 14 18 1 18 -8
0 -12 -4 -9 -9 3 -4 -4 -8 -15 -8 -11 0 -23 5 -26 10 -3 6 -12 10 -18 9 -9 0
-9 -2 1 -6z"/>
<path d="M1020 243 c0 -23 11 -37 31 -41 9 -1 16 5 16 14 0 10 -7 14 -20 10
-15 -4 -18 -1 -14 15 3 10 1 19 -4 19 -5 0 -9 -8 -9 -17z"/>
<path d="M2080 258 c-1 -5 -3 -18 -4 -30 -1 -14 -9 -22 -25 -25 -37 -5 -39
-13 -3 -13 32 0 75 -31 53 -38 -6 -2 -18 2 -27 8 -12 11 -13 10 -8 -4 3 -9 17
-16 30 -16 28 0 30 7 10 36 -8 11 -16 36 -19 55 -2 19 -5 31 -7 27z"/>
<path d="M2566 216 c3 -8 1 -17 -5 -21 -6 -3 -11 -2 -11 4 0 6 -7 8 -15 5 -8
-4 -15 -10 -15 -16 0 -5 4 -7 9 -4 5 4 11 1 13 -5 3 -9 10 -9 27 0 12 7 20 15
17 18 -3 4 -1 12 5 20 9 10 7 13 -9 13 -14 0 -20 -5 -16 -14z"/>
<path d="M2700 212 c0 -8 8 -10 28 -6 49 12 56 22 14 20 -27 0 -42 -5 -42 -14z"/>
<path d="M2430 209 c0 -5 8 -9 18 -9 16 -1 16 -1 -1 -11 -9 -5 -21 -8 -26 -5
-5 3 -14 -1 -21 -9 -7 -8 -16 -12 -21 -9 -5 3 -16 -2 -25 -10 -9 -9 -20 -14
-25 -11 -5 4 -9 2 -9 -4 0 -6 -7 -7 -17 -4 -11 4 -14 3 -9 -5 7 -11 40 -10
151 6 37 5 51 12 53 25 3 16 1 17 -16 8 -32 -17 -39 -12 -13 8 l24 18 -32 11
c-18 7 -31 7 -31 1z"/>
<path d="M2171 193 c1 -5 1 -20 0 -35 -1 -23 -6 -28 -26 -28 -14 0 -25 -4 -25
-8 0 -4 -12 -9 -26 -10 -15 -1 -34 -7 -42 -14 -11 -10 -17 -9 -28 7 -8 10 -14
14 -14 8 0 -7 5 -15 10 -18 18 -11 11 -23 -10 -18 -19 5 -20 19 -4 71 2 6 -1
12 -6 12 -6 0 -10 -7 -10 -16 0 -8 -4 -13 -9 -10 -5 4 -7 -3 -4 -14 3 -12 0
-20 -6 -20 -7 0 -10 4 -7 8 3 5 -1 9 -9 9 -8 0 -11 -5 -8 -10 3 -5 -1 -13 -8
-18 -11 -7 -10 -9 4 -9 23 0 22 0 57 -10 22 -6 34 -5 44 6 19 19 27 18 19 -2
-5 -15 -3 -15 20 1 14 9 28 16 31 16 16 -1 35 12 29 22 -3 6 -1 7 5 3 7 -4 38
-4 71 0 55 6 58 7 42 23 -9 10 -17 17 -19 15 -2 -1 -14 9 -27 22 -23 23 -46
32 -44 17z"/>
<path d="M2728 195 c-3 -3 -22 -6 -42 -7 -23 -1 -33 -5 -27 -11 12 -12 101 0
101 14 0 10 -23 13 -32 4z"/>
<path d="M557 133 c-12 -12 -17 -13 -17 -4 0 19 -26 -9 -35 -39 -7 -22 -6 -23
8 -11 9 7 15 17 12 21 -3 4 6 11 19 14 13 3 26 13 30 21 7 19 4 19 -17 -2z"/>
<path d="M704 131 c15 -16 15 -19 1 -31 -8 -7 -15 -27 -15 -44 0 -24 3 -27 10
-16 5 8 10 25 10 38 0 12 5 22 10 22 6 0 10 9 10 20 0 11 5 20 12 20 6 0 8 3
5 6 -4 4 -13 1 -22 -6 -10 -8 -15 -9 -15 -1 0 6 -5 11 -12 11 -6 0 -4 -8 6
-19z"/>
<path d="M2581 144 c0 -6 -12 -9 -25 -7 -13 3 -27 0 -30 -6 -5 -7 1 -11 14
-11 12 0 18 -4 15 -10 -3 -6 4 -10 16 -10 20 0 21 -3 16 -50 -5 -41 -3 -50 10
-50 11 0 14 8 11 30 -6 38 0 38 13 0 6 -17 15 -30 20 -30 10 0 -6 47 -23 67
-6 8 -6 13 -1 13 5 0 15 11 21 25 6 14 7 25 2 25 -5 0 -12 -9 -15 -21 -9 -28
-29 -19 -36 17 -4 16 -7 24 -8 18z"/>
<path d="M1797 134 c-3 -3 -3 -12 -1 -19 3 -8 -4 -16 -17 -20 -12 -4 -34 -18
-48 -31 -30 -28 -41 -30 -41 -9 0 14 -4 14 -37 0 -20 -9 -42 -14 -49 -11 -16
6 -27 -21 -12 -30 7 -4 13 -3 15 3 3 7 25 9 64 6 50 -5 59 -3 59 11 0 19 21
21 38 4 7 -7 12 -8 12 -2 0 5 4 2 10 -6 5 -8 12 -11 17 -7 4 4 2 17 -5 27 -23
37 -15 42 52 37 49 -3 63 -1 59 8 -2 7 1 16 7 20 9 6 9 10 -1 16 -20 13 -29
11 -29 -6 0 -18 -1 -18 -34 -6 -17 7 -26 7 -30 -2 -2 -7 -5 -4 -5 6 -1 17 -12
22 -24 11z"/>
<path d="M2495 131 c-3 -5 -18 -12 -34 -16 -16 -3 -32 -13 -35 -22 -4 -8 -13
-13 -21 -9 -8 3 -17 1 -20 -5 -4 -5 -11 -7 -16 -4 -16 10 -79 13 -79 4 0 -11
9 -12 77 -13 29 -1 53 2 53 7 0 4 20 7 43 7 42 0 44 1 45 30 1 31 -3 37 -13
21z"/>
<path d="M645 121 c-7 -12 31 -25 45 -16 6 4 8 11 5 16 -8 12 -42 12 -50 0z"/>
<path d="M2179 71 c18 -12 2 -20 -37 -17 -21 1 -32 -2 -32 -11 0 -8 -11 -18
-25 -23 -33 -13 -32 -15 11 -18 44 -3 59 5 43 24 -14 17 2 19 20 1 11 -9 13
-9 7 1 -7 11 11 16 51 15 7 -1 11 3 8 7 -3 5 10 7 30 6 39 -4 39 8 -1 18 -14
4 -32 2 -39 -4 -9 -8 -15 -8 -20 0 -3 5 -12 10 -18 10 -8 0 -8 -3 2 -9z"/>
<path d="M2660 62 c0 -10 29 -30 34 -24 4 3 10 1 14 -5 5 -7 11 -7 20 3 11 12
10 14 -3 14 -9 0 -14 4 -10 10 3 5 -7 8 -25 7 -16 -1 -30 -3 -30 -5z"/>
<path d="M1897 25 l-28 -25 30 0 c22 0 29 4 27 17 -2 10 2 21 8 25 6 4 7 8 1
8 -5 -1 -23 -12 -38 -25z"/>
<path d="M2370 31 c0 -7 -6 -11 -13 -8 -8 3 -14 -1 -14 -9 0 -15 32 -20 41 -6
2 4 1 14 -5 22 -7 12 -9 12 -9 1z"/>
</g>
</svg>
